<?xml version="1.0" encoding="UTF-8" standalone="no"?>
<!-- Created with Inkscape (http://www.inkscape.org/) -->

<svg
   xmlns:dc="http://purl.org/dc/elements/1.1/"
   xmlns:cc="http://creativecommons.org/ns#"
   xmlns:rdf="http://www.w3.org/1999/02/22-rdf-syntax-ns#"
   xmlns:svg="http://www.w3.org/2000/svg"
   xmlns="http://www.w3.org/2000/svg"
   xmlns:xlink="http://www.w3.org/1999/xlink"
   xmlns:sodipodi="http://sodipodi.sourceforge.net/DTD/sodipodi-0.dtd"
   xmlns:inkscape="http://www.inkscape.org/namespaces/inkscape"
   id="svg2"
   sodipodi:docname="bee.svg"
   viewBox="0 0 500 330"
   version="1.1"
   inkscape:version="0.91 r13725">
  <title
     id="title5029">Bee</title>
  <defs
     id="defs4">
    <linearGradient
       id="linearGradient4700">
      <stop
         id="stop4702"
         style="stop-color:#fffbfb"
         offset="0" />
      <stop
         id="stop4704"
         style="stop-color:#7f7d7d"
         offset=".13261" />
      <stop
         id="stop4706"
         style="stop-color:#000000"
         offset="1" />
    </linearGradient>
    <linearGradient
       id="linearGradient4668">
      <stop
         id="stop4670"
         style="stop-color:#fffbfb"
         offset="0" />
      <stop
         id="stop4672"
         style="stop-color:#7f7d7d"
         offset=".36956" />
      <stop
         id="stop4674"
         style="stop-color:#000000"
         offset="1" />
    </linearGradient>
    <linearGradient
       id="linearGradient4644">
      <stop
         id="stop4646"
         style="stop-color:#fffbfb"
         offset="0" />
      <stop
         id="stop4648"
         style="stop-color:#7f7d7d"
         offset=".13689" />
      <stop
         id="stop4650"
         style="stop-color:#000000"
         offset="1" />
    </linearGradient>
    <linearGradient
       id="linearGradient4458">
      <stop
         id="stop4460"
         style="stop-color:#8b2e00;stop-opacity:.67453"
         offset="0" />
      <stop
         id="stop4466"
         style="stop-color:#8b2e00;stop-opacity:.33725"
         offset=".35601" />
      <stop
         id="stop4462"
         style="stop-color:#8b2e00;stop-opacity:0"
         offset="1" />
    </linearGradient>
    <linearGradient
       id="linearGradient4360">
      <stop
         id="stop4362"
         style="stop-color:#780000;stop-opacity:.58019"
         offset="0" />
      <stop
         id="stop4368"
         style="stop-color:#780000;stop-opacity:.27358"
         offset=".23535" />
      <stop
         id="stop4364"
         style="stop-color:#780000;stop-opacity:0"
         offset="1" />
    </linearGradient>
    <linearGradient
       id="linearGradient4315">
      <stop
         id="stop4317"
         style="stop-color:#ffffff;stop-opacity:.57075"
         offset="0" />
      <stop
         id="stop4319"
         style="stop-color:#ffffff;stop-opacity:0"
         offset="1" />
    </linearGradient>
    <linearGradient
       id="linearGradient4191"
       inkscape:collect="always">
      <stop
         id="stop4193"
         style="stop-color:#000000"
         offset="0" />
      <stop
         id="stop4195"
         style="stop-color:#000000;stop-opacity:0"
         offset="1" />
    </linearGradient>
    <linearGradient
       id="linearGradient3998">
      <stop
         id="stop4000"
         style="stop-color:#772626"
         offset="0" />
      <stop
         id="stop4154"
         style="stop-color:#743a31"
         offset=".31729" />
      <stop
         id="stop4006"
         style="stop-color:#714f3d"
         offset=".77504" />
      <stop
         id="stop4152"
         style="stop-color:#ab806a"
         offset=".89538" />
      <stop
         id="stop4002"
         style="stop-color:#e6b197"
         offset="1" />
    </linearGradient>
    <filter
       id="filter4277"
       inkscape:menu="Blurs"
       height="1.5"
       width="1.5"
       color-interpolation-filters="sRGB"
       y="-.25"
       x="-.25"
       inkscape:menu-tooltip="Small-scale roughening and blurring to edges and content"
       inkscape:label="Noisy blur">
      <feGaussianBlur
         id="feGaussianBlur4279"
         stdDeviation="5"
         result="result1" />
      <feTurbulence
         id="feTurbulence4281"
         baseFrequency="0.1"
         seed="0"
         result="result2"
         numOctaves="1"
         type="fractalNoise" />
      <feDisplacementMap
         id="feDisplacementMap4283"
         scale="5"
         yChannelSelector="G"
         in2="result2"
         result="result3"
         xChannelSelector="R"
         in="result1" />
      <feComposite
         id="feComposite4285"
         operator="atop"
         in2="result3" />
    </filter>
    <filter
       id="filter4536"
       inkscape:collect="always"
       color-interpolation-filters="sRGB">
      <feGaussianBlur
         id="feGaussianBlur4538"
         stdDeviation="0.94394882"
         inkscape:collect="always" />
    </filter>
    <filter
       id="filter4604"
       inkscape:collect="always"
       color-interpolation-filters="sRGB">
      <feGaussianBlur
         id="feGaussianBlur4606"
         stdDeviation="1.7169306"
         inkscape:collect="always" />
    </filter>
    <filter
       id="filter4790"
       height="1.5497"
       width="1.2323"
       color-interpolation-filters="sRGB"
       y="-.27487"
       x="-.11617"
       inkscape:collect="always">
      <feGaussianBlur
         id="feGaussianBlur4792"
         stdDeviation="3.3031782"
         inkscape:collect="always" />
    </filter>
    <filter
       id="filter4874"
       inkscape:menu="Blurs"
       height="1.5"
       width="1.5"
       color-interpolation-filters="sRGB"
       y="-.25"
       x="-.25"
       inkscape:menu-tooltip="Small-scale roughening and blurring to edges and content"
       inkscape:label="Noisy blur">
      <feGaussianBlur
         id="feGaussianBlur4876"
         stdDeviation="5"
         result="result1" />
      <feTurbulence
         id="feTurbulence4878"
         baseFrequency="0.1"
         seed="0"
         result="result2"
         numOctaves="1"
         type="fractalNoise" />
      <feDisplacementMap
         id="feDisplacementMap4880"
         scale="5"
         yChannelSelector="G"
         in2="result2"
         result="result3"
         xChannelSelector="R"
         in="result1" />
      <feComposite
         id="feComposite4882"
         operator="atop"
         in2="result3" />
    </filter>
    <linearGradient
       id="linearGradient4949"
       y2="196.46"
       gradientUnits="userSpaceOnUse"
       x2="533.27"
       gradientTransform="translate(-6.4286,-117.14)"
       y1="187.53"
       x1="304.77"
       inkscape:collect="always">
      <stop
         id="stop4478"
         style="stop-color:#502700"
         offset="0" />
      <stop
         id="stop4480"
         style="stop-color:#502700;stop-opacity:.49804"
         offset=".32859" />
      <stop
         id="stop4482"
         style="stop-color:#502700;stop-opacity:0"
         offset="1" />
    </linearGradient>
    <linearGradient
       id="linearGradient4951"
       y2="176.78"
       xlink:href="#linearGradient4458"
       gradientUnits="userSpaceOnUse"
       x2="518.93"
       gradientTransform="translate(-6.4286,-117.14)"
       y1="176.78"
       x1="310.58"
       inkscape:collect="always" />
    <linearGradient
       id="linearGradient4953"
       y2="191.29"
       xlink:href="#linearGradient4458"
       gradientUnits="userSpaceOnUse"
       x2="439.79"
       gradientTransform="translate(-6.4286,-117.14)"
       y1="191.29"
       x1="334.5"
       inkscape:collect="always" />
    <linearGradient
       id="linearGradient4955"
       y2="194.15"
       xlink:href="#linearGradient4458"
       gradientUnits="userSpaceOnUse"
       x2="459.81"
       gradientTransform="translate(-6.4286,-117.14)"
       y1="194.15"
       x1="384.14"
       inkscape:collect="always" />
    <radialGradient
       id="radialGradient4957"
       gradientUnits="userSpaceOnUse"
       cy="320.96"
       cx="395.13"
       gradientTransform="matrix(1.7867,0.98048,-0.51391,0.93646,-158.32,-378.75)"
       r="102.61"
       inkscape:collect="always">
      <stop
         id="stop4886"
         style="stop-color:#9b5e00"
         offset="0" />
      <stop
         id="stop4894"
         style="stop-color:#b27b0e"
         offset=".18440" />
      <stop
         id="stop4892"
         style="stop-color:#c9991c"
         offset=".5" />
      <stop
         id="stop4888"
         style="stop-color:#f8d439"
         offset="1" />
    </radialGradient>
    <radialGradient
       id="radialGradient4959"
       xlink:href="#linearGradient3998"
       gradientUnits="userSpaceOnUse"
       cy="234"
       cx="291.62"
       gradientTransform="matrix(2.2803,0.95582,-0.45812,1.093,-268.77,-305.57)"
       r="61.572"
       inkscape:collect="always" />
    <linearGradient
       id="linearGradient4961"
       y2="278.25"
       gradientUnits="userSpaceOnUse"
       x2="174.51"
       y1="234.81"
       x1="221.48"
       inkscape:collect="always">
      <stop
         id="stop4305"
         style="stop-color:#000000;stop-opacity:0"
         offset="0" />
      <stop
         id="stop4311"
         style="stop-color:#000000"
         offset=".43502" />
      <stop
         id="stop4307"
         style="stop-color:#b1b1b1"
         offset="1" />
    </linearGradient>
    <linearGradient
       id="linearGradient4963"
       y2="215.12"
       gradientUnits="userSpaceOnUse"
       x2="227.73"
       y1="278.25"
       x1="174.51"
       inkscape:collect="always">
      <stop
         id="stop4297"
         style="stop-color:#000000"
         offset="0" />
      <stop
         id="stop4299"
         style="stop-color:#bababa;stop-opacity:0"
         offset="1" />
    </linearGradient>
    <radialGradient
       id="radialGradient4965"
       gradientUnits="userSpaceOnUse"
       cy="227.8"
       cx="212.51"
       gradientTransform="matrix(0.87447,0.3452,-0.5921,1.4999,162.99,-185.61)"
       r="32.189"
       inkscape:collect="always">
      <stop
         id="stop4269"
         style="stop-color:#000000"
         offset="0" />
      <stop
         id="stop4275"
         style="stop-color:#451a00"
         offset=".69460" />
      <stop
         id="stop4271"
         style="stop-color:#8b3500"
         offset="1" />
    </radialGradient>
    <radialGradient
       id="radialGradient4967"
       gradientUnits="userSpaceOnUse"
       cy="203.96"
       cx="228.66"
       gradientTransform="matrix(0.37841,-0.16082,0.13591,0.31978,100.72,190.99)"
       r="20.068"
       inkscape:collect="always">
      <stop
         id="stop4289"
         style="stop-color:#ffffff"
         offset="0" />
      <stop
         id="stop4291"
         style="stop-color:#000000"
         offset="1" />
    </radialGradient>
    <radialGradient
       id="radialGradient4969"
       xlink:href="#linearGradient4700"
       gradientUnits="userSpaceOnUse"
       cy="299.21"
       cx="218.18"
       gradientTransform="matrix(1.7325,0.60633,-1.791,5.1174,376.09,-1367.6)"
       r="10.961"
       inkscape:collect="always" />
    <radialGradient
       id="radialGradient4971"
       xlink:href="#linearGradient4700"
       gradientUnits="userSpaceOnUse"
       cy="335.23"
       cx="210.21"
       gradientTransform="matrix(1.1845,-0.015307,0.054415,4.2108,-57.022,-1075.7)"
       r="6.7828"
       inkscape:collect="always" />
    <radialGradient
       id="radialGradient4973"
       xlink:href="#linearGradient4700"
       gradientUnits="userSpaceOnUse"
       cy="353.46"
       cx="201.32"
       gradientTransform="matrix(0.56579,0.82455,-2.8299,1.9418,1087.7,-498.39)"
       r="10.349"
       inkscape:collect="always" />
    <radialGradient
       id="radialGradient4975"
       xlink:href="#linearGradient4668"
       gradientUnits="userSpaceOnUse"
       cy="297.85"
       cx="304.3"
       gradientTransform="matrix(1,0,0,2.0642,0,-318.41)"
       r="5.4107"
       inkscape:collect="always" />
    <radialGradient
       id="radialGradient4977"
       xlink:href="#linearGradient4668"
       gradientUnits="userSpaceOnUse"
       cy="307.85"
       cx="301.52"
       gradientTransform="matrix(1,0,0,0.96337,0,11.327)"
       r="4.875"
       inkscape:collect="always" />
    <radialGradient
       id="radialGradient4979"
       xlink:href="#linearGradient4644"
       gradientUnits="userSpaceOnUse"
       cy="326.7"
       cx="290.24"
       gradientTransform="matrix(0.80869,0.58824,-2.3342,3.209,815.21,-894.15)"
       r="18.5"
       inkscape:collect="always" />
    <radialGradient
       id="radialGradient4981"
       xlink:href="#linearGradient4644"
       gradientUnits="userSpaceOnUse"
       cy="371.47"
       cx="258.68"
       gradientTransform="matrix(0.85156,0.52426,-1.6118,2.6181,640.71,-741.98)"
       r="15.668"
       inkscape:collect="always" />
    <radialGradient
       id="radialGradient4983"
       gradientUnits="userSpaceOnUse"
       cy="395.46"
       cx="247.49"
       gradientTransform="matrix(1,0,0,0.84723,0,60.596)"
       r="4.8108"
       inkscape:collect="always">
      <stop
         id="stop4628"
         style="stop-color:#fffbfb"
         offset="0" />
      <stop
         id="stop4634"
         style="stop-color:#7f7d7d"
         offset=".5" />
      <stop
         id="stop4630"
         style="stop-color:#000000"
         offset="1" />
    </radialGradient>
    <radialGradient
       id="radialGradient4985"
       xlink:href="#linearGradient4668"
       gradientUnits="userSpaceOnUse"
       cy="398.45"
       cx="238.14"
       gradientTransform="matrix(1,0,0,0.6689,0,135.05)"
       r="12.637"
       inkscape:collect="always" />
    <radialGradient
       id="radialGradient4987"
       xlink:href="#linearGradient4700"
       gradientUnits="userSpaceOnUse"
       cy="268.86"
       cx="332.2"
       gradientTransform="matrix(1.6127,0.39389,-0.074565,0.30529,-183.5,65.93)"
       r="34.621"
       inkscape:collect="always" />
    <radialGradient
       id="radialGradient4989"
       xlink:href="#linearGradient4700"
       gradientUnits="userSpaceOnUse"
       cy="317.37"
       cx="380.38"
       gradientTransform="matrix(1.0626,-0.41501,1.0193,2.6099,-347.32,-359.26)"
       r="21.673"
       inkscape:collect="always" />
    <radialGradient
       id="radialGradient4991"
       xlink:href="#linearGradient4700"
       gradientUnits="userSpaceOnUse"
       cy="373.22"
       cx="397.46"
       gradientTransform="matrix(2.0701,1.9109,-0.72699,0.78756,-153.99,-680.54)"
       r="19.824"
       inkscape:collect="always" />
    <radialGradient
       id="radialGradient4993"
       xlink:href="#linearGradient4191"
       gradientUnits="userSpaceOnUse"
       cy="248.59"
       cx="374.22"
       gradientTransform="matrix(0.99204,0.12591,-0.64634,5.0927,163.65,-1055.6)"
       r="9.3773"
       inkscape:collect="always" />
    <radialGradient
       id="radialGradient4995"
       xlink:href="#linearGradient4191"
       gradientUnits="userSpaceOnUse"
       cy="257.89"
       cx="430.56"
       gradientTransform="matrix(0.5527,0.27039,-1.7595,3.5966,650.1,-789.84)"
       r="20.753"
       inkscape:collect="always" />
    <radialGradient
       id="radialGradient4997"
       xlink:href="#linearGradient4191"
       gradientUnits="userSpaceOnUse"
       cy="291.45"
       cx="462.99"
       gradientTransform="matrix(-1.5954,1.4052,-0.70737,-0.80309,1421,-137.71)"
       r="35.224"
       inkscape:collect="always" />
    <radialGradient
       id="radialGradient4999"
       xlink:href="#linearGradient4191"
       gradientUnits="userSpaceOnUse"
       cy="287.79"
       cx="490.91"
       gradientTransform="matrix(-1.2831,1.9386,-0.20847,-0.13798,1180.8,-630.79)"
       r="29.821"
       inkscape:collect="always" />
    <radialGradient
       id="radialGradient5001"
       xlink:href="#linearGradient4191"
       gradientUnits="userSpaceOnUse"
       cy="305.24"
       cx="512.02"
       gradientTransform="matrix(1.6262,-1.6199,0.51996,0.52199,-481.17,981.11)"
       r="34.528"
       inkscape:collect="always" />
    <radialGradient
       id="radialGradient5003"
       xlink:href="#linearGradient4191"
       gradientUnits="userSpaceOnUse"
       cy="322.72"
       cx="518.17"
       gradientTransform="matrix(1.5186,-1.6642,0.37206,0.3395,-390.41,1077.1)"
       r="27.735"
       inkscape:collect="always" />
    <radialGradient
       id="radialGradient5005"
       xlink:href="#linearGradient4191"
       gradientUnits="userSpaceOnUse"
       cy="347.78"
       cx="533.63"
       gradientTransform="matrix(1.5284,-1.1791,0.39181,0.50787,-418.14,796.85)"
       r="27.928"
       inkscape:collect="always" />
    <radialGradient
       id="radialGradient5007"
       xlink:href="#linearGradient4191"
       gradientUnits="userSpaceOnUse"
       cy="362.23"
       cx="530.94"
       gradientTransform="matrix(0.60037,1.0335,-1.5782,0.91677,792.07,-515.19)"
       r="29.025"
       inkscape:collect="always" />
    <radialGradient
       id="radialGradient5009"
       xlink:href="#linearGradient4315"
       gradientUnits="userSpaceOnUse"
       cy="241.73"
       cx="400.66"
       gradientTransform="matrix(0.4051,0.098814,-0.83893,3.4393,441.15,-635.69)"
       r="11.659"
       inkscape:collect="always" />
    <radialGradient
       id="radialGradient5011"
       xlink:href="#linearGradient4315"
       gradientUnits="userSpaceOnUse"
       cy="264.3"
       cx="466.02"
       gradientTransform="matrix(1.3064,-2.3929,0.13564,0.074051,-186.69,1367)"
       r="18.775"
       inkscape:collect="always" />
    <linearGradient
       id="linearGradient5013"
       y2="14.814"
       gradientUnits="userSpaceOnUse"
       x2="654.18"
       y1="14.814"
       x1="365.19"
       inkscape:collect="always">
      <stop
         id="stop4440"
         style="stop-color:#502700"
         offset="0" />
      <stop
         id="stop4446"
         style="stop-color:#502700;stop-opacity:.49804"
         offset=".65818" />
      <stop
         id="stop4442"
         style="stop-color:#502700;stop-opacity:0"
         offset="1" />
    </linearGradient>
    <linearGradient
       id="linearGradient5015"
       y2="219.37"
       xlink:href="#linearGradient4360"
       gradientUnits="userSpaceOnUse"
       x2="506.33"
       gradientTransform="translate(77.143,-216.43)"
       y1="219.37"
       x1="299.26"
       inkscape:collect="always" />
    <linearGradient
       id="linearGradient5017"
       y2="222.28"
       xlink:href="#linearGradient4360"
       gradientUnits="userSpaceOnUse"
       x2="526.28"
       gradientTransform="translate(77.143,-216.43)"
       y1="222.28"
       x1="299.77"
       inkscape:collect="always" />
    <linearGradient
       id="linearGradient5019"
       y2="226.44"
       xlink:href="#linearGradient4360"
       gradientUnits="userSpaceOnUse"
       x2="503.81"
       gradientTransform="translate(77.143,-216.43)"
       y1="226.44"
       x1="368.21"
       inkscape:collect="always" />
    <linearGradient
       id="linearGradient5021"
       y2="248.41"
       gradientUnits="userSpaceOnUse"
       x2="527.04"
       gradientTransform="translate(77.143,-216.43)"
       y1="249.16"
       x1="399.02"
       inkscape:collect="always">
      <stop
         id="stop4402"
         style="stop-color:#780000;stop-opacity:.58019"
         offset="0" />
      <stop
         id="stop4404"
         style="stop-color:#780000;stop-opacity:.27358"
         offset=".50356" />
      <stop
         id="stop4406"
         style="stop-color:#780000;stop-opacity:0"
         offset="1" />
    </linearGradient>
    <radialGradient
       id="radialGradient5023"
       xlink:href="#linearGradient3998"
       gradientUnits="userSpaceOnUse"
       cy="399.51"
       cx="-40.714"
       gradientTransform="matrix(1,0,0,0.43097,382.34,112.17)"
       r="34.621"
       inkscape:collect="always" />
    <radialGradient
       id="radialGradient5025"
       xlink:href="#linearGradient4700"
       gradientUnits="userSpaceOnUse"
       cy="277.14"
       cx="240.17"
       gradientTransform="matrix(2.8835,0.84044,-0.12564,0.43105,-417.45,-39.229)"
       r="23.797"
       inkscape:collect="always" />
    <radialGradient
       id="radialGradient5027"
       gradientUnits="userSpaceOnUse"
       cy="257.87"
       cx="262.23"
       gradientTransform="matrix(0.82059,1.5364,-1.5789,0.84328,451.29,-366.01)"
       r="30.715"
       inkscape:collect="always">
      <stop
         id="stop4854"
         style="stop-color:#c38b00"
         offset="0" />
      <stop
         id="stop4860"
         style="stop-color:#885200"
         offset=".5" />
      <stop
         id="stop4856"
         style="stop-color:#4d1a00"
         offset="1" />
    </radialGradient>
  </defs>
  <sodipodi:namedview
     id="base"
     bordercolor="#666666"
     inkscape:pageshadow="2"
     inkscape:window-y="0"
     pagecolor="#ffffff"
     inkscape:window-height="962"
     inkscape:window-maximized="1"
     inkscape:zoom="0.98994949"
     inkscape:window-x="0"
     showgrid="false"
     borderopacity="1.0"
     inkscape:current-layer="layer1"
     inkscape:cx="222.27798"
     inkscape:cy="150.67497"
     inkscape:window-width="1680"
     inkscape:pageopacity="0.0"
     inkscape:document-units="px" />
  <g
     id="layer1"
     inkscape:label="Ebene 1"
     inkscape:groupmode="layer"
     transform="translate(0 -722.36)">
    <g
       id="g4898"
       transform="matrix(-1.1001,0,0,1.1001,628.36438,575.35)">
      <path
         id="path3788"
         d="m 183.66,219.23 c -0.50802,-10.296 -1.2789,-25.395 -3.4795,-31.247 0.12452,-4.7521 4.3825,-3.2269 5.1786,-2.7679 3.0517,5.071 2.0509,19.313 2.3188,28.212 -0.37364,8.6175 -0.64082,8.5539 -4.0178,5.8036 z"
         sodipodi:nodetypes="ccccc"
         style="fill:#000000;stroke:#000000;stroke-width:1px"
         inkscape:connector-curvature="0" />
      <path
         id="path3812"
         d="m 212.38,293.49 c -14.474,-1.3219 -11.743,4.3947 -12.122,8.8388 0.83737,1.7781 1.2776,4.4829 4.0406,1.7678 0.69963,-3.0995 -0.25436,-7.6872 6.8185,-5.0508 6.11,-4.3282 9.8456,-11.031 18.94,-12.374 6.005,6.4832 11.587,10.431 16.92,12.879 l 22.728,-14.142 -12.879,-7.3236 -13.132,11.364 -11.364,-8.0812 c -7.4529,1.6323 -13.833,6.4844 -19.951,12.122 z"
         sodipodi:nodetypes="ccccccccccc"
         style="fill:#000000;stroke:#000000;stroke-width:1px"
         inkscape:connector-curvature="0" />
      <g
         id="g4834"
         transform="translate(15.714,124.29)">
        <path
           id="path4354"
           sodipodi:nodetypes="cccccccc"
           style="fill:#8b2e00;fill-opacity:0.13423001;stroke:url(#linearGradient4949);stroke-width:1px"
           inkscape:connector-curvature="0"
           d="m 310.76,69.266 c 39.647,-8.4185 76.566,-18.201 118.95,-25.254 10.573,-1.6633 25.431,-1.6127 39.143,-2.0203 l 44.952,0 c 45.488,-0.0858 21.389,14.094 12.174,21.554 -18.181,21.742 -33.156,17.831 -49.546,25.245 -47.857,14.67 -95.714,6.6667 -143.57,10 -46.972,-1.1476 -35.133,-24.09 -22.098,-29.525 z" />
        <path
           id="path4456"
           sodipodi:nodetypes="cccccc"
           style="fill:url(#linearGradient4951)"
           inkscape:connector-curvature="0"
           d="m 318.57,76.648 c 22.515,-9.0071 57.951,-17.296 97.5,-25.357 30.903,-1.7201 62.419,-6.1894 96.429,-8.5714 -31.149,-1.5855 -59.321,-0.78984 -85.714,1.4286 -43.107,8.4524 -78.334,16.905 -117.5,25.357 1.1266,2.8403 -17.19,10.217 9.2857,7.1428 z" />
        <path
           id="path4484"
           sodipodi:nodetypes="cccc"
           style="fill:none;stroke:url(#linearGradient4953);stroke-width:1px"
           inkscape:connector-curvature="0"
           d="m 328.57,92.005 c 9.5436,-6.0615 8.586,-17.374 37.143,-13.929 23.08,4.955 45.941,7.6202 67.143,-7.1428 -1.3234,-11.944 -25.297,-10.298 -39.286,-14.643" />
        <path
           id="path4502"
           sodipodi:nodetypes="cccc"
           style="fill:none;stroke:url(#linearGradient4955);stroke-width:1px"
           inkscape:connector-curvature="0"
           d="m 378.21,97.719 c 24.274,-6.2922 52.238,-5.8177 71.429,-21.429 7.4681,-10.856 0.68294,-11.913 -6.7857,-12.5 -15.957,2.2226 -32.747,-2.2125 -49.643,-7.5" />
      </g>
      <path
         id="path3764"
         d="m 341.42,227.42 c 17.035,-2.746 52.953,-29.756 92.15,-1.4868 5.6585,2.0163 10.642,5.382 14.286,11.429 14.68,4.6178 29.023,13.461 39.242,30.166 12.815,11.211 29.079,18.412 32.439,42.23 6.3261,5.7997 19.651,17.532 19.747,43.319 2.9986,12.744 1.6042,20.364 0.71429,28.571 -0.40056,5.0756 -2.1028,8.8496 -7.8571,8.5714 -16.673,2.1505 -29.378,-0.46038 -42.857,-2.1428 -8.8196,0.43033 -16.041,-4.4671 -22.857,-10.714 -13.037,1.439 -26.873,-11.292 -30,-19.286 -15.82,-1.9441 -31.011,-8.0523 -41.429,-25 -2.0552,-6.2503 -29.997,-15.094 -41.429,-51.429 l -8.56,-26.43 z"
         sodipodi:nodetypes="ccccccccccccccc"
         style="fill:url(#radialGradient4957);stroke:#956c00;stroke-width:1px;filter:url(#filter4536)"
         inkscape:connector-curvature="0" />
      <path
         id="path3766"
         style="fill:url(#radialGradient4959);stroke:#000000;filter:url(#filter4604)"
         d="m 240.16,239.69 c -5.261,8.4418 -1.8252,19.495 3.7881,23.234 -1.4876,11.555 6.2637,13.876 10.589,16.39 11.931,13.917 29.848,19.952 61.385,10.885 -0.38885,10.265 14.693,22.097 35.355,17.173 l 9.0914,-9.849 c -6.6698,-10.924 3.8665,-6.4761 -1.0102,-19.193 3.1893,-15.725 -5.2026,-24.039 -13.637,-32.325 8.7791,0.70005 15.159,-32.58 -6.3134,-31.315 20.046,-18.303 -5.9351,-26.117 -17.185,-28.226 -14.044,-10.969 -27.227,-9.1348 -40.406,-10.823 -4.4031,-4.8031 -31.103,-0.81686 -29.667,6.79 1.8301,9.6897 -2.9911,-1.4923 -8.2245,-4.3692 -4.2026,7.3003 -1.8212,10.424 -3.7649,11.88 8.6591,11.57 7.9057,32.026 -1e-5,49.75 z"
         sodipodi:nodetypes="cccccccccccsccc"
         transform="matrix(1.0436,0,0,1,-15.719,0)"
         inkscape:connector-curvature="0" />
      <path
         id="path3768"
         d="m 232.84,247.02 c -2.7413,2.6736 -9.8817,21.957 -20.203,20.708 -5.4604,3.8883 -12.06,11.511 -16.92,7.5762 -1.852,0.0116 -3.7039,-0.85537 -5.5558,1.0102 -2.1045,2.1962 -4.209,1.6872 -6.3135,1.2627 l -4.7982,7.0711 c -2.7551,0.46002 -6.0622,5.0608 -7.5762,-3.7881 0.1361,-4.9453 0.30988,-9.9014 5.0508,-16.162 -2.5356,-8.2445 -4.9614,-16.544 3.0305,-30.052 2.5026,-6.2141 -0.73392,-8.6021 7.5761,-18.688 2.1887,-0.33671 3.0305,-1.3469 2.5254,-3.0304 -1.3204,-3.9964 -2.4856,-7.9306 -0.50508,-10.607 1.7712,-3.1407 3.254,-6.1165 9.5964,-11.869 4.0048,-3.3375 9.3656,-6.0587 20.708,-6.0609 6.9869,0.0572 13.974,1.7146 20.961,5.8084 8.9893,7.2518 8.9762,45.592 -7.5761,56.821 z"
         sodipodi:nodetypes="cccccccccccccccc"
         style="fill:url(#linearGradient4961);stroke:url(#linearGradient4963);stroke-width:1px"
         inkscape:connector-curvature="0" />
      <path
         id="path4265"
         d="m 196.89,188.77 c 6.3442,-19.054 14.718,-17.815 23.739,-10.102 2.8668,-7.3937 7.5804,-9.247 13.132,-8.5863 11.883,15.411 7.3876,23.377 5.0508,32.325 l 6.566,3.0305 c 1.9405,10.677 -0.1196,14.354 -3.5355,15.657 0.8456,6.3702 1.0394,12.632 -6.0609,17.678 -0.51342,8.0297 2.7732,13.948 -9.0914,28.284 -9.8528,6.9104 -15.815,6.0393 -21.718,5.0508 -13.218,-0.22335 -18.602,-5.6694 -15.657,-16.668 -2.2788,-17.962 3.5274,-21.775 6.0609,-31.315 -4.209,8.0704 -8.4179,5.9277 -12.627,2.0203 z"
         sodipodi:nodetypes="ccccccccccccc"
         style="fill:url(#radialGradient4965);filter:url(#filter4277)"
         inkscape:connector-curvature="0" />
      <path
         id="path3770"
         d="m 213.14,206.36 c 11.545,-10.996 25.459,-1.514 15.405,22.981 -5.4035,11.348 -7.1815,16.002 -18.435,27.274 -2.9309,4.6661 -18.375,4.1462 -17.173,-9.3439 -0.85485,-16.009 10.05,-30.631 20.203,-40.911 z"
         sodipodi:nodetypes="ccccc"
         style="fill:url(#radialGradient4967);stroke:#000000;stroke-width:1px"
         inkscape:connector-curvature="0" />
      <path
         id="path3776"
         d="m 221.79,283.97 c -6.572,5.9543 -9.9204,19.264 -9.1072,23.929 -5.1248,6.4314 -3.4445,9.4603 -1.0714,12.143 3.3086,2.163 6.5199,3.4478 9.4643,2.3214 3.7348,-3.1921 3.9497,-8.1442 5,-12.679 2.447,-0.92601 2.5589,-5.9386 3.2143,-10 0.90558,-3.2894 1.236,-6.7705 0.71429,-10.536 -0.96277,-6.9446 -8.3324,-5.465 -8.2143,-5.1786 z"
         sodipodi:nodetypes="cccccccc"
         style="fill:url(#radialGradient4969);stroke:#000000;stroke-width:1px"
         inkscape:connector-curvature="0" />
      <path
         id="path3778"
         d="m 207.68,325.93 c 0.17859,8.3929 1.2085,19.34 -0.35714,22.5 1.0004,4.3912 2.6354,6.2439 5.5357,3.0357 1.2802,-0.44595 1.1855,-2.2669 1.6072,-3.5714 2.5855,-6.5908 5.9341,-12.2 5.3571,-22.857 -2.1524,-4.0078 -10.536,-7.2597 -12.143,0.89286 z"
         sodipodi:nodetypes="cccccc"
         style="fill:url(#radialGradient4971);stroke:#000000;stroke-width:1px"
         inkscape:connector-curvature="0" />
      <path
         id="path3780"
         d="m 207.25,349.91 c -3.8284,2.1672 -9.0665,4.1074 -10.642,7.6263 -2.0199,-0.17071 -3.462,0.81412 -5,1.6072 -2.7085,2.5524 0.64184,1.6324 1.7857,1.7857 0.95647,-0.19085 1.9147,-0.38708 3.0357,-1.0714 1.6086,-0.35799 0.84497,0.66782 0.53572,1.4286 l -1.7857,2.3214 c -1.5812,2.8698 -0.31029,2.3689 1.7857,0.89286 l 2.1428,-1.4286 c 0.82141,-0.26184 0.71895,2.2479 1.0714,3.3928 0.0969,0.9558 1.3279,2.1879 2.3214,-0.17857 0.35781,-1.5476 -0.26403,-3.0952 -0.89286,-4.6428 l 8.5931,-8.153 c 0.32756,-3.1897 -0.4216,-3.7237 -2.9509,-3.5804 z"
         sodipodi:nodetypes="cccccccccccccc"
         style="fill:url(#radialGradient4973);stroke:#000000;stroke-width:1px"
         inkscape:connector-curvature="0" />
      <path
         id="path3782"
         d="m 186.07,229.15 c -2.4883,-1.6309 -3.9328,-3.6097 -5,-5.7143 -0.15212,-0.94907 -0.71756,-1.4848 -1.3393,-1.9643 -2.8891,0.78155 -3.2888,0.17459 -4.375,0.89286 -1.7528,2.0107 -1.1213,3.4581 0,3.9286 4.7705,2.0015 4.287,3.3331 6.4286,5 4.1522,1.0052 4.8099,-1.0223 4.2857,-2.1428 z"
         sodipodi:nodetypes="ccccscc"
         style="fill:#000000;stroke:#000000;stroke-width:1px"
         inkscape:connector-curvature="0" />
      <path
         id="path3784"
         d="m 174.91,223.43 c -1.3299,-0.59204 -2.391,-1.1796 -4.1964,-0.80358 -2.7914,-0.97947 -1.4839,-2.9829 -0.89285,-4.0178 3.455,-1.9039 6.4926,0.78321 9.7321,1.25 0.4856,1.025 1.4498,1.4059 0.53571,1.9643 -1.732,-0.6725 -3.7757,-0.15559 -5.1786,1.6071 z"
         sodipodi:nodetypes="cccccc"
         style="fill:#000000;stroke:#000000;stroke-width:1px"
         inkscape:connector-curvature="0" />
      <path
         id="path3786"
         d="m 168.39,220.58 c -3.9892,0.68339 -8.1373,1.2079 -10.982,3.0357 -10.343,4.8303 -19.266,9.9444 -28.482,15 -3.6216,1.8369 -7.3335,3.3723 -10.268,7.5 -2.3362,3.4383 -0.69439,5.5555 3.125,3.125 l 8.0357,-5.7143 c 2.7414,-1.9036 5.9241,-3.6602 10.089,-5.0893 8.437,-4.299 16.709,-8.1034 25.357,-13.036 l 5,-2.5893 z"
         sodipodi:nodetypes="cccccccccc"
         style="fill:#000000;stroke:#000000;stroke-width:1px"
         inkscape:connector-curvature="0" />
      <path
         id="path3790"
         d="m 180.98,185.13 -3.2143,-7.4107 c -1.5842,-3.0522 -3.2764,-4.4845 -4.6429,-10.804 -3.1149,-5.9879 -5.3755,-12.464 -10,-17.589 -0.56547,-0.37481 -1.0388,-2.9008 -1.875,-5.3572 -0.4703,-8.3769 2.6287,-5.0798 4.0179,-2.4107 l 5.7143,12.679 c 2.587,5.5277 4.7283,9.4954 7.7679,16.607 3.0628,4.494 4.4551,8.9881 6.1607,13.482 -1.3748,0.10473 -2.9862,-0.38221 -3.9286,0.80356 z"
         sodipodi:nodetypes="cccccccccc"
         style="fill:#000000;stroke:#000000;stroke-width:1px"
         inkscape:connector-curvature="0" />
      <path
         id="path3792"
         d="m 294.71,291.32 c -0.5166,4.3835 5.9182,9.0328 4.9282,12.469 3.2895,0.28053 6.8608,-0.17137 7.8571,6.0714 l 1.9643,-18.214 c -1.2851,-2.8141 -11.499,-5.9133 -14.75,-0.32652 z"
         sodipodi:nodetypes="ccccc"
         style="fill:url(#radialGradient4975);stroke:#000000;stroke-width:1px"
         inkscape:connector-curvature="0" />
      <ellipse
         id="path3794"
         style="fill:url(#radialGradient4977);stroke:#000000;stroke-linecap:round;stroke-linejoin:round"
         transform="matrix(1.1279,0,0,1.1334,-38.776,-41.689)"
         cx="302.41071"
         cy="309.23718"
         rx="4.375"
         ry="4.1964288" />
      <path
         id="path3796"
         d="m 296.79,308.79 c -12.16,8.09 -16.41,18.23 -21.79,27.68 -1.9095,6.0644 -3.3792,7.2902 -4.8214,8.2143 -5.4395,10.575 6.9377,8.9409 11.25,9.1071 10.786,-7.4153 16.7,-24.577 23.393,-40.179 -5.6131,0.92336 -7.2529,-1.8977 -8.0357,-4.8214 z"
         sodipodi:nodetypes="cccccc"
         style="fill:url(#radialGradient4979);stroke:#000000;stroke-width:1px"
         inkscape:connector-curvature="0" />
      <path
         id="path3798"
         d="m 270.18,352.18 c -14.436,12.327 -16.385,23.227 -21.25,34.643 -2.4403,8.1911 0.82884,7.1593 4.4643,5.5357 1.7857,0.55246 3.5714,4.1434 5.3571,0 14.365,-9.4699 20.118,-27.756 19.643,-38.393 -4.9752,-0.45886 -7.3669,-0.33441 -8.2143,-1.7857 z"
         sodipodi:nodetypes="cccccc"
         style="fill:url(#radialGradient4981);stroke:#000000;stroke-width:1px"
         inkscape:connector-curvature="0" />
      <path
         id="path3800"
         d="m 248.21,393.26 c -3.4776,3.1743 -5.4254,7.1869 0.71428,6.9643 1.2106,-0.34798 1.8647,0.69548 3.9286,-1.7857 1.3699,-1.7857 0.42535,-3.5714 0,-5.3571 -1.7263,0.95292 -3.3868,1.5771 -4.6428,0.17857 z"
         sodipodi:nodetypes="ccccc"
         style="fill:url(#radialGradient4983);stroke:#000000;stroke-width:1px"
         inkscape:connector-curvature="0" />
      <path
         id="path3802"
         d="m 244.82,400.04 c -1.5469,-0.41521 -2.438,0.48126 -3.0357,1.9643 -2.2024,-2.1534 -4.4048,-1.7494 -6.6071,-1.6071 -2.4693,0.83333 -1.6878,1.6667 -1.4286,2.5 -9.213,0.0131 -9.5045,6.2906 -8.75,7.6786 1.8508,-1.5813 3.9387,-4.5844 5.3571,-3.5714 -1.5001,2.3214 -1.0647,4.6428 -0.71428,6.9643 1.7262,-2.7021 3.4524,-5.9547 5.1786,-5 l 1.0714,5.5357 c 1.8305,2.7535 2.0334,0.62404 2.5,-0.71429 l -0.53572,-6.25 2.3214,-0.17857 c 1.7857,0.92622 3.5714,2.2173 5.3571,-0.53571 5.8067,-3.2029 3.4707,-6.6946 -0.71428,-6.7857 z"
         sodipodi:nodetypes="cccccccccccccc"
         style="fill:url(#radialGradient4985);stroke:#000000;stroke-width:1px"
         inkscape:connector-curvature="0" />
      <path
         id="path3804"
         d="m 316.18,290.71 c 7.6707,7.6505 19.95,16.544 37.628,2.7779 l 4.2931,4.5457 c 4.3329,5.8495 21.396,2.0904 16.415,-6.3134 -19.218,-11.482 -37.938,-18.974 -55.811,-19.698 -11.668,2.9815 -17.587,7.6874 -2.5254,18.688 z"
         sodipodi:nodetypes="cccccc"
         style="fill:url(#radialGradient4987);stroke:#000000;stroke-width:1px"
         inkscape:connector-curvature="0" />
      <path
         id="path3806"
         d="m 362.64,300.81 c -2.8622,2.6557 -13.178,54.747 8.5863,57.074 14.284,7.4607 21.714,3.4705 27.527,-6.8185 6.6463,-34.212 -14.285,-44.956 -23.739,-56.063 -2.0094,3.4169 -3.8127,6.9781 -12.374,5.8084 z"
         sodipodi:nodetypes="ccccc"
         style="fill:url(#radialGradient4989);stroke:#000000;stroke-width:1px"
         inkscape:connector-curvature="0" />
      <path
         id="path3808"
         d="m 373,371.27 c -3.6808,-6.8036 17.906,-24.569 26.516,-5.5558 4.853,8.7808 12.669,17.17 11.617,31.062 -0.25979,3.4299 -6.7652,-1.7792 -10.859,0 -6.2663,2.7233 -6.5472,1.8296 -9.3439,1.5152 -7.0818,-0.79602 -12.018,-17.527 -17.93,-27.022 z"
         sodipodi:nodetypes="ccsssc"
         style="fill:url(#radialGradient4991);stroke:#000000;stroke-width:1px"
         inkscape:connector-curvature="0" />
      <path
         id="path3810"
         d="m 393.2,399.3 c 4.2308,4.7556 7.1453,10.389 15.152,12.627 3.7226,3.2737 7.4857,6.3448 11.869,6.3134 l 6.3134,3.7881 c -1.9277,0.55769 -3.3174,1.7878 -4.2932,3.5355 -0.0287,2.5559 0.88384,1.3471 1.5152,1.2627 l 3.0305,-2.5254 c 5.1648,6.09 5.5282,3.2307 5.0508,-0.75762 0.68252,-0.54707 0.16836,-2.9556 2.7779,-0.50508 1.653,-1.1469 1.6653,-2.4031 -0.25254,-3.7881 -3.1801,-2.2258 -6.5457,-5.7506 -9.0914,-3.5355 -2.357,-2.1203 -4.714,-2.7003 -7.0711,-3.5355 -1.0139,-1.7519 -0.81296,-3.6139 -5.3033,-5.0508 0.01,-4.818 -1.805,-5.9864 -3.0304,-8.3338 -7.0277,-5.1416 -14.861,-1.0389 -16.668,0.50507 z"
         sodipodi:nodetypes="ccccccccccccccc"
         style="fill:#000000;stroke:#000000;stroke-width:1px"
         inkscape:connector-curvature="0" />
      <path
         id="path4175"
         d="m 379.08,217.69 c -3.8156,19.553 -12.062,41.075 -10.505,58.24 3.1358,-1.2459 11.899,0.86146 13.831,-5.8009 -10.314,-17.28 0.68079,-37.085 3.7299,-56.385 -2.8589,0.92122 -7.7859,0.0348 -7.0562,3.9465 z"
         sodipodi:nodetypes="ccccc"
         style="fill:url(#radialGradient4993)"
         inkscape:connector-curvature="0" />
      <path
         id="path4177"
         d="m 434.87,227.07 c 4.6035,1.6918 9.0955,3.7738 12.374,10.102 -10.27,20.708 -14.02,41.416 -30.81,62.124 -4.1194,-1.0908 -3.8544,-5.589 -4.5457,-9.3439 -5.4213,-0.45111 -5.0089,-4.4024 -3.7881,-8.8388 -2.9776,-2.6937 -0.67209,-5.3875 3.0305,-8.0812 6.1451,-6.5304 12.29,-8.2693 18.435,-20.203 3.0797,-7.493 2.3786,-19.778 5.3033,-25.759 z"
         sodipodi:nodetypes="cccccccc"
         style="fill:url(#radialGradient4995)"
         inkscape:connector-curvature="0" />
      <path
         id="path4179"
         d="m 484.37,264.95 c -4.5457,0.74013 -9.0914,-3.0596 -13.637,4.2932 -1.6346,9.437 -8.1974,16.762 -14.395,24.244 -4.3773,4.457 -8.7546,1.1733 -13.132,-2.2728 -9.2099,-3.812 -5.1508,10.47 -7.5761,15.91 -4.6206,3.8256 -10.365,8.213 -17.678,13.385 2.0463,4.5696 -2.5361,13.779 25.001,0.50508 18.044,1.0921 18.353,-7.6684 25.506,-12.627 9.001,-12.557 14.268,-25.529 18.94,-40.911 z"
         sodipodi:nodetypes="cccccccccc"
         style="fill:url(#radialGradient4997)"
         inkscape:connector-curvature="0" />
      <path
         id="path4181"
         d="m 488.16,268.48 c 3.5293,2.8253 7.239,5.8627 11.112,9.0914 -17.922,39.876 -37.026,45.489 -55.558,67.68 -4.3516,3.5783 -2.847,0.46378 -2.7779,-1.0102 16.363,-22.234 35.133,-32.781 47.225,-75.761 z"
         sodipodi:nodetypes="ccccc"
         style="fill:url(#radialGradient4999)"
         inkscape:connector-curvature="0" />
      <path
         id="path4183"
         d="m 506.84,285.15 c -3.7505,50.322 -29.41,43.134 -47.982,54.548 -13.718,14.54 -5.7719,12.831 -1.5152,13.89 16.203,-21.398 35.182,8.9228 61.872,-44.194 -2.8707,-8.4574 -3.255,-17.661 -12.374,-24.244 z"
         sodipodi:nodetypes="ccccc"
         style="fill:url(#radialGradient5001)"
         inkscape:connector-curvature="0" />
      <path
         id="path4185"
         d="m 524.77,314.95 c 1.8649,11.655 -46.257,55.482 -47.225,50.003 -13.13,3.6256 -4.7523,-3.9056 -2.2728,-4.7982 15.098,-16.27 22.801,-13.808 44.447,-50.76 z"
         sodipodi:nodetypes="ccccc"
         style="fill:url(#radialGradient5003)"
         inkscape:connector-curvature="0" />
      <path
         id="path4187"
         d="m 489.67,364.45 c 15.032,-9.2095 33.141,-4.4002 42.679,-38.638 5.1045,8.4676 7.0985,17.713 6.8185,27.527 -15.335,15.142 -31.223,20.341 -47.225,23.486 -11.808,-2.8497 -7.6682,-7.5396 -2.2728,-12.374 z"
         sodipodi:nodetypes="ccccc"
         style="fill:url(#radialGradient5005)"
         inkscape:connector-curvature="0" />
      <path
         id="path4189"
         d="m 538.41,354.35 c -9.2652,10.001 -16.189,22.864 -31.062,26.011 -6.5473,1.8846 -11.72,6.1748 -20.708,3.7881 -0.95778,1.2743 -5.1713,2.8742 0,3.5355 14.279,1.0133 24.972,5.1003 43.437,2.5254 6.8322,1.0238 9.747,-1.8698 9.849,-7.5762 1.441,-13.096 2.3489,-22.208 -1.5152,-28.284 z"
         sodipodi:nodetypes="ccccccc"
         style="fill:url(#radialGradient5007)"
         inkscape:connector-curvature="0" />
      <path
         id="path4313"
         d="m 410.57,214.85 c -1.476,0.85821 -4.075,-1.1269 -7.8256,-0.62418 -5.5091,9.2986 -24.357,55.741 -12.444,61.448 2.4922,0.94847 7.0002,-0.30943 10.408,1.0968 2.2898,-41.814 4.7392,-44.018 9.8617,-61.92 z"
         sodipodi:nodetypes="ccccc"
         style="fill:url(#radialGradient5009)"
         inkscape:connector-curvature="0" />
      <path
         id="path4323"
         d="m 465.54,245.76 c 1.73,1.3729 2.695,1.9808 5.7143,4.6428 -6.3213,18.326 -15.871,33.881 -28.393,44.286 -12.048,7.9224 -8.2102,2.7627 -4.4643,-2.3214 10.981,-12.129 21.471,-26.526 27.143,-46.607 z"
         sodipodi:nodetypes="ccccc"
         style="fill:url(#radialGradient5011)"
         inkscape:connector-curvature="0" />
      <g
         id="g4448"
         transform="translate(-82.908,224.21)">
        <path
           id="path4352"
           sodipodi:nodetypes="ccccccc"
           style="fill:#8b2e00;fill-opacity:0.090604;stroke:url(#linearGradient5013);stroke-width:1px;stroke-opacity:0.76845996"
           inkscape:connector-curvature="0"
           d="m 372.11,26.801 c 42.299,2.3146 82.731,6.3079 133.34,14.142 36.115,2.9505 71.732,15.116 109.1,-5.0508 56.742,-18.7 50.422,-53.904 -10.102,-53.538 -62.025,5.5954 -121.27,2.8468 -186.88,19.193 l -44.447,13.132 c -6.0184,3.1989 -12.675,6.3033 -1.0102,12.122 z" />
        <path
           id="path4356"
           sodipodi:nodetypes="ccccc"
           style="fill:#451903;fill-opacity:0.57046999;stroke:#623603;stroke-width:1px;stroke-opacity:0.80536996"
           inkscape:connector-curvature="0"
           d="m 381.45,12.912 c -3.2846,3.049 -11.437,5.5571 -3.5355,9.849 51.278,-2.1832 89.732,11.663 133.85,18.435 -46.55,-6.475 -93.1,-12.177 -139.65,-14.647 -15.46,-7.123 -1.25,-10.746 9.34,-13.637 z" />
        <path
           id="path4358"
           sodipodi:nodetypes="ccccccc"
           style="fill:none;stroke:url(#linearGradient5015);stroke-width:1px"
           inkscape:connector-curvature="0"
           d="m 376.91,21.498 c 38.922,-5.8727 78.826,-10.546 123.74,-9.0914 l -0.76,-11.617 c 14.855,0.48541 30.782,0.43467 46.972,0.25254 l 36.113,-16.668" />
        <path
           id="path4370"
           sodipodi:nodetypes="cccccsccc"
           style="fill:none;stroke:url(#linearGradient5017);stroke-width:1px"
           inkscape:connector-curvature="0"
           d="m 377.41,18.215 c 39.9,-7.283 79.8,-14.535 119.7,-25.759 l 2.7779,7.8287 47.73,1.5152 c 3.7881,3.6331 7.5761,7.3178 11.364,14.9 -0.26163,-0.13081 4.0583,3.0393 7.3236,2.2728 2.5312,-0.59416 35.608,-9.3439 35.608,-9.3439 l 0.50507,0 0.50508,0" />
        <path
           id="path4380"
           sodipodi:nodetypes="cccccc"
           style="fill:none;stroke:url(#linearGradient5019);stroke-width:1px"
           inkscape:connector-curvature="0"
           d="m 445.85,12.912 c 13.166,1.313 20.241,8.7163 30.305,13.132 16.233,6.6559 25.383,7.6457 35.103,9.0914 15.821,-4.9693 33.752,-10.539 47.225,-18.183 -2.58,-7.0988 -6.52,-11.915 -11.11,-15.657 10.055,-5.4717 21.761,-10.943 33.082,-16.415" />
        <path
           id="path4390"
           sodipodi:nodetypes="ccccc"
           style="fill:none;stroke:url(#linearGradient5021);stroke-width:1px"
           inkscape:connector-curvature="0"
           d="m 476.66,27.054 c 20.639,16.186 56.329,18.994 94.954,19.193 37.628,-7.1922 19.731,-7.7215 8.8388,-9.0914 -13.974,1.3092 -27.948,1.3606 -41.921,-2.0203 l 27.022,-15.91" />
      </g>
      <path
         id="path3804-0"
         d="m 316.51,288.61 c 7.6707,7.6505 19.95,16.544 37.628,2.7779 l 4.2931,4.5457 c 4.3329,5.8495 21.396,2.0904 16.415,-6.3134 -19.218,-11.482 -37.938,-18.974 -55.811,-19.698 -11.668,2.9815 -17.587,7.6874 -2.5254,18.688 z"
         sodipodi:nodetypes="cccccc"
         style="fill:url(#radialGradient5023);filter:url(#filter4790)"
         inkscape:connector-curvature="0" />
      <path
         id="path3774"
         d="m 258.93,278.79 c 0,0 -5.2154,3.1993 -7.3214,3.9286 -1.5789,0.54675 -5,0.35715 -5,0.35715 -4.881,-1.2691 -8.7091,-3.0819 -14.643,-5.8929 -5.4956,-2.6034 -11.658,-1.1286 -9.2857,6.9643 4.7619,1.7965 9.5238,3.5009 14.286,2.5 4.1927,-0.88125 7.381,3.2205 11.071,8.0357 3.3778,2.1706 6.5623,2.4088 9.4643,-0.17857 0.4719,-1.1023 0.258,-2.376 2.5,-3.0357 l 8.75,-6.9643 z"
         sodipodi:nodetypes="cscscsccccc"
         style="fill:url(#radialGradient5025);stroke:#000000;stroke-width:1px"
         inkscape:connector-curvature="0" />
      <path
         id="path4850"
         d="m 293.45,232.12 13.637,20.203 c 10.281,15.231 -18.722,45.342 -38.891,38.386 -26.126,-9.0107 -32.999,-52.402 25.254,-58.589 z"
         sodipodi:nodetypes="cssc"
         style="opacity:0.86527004;fill:url(#radialGradient5027);filter:url(#filter4874)"
         inkscape:connector-curvature="0" />
    </g>
  </g>
  <metadata
     id="metadata174">
    <rdf:RDF>
      <cc:Work>
        <dc:format>image/svg+xml</dc:format>
        <dc:type
           rdf:resource="http://purl.org/dc/dcmitype/StillImage" />
        <cc:license
           rdf:resource="http://creativecommons.org/licenses/publicdomain/" />
        <dc:publisher>
          <cc:Agent
             rdf:about="http://openclipart.org/">
            <dc:title>Openclipart</dc:title>
          </cc:Agent>
        </dc:publisher>
        <dc:title>Honeybee</dc:title>
        <dc:date>2012-10-07T07:09:06</dc:date>
        <dc:description>drawn honeybee</dc:description>
        <dc:source>https://openclipart.org/detail/172634/honeybee-by-frankes-172634</dc:source>
        <dc:creator>
          <cc:Agent>
            <dc:title>frankes</dc:title>
          </cc:Agent>
        </dc:creator>
        <dc:subject>
          <rdf:Bag>
            <rdf:li>Biene</rdf:li>
            <rdf:li>Honig</rdf:li>
            <rdf:li>Insekt</rdf:li>
            <rdf:li>Tiere</rdf:li>
            <rdf:li>animal</rdf:li>
            <rdf:li>bee</rdf:li>
            <rdf:li>honey</rdf:li>
            <rdf:li>honeybee</rdf:li>
            <rdf:li>insect</rdf:li>
          </rdf:Bag>
        </dc:subject>
      </cc:Work>
      <cc:License
         rdf:about="http://creativecommons.org/licenses/publicdomain/">
        <cc:permits
           rdf:resource="http://creativecommons.org/ns#Reproduction" />
        <cc:permits
           rdf:resource="http://creativecommons.org/ns#Distribution" />
        <cc:permits
           rdf:resource="http://creativecommons.org/ns#DerivativeWorks" />
      </cc:License>
    </rdf:RDF>
  </metadata>
</svg>
