<?xml version="1.0" encoding="UTF-8" standalone="no"?>
<svg
   xmlns:dc="http://purl.org/dc/elements/1.1/"
   xmlns:cc="http://creativecommons.org/ns#"
   xmlns:rdf="http://www.w3.org/1999/02/22-rdf-syntax-ns#"
   xmlns:svg="http://www.w3.org/2000/svg"
   xmlns="http://www.w3.org/2000/svg"
   xmlns:sodipodi="http://sodipodi.sourceforge.net/DTD/sodipodi-0.dtd"
   xmlns:inkscape="http://www.inkscape.org/namespaces/inkscape"
   width="476.0578"
   height="363.5033"
   version="1.1"
   id="svg2"
   inkscape:version="0.91 r13725"
   sodipodi:docname="Instructions 4.svg">
  <metadata
     id="metadata48">
    <rdf:RDF>
      <cc:Work
         rdf:about="">
        <dc:format>image/svg+xml</dc:format>
        <dc:type
           rdf:resource="http://purl.org/dc/dcmitype/StillImage" />
        <dc:title>5 by 3 sigma maze</dc:title>
      </cc:Work>
    </rdf:RDF>
  </metadata>
  <defs
     id="defs46" />
  <sodipodi:namedview
     pagecolor="#ffffff"
     bordercolor="#666666"
     borderopacity="1"
     objecttolerance="10"
     gridtolerance="10"
     guidetolerance="10"
     inkscape:pageopacity="0"
     inkscape:pageshadow="2"
     inkscape:window-width="1680"
     inkscape:window-height="962"
     id="namedview44"
     showgrid="false"
     showguides="false"
     fit-margin-top="0"
     fit-margin-left="0"
     fit-margin-right="0"
     fit-margin-bottom="0"
     inkscape:zoom="0.87055056"
     inkscape:cx="-171.58455"
     inkscape:cy="103.77754"
     inkscape:window-x="648"
     inkscape:window-y="1440"
     inkscape:window-maximized="1"
     inkscape:current-layer="svg2" />
  <title
     id="title4">5 by 3 sigma maze</title>
  <desc
     id="desc6">5 by 3 sigma maze generated by The Maze Generator Website (http://www.mazegenerator.net/).</desc>
  <rect
     style="opacity:1;fill:#ffffff;fill-opacity:1;fill-rule:nonzero;stroke:none;stroke-width:1.80442083;stroke-linejoin:miter;stroke-miterlimit:4;stroke-dasharray:none;stroke-opacity:1"
     id="rect3543"
     width="477.9541"
     height="364.23297"
     x="-0.94815063"
     y="-0.36483765" />
  <g
     transform="translate(100.01328,94.338184)"
     style="font-style:normal;font-variant:normal;font-weight:normal;font-stretch:normal;font-size:70px;line-height:125%;font-family:'Indie Flower';-inkscape-font-specification:'Indie Flower';letter-spacing:0px;word-spacing:0px;fill:#000000;fill-opacity:1;stroke:none;stroke-width:1px;stroke-linecap:butt;stroke-linejoin:miter;stroke-opacity:1"
     id="flowRoot4653">
    <path
       d="m 85.378906,110.79237 q -0.205078,0 -0.888672,0 -0.615234,-0.0684 -0.751953,-0.0684 -1.914062,0 -3.964844,0.47852 -1.982421,0.41015 -3.964843,0.88867 -1.982422,0.47851 -4.033203,0.95703 -1.982422,0.41016 -4.101563,0.41016 -2.871094,0 -5.195312,-0.95704 -2.324219,-1.02539 -3.964844,-2.80273 -1.640625,-1.77734 -2.529297,-4.16992 -0.888672,-2.46094 -0.888672,-5.33203 0,-3.007816 1.298828,-5.81055 1.298828,-2.802734 3.486328,-5.263672 2.1875,-2.529297 4.990235,-4.580078 2.871093,-2.119141 5.947265,-3.623047 3.076172,-1.572265 6.152344,-2.460937 3.076172,-0.957032 5.742188,-1.230469 1.367187,-0.136719 2.597656,0.273437 1.298828,0.341797 2.1875,1.025391 0.888672,0.683594 1.435547,1.777344 0.546875,1.02539 0.546875,2.392578 -0.957032,0 -1.845703,-0.205078 -0.888672,-0.273438 -1.777344,-0.546875 -0.888672,-0.341797 -1.845703,-0.546875 -0.957032,-0.205078 -1.914063,-0.205078 -2.460937,0 -5.195312,0.751953 -2.734375,0.683594 -5.400391,2.050781 -2.597656,1.367188 -4.990234,3.28125 -2.324219,1.845703 -4.169922,4.101563 -1.777344,2.255859 -2.871094,4.853515 -1.025391,2.597656 -1.025391,5.332027 0,1.91407 0.957032,3.41797 0.957031,1.50391 2.392578,2.5293 1.435547,0.95703 3.144531,1.50391 1.708984,0.47851 3.349609,0.47851 3.007813,0 6.152344,-0.13672 3.212891,-0.20507 5.810547,-1.02539 2.597656,-0.88867 4.238281,-2.73437 1.640625,-1.84571 1.640625,-5.19531 0,-0.410161 -0.136718,-1.298833 -0.06836,-0.888672 -0.615235,-1.435547 l -12.509765,0 q -0.546875,0 -1.025391,-0.273437 -0.410156,-0.273438 -0.820313,-0.683594 -0.410156,-0.478516 -0.615234,-0.957031 -0.205078,-0.546875 -0.205078,-1.025391 0,-0.546875 0.136719,-1.09375 0.136718,-0.615234 0.820312,-0.615234 0.683594,0 1.367188,0.273437 0.683593,0.205078 1.367187,0.478516 0.683594,0.205078 1.367188,0.478515 0.683593,0.205078 1.435547,0.205078 2.392578,0 4.716796,-0.410156 2.324219,-0.410156 4.785157,-0.410156 0.546875,0 1.162109,0.341797 0.615234,0.273437 1.09375,0.751953 0.478516,0.410156 0.820313,1.025391 0.341796,0.615234 0.341796,1.162109 l 0,17.089843 q 0.136719,0.13672 0.478516,0.41016 0.341797,0.27343 0.683594,0.54687 0.341797,0.3418 0.683594,0.61524 0.341796,0.34179 0.478515,0.47851 0.136719,0.47852 -0.136719,0.88867 -0.205078,0.47852 -0.615234,0.82032 -0.410156,0.41015 -0.957031,0.61523 -0.478516,0.27344 -0.888672,0.27344 -1.435547,0 -2.255859,-0.88867 -0.751954,-0.88868 -1.16211,-2.11914 -0.410156,-1.23047 -0.478515,-2.5293 -0.06836,-1.36719 -0.06836,-2.32422 z"
       style=""
       id="path4681" />
    <path
       d="m 100.41797,113.86854 q -1.503908,-2.73437 -2.597658,-5.94726 -1.09375,-3.21289 -1.845703,-6.49414 -0.751953,-3.281254 -1.230468,-6.357426 -0.410157,-3.144531 -0.546875,-5.673828 0,-0.478516 -0.06836,-1.025391 -0.06836,-0.615234 -0.06836,-1.230469 0.06836,-0.615234 0.205078,-1.162109 0.205078,-0.546875 0.615234,-0.957031 l 0.136719,0 q 0.06836,0 0.06836,0 0,-0.06836 0.06836,-0.06836 0.06836,0 0.06836,0.06836 0,0 0.136719,0 l 0.136719,0 q 0.136718,0.06836 0.683593,0.273437 0.546875,0.205078 0.683594,0.341797 1.230469,-0.410156 2.529297,-0.957031 1.298832,-0.615235 2.597652,-1.09375 1.36719,-0.546875 2.73438,-0.888672 1.36719,-0.341797 2.66602,-0.341797 0.95703,0 1.64062,0.06836 0.75195,0.06836 1.43555,0.273438 0.75195,0.136719 1.57226,0.410156 0.82032,0.205078 1.91407,0.546875 0.54687,0.410156 0.95703,0.820313 0.47851,0.341797 0.82031,0.820312 0.41016,0.478516 0.61523,1.16211 0.20508,0.683593 0.20508,1.777343 -1.09375,0.136719 -2.59765,-0.136718 -1.43555,-0.341797 -3.07618,-0.820313 -1.57226,-0.478516 -3.28125,-0.820312 -1.70898,-0.341797 -3.28125,-0.273438 -1.57226,0.06836 -2.93945,0.888672 -1.435547,0.683594 -2.529297,2.460937 -0.478516,1.982422 -0.410156,3.896485 0.06836,1.914062 0.478515,3.759765 0.410157,1.777344 1.025391,3.623046 0.683597,1.77735 1.230467,3.62305 0.61524,1.77734 1.09375,3.55469 0.47852,1.77734 0.61524,3.62304 0,0.6836 -0.75196,1.50391 -0.75195,0.75195 -1.70898,0.75195 z"
       style=""
       id="path4683" />
    <path
       d="m 118.5332,95.548229 q 0,-3.554687 1.02539,-6.767578 1.09375,-3.28125 3.07618,-5.742187 2.05078,-2.460938 4.92187,-3.896485 2.93945,-1.503906 6.76758,-1.503906 2.25586,0.273438 3.89648,1.230469 1.70899,0.957031 2.73438,2.392578 1.09375,1.367188 1.57226,3.212891 0.41016,1.777343 0.41016,3.828125 0,2.460937 -1.43555,4.443359 -1.43554,1.982422 -3.62304,3.349609 -2.1875,1.298829 -4.7168,2.050782 -2.5293,0.683593 -4.7168,0.683593 -0.82031,0 -1.70898,0 -0.82031,0 -1.50391,-0.273437 -0.68359,-0.273438 -1.09375,-0.820313 -0.41015,-0.546875 -0.41015,-1.640625 0,-0.341796 0.0684,-0.546875 0.13671,-0.273437 0.61523,-0.341796 0.47852,-0.136719 1.43555,-0.06836 0.95703,0.136719 2.59765,0.410156 0.95703,0 2.73438,-0.615234 1.8457,-0.683594 3.6914,-1.708984 1.91407,-1.025391 3.28125,-2.324219 1.36719,-1.367188 1.36719,-2.666016 0,-1.367187 -0.47851,-2.666015 -0.41016,-1.367188 -1.29883,-2.392578 -0.88867,-1.025391 -2.11914,-1.640625 -1.16211,-0.615235 -2.66602,-0.478516 -2.39258,0.205078 -4.375,1.298828 -1.91406,1.09375 -3.28125,2.871094 -1.36719,1.708984 -2.11914,3.828125 -0.75195,2.11914 -0.75195,4.443359 0,1.777344 0.0684,3.554688 0.0684,1.777343 0.47851,3.486324 0.47852,1.70899 1.43555,3.28125 1.02539,1.57227 2.87109,2.80274 1.91407,1.16211 4.78516,1.98242 2.87109,0.75195 7.10937,0.95703 l 12.23633,-0.82031 q -1.09375,1.50391 -2.80273,2.46094 -1.64063,0.95703 -3.55469,1.57226 -1.8457,0.54688 -3.69141,0.82031 -1.8457,0.27344 -3.48632,0.27344 -3.96485,0 -7.45118,-1.29883 -3.48632,-1.29882 -6.15234,-3.62304 -2.66601,-2.39258 -4.23828,-5.74219 -1.50391,-3.417969 -1.50391,-7.656251 z"
       style=""
       id="path4685" />
    <path
       d="m 154.62695,102.31581 q 0.0684,-1.16211 0.6836,-2.666018 0.61523,-1.503906 1.91406,-2.939453 1.29883,-1.435547 3.28125,-2.529297 1.98242,-1.162109 4.64844,-1.640625 2.73437,-0.478516 6.15234,-0.06836 3.48633,0.410156 7.72461,2.050781 0,-0.06836 0,-0.683594 l -0.0684,-0.615234 q 0,-1.777344 -1.02539,-3.623047 -1.02539,-1.845703 -2.66602,-3.28125 -1.57226,-1.503906 -3.41796,-2.392578 -1.84571,-0.957032 -3.55469,-0.957032 -0.6836,0 -1.23047,0.205079 -0.47852,0.205078 -0.95703,0.546875 -0.47852,0.273437 -0.95703,0.546875 -0.41016,0.205078 -1.02539,0.205078 -0.13672,0 -0.13672,-0.06836 -0.0684,-0.06836 -0.13672,-0.136718 -0.13672,-0.136719 -0.41016,-0.341797 -0.20508,-0.205078 -0.20508,-0.273438 0,-1.230469 0.41016,-2.11914 0.47852,-0.888672 1.23047,-1.435547 0.82031,-0.546875 1.77734,-0.820313 1.02539,-0.341797 2.11914,-0.341797 2.73438,0.273438 5.19532,1.708985 2.52929,1.367187 4.58007,3.486328 2.11914,2.11914 3.69141,4.921875 1.57227,2.734375 2.59766,5.742187 1.09375,2.939453 1.43554,5.947264 0.41016,3.14453 0.0684,5.87891 -0.0684,0 -0.41015,0 -0.3418,-0.0684 -0.75196,-0.0684 -0.41015,-0.0684 -0.68359,-0.13672 l -0.3418,-0.0684 q -1.43554,-3.21289 -3.21289,-5.19531 -1.77734,-1.982424 -3.55469,-3.076174 -1.70898,-1.162109 -3.21289,-1.572265 -1.5039,-0.478516 -2.46093,-0.683594 -1.02539,0 -2.46094,0.136719 -1.36719,0.136718 -2.87109,0.478515 -1.50391,0.341797 -3.07618,0.957032 -1.5039,0.546875 -2.73437,1.367187 -1.16211,0.820313 -1.91406,1.98242 -0.6836,1.09375 -0.6836,2.59766 0,1.64062 1.29883,2.80273 1.29883,1.09375 3.14453,1.84571 1.8457,0.68359 3.75977,0.95703 1.91406,0.27343 3.07617,0.27343 1.91406,0 3.75976,-0.20507 1.84571,-0.20508 3.62305,-0.47852 1.8457,-0.27344 3.62305,-0.47851 1.77734,-0.20508 3.55469,-0.20508 0.13671,0 0.47851,0 0.3418,0 0.6836,0.0684 0.41015,0 0.68359,0 0.3418,0 0.47851,0 0.54688,0.20507 0.61524,0.61523 0.0684,0.41016 0.0684,0.82031 0,0.41016 -0.88867,0.88868 -0.82032,0.47851 -2.1875,0.95703 -1.36719,0.47851 -3.07618,1.02539 -1.64062,0.47851 -3.21289,0.82031 -1.5039,0.3418 -2.87109,0.61523 -1.29883,0.20508 -1.8457,0.20508 -2.8711,0 -6.08399,-0.47851 -3.21289,-0.47852 -5.8789,-1.70899 -2.66602,-1.29883 -4.44336,-3.55469 -1.70899,-2.25585 -1.70899,-5.81054 z"
       style=""
       id="path4687" />
    <path
       d="m 198.03516,90.352917 q -0.54688,0 -1.91407,0 -1.36718,0 -2.87109,-0.205078 -1.43555,-0.273438 -2.66602,-0.820313 -1.16211,-0.546875 -1.16211,-1.572265 0,-0.273438 0.0684,-0.751953 0.13672,-0.546875 0.6836,-0.546875 l 7.04101,-0.615235 q 0.27344,-2.529297 0.41016,-4.101562 0.13672,-1.640625 0.0684,-3.007813 -0.0684,-1.435547 -0.20508,-2.939453 -0.0684,-1.572266 -0.13672,-4.033203 0,-0.478516 0.20508,-0.751953 0.20508,-0.273438 0.47852,-0.410156 0.34179,-0.136719 0.68359,-0.205079 0.41016,-0.06836 0.61523,-0.06836 0.41016,0 0.82032,0.273438 0.47851,0.273437 0.82031,0.683593 0.3418,0.410157 0.54687,0.888672 0.20508,0.410156 0.20508,0.820313 l 0.54688,12.783203 5.8789,0.273437 q 1.16211,-0.136718 2.11914,0.478516 1.02539,0.546875 1.09375,2.119141 -0.82031,0.888671 -1.98242,1.09375 -1.16211,0.136718 -2.46094,0.136718 -1.23046,-0.06836 -2.46093,0 -1.23047,0 -2.1875,0.615235 0,0.410156 0.0684,2.255859 0.0684,1.845703 0.13672,4.375 0.0684,2.529297 0.13671,5.400395 0.13672,2.87109 0.20508,5.33203 0.0684,2.39258 0.0684,4.10156 0.0684,1.70898 0.0684,1.91406 -1.57226,0.95703 -2.5293,-0.13672 -0.95703,-1.16211 -1.57226,-3.34961 -0.54688,-2.25586 -0.82031,-5.19531 -0.20508,-3.00781 -0.27344,-5.878905 0,-2.939453 0.0684,-5.400391 0.0684,-2.460937 0.20508,-3.554687 z"
       style=""
       id="path4689" />
    <path
       d="m 212.80078,110.51893 q 0,-2.05078 1.50391,-2.93945 1.64062,-0.95703 3.6914,-0.95703 0.6836,0 1.23047,0.41015 0.54688,0.41016 0.95703,1.0254 0.41016,0.54687 0.54688,1.23046 0.20508,0.61524 0.20508,1.23047 0,0.75196 -0.54688,1.36719 -0.54687,0.61523 -1.29883,1.09375 -0.75195,0.47852 -1.64062,0.75195 -0.88867,0.20508 -1.50391,0.20508 -1.70898,0 -2.46094,-0.88867 -0.68359,-0.95703 -0.68359,-2.5293 z m 2.11914,-15.380857 q -0.27344,-1.777344 -0.41015,-4.785156 -0.0684,-3.076172 -0.13672,-6.699219 0,-3.691406 0,-7.65625 0.0684,-4.033203 0.0684,-7.65625 0,-3.691406 0,-6.699219 0,-3.144531 -0.13672,-4.921875 l 3.34961,-0.546875 0.0684,1.230469 q 0,1.230469 0,3.212891 0.0684,1.982422 0.0684,4.580078 0.0684,2.597656 0.13671,5.400391 0.0684,2.802734 0.0684,5.673828 0,2.802734 0.0684,5.263672 0.0684,2.460937 0.0684,4.375 0.0684,1.845703 0.13672,2.666015 0,0.136719 0,0.546875 0,0.341797 0,0.888672 0.0684,0.478516 0.0684,0.957031 0,0.478516 0,0.751953 0,0.546875 0,1.298829 0.0684,0.683593 -0.0684,1.367187 -0.0684,0.683594 -0.41016,1.162109 -0.34179,0.410157 -1.1621,0.410157 -0.47852,0 -1.0254,-0.06836 -0.54687,-0.06836 -0.75195,-0.751953 z"
       style=""
       id="path4691" />
  </g>
</svg>
