<?xml version="1.0" encoding="UTF-8" standalone="no"?>
<svg
   xmlns:dc="http://purl.org/dc/elements/1.1/"
   xmlns:cc="http://creativecommons.org/ns#"
   xmlns:rdf="http://www.w3.org/1999/02/22-rdf-syntax-ns#"
   xmlns:svg="http://www.w3.org/2000/svg"
   xmlns="http://www.w3.org/2000/svg"
   xmlns:sodipodi="http://sodipodi.sourceforge.net/DTD/sodipodi-0.dtd"
   xmlns:inkscape="http://www.inkscape.org/namespaces/inkscape"
   width="476.0578"
   height="363.5033"
   version="1.1"
   id="svg2"
   inkscape:version="0.91 r13725"
   sodipodi:docname="Instructions 1.svg">
  <metadata
     id="metadata48">
    <rdf:RDF>
      <cc:Work
         rdf:about="">
        <dc:format>image/svg+xml</dc:format>
        <dc:type
           rdf:resource="http://purl.org/dc/dcmitype/StillImage" />
        <dc:title>5 by 3 sigma maze</dc:title>
      </cc:Work>
    </rdf:RDF>
  </metadata>
  <defs
     id="defs46" />
  <sodipodi:namedview
     pagecolor="#ffffff"
     bordercolor="#666666"
     borderopacity="1"
     objecttolerance="10"
     gridtolerance="10"
     guidetolerance="10"
     inkscape:pageopacity="0"
     inkscape:pageshadow="2"
     inkscape:window-width="1680"
     inkscape:window-height="962"
     id="namedview44"
     showgrid="false"
     showguides="false"
     fit-margin-top="0"
     fit-margin-left="0"
     fit-margin-right="0"
     fit-margin-bottom="0"
     inkscape:zoom="0.87055056"
     inkscape:cx="-171.58455"
     inkscape:cy="103.77754"
     inkscape:window-x="648"
     inkscape:window-y="1440"
     inkscape:window-maximized="1"
     inkscape:current-layer="flowRoot3352" />
  <title
     id="title4">5 by 3 sigma maze</title>
  <desc
     id="desc6">5 by 3 sigma maze generated by The Maze Generator Website (http://www.mazegenerator.net/).</desc>
  <rect
     style="opacity:1;fill:#ffffff;fill-opacity:1;fill-rule:nonzero;stroke:none;stroke-width:1.80442083;stroke-linejoin:miter;stroke-miterlimit:4;stroke-dasharray:none;stroke-opacity:1"
     id="rect3543"
     width="477.9541"
     height="364.23297"
     x="-0.94815063"
     y="-0.36483765" />
  <g
     transform="translate(1.5923767,84.872425)"
     style="font-style:normal;font-variant:normal;font-weight:normal;font-stretch:normal;font-size:40px;line-height:125%;font-family:'Indie Flower';-inkscape-font-specification:'Indie Flower';text-align:center;letter-spacing:0px;word-spacing:0px;text-anchor:middle;fill:#000000;fill-opacity:1;stroke:none;stroke-width:1px;stroke-linecap:butt;stroke-linejoin:miter;stroke-opacity:1"
     id="flowRoot3352">
    <path
       d="m 85.606445,22.989249 q -3.417968,0 -7.080078,-0.439453 -3.613281,-0.488282 -6.933594,-1.025391 -0.439453,0.09766 -0.683593,-0.09766 -0.244141,-0.244141 -0.390625,-0.585938 -0.146485,-0.390625 -0.195313,-0.732422 0,-0.341797 0,-0.537109 0.732422,0 2.539063,0 1.80664,0 4.248047,0.04883 2.490234,0.04883 5.371093,0.146484 2.929688,0.09766 5.859375,0.292969 2.929688,0.195313 5.664063,0.488281 2.734375,0.244141 4.833984,0.683594 2.148433,0.390625 3.369143,0.927735 1.26953,0.537109 1.26953,1.220703 0,0.488281 -0.14649,0.976562 -0.14648,0.488281 -0.73242,0.488281 -1.80664,-0.09766 -3.56445,-0.537109 -1.757813,-0.439453 -3.515625,-0.830078 -1.757813,-0.439453 -3.613282,-0.585938 -1.80664,-0.195312 -3.710937,0.390625 0,2.246094 0.244141,4.931641 0.292968,2.685547 0.634765,5.46875 0.390625,2.783203 0.830078,5.566406 0.488282,2.783203 0.927735,5.22461 0.09766,0.634765 0.390625,1.269531 0.341797,0.585937 0.683593,1.171875 0.341797,0.537109 0.585938,1.123047 0.244141,0.585937 0.244141,1.171875 0,0.390625 -0.244141,0.634765 -0.244141,0.195313 -0.585938,0.292969 -0.341796,0.04883 -0.732421,0.04883 -0.390625,0 -0.634766,0 -0.976563,0 -1.5625,-0.78125 -0.537109,-0.78125 -0.830078,-1.80664 -0.292969,-1.074219 -0.390625,-2.197266 -0.09766,-1.123047 -0.195313,-1.806641 -0.390625,-2.685546 -0.683593,-5.175781 -0.292969,-2.539062 -0.53711,-5.029297 -0.195312,-2.539062 -0.390625,-5.078125 -0.146484,-2.58789 -0.341797,-5.322265 z"
       style="font-size:50px"
       id="path3457" />
    <path
       d="m 100.1084,40.176749 q 0,-2.685547 1.17187,-4.6875 1.17188,-2.001953 3.07618,-3.369141 1.90429,-1.367187 4.24804,-2.001953 2.39258,-0.683594 4.78516,-0.683594 1.26953,0 2.34375,0.488281 1.12305,0.439454 2.09961,1.269532 1.02539,0.78125 1.80664,1.855468 0.78125,1.025391 1.31836,2.148438 0.58594,1.123047 0.8789,2.294922 0.29297,1.123047 0.29297,2.197265 0,2.490235 -0.97656,4.44336 -0.97656,1.953125 -2.63672,3.320312 -1.66015,1.31836 -3.75976,2.050782 -2.09961,0.683593 -4.29688,0.683593 -2.24609,0 -4.15039,-0.683593 -1.85547,-0.732422 -3.27148,-2.001954 -1.36719,-1.269531 -2.14844,-3.125 -0.78125,-1.904296 -0.78125,-4.199218 z m 2.39258,-0.390625 q 0,1.513672 0.53711,2.929687 0.58593,1.367188 1.5625,2.392578 1.02539,1.025391 2.39257,1.660157 1.36719,0.585937 2.92969,0.585937 0.83008,0.09766 2.00195,-0.244141 1.22071,-0.390625 2.39258,-1.074218 1.22071,-0.732422 2.29492,-1.708985 1.12305,-1.02539 1.85547,-2.197265 0.73243,-1.220703 0.87891,-2.490235 0.19531,-1.318359 -0.43945,-2.58789 -0.58594,-1.31836 -2.19727,-2.490235 -1.61133,-1.220703 -4.44336,-2.246093 -1.61133,0 -3.36914,0.488281 -1.70898,0.439453 -3.125,1.367187 -1.41601,0.927735 -2.34375,2.34375 -0.92773,1.416016 -0.92773,3.271485 z"
       style="font-size:50px"
       id="path3459" />
    <path
       d="m 143.66309,26.700186 q -0.24414,-2.148437 -0.58594,-3.662109 -0.3418,-1.513672 -0.3418,-2.490235 0.0488,-0.976562 0.63477,-1.513671 0.63476,-0.53711 2.19726,-0.732422 0.0977,0.488281 0.24414,1.855468 0.14649,1.367188 0.29297,3.125 0.19531,1.708985 0.39063,3.613282 0.24414,1.855468 0.43945,3.417968 0.19531,1.5625 0.43945,2.539063 0.24414,1.074219 0.43946,0.976562 0.8789,0 1.70898,-0.292968 0.87891,-0.292969 1.85547,-0.292969 1.46484,0 3.125,0.292969 1.66016,0.24414 3.27148,0.78125 1.66016,0.537109 3.17383,1.416015 1.5625,0.830078 2.68555,1.953125 1.17187,1.123047 1.85547,2.587891 0.68359,1.464844 0.68359,3.222656 0,2.246094 -1.12305,3.613281 -1.07421,1.31836 -2.7832,2.001954 -1.70898,0.683593 -3.71094,0.878906 -2.05078,0.195312 -3.80859,0.195312 -2.44141,0 -4.05273,-0.585937 -1.61133,-0.634766 -2.63672,-1.708985 -1.02539,-1.074218 -1.5625,-2.490234 -0.53711,-1.416016 -0.78125,-3.076172 -0.24414,-1.708984 -0.3418,-3.515625 -0.0977,-1.855469 -0.29297,-3.710937 -0.0488,-0.341797 -0.24414,-1.513672 -0.19531,-1.220703 -0.48828,-2.636719 -0.24414,-1.464844 -0.43945,-2.685547 -0.19532,-1.220703 -0.24414,-1.5625 z m 4.6875,12.792969 q -0.48829,2.148437 0.24414,3.710937 0.78125,1.5625 2.19726,2.587891 1.46485,0.976563 3.32031,1.367188 1.9043,0.390625 3.75977,0.146484 1.85547,-0.292969 3.32031,-1.171875 1.5625,-0.927734 2.2461,-2.539063 0,-1.318359 -0.63477,-2.392578 -0.58594,-1.074218 -1.5625,-1.904297 -0.97656,-0.830078 -2.24609,-1.416015 -1.22071,-0.634766 -2.53907,-1.025391 -1.26953,-0.390625 -2.53906,-0.585937 -1.26953,-0.244141 -2.24609,-0.244141 -1.61133,0 -2.49024,0.927734 -0.83007,0.927735 -0.83007,2.539063 z"
       style="font-size:50px"
       id="path3461" />
    <path
       d="m 168.07715,37.051749 q 0,-2.539063 0.73242,-4.833985 0.78125,-2.34375 2.19727,-4.101562 1.46484,-1.757813 3.51562,-2.783203 2.09961,-1.074219 4.83399,-1.074219 1.61132,0.195312 2.7832,0.878906 1.2207,0.683594 1.95312,1.708985 0.78125,0.976562 1.12305,2.294921 0.29297,1.269532 0.29297,2.734375 0,1.757813 -1.02539,3.173829 -1.02539,1.416015 -2.58789,2.392578 -1.5625,0.927734 -3.36914,1.464843 -1.80664,0.488282 -3.36914,0.488282 -0.58594,0 -1.22071,0 -0.58593,0 -1.07422,-0.195313 -0.48828,-0.195312 -0.78125,-0.585937 -0.29296,-0.390625 -0.29296,-1.171875 0,-0.244141 0.0488,-0.390625 0.0977,-0.195313 0.43946,-0.244141 0.34179,-0.09766 1.02539,-0.04883 0.68359,0.09766 1.85547,0.292969 0.68359,0 1.95312,-0.439453 1.31836,-0.488282 2.63672,-1.220704 1.36719,-0.732421 2.34375,-1.660156 0.97656,-0.976562 0.97656,-1.904297 0,-0.976562 -0.34179,-1.904297 -0.29297,-0.976562 -0.92774,-1.708984 -0.63476,-0.732422 -1.51367,-1.171875 -0.83008,-0.439453 -1.9043,-0.341797 -1.70898,0.146485 -3.125,0.927735 -1.36718,0.78125 -2.34375,2.050781 -0.97656,1.220703 -1.51367,2.734375 -0.53711,1.513672 -0.53711,3.173828 0,1.269531 0.0488,2.539062 0.0488,1.269532 0.3418,2.490235 0.34179,1.220703 1.02539,2.34375 0.73242,1.123047 2.05078,2.001953 1.36719,0.830078 3.41797,1.416016 2.05078,0.537109 5.07812,0.683593 l 8.74024,-0.585937 q -0.78125,1.074219 -2.00196,1.757812 -1.17187,0.683594 -2.53906,1.123047 -1.31836,0.390625 -2.63672,0.585938 -1.31836,0.195312 -2.49023,0.195312 -2.83203,0 -5.32227,-0.927734 -2.49023,-0.927735 -4.39453,-2.587891 -1.9043,-1.708984 -3.02734,-4.101562 -1.07422,-2.441407 -1.07422,-5.46875 z"
       style="font-size:50px"
       id="path3463" />
    <path
       d="m 186.3877,63.711905 q -0.19532,-0.683594 0.0488,-1.220703 0.19532,-0.53711 0.58594,-0.878906 0.39063,-0.341797 0.87891,-0.439454 0.43945,-0.09766 0.78125,0.09766 0.29297,0.24414 0.39062,0.830078 0.0488,0.585937 -0.34179,1.611328 0,1.074219 0.92773,2.099609 0.87891,1.025391 2.34375,1.855469 1.41602,0.830078 3.125,1.513672 1.70898,0.683594 3.32031,1.171875 1.61133,0.488281 2.88086,0.732422 1.17188,0.24414 1.75781,0.24414 1.22071,0 2.05079,-0.634765 0.8789,-0.634766 1.46484,-1.660156 0.63476,-1.025391 0.97656,-2.34375 0.39063,-1.269532 0.58594,-2.587891 0.19531,-1.269531 0.24414,-2.490234 0.0488,-1.220704 0.0488,-2.050782 0,-0.390625 -0.0977,-1.464843 -0.0488,-1.025391 -0.19531,-2.392579 -0.14649,-1.367187 -0.3418,-2.832031 -0.19531,-1.464844 -0.43945,-2.734375 -0.24414,-1.269531 -0.53711,-2.050781 -0.24414,-0.78125 -0.53711,-0.78125 -0.48828,0 -1.17187,0.292969 -0.63477,0.292968 -1.36719,0.634765 -0.6836,0.341797 -1.41602,0.634766 -0.73242,0.292969 -1.41601,0.292969 -1.36719,0 -2.68555,-0.585938 -1.31836,-0.585937 -2.29492,-1.513672 -0.92774,-0.927734 -1.51367,-2.197265 -0.58594,-1.269532 -0.58594,-2.636719 0,-2.148438 0.83008,-4.394531 0.8789,-2.246094 2.34375,-4.101563 1.51367,-1.855469 3.51562,-3.027344 2.05078,-1.171875 4.3457,-1.171875 1.75782,0.488282 2.83204,2.246094 1.12304,1.708985 1.70898,4.248047 0.63477,2.539063 0.87891,5.664063 0.29297,3.076171 0.39062,6.298828 0.0977,3.222656 0.14649,6.298828 0.0976,3.125 0.39062,5.664062 0,1.123047 -0.14648,2.636719 -0.0977,1.5625 -0.39063,3.173828 -0.29297,1.611328 -0.83008,3.173828 -0.48828,1.611328 -1.31836,2.832032 -0.83007,1.269531 -2.05078,2.001953 -1.17187,0.78125 -2.73437,0.78125 -1.26953,0 -3.07617,-0.292969 -1.75782,-0.292969 -3.71094,-0.927734 -1.9043,-0.634766 -3.8086,-1.5625 -1.90429,-0.927735 -3.41796,-2.148438 -1.51368,-1.171875 -2.44141,-2.685547 -0.92773,-1.464844 -0.92773,-3.222656 z m 10.2539,-22.314453 q 0,0.878906 0.24414,1.708984 0.29297,0.78125 0.78125,1.416016 0.53711,0.634765 1.26953,1.02539 0.78125,0.341797 1.70899,0.341797 2.49023,0 3.75976,-0.976562 1.31836,-0.976563 1.80664,-2.441406 0.48829,-1.464844 0.48829,-3.125 -0.0488,-1.708985 -0.14649,-3.076172 0,-0.683594 -0.0977,-1.367188 -0.0977,-0.683594 -0.39062,-1.269531 -0.29297,-0.585938 -0.83008,-0.927734 -0.48828,-0.341797 -1.26953,-0.341797 -1.61133,0 -2.97852,0.927734 -1.36718,0.878906 -2.34375,2.246094 -0.92773,1.318359 -1.46484,2.929687 -0.53711,1.5625 -0.53711,2.929688 z"
       style="font-size:50px"
       id="path3465" />
    <path
       d="m 214.36621,33.243155 q 0,-0.195313 0,-0.732422 0,-0.537109 0,-1.123047 0.0488,-0.585937 0.0488,-1.123047 0,-0.537109 0,-0.732422 -0.19531,-1.513671 0.87891,-1.513671 0.48828,0 0.83007,0.24414 0.3418,0.244141 0.63477,0.732422 -0.14649,2.539063 0.19531,4.931641 0.39063,2.34375 0.83008,4.6875 0.48828,2.294922 0.87891,4.638672 0.43945,2.34375 0.43945,4.882812 0,0.683594 -0.43945,1.367188 -0.39063,0.683593 -1.22071,0.683593 -0.63476,0 -1.12304,-1.074218 -0.43946,-1.123047 -0.78125,-2.783204 -0.3418,-1.708984 -0.58594,-3.759765 -0.24414,-2.050781 -0.39063,-3.90625 -0.0977,-1.904297 -0.14648,-3.369141 -0.0488,-1.513672 -0.0488,-2.050781 z m -2.49023,-12.255859 q 0,-0.585938 0.34179,-0.732422 0.3418,-0.195313 0.87891,-0.195313 0.3418,-0.04883 0.87891,0.439453 0.58593,0.439453 0.92773,1.025391 0.39063,0.585937 0.43945,1.074219 0.0488,0.585937 -0.73242,0.683593 l -0.24414,0 q -0.73242,0 -1.2207,-0.09766 -0.48828,-0.09766 -0.78125,-0.292969 -0.24414,-0.24414 -0.39063,-0.683593 -0.0977,-0.439453 -0.0977,-1.220703 z"
       style="font-size:50px"
       id="path3467" />
    <path
       d="m 221.49512,31.094717 q 0,-0.439453 0.29297,-0.537109 0.34179,-0.146484 0.73242,-0.146484 0.29297,0 0.39062,0.146484 0.14649,0.146484 0.19532,0.341797 0.0488,0.195312 0.14648,0.390625 0.0977,0.146484 0.3418,0.146484 0.68359,0 1.66015,-0.537109 0.97657,-0.537109 2.09961,-1.171875 1.17188,-0.634766 2.44141,-1.171875 1.31836,-0.537109 2.58789,-0.537109 1.66016,0 3.02734,0.878906 1.41602,0.830078 2.49024,2.246094 1.12304,1.416015 1.90429,3.173828 0.78125,1.757812 1.31836,3.613281 0.53711,1.806641 0.78125,3.564453 0.24414,1.708984 0.24414,2.978516 0,0.439453 -0.0976,1.318359 -0.0488,0.878906 -0.24414,1.757813 -0.14649,0.878906 -0.53711,1.5625 -0.39063,0.634765 -0.97656,0.634765 -0.0977,0 -0.3418,0 -0.24414,-0.04883 -0.48828,-0.09766 -0.24414,-0.09766 -0.43946,-0.195313 -0.14648,-0.09766 -0.14648,-0.292968 0.43945,-3.759766 0,-7.03125 -0.43945,-3.320313 -1.41602,-5.810547 -0.97656,-2.490235 -2.39257,-3.955078 -1.41602,-1.464844 -3.02735,-1.464844 -1.51367,0 -2.83203,0.488281 -1.31836,0.488281 -2.29492,1.416016 -0.97656,0.927734 -1.5625,2.246094 -0.53711,1.318359 -0.53711,2.880859 0,1.5625 0.29297,3.125 0.29297,1.513672 0.63476,3.076172 0.39063,1.513672 0.6836,3.076172 0.29297,1.5625 0.29297,3.125 -1.36719,0 -2.29493,-1.123047 -0.92773,-1.123047 -1.51367,-2.88086 -0.53711,-1.757812 -0.8789,-3.955078 -0.29297,-2.197265 -0.43946,-4.296875 -0.0977,-2.148437 -0.0977,-4.003906 0,-1.904297 0,-2.978516 z"
       style="font-size:50px"
       id="path3469" />
    <path
       d="m 243.46777,57.85253 q 0,-1.171875 0.24414,-2.34375 0.24414,-1.171875 0.48829,-2.392578 0.29296,-1.220703 0.5371,-2.441406 0.24415,-1.220704 0.24415,-2.392579 0,-0.09766 0,-0.390625 0,-0.292968 -0.0488,-0.585937 0,-0.292969 0,-0.537109 0,-0.244141 0,-0.341797 -0.6836,0.04883 -0.83008,-0.244141 -0.14649,-0.292969 -0.14649,-0.683594 0,-0.976562 0.3418,-1.708984 0.3418,-0.78125 1.41602,-0.78125 0.97656,0 1.36718,0.683594 0.43946,0.683593 0.58594,1.611328 0.19531,0.927734 0.14649,1.904297 0,0.927734 0,1.513672 0,0.390625 -0.14649,1.367187 -0.0976,0.927734 -0.29297,2.148438 -0.14648,1.220703 -0.43945,2.539062 -0.29297,1.318359 -0.68359,2.392578 -0.39063,1.074219 -0.83008,1.757813 -0.43945,0.683593 -0.97656,0.683593 -0.3418,0 -0.53711,-0.195312 -0.19532,-0.146484 -0.29297,-0.439453 -0.0977,-0.244141 -0.14649,-0.585938 0,-0.292968 0,-0.537109 z"
       style="font-size:50px"
       id="path3471" />
    <path
       d="m 269.24902,43.741202 q 0,-3.076172 1.07422,-5.175781 1.07422,-2.09961 2.83203,-3.369141 1.80664,-1.269531 4.15039,-1.855469 2.39258,-0.585937 4.98047,-0.585937 2.09961,0 4.05274,0.683593 2.00195,0.683594 3.56445,1.904297 1.5625,1.220703 2.49023,2.978516 0.92774,1.757812 0.92774,4.003906 0,1.953125 -0.73242,3.222656 -0.73242,1.220704 -2.00196,1.953125 -1.26953,0.683594 -2.83203,0.976563 -1.51367,0.292969 -3.125,0.292969 -1.5625,0 -3.22265,-0.146485 -1.61133,-0.146484 -2.97852,-0.683593 -1.36719,-0.53711 -2.24609,-1.611329 -0.87891,-1.074218 -0.87891,-3.027343 1.02539,0 1.95313,0.439453 0.97656,0.390625 1.95312,0.878906 0.97656,0.439453 1.95313,0.830078 0.92773,0.439453 2.00195,0.439453 0.78125,0 2.05078,-0.146484 1.31836,-0.146484 2.44141,-0.537109 1.17187,-0.439454 2.00195,-1.171875 0.83008,-0.732422 0.83008,-1.855469 0,-1.660156 -0.73242,-2.88086 -0.73243,-1.220703 -1.9043,-2.001953 -1.17188,-0.830078 -2.63672,-1.269531 -1.46484,-0.439453 -2.92969,-0.439453 -0.19531,0 -0.97656,0.09766 -0.73242,0.09766 -1.70898,0.341797 -0.97657,0.195313 -2.05079,0.537109 -1.07421,0.292969 -2.00195,0.78125 -0.8789,0.439454 -1.46484,1.025391 -0.58594,0.585938 -0.58594,1.318359 l 0,0.585938 q 0.0488,0.537109 0.0977,1.464844 0.0976,0.878906 0.14648,1.80664 0.0488,0.878907 0.14649,1.5625 0.0976,0.683594 0.0976,0.78125 0.0977,0.78125 0.3418,2.441407 0.24414,1.611328 0.53711,3.613281 0.29297,2.050781 0.63476,4.296875 0.39063,2.246094 0.73243,4.248047 0.34179,2.050781 0.58593,3.662109 0.29297,1.611328 0.43946,2.34375 0,0.09766 0,0.146484 0.0488,0.09766 0.0488,0.146485 0,0.04883 0,0.04883 l -0.0488,0.09766 0,0.09766 q -0.0977,0.146485 -0.43946,0.488282 -0.39062,0.292968 -0.48828,0.390625 l -0.29297,0 q -0.48828,0 -1.02539,-0.927735 -0.53711,-0.878906 -1.12304,-2.441406 -0.53711,-1.513672 -1.12305,-3.515625 -0.53711,-2.001953 -1.07422,-4.150391 -0.53711,-2.148437 -0.97656,-4.248046 -0.43946,-2.09961 -0.78125,-3.90625 -0.3418,-1.806641 -0.53711,-3.125 -0.14649,-1.31836 -0.14649,-1.855469 z"
       style="font-size:50px"
       id="path3473" />
    <path
       d="m 296.39746,49.747061 q -0.48828,-3.466797 -0.63476,-6.884765 -0.0977,-3.466797 -0.0977,-6.933594 0,-3.466797 0.0977,-6.884766 0.0976,-3.417969 0.0488,-6.835937 0,-0.390625 0.29297,-0.53711 0.29297,-0.146484 0.6836,-0.146484 0.43945,0 0.78125,0.341797 0.34179,0.292969 0.58593,0.78125 0.24414,0.439453 0.3418,0.927734 0.14648,0.439453 0.14648,0.732422 0.29297,6.982422 0.39063,11.669922 0.0977,4.638672 0,7.519531 -0.0977,2.832031 -0.3418,4.199219 -0.19531,1.367187 -0.53711,1.855469 -0.34179,0.488281 -0.83007,0.390625 -0.43946,-0.09766 -0.92774,-0.195313 z"
       style="font-size:50px"
       id="path3475" />
    <path
       d="m 301.37793,37.051749 q 0,-2.539063 0.73242,-4.833985 0.78125,-2.34375 2.19727,-4.101562 1.46484,-1.757813 3.51562,-2.783203 2.09961,-1.074219 4.83399,-1.074219 1.61132,0.195312 2.7832,0.878906 1.2207,0.683594 1.95312,1.708985 0.78125,0.976562 1.12305,2.294921 0.29297,1.269532 0.29297,2.734375 0,1.757813 -1.02539,3.173829 -1.02539,1.416015 -2.58789,2.392578 -1.5625,0.927734 -3.36914,1.464843 -1.80664,0.488282 -3.36914,0.488282 -0.58594,0 -1.22071,0 -0.58593,0 -1.07421,-0.195313 -0.48829,-0.195312 -0.78125,-0.585937 -0.29297,-0.390625 -0.29297,-1.171875 0,-0.244141 0.0488,-0.390625 0.0976,-0.195313 0.43945,-0.244141 0.3418,-0.09766 1.02539,-0.04883 0.68359,0.09766 1.85547,0.292969 0.68359,0 1.95312,-0.439453 1.31836,-0.488282 2.63672,-1.220704 1.36719,-0.732421 2.34375,-1.660156 0.97656,-0.976562 0.97656,-1.904297 0,-0.976562 -0.34179,-1.904297 -0.29297,-0.976562 -0.92774,-1.708984 -0.63476,-0.732422 -1.51367,-1.171875 -0.83008,-0.439453 -1.9043,-0.341797 -1.70898,0.146485 -3.125,0.927735 -1.36718,0.78125 -2.34375,2.050781 -0.97656,1.220703 -1.51367,2.734375 -0.53711,1.513672 -0.53711,3.173828 0,1.269531 0.0488,2.539062 0.0488,1.269532 0.3418,2.490235 0.34179,1.220703 1.02539,2.34375 0.73242,1.123047 2.05078,2.001953 1.36719,0.830078 3.41797,1.416016 2.05078,0.537109 5.07812,0.683593 l 8.74024,-0.585937 q -0.78125,1.074219 -2.00196,1.757812 -1.17187,0.683594 -2.53906,1.123047 -1.31836,0.390625 -2.63672,0.585938 -1.31836,0.195312 -2.49023,0.195312 -2.83203,0 -5.32227,-0.927734 -2.49023,-0.927735 -4.39453,-2.587891 -1.90429,-1.708984 -3.02734,-4.101562 -1.07422,-2.441407 -1.07422,-5.46875 z"
       style="font-size:50px"
       id="path3477" />
    <path
       d="m 327.15918,41.885733 q 0.0488,-0.830078 0.48828,-1.904297 0.43945,-1.074219 1.36719,-2.099609 0.92773,-1.025391 2.34375,-1.806641 1.41601,-0.830078 3.32031,-1.171875 1.95313,-0.341797 4.39453,-0.04883 2.49024,0.292969 5.51758,1.464844 0,-0.04883 0,-0.488281 l -0.0488,-0.439454 q 0,-1.269531 -0.73242,-2.58789 -0.73242,-1.31836 -1.9043,-2.34375 -1.12304,-1.074219 -2.4414,-1.708985 -1.31836,-0.683593 -2.53907,-0.683593 -0.48828,0 -0.8789,0.146484 -0.3418,0.146484 -0.6836,0.390625 -0.34179,0.195313 -0.68359,0.390625 -0.29297,0.146484 -0.73242,0.146484 -0.0977,0 -0.0977,-0.04883 -0.0488,-0.04883 -0.0976,-0.09766 -0.0977,-0.09766 -0.29297,-0.244141 -0.14649,-0.146484 -0.14649,-0.195312 0,-0.878906 0.29297,-1.513672 0.3418,-0.634766 0.87891,-1.025391 0.58594,-0.390625 1.26953,-0.585937 0.73242,-0.244141 1.51367,-0.244141 1.95313,0.195313 3.71094,1.220703 1.80664,0.976563 3.27148,2.490235 1.51368,1.513672 2.63672,3.515625 1.12305,1.953125 1.85547,4.101562 0.78125,2.09961 1.02539,4.248047 0.29297,2.246094 0.0488,4.199219 -0.0488,0 -0.29297,0 -0.24414,-0.04883 -0.53711,-0.04883 -0.29297,-0.04883 -0.48828,-0.09766 l -0.24414,-0.04883 q -1.02539,-2.294921 -2.29492,-3.710937 -1.26953,-1.416016 -2.53906,-2.197266 -1.22071,-0.830078 -2.29493,-1.123047 -1.07422,-0.341796 -1.75781,-0.488281 -0.73242,0 -1.75781,0.09766 -0.97656,0.09766 -2.05078,0.341797 -1.07422,0.244141 -2.19727,0.683594 -1.07422,0.390625 -1.95312,0.976563 -0.83008,0.585937 -1.36719,1.416015 -0.48828,0.78125 -0.48828,1.855469 0,1.171875 0.92773,2.001953 0.92774,0.78125 2.2461,1.318359 1.31836,0.488282 2.68554,0.683594 1.36719,0.195313 2.19727,0.195313 1.36719,0 2.68555,-0.146485 1.31835,-0.146484 2.58789,-0.341797 1.31836,-0.195312 2.58789,-0.341796 1.26953,-0.146485 2.53906,-0.146485 0.0977,0 0.3418,0 0.24414,0 0.48828,0.04883 0.29297,0 0.48828,0 0.24414,0 0.3418,0 0.39062,0.146485 0.43945,0.439453 0.0488,0.292969 0.0488,0.585938 0,0.292969 -0.63477,0.634766 -0.58594,0.341796 -1.5625,0.683593 -0.97656,0.341797 -2.19726,0.732422 -1.17188,0.341797 -2.29493,0.585938 -1.07422,0.24414 -2.05078,0.439453 -0.92773,0.146484 -1.31836,0.146484 -2.05078,0 -4.3457,-0.341797 -2.29492,-0.341797 -4.19922,-1.220703 -1.9043,-0.927734 -3.17383,-2.539062 -1.2207,-1.611328 -1.2207,-4.150391 z"
       style="font-size:50px"
       id="path3479" />
    <path
       d="m 352.35449,44.229483 q 0.39063,-0.292969 0.6836,-0.341797 0.34179,-0.09766 0.73242,-0.09766 0.43945,0 0.8789,0.244141 0.43946,0.195312 0.78125,0.537109 0.39063,0.292969 0.78125,0.585937 0.39063,0.292969 0.83008,0.488282 1.26953,0.537109 2.00196,0.878906 0.78125,0.341797 1.41601,0.537109 0.63477,0.195313 1.46484,0.244141 0.83008,0.04883 2.14844,0.04883 1.02539,0 2.49024,0.04883 1.46484,0 2.7832,-0.24414 1.31836,-0.292969 2.24609,-0.976563 0.92774,-0.732422 0.92774,-2.197266 0.0488,-1.416015 -0.78125,-2.197265 -0.78125,-0.830078 -2.14844,-1.269531 -1.36719,-0.439454 -3.07617,-0.585938 -1.70899,-0.195312 -3.51563,-0.390625 -1.80664,-0.195312 -3.56445,-0.537109 -1.70898,-0.390625 -3.07617,-1.171875 -1.36719,-0.78125 -2.19727,-2.148438 -0.83008,-1.367187 -0.8789,-3.515625 0.29297,-1.5625 1.51367,-2.58789 1.26953,-1.074219 2.97851,-1.611329 1.75782,-0.585937 3.71094,-0.585937 1.95313,-0.04883 3.56445,0.488281 1.66016,0.488281 2.73438,1.611328 1.12305,1.123047 1.17187,2.783203 0.0977,0.976563 -0.14648,1.611329 -0.24414,0.634765 -0.68359,0.976562 -0.39063,0.292969 -0.83008,0.292969 -0.43945,-0.04883 -0.6836,-0.341797 -0.24414,-0.341797 -0.24414,-0.927734 0.0488,-0.634766 0.58594,-1.5625 -0.19531,-0.927735 -1.12305,-1.464844 -0.92773,-0.53711 -2.14843,-0.732422 -1.22071,-0.244141 -2.63672,-0.09766 -1.36719,0.09766 -2.53906,0.488281 -1.12305,0.390625 -1.85547,1.025391 -0.6836,0.634765 -0.58594,1.464843 0,1.464844 0.83008,2.294922 0.8789,0.78125 2.24609,1.220703 1.36719,0.439453 3.125,0.634766 1.80664,0.195312 3.66211,0.390625 1.9043,0.146484 3.66211,0.488281 1.75781,0.292969 3.17383,1.025391 1.41601,0.732422 2.24609,2.001953 0.83008,1.220703 0.83008,3.222656 0,1.513672 -0.78125,2.636719 -0.78125,1.074219 -2.00195,1.806641 -1.17188,0.732421 -2.58789,1.074218 -1.41602,0.341797 -2.68555,0.341797 -1.26953,0 -2.73438,0 -1.41601,-0.04883 -2.92968,-0.195312 -1.46485,-0.146485 -2.97852,-0.439453 -1.51367,-0.341797 -2.83203,-0.976563 -1.26953,-0.683594 -2.29492,-1.708984 -1.02539,-1.025391 -1.66016,-2.587891 z"
       style="font-size:50px"
       id="path3481" />
    <path
       d="m 378.2334,37.051749 q 0,-2.539063 0.73242,-4.833985 0.78125,-2.34375 2.19727,-4.101562 1.46484,-1.757813 3.51562,-2.783203 2.09961,-1.074219 4.83399,-1.074219 1.61132,0.195312 2.7832,0.878906 1.2207,0.683594 1.95312,1.708985 0.78125,0.976562 1.12305,2.294921 0.29297,1.269532 0.29297,2.734375 0,1.757813 -1.02539,3.173829 -1.02539,1.416015 -2.58789,2.392578 -1.5625,0.927734 -3.36914,1.464843 -1.80664,0.488282 -3.36914,0.488282 -0.58594,0 -1.22071,0 -0.58593,0 -1.07422,-0.195313 -0.48828,-0.195312 -0.78125,-0.585937 -0.29296,-0.390625 -0.29296,-1.171875 0,-0.244141 0.0488,-0.390625 0.0977,-0.195313 0.43946,-0.244141 0.34179,-0.09766 1.02539,-0.04883 0.68359,0.09766 1.85547,0.292969 0.68359,0 1.95312,-0.439453 1.31836,-0.488282 2.63672,-1.220704 1.36719,-0.732421 2.34375,-1.660156 0.97656,-0.976562 0.97656,-1.904297 0,-0.976562 -0.34179,-1.904297 -0.29297,-0.976562 -0.92774,-1.708984 -0.63476,-0.732422 -1.51367,-1.171875 -0.83008,-0.439453 -1.9043,-0.341797 -1.70898,0.146485 -3.125,0.927735 -1.36718,0.78125 -2.34375,2.050781 -0.97656,1.220703 -1.51367,2.734375 -0.53711,1.513672 -0.53711,3.173828 0,1.269531 0.0488,2.539062 0.0488,1.269532 0.3418,2.490235 0.34179,1.220703 1.02539,2.34375 0.73242,1.123047 2.05078,2.001953 1.36719,0.830078 3.41797,1.416016 2.05078,0.537109 5.07812,0.683593 l 8.74024,-0.585937 q -0.78125,1.074219 -2.00196,1.757812 -1.17187,0.683594 -2.53906,1.123047 -1.31836,0.390625 -2.63672,0.585938 -1.31836,0.195312 -2.49023,0.195312 -2.83203,0 -5.32227,-0.927734 -2.49023,-0.927735 -4.39453,-2.587891 -1.9043,-1.708984 -3.02734,-4.101562 -1.07422,-2.441407 -1.07422,-5.46875 z"
       style="font-size:50px"
       id="path3483" />
    <path
       d="m 72.374016,106.2412 q 0,-3.07617 1.074218,-5.17578 1.074219,-2.099609 2.832032,-3.36914 1.80664,-1.269531 4.15039,-1.855469 2.392578,-0.585937 4.980469,-0.585937 2.099609,0 4.052734,0.683593 2.001954,0.683594 3.564454,1.904297 1.5625,1.220703 2.490234,2.978516 0.927734,1.75781 0.927734,4.00391 0,1.95312 -0.732422,3.22265 -0.732421,1.22071 -2.001953,1.95313 -1.269531,0.68359 -2.832031,0.97656 -1.513672,0.29297 -3.125,0.29297 -1.5625,0 -3.222656,-0.14649 -1.611328,-0.14648 -2.978516,-0.68359 -1.367187,-0.53711 -2.246094,-1.61133 -0.878906,-1.07422 -0.878906,-3.02734 1.025391,0 1.953125,0.43945 0.976563,0.39063 1.953125,0.87891 0.976563,0.43945 1.953125,0.83008 0.927735,0.43945 2.001953,0.43945 0.78125,0 2.050782,-0.14649 1.318359,-0.14648 2.441406,-0.5371 1.171875,-0.43946 2.001953,-1.17188 0.830078,-0.73242 0.830078,-1.85547 0,-1.66015 -0.732422,-2.88086 -0.732422,-1.2207 -1.904297,-2.001951 -1.171875,-0.830078 -2.636718,-1.269531 -1.464844,-0.439453 -2.929688,-0.439453 -0.195312,0 -0.976562,0.09766 -0.732422,0.09766 -1.708985,0.341797 -0.976562,0.195313 -2.050781,0.537109 -1.074219,0.292969 -2.001953,0.78125 -0.878906,0.439449 -1.464844,1.025389 -0.585937,0.58594 -0.585937,1.31836 l 0,0.58593 q 0.04883,0.53711 0.09766,1.46485 0.09766,0.8789 0.146484,1.80664 0.04883,0.87891 0.146485,1.5625 0.09766,0.68359 0.09766,0.78125 0.09766,0.78125 0.341797,2.44141 0.24414,1.61132 0.537109,3.61328 0.292969,2.05078 0.634766,4.29687 0.390625,2.2461 0.732422,4.24805 0.341796,2.05078 0.585937,3.66211 0.292969,1.61133 0.439453,2.34375 0,0.0976 0,0.14648 0.04883,0.0977 0.04883,0.14649 0,0.0488 0,0.0488 l -0.04883,0.0977 0,0.0977 q -0.09766,0.14648 -0.439453,0.48828 -0.390625,0.29297 -0.488281,0.39062 l -0.292969,0 q -0.488281,0 -1.025391,-0.92773 -0.537109,-0.87891 -1.123046,-2.44141 -0.53711,-1.51367 -1.123047,-3.51562 -0.53711,-2.00196 -1.074219,-4.15039 -0.537109,-2.14844 -0.976563,-4.24805 -0.439453,-2.09961 -0.78125,-3.90625 -0.341796,-1.80664 -0.537109,-3.125 -0.146484,-1.31836 -0.146484,-1.85547 z"
       style="font-size:50px"
       id="path3485"
       inkscape:connector-curvature="0" />
    <path
       d="m 99.522453,112.24706 q -0.488281,-3.4668 -0.634765,-6.88476 -0.09766,-3.4668 -0.09766,-6.933598 0,-3.466797 0.09766,-6.884766 0.09766,-3.417969 0.04883,-6.835937 0,-0.390625 0.292968,-0.53711 0.292969,-0.146484 0.683594,-0.146484 0.43945,0 0.78125,0.341797 0.3418,0.292969 0.58594,0.78125 0.24414,0.439453 0.34179,0.927734 0.14649,0.439453 0.14649,0.732422 0.29297,6.982422 0.39062,11.669922 0.0977,4.63867 0,7.51953 -0.0977,2.83203 -0.34179,4.19922 -0.19532,1.36719 -0.53711,1.85547 -0.3418,0.48828 -0.83008,0.39062 -0.43945,-0.0977 -0.927735,-0.19531 z"
       style="font-size:50px"
       id="path3487"
       inkscape:connector-curvature="0" />
    <path
       d="m 104.50292,104.38573 q 0.0488,-0.83008 0.48828,-1.90429 0.43946,-1.07422 1.36719,-2.09961 0.92773,-1.025394 2.34375,-1.806644 1.41602,-0.830078 3.32031,-1.171875 1.95313,-0.341797 4.39453,-0.04883 2.49024,0.292969 5.51758,1.464844 0,-0.04883 0,-0.488281 l -0.0488,-0.439454 q 0,-1.269531 -0.73242,-2.58789 -0.73242,-1.31836 -1.9043,-2.34375 -1.12304,-1.074219 -2.4414,-1.708985 -1.31836,-0.683593 -2.53906,-0.683593 -0.48829,0 -0.87891,0.146484 -0.3418,0.146484 -0.68359,0.390625 -0.3418,0.195313 -0.6836,0.390625 -0.29297,0.146484 -0.73242,0.146484 -0.0977,0 -0.0977,-0.04883 -0.0488,-0.04883 -0.0977,-0.09766 -0.0977,-0.09766 -0.29297,-0.244141 -0.14648,-0.146484 -0.14648,-0.195312 0,-0.878906 0.29297,-1.513672 0.34179,-0.634766 0.8789,-1.025391 0.58594,-0.390625 1.26953,-0.585937 0.73242,-0.244141 1.51367,-0.244141 1.95313,0.195313 3.71094,1.220703 1.80664,0.976563 3.27148,2.490235 1.51368,1.513672 2.63672,3.515625 1.12305,1.953125 1.85547,4.101562 0.78125,2.099609 1.02539,4.248049 0.29297,2.24609 0.0488,4.19921 -0.0488,0 -0.29297,0 -0.24414,-0.0488 -0.53711,-0.0488 -0.29297,-0.0488 -0.48828,-0.0977 l -0.24414,-0.0488 q -1.02539,-2.29492 -2.29492,-3.71094 -1.26953,-1.41601 -2.53906,-2.19726 -1.22071,-0.83008 -2.29493,-1.12305 -1.07421,-0.341792 -1.75781,-0.488277 -0.73242,0 -1.75781,0.09766 -0.97656,0.09766 -2.05078,0.341797 -1.07422,0.24414 -2.19726,0.6836 -1.07422,0.39062 -1.95313,0.97656 -0.83008,0.58594 -1.36719,1.41602 -0.48828,0.78125 -0.48828,1.85546 0,1.17188 0.92774,2.00196 0.92773,0.78125 2.24609,1.31836 1.31836,0.48828 2.68555,0.68359 1.36718,0.19531 2.19726,0.19531 1.36719,0 2.68555,-0.14648 1.31836,-0.14649 2.58789,-0.3418 1.31836,-0.19531 2.58789,-0.34179 1.26953,-0.14649 2.53906,-0.14649 0.0977,0 0.3418,0 0.24414,0 0.48828,0.0488 0.29297,0 0.48828,0 0.24414,0 0.3418,0 0.39062,0.14648 0.43945,0.43945 0.0488,0.29297 0.0488,0.58594 0,0.29297 -0.63477,0.63477 -0.58594,0.34179 -1.5625,0.68359 -0.97656,0.3418 -2.19726,0.73242 -1.17188,0.3418 -2.29493,0.58594 -1.07421,0.24414 -2.05078,0.43945 -0.92773,0.14649 -1.31836,0.14649 -2.05078,0 -4.3457,-0.3418 -2.29492,-0.3418 -4.19922,-1.2207 -1.90429,-0.92774 -3.17382,-2.53907 -1.22071,-1.61132 -1.22071,-4.15039 z"
       style="font-size:50px"
       id="path3489"
       inkscape:connector-curvature="0" />
    <path
       d="m 129.79589,101.74901 q 0,-2.148433 0.83008,-4.150386 0.83008,-2.050782 2.24609,-3.613282 1.46485,-1.5625 3.36914,-2.490234 1.9043,-0.927734 4.05274,-0.927734 0.97656,0 2.05078,0.24414 1.12304,0.195313 2.09961,0.683594 0.97656,0.488281 1.61133,1.318359 0.63476,0.78125 0.63476,2.001954 0,0.195312 -0.14648,0.78125 -0.0977,0.585937 -0.29297,1.171875 -0.19531,0.585937 -0.48828,1.074218 -0.24414,0.439453 -0.43946,0.439453 0,-2.294921 -1.26953,-3.808593 -1.26953,-1.5625 -3.71094,-1.5625 -1.85546,0 -3.32031,0.78125 -1.46484,0.78125 -2.4414,2.050781 -0.97657,1.269531 -1.51368,2.880859 -0.48828,1.562496 -0.48828,3.222656 0,2.24609 0.73242,3.71094 0.73243,1.46484 2.00196,2.39258 1.26953,0.8789 2.92969,1.31836 1.66015,0.43945 3.51562,0.58593 1.85547,0.14649 3.71094,0.0977 1.85547,-0.0488 3.56445,-0.14649 0.14649,0 0.48828,0.19532 0.3418,0.19531 0.48828,0.24414 l 0,0.14648 q 0,0.0977 0,0.0977 0.0488,0 0.0488,0.0488 0,0.53711 -0.53711,0.92773 -0.53711,0.39063 -1.31836,0.63477 -0.78125,0.24414 -1.70898,0.34179 -0.92774,0.0977 -1.85547,0.19532 -0.87891,0.0488 -1.5625,0.0488 -0.68359,0 -0.97656,0 -2.83203,0 -5.12696,-0.63476 -2.24609,-0.63477 -3.85742,-1.95313 -1.5625,-1.36718 -2.4414,-3.41797 -0.87891,-2.0996 -0.87891,-4.93164 z"
       style="font-size:50px"
       id="path3491"
       inkscape:connector-curvature="0" />
    <path
       d="m 152.25683,99.551749 q 0,-2.539063 0.73242,-4.833985 0.78125,-2.34375 2.19726,-4.101562 1.46485,-1.757813 3.51563,-2.783203 2.09961,-1.074219 4.83398,-1.074219 1.61133,0.195312 2.78321,0.878906 1.2207,0.683594 1.95312,1.708985 0.78125,0.976562 1.12305,2.294921 0.29297,1.269532 0.29297,2.734375 0,1.757813 -1.02539,3.173829 -1.02539,1.416015 -2.58789,2.392578 -1.5625,0.927736 -3.36914,1.464846 -1.80664,0.48828 -3.36914,0.48828 -0.58594,0 -1.22071,0 -0.58594,0 -1.07422,-0.19531 -0.48828,-0.19532 -0.78125,-0.58594 -0.29297,-0.39063 -0.29297,-1.171876 0,-0.244141 0.0488,-0.390625 0.0977,-0.195313 0.43946,-0.244141 0.34179,-0.09766 1.02539,-0.04883 0.68359,0.09766 1.85547,0.292969 0.68359,0 1.95312,-0.439453 1.31836,-0.488282 2.63672,-1.220704 1.36719,-0.732421 2.34375,-1.660156 0.97656,-0.976562 0.97656,-1.904297 0,-0.976562 -0.3418,-1.904297 -0.29296,-0.976562 -0.92773,-1.708984 -0.63477,-0.732422 -1.51367,-1.171875 -0.83008,-0.439453 -1.9043,-0.341797 -1.70898,0.146485 -3.125,0.927735 -1.36719,0.78125 -2.34375,2.050781 -0.97656,1.220703 -1.51367,2.734375 -0.53711,1.513672 -0.53711,3.173828 0,1.269531 0.0488,2.539067 0.0488,1.26953 0.3418,2.49023 0.34179,1.2207 1.02539,2.34375 0.73242,1.12305 2.05078,2.00195 1.36718,0.83008 3.41797,1.41602 2.05078,0.53711 5.07812,0.68359 l 8.74024,-0.58593 q -0.78125,1.07422 -2.00196,1.75781 -1.17187,0.68359 -2.53906,1.12305 -1.31836,0.39062 -2.63672,0.58593 -1.31836,0.19532 -2.49023,0.19532 -2.83203,0 -5.32227,-0.92774 -2.49023,-0.92773 -4.39453,-2.58789 -1.9043,-1.70898 -3.02734,-4.10156 -1.07422,-2.44141 -1.07422,-5.468753 z"
       style="font-size:50px"
       id="path3493"
       inkscape:connector-curvature="0" />
    <path
       d="m 198.10644,127.87206 q 0,-0.3418 0,-0.68359 0,-0.29297 0.0977,-0.53711 0.0977,-0.19531 0.29297,-0.3418 0.29297,-0.0977 0.6836,-0.0977 0.73242,0.83008 1.85546,2.09961 1.17188,1.31836 2.63672,2.53907 1.46485,1.2207 3.07617,2.14843 1.61133,0.92774 3.27149,0.92774 1.36719,-0.0488 2.34375,-0.73242 0.97656,-0.63477 1.66016,-1.70899 0.68359,-1.07422 1.12304,-2.4414 0.43946,-1.36719 0.6836,-2.78321 0.29296,-1.41601 0.39062,-2.73437 0.14649,-1.31836 0.29297,-2.29492 0.0977,-0.48829 0.19531,-1.66016 0.14649,-1.12305 0.24414,-2.53906 0.14649,-1.36719 0.19532,-2.88086 0.0977,-1.51367 0,-2.73438 -0.0977,-1.26953 -0.39063,-2.05078 -0.29297,-0.83008 -0.87891,-0.83008 -0.83007,0 -1.75781,0.48828 -0.92773,0.48829 -1.95312,1.12305 -0.97657,0.58594 -2.00196,1.07422 -1.02539,0.48828 -2.00195,0.48828 -1.85547,0 -3.41797,-0.73242 -1.51367,-0.78125 -2.7832,-2.00195 -1.26953,-1.22071 -2.2461,-2.83203 -0.97656,-1.66016 -1.66015,-3.41797 -0.63477,-1.75782 -0.97656,-3.515628 -0.29297,-1.757813 -0.29297,-3.320313 0,-0.341797 -0.0977,-1.123047 -0.0488,-0.78125 0.0488,-1.611328 0.0977,-0.830078 0.43945,-1.464843 0.3418,-0.634766 1.07422,-0.634766 0.19531,0 0.29297,0.78125 0.14648,0.78125 0.29297,2.050781 0.19531,1.220703 0.43945,2.832031 0.29297,1.611329 0.73242,3.271485 0.43946,1.660158 1.07422,3.271488 0.63477,1.61132 1.5625,2.88086 0.92774,1.2207 2.19727,2.00195 1.31836,0.78125 2.97851,0.78125 1.07422,0 2.2461,-0.43945 1.17187,-0.48829 2.19726,-1.22071 1.07422,-0.73242 1.95313,-1.66015 0.8789,-0.97657 1.36719,-1.9043 0,-0.19531 -0.0488,-0.92774 -0.0488,-0.73242 -0.0977,-1.66015 -0.0488,-0.97656 -0.0977,-2.099611 -0.0488,-1.123047 -0.0977,-2.099609 -0.0488,-1.025391 -0.0977,-1.757813 0,-0.732421 0,-0.927734 0.0977,-2.978516 0.43946,-3.613281 0.34179,-0.683594 0.83007,0.390625 0.48828,1.074219 1.02539,3.613281 0.53711,2.539063 0.97657,5.957032 0.48828,3.36914 0.73242,7.37305 0.29297,4.0039 0.24414,8.00781 -0.0488,4.05273 -0.53711,7.8125 -0.43945,3.75976 -1.46484,6.64062 -1.02539,2.92969 -2.68555,4.73633 -1.66016,1.80664 -4.10156,1.9043 -0.97657,0 -2.34375,-0.39063 -1.31836,-0.34179 -2.68555,-0.97656 -1.36719,-0.63476 -2.73438,-1.51367 -1.31835,-0.87891 -2.39257,-1.9043 -1.02539,-1.02539 -1.70899,-2.14844 -0.63476,-1.12304 -0.63476,-2.24609 z"
       style="font-size:50px"
       id="path3495"
       inkscape:connector-curvature="0" />
    <path
       d="m 221.20214,102.67675 q 0,-2.685548 1.17187,-4.687501 1.17188,-2.001953 3.07618,-3.369141 1.90429,-1.367187 4.24804,-2.001953 2.39258,-0.683594 4.78516,-0.683594 1.26953,0 2.34375,0.488281 1.12305,0.439454 2.09961,1.269532 1.02539,0.78125 1.80664,1.855468 0.78125,1.025391 1.31836,2.148438 0.58594,1.123047 0.87891,2.294922 0.29296,1.123048 0.29296,2.197268 0,2.49023 -0.97656,4.44336 -0.97656,1.95312 -2.63672,3.32031 -1.66015,1.31836 -3.75976,2.05078 -2.09961,0.68359 -4.29688,0.68359 -2.24609,0 -4.15039,-0.68359 -1.85547,-0.73242 -3.27148,-2.00195 -1.36719,-1.26953 -2.14844,-3.125 -0.78125,-1.9043 -0.78125,-4.19922 z m 2.39258,-0.39063 q 0,1.51368 0.53711,2.92969 0.58593,1.36719 1.5625,2.39258 1.02539,1.02539 2.39258,1.66016 1.36718,0.58593 2.92968,0.58593 0.83008,0.0977 2.00196,-0.24414 1.2207,-0.39062 2.39257,-1.07422 1.22071,-0.73242 2.29493,-1.70898 1.12304,-1.02539 1.85546,-2.19727 0.73243,-1.2207 0.87891,-2.49023 0.19531,-1.31836 -0.43945,-2.587891 -0.58594,-1.31836 -2.19727,-2.490235 -1.61133,-1.220703 -4.44336,-2.246093 -1.61133,0 -3.36914,0.488281 -1.70898,0.439453 -3.125,1.367187 -1.41601,0.927735 -2.34375,2.34375 -0.92773,1.416011 -0.92773,3.271481 z"
       style="font-size:50px"
       id="path3497"
       inkscape:connector-curvature="0" />
    <path
       d="m 263.34081,105.55761 q -1.12305,0.63476 -1.95312,1.5625 -0.78125,0.8789 -1.61133,1.70898 -0.83008,0.78125 -1.85547,1.36719 -0.97656,0.58594 -2.53906,0.58594 -1.75782,0 -3.17383,-0.73242 -1.41602,-0.78125 -2.53906,-2.05079 -1.07422,-1.31836 -1.9043,-2.92968 -0.78125,-1.66016 -1.31836,-3.36914 -0.48828,-1.757816 -0.78125,-3.417973 -0.24414,-1.708984 -0.24414,-3.076171 -0.39063,-2.636719 0.14648,-4.101563 0.53711,-1.513672 1.26954,-1.904297 0.78125,-0.439453 1.31835,0.195313 0.53711,0.585937 0.14649,2.099609 -0.0977,0.195313 -0.14649,0.634766 -0.0488,0.390625 -0.0977,0.830078 -0.0488,0.439453 -0.0977,0.830078 -0.0488,0.390625 -0.0488,0.537109 0,1.025391 0.19532,2.441407 0.19531,1.367187 0.58593,2.880859 0.43946,1.513675 1.07422,3.027345 0.63477,1.46484 1.51367,2.63672 0.87891,1.17187 2.00196,1.90429 1.17187,0.73243 2.53906,0.73243 0.87891,0 2.00195,-0.83008 1.12305,-0.87891 2.09961,-2.05078 1.02539,-1.22071 1.70899,-2.49024 0.73242,-1.26953 0.73242,-2.14844 0,-0.488276 0,-1.611323 0.0488,-1.123047 0.0488,-2.392578 0,-1.269532 -0.0488,-2.392578 0,-1.123047 0,-1.5625 0.29297,-0.488282 0.63476,-0.732422 0.3418,-0.292969 0.83008,-0.292969 0.58594,0 0.97657,0.78125 0.39062,0.78125 0.63476,2.001953 0.24414,1.220703 0.3418,2.636719 0.0976,1.416015 0.14648,2.734375 0.0488,1.318363 0.0977,2.343753 0.0488,0.97656 0.14648,1.31836 0.24414,0.97656 0.6836,2.19726 0.48828,1.2207 0.92773,2.39258 0.43945,1.12305 0.78125,2.09961 0.3418,0.92773 0.3418,1.41601 0,0.73243 -0.43946,0.87891 -0.39062,0.14649 -1.02539,0.14649 -0.78125,0 -1.17187,-0.39063 -0.3418,-0.39062 -0.53711,-0.97656 -0.14648,-0.63477 -0.24414,-1.36719 -0.0977,-0.73242 -0.3418,-1.51367 -0.19531,-0.78125 -0.63476,-1.46485 -0.39063,-0.68359 -1.17188,-1.12304 z"
       style="font-size:50px"
       id="path3499"
       inkscape:connector-curvature="0" />
    <path
       d="m 275.05956,112.63769 q -1.07422,-1.95313 -1.85547,-4.24805 -0.78125,-2.29492 -1.31836,-4.63867 -0.53711,-2.34375 -0.8789,-4.541018 -0.29297,-2.246094 -0.39063,-4.052735 0,-0.341796 -0.0488,-0.732421 -0.0488,-0.439454 -0.0488,-0.878907 0.0488,-0.439453 0.14648,-0.830078 0.14648,-0.390625 0.43945,-0.683594 l 0.0977,0 q 0.0488,0 0.0488,0 0,-0.04883 0.0488,-0.04883 0.0488,0 0.0488,0.04883 0,0 0.0977,0 l 0.0977,0 q 0.0976,0.04883 0.48828,0.195313 0.39062,0.146484 0.48828,0.244141 0.87891,-0.292969 1.80664,-0.683594 0.92773,-0.439453 1.85547,-0.78125 0.97656,-0.390625 1.95312,-0.634766 0.97657,-0.24414 1.9043,-0.24414 0.68359,0 1.17188,0.04883 0.5371,0.04883 1.02539,0.195312 0.53711,0.09766 1.12304,0.292969 0.58594,0.146484 1.36719,0.390625 0.39063,0.292969 0.68359,0.585937 0.3418,0.244141 0.58594,0.585938 0.29297,0.341797 0.43945,0.830078 0.14649,0.488281 0.14649,1.269531 -0.78125,0.09766 -1.85547,-0.09766 -1.02539,-0.244141 -2.19727,-0.585937 -1.12304,-0.341797 -2.34375,-0.585938 -1.2207,-0.244141 -2.34375,-0.195312 -1.12304,0.04883 -2.0996,0.634765 -1.0254,0.488281 -1.80665,1.757813 -0.34179,1.416015 -0.29296,2.783203 0.0488,1.367187 0.34179,2.685545 0.29297,1.26953 0.73242,2.58789 0.48829,1.26954 0.87891,2.58789 0.43945,1.26954 0.78125,2.53907 0.3418,1.26953 0.43945,2.58789 0,0.48828 -0.53711,1.07422 -0.5371,0.53711 -1.2207,0.53711 z"
       style="font-size:50px"
       id="path3501"
       inkscape:connector-curvature="0" />
    <path
       d="m 321.83691,111.75878 q 0.0976,-1.26953 0.19531,-2.63672 0.0976,-1.36719 0.14648,-2.73437 0.0977,-1.36719 0.0977,-2.68555 0.0488,-1.31836 0.0488,-2.39258 0,-1.562499 -0.43946,-2.978514 -0.43945,-1.416016 -1.26953,-2.441407 -0.83008,-1.074218 -2.09961,-1.660156 -1.2207,-0.634766 -2.92968,-0.634766 -0.6836,0 -1.17188,0.09766 -0.48828,0.09766 -0.97656,0.341797 -0.48828,0.195312 -1.07422,0.537109 -0.58594,0.390625 -1.36719,0.927734 0,0.09766 -0.0488,0.390625 0,0.244141 0,0.292969 0,1.074219 0.19532,2.880859 0.24414,1.75781 0.48828,3.71093 0.24414,1.9043 0.48828,3.71094 0.24414,1.80664 0.24414,2.92969 0,0.0977 0,0.39062 0,0.29297 -0.0488,0.63477 0,0.3418 0,0.63477 0,0.29296 0,0.43945 -0.29297,0.68359 -0.73242,0.87891 -0.39063,0.14648 -0.97656,0.14648 -0.58594,0.0977 -0.87891,-0.83008 -0.29297,-0.92773 -0.43945,-2.68555 -0.14649,-1.75781 -0.29297,-4.24804 -0.0977,-2.49024 -0.3418,-5.468749 -0.19531,-2.978516 -0.63476,-6.298828 -0.39063,-3.369141 -1.17188,-6.884766 -0.39062,-1.367187 -0.63476,-2.294922 -0.19532,-0.976562 -0.39063,-1.708984 -0.19531,-0.78125 -0.3418,-1.5625 -0.14648,-0.830078 -0.34179,-1.953125 l 0,-0.195312 q 0,-0.195313 0.24414,-0.341797 0.24414,-0.195313 0.53711,-0.341797 0.34179,-0.146485 0.63476,-0.195313 0.3418,-0.09766 0.53711,-0.09766 0.92774,2.441406 1.46485,4.150391 0.58593,1.660156 0.92773,2.880859 0.3418,1.220703 0.48828,2.050781 0.14649,0.830078 0.24414,1.611328 0.0977,0.78125 0.14649,1.611329 0.0488,0.830078 0.19531,2.001953 2.53906,-1.5625 4.58984,-1.708985 2.09961,-0.146484 3.71094,0.634766 1.61133,0.732422 2.7832,2.294922 1.22071,1.5625 2.00196,3.515625 0.78125,1.953125 1.17187,4.150394 0.43945,2.19726 0.53711,4.24804 0.14648,2.05079 -0.0977,3.8086 -0.19531,1.70898 -0.63476,2.7832 -0.43945,1.02539 -1.17188,1.17188 -0.73242,0.19531 -1.61132,-0.87891 z"
       style="font-size:50px"
       id="path3503"
       inkscape:connector-curvature="0" />
    <path
       d="m 328.13573,104.38573 q 0.0488,-0.83008 0.48828,-1.90429 0.43946,-1.07422 1.36719,-2.09961 0.92774,-1.025394 2.34375,-1.806644 1.41602,-0.830078 3.32031,-1.171875 1.95313,-0.341797 4.39454,-0.04883 2.49023,0.292969 5.51757,1.464844 0,-0.04883 0,-0.488281 l -0.0488,-0.439454 q 0,-1.269531 -0.73243,-2.58789 -0.73242,-1.31836 -1.90429,-2.34375 -1.12305,-1.074219 -2.44141,-1.708985 -1.31836,-0.683593 -2.53906,-0.683593 -0.48828,0 -0.87891,0.146484 -0.34179,0.146484 -0.68359,0.390625 -0.3418,0.195313 -0.6836,0.390625 -0.29296,0.146484 -0.73242,0.146484 -0.0976,0 -0.0976,-0.04883 -0.0488,-0.04883 -0.0977,-0.09766 -0.0977,-0.09766 -0.29297,-0.244141 -0.14648,-0.146484 -0.14648,-0.195312 0,-0.878906 0.29297,-1.513672 0.34179,-0.634766 0.8789,-1.025391 0.58594,-0.390625 1.26953,-0.585937 0.73243,-0.244141 1.51368,-0.244141 1.95312,0.195313 3.71093,1.220703 1.80664,0.976563 3.27149,2.490235 1.51367,1.513672 2.63672,3.515625 1.12304,1.953125 1.85546,4.101562 0.78125,2.099609 1.0254,4.248049 0.29296,2.24609 0.0488,4.19921 -0.0488,0 -0.29297,0 -0.24414,-0.0488 -0.5371,-0.0488 -0.29297,-0.0488 -0.48829,-0.0977 l -0.24414,-0.0488 q -1.02539,-2.29492 -2.29492,-3.71094 -1.26953,-1.41601 -2.53906,-2.19726 -1.2207,-0.83008 -2.29492,-1.12305 -1.07422,-0.341792 -1.75782,-0.488277 -0.73242,0 -1.75781,0.09766 -0.97656,0.09766 -2.05078,0.341797 -1.07422,0.24414 -2.19726,0.6836 -1.07422,0.39062 -1.95313,0.97656 -0.83008,0.58594 -1.36719,1.41602 -0.48828,0.78125 -0.48828,1.85546 0,1.17188 0.92774,2.00196 0.92773,0.78125 2.24609,1.31836 1.31836,0.48828 2.68555,0.68359 1.36718,0.19531 2.19726,0.19531 1.36719,0 2.68555,-0.14648 1.31836,-0.14649 2.58789,-0.3418 1.31836,-0.19531 2.58789,-0.34179 1.26953,-0.14649 2.53906,-0.14649 0.0977,0 0.3418,0 0.24414,0 0.48828,0.0488 0.29297,0 0.48828,0 0.24414,0 0.3418,0 0.39062,0.14648 0.43945,0.43945 0.0488,0.29297 0.0488,0.58594 0,0.29297 -0.63477,0.63477 -0.58593,0.34179 -1.5625,0.68359 -0.97656,0.3418 -2.19726,0.73242 -1.17188,0.3418 -2.29492,0.58594 -1.07422,0.24414 -2.05078,0.43945 -0.92774,0.14649 -1.31836,0.14649 -2.05078,0 -4.34571,-0.3418 -2.29492,-0.3418 -4.19922,-1.2207 -1.90429,-0.92774 -3.17382,-2.53907 -1.22071,-1.61132 -1.22071,-4.15039 z"
       style="font-size:50px"
       id="path3505"
       inkscape:connector-curvature="0" />
    <path
       d="m 353.91698,93.594717 q 0,-0.439453 0.29297,-0.537109 0.3418,-0.146484 0.73242,-0.146484 0.29297,0 0.39063,0.146484 0.14648,0.146484 0.19531,0.341797 0.0488,0.195312 0.14649,0.390625 0.0976,0.146484 0.34179,0.146484 0.6836,0 1.66016,-0.537109 0.97656,-0.537109 2.09961,-1.171875 1.17187,-0.634766 2.4414,-1.171875 1.31836,-0.537109 2.5879,-0.537109 1.66015,0 3.02734,0.878906 1.41601,0.830078 2.49023,2.246094 1.12305,1.416015 1.9043,3.173828 0.78125,1.757812 1.31836,3.613276 0.53711,1.80665 0.78125,3.56446 0.24414,1.70898 0.24414,2.97851 0,0.43946 -0.0977,1.31836 -0.0488,0.87891 -0.24414,1.75782 -0.14648,0.8789 -0.53711,1.5625 -0.39062,0.63476 -0.97656,0.63476 -0.0976,0 -0.3418,0 -0.24414,-0.0488 -0.48828,-0.0977 -0.24414,-0.0977 -0.43945,-0.19531 -0.14648,-0.0976 -0.14648,-0.29297 0.43945,-3.75976 0,-7.03125 -0.43946,-3.32031 -1.41602,-5.810543 -0.97656,-2.490235 -2.39258,-3.955078 -1.41601,-1.464844 -3.02734,-1.464844 -1.51367,0 -2.83203,0.488281 -1.31836,0.488281 -2.29492,1.416016 -0.97657,0.927734 -1.5625,2.246094 -0.53711,1.318359 -0.53711,2.880854 0,1.5625 0.29296,3.125 0.29297,1.51368 0.63477,3.07618 0.39063,1.51367 0.68359,3.07617 0.29297,1.5625 0.29297,3.125 -1.36718,0 -2.29492,-1.12305 -0.92773,-1.12305 -1.51367,-2.88086 -0.53711,-1.75781 -0.87891,-3.95508 -0.29297,-2.19726 -0.43945,-4.29687 -0.0977,-2.148438 -0.0977,-4.003907 0,-1.904297 0,-2.978516 z"
       style="font-size:50px"
       id="path3507"
       inkscape:connector-curvature="0" />
    <path
       d="m 376.37792,101.5537 q 0,-1.806639 0.43945,-3.808592 0.48829,-2.001953 1.46485,-3.710937 1.02539,-1.708985 2.53906,-2.783204 1.5625,-1.123046 3.80859,-1.123046 1.17188,0 2.34375,0.341796 1.17188,0.341797 2.39258,0.976563 1.26953,0.634766 2.58789,1.513672 1.36719,0.830078 2.88086,1.855469 0.19531,-1.953125 -0.14648,-4.003907 -0.3418,-2.099609 -0.87891,-4.101562 -0.53711,-2.001953 -1.12305,-3.759766 -0.5371,-1.80664 -0.78125,-3.222656 -0.24414,-1.416016 -0.0488,-2.34375 0.19531,-0.927734 1.17187,-1.171875 1.31836,0.976562 2.2461,2.783203 0.97656,1.757813 1.66015,4.101563 0.6836,2.34375 1.12305,5.029296 0.43945,2.636719 0.73242,5.371094 0.29297,2.734375 0.43945,5.322266 0.19532,2.587893 0.39063,4.785153 0.19531,2.14844 0.3418,3.71094 0.19531,1.51367 0.5371,2.14844 0,0.78125 -0.58593,0.97656 -0.53711,0.19531 -1.12305,0.19531 -0.48828,0 -0.83008,-0.34179 -0.34179,-0.39063 -0.53711,-0.87891 -0.19531,-0.48828 -0.39062,-1.07422 -0.14649,-0.63476 -0.3418,-1.12305 -0.19531,-0.53711 -0.43945,-0.8789 -0.24414,-0.3418 -0.63477,-0.3418 -0.0976,0 -0.29297,0.0488 -0.14648,0 -0.14648,0.0488 -0.92774,1.26953 -2.19727,2.49023 -1.2207,1.17188 -2.73437,2.09961 -1.46485,0.87891 -3.125,1.41602 -1.61133,0.53711 -3.27149,0.53711 -1.85546,0 -3.27148,-1.22071 -1.36719,-1.2207 -2.34375,-2.92968 -0.92773,-1.70899 -1.41602,-3.61329 -0.43945,-1.90429 -0.43945,-3.32031 z m 3.02734,0.87891 q 0.48829,1.75781 0.87891,3.07617 0.39063,1.31836 0.92774,2.14844 0.58593,0.83008 1.36718,1.26953 0.78125,0.39062 2.05078,0.39062 1.5625,0 3.32032,-0.8789 1.75781,-0.92774 3.27148,-2.34375 1.51367,-1.41602 2.49024,-3.07617 0.97656,-1.70899 0.97656,-3.271489 0,-0.146484 0,-0.585937 0,-0.439453 0,-0.585938 -2.58789,-2.539062 -4.78516,-3.613281 -2.14844,-1.123047 -3.85742,-1.123047 -1.70898,-0.04883 -2.97852,0.732422 -1.26953,0.78125 -2.09961,2.050781 -0.83007,1.269531 -1.2207,2.832031 -0.39062,1.562498 -0.3418,2.978518 z"
       style="font-size:50px"
       id="path3509"
       inkscape:connector-curvature="0" />
    <path
       d="m 51.036133,166.88573 q 0.04883,-0.83008 0.488281,-1.90429 0.439453,-1.07422 1.367188,-2.09961 0.927734,-1.02539 2.34375,-1.80664 1.416015,-0.83008 3.320312,-1.17188 1.953125,-0.3418 4.394531,-0.0488 2.490235,0.29297 5.517578,1.46485 0,-0.0488 0,-0.48828 l -0.04883,-0.43946 q 0,-1.26953 -0.732422,-2.58789 -0.732421,-1.31836 -1.904296,-2.34375 -1.123047,-1.07422 -2.441407,-1.70898 -1.318359,-0.6836 -2.539062,-0.6836 -0.488281,0 -0.878906,0.14649 -0.341797,0.14648 -0.683594,0.39062 -0.341797,0.19532 -0.683594,0.39063 -0.292969,0.14648 -0.732422,0.14648 -0.09766,0 -0.09766,-0.0488 -0.04883,-0.0488 -0.09766,-0.0976 -0.09766,-0.0977 -0.292969,-0.24414 -0.146484,-0.14649 -0.146484,-0.19532 0,-0.8789 0.292968,-1.51367 0.341797,-0.63476 0.878907,-1.02539 0.585937,-0.39062 1.269531,-0.58594 0.732422,-0.24414 1.513672,-0.24414 1.953125,0.19532 3.710937,1.22071 1.806641,0.97656 3.271485,2.49023 1.513671,1.51367 2.636718,3.51563 1.123047,1.95312 1.855469,4.10156 0.78125,2.09961 1.025391,4.24805 0.292968,2.24609 0.04883,4.19921 -0.04883,0 -0.292969,0 -0.244141,-0.0488 -0.537109,-0.0488 -0.292969,-0.0488 -0.488282,-0.0977 l -0.24414,-0.0488 q -1.025391,-2.29492 -2.294922,-3.71094 -1.269531,-1.41601 -2.539063,-2.19726 -1.220703,-0.83008 -2.294921,-1.12305 -1.074219,-0.34179 -1.757813,-0.48828 -0.732422,0 -1.757812,0.0977 -0.976563,0.0977 -2.050782,0.34179 -1.074218,0.24414 -2.197265,0.6836 -1.074219,0.39062 -1.953125,0.97656 -0.830078,0.58594 -1.367188,1.41602 -0.488281,0.78125 -0.488281,1.85546 0,1.17188 0.927734,2.00196 0.927735,0.78125 2.246094,1.31836 1.318359,0.48828 2.685547,0.68359 1.367187,0.19531 2.197266,0.19531 1.367187,0 2.685546,-0.14648 1.31836,-0.14649 2.587891,-0.3418 1.318359,-0.19531 2.587891,-0.34179 1.269531,-0.14649 2.539062,-0.14649 0.09766,0 0.341797,0 0.244141,0 0.488281,0.0488 0.292969,0 0.488282,0 0.24414,0 0.341796,0 0.390625,0.14648 0.439454,0.43945 0.04883,0.29297 0.04883,0.58594 0,0.29297 -0.634766,0.63477 -0.585937,0.34179 -1.5625,0.68359 -0.976562,0.3418 -2.197266,0.73242 -1.171875,0.3418 -2.294921,0.58594 -1.074219,0.24414 -2.050782,0.43945 -0.927734,0.14649 -1.318359,0.14649 -2.050781,0 -4.345703,-0.3418 -2.294922,-0.3418 -4.199219,-1.2207 -1.904297,-0.92774 -3.173828,-2.53907 -1.220703,-1.61132 -1.220703,-4.15039 z"
       style="font-size:50px"
       id="path3513" />
    <path
       d="m 76.817383,151.70019 q -0.244141,-2.14844 -0.585938,-3.66211 -0.341797,-1.51368 -0.341797,-2.49024 0.04883,-0.97656 0.634766,-1.51367 0.634766,-0.53711 2.197266,-0.73242 0.09766,0.48828 0.24414,1.85547 0.146485,1.36718 0.292969,3.125 0.195313,1.70898 0.390625,3.61328 0.244141,1.85547 0.439453,3.41797 0.195313,1.5625 0.439453,2.53906 0.244141,1.07422 0.439453,0.97656 0.878907,0 1.708985,-0.29297 0.878906,-0.29297 1.855469,-0.29297 1.464843,0 3.125,0.29297 1.660156,0.24414 3.271484,0.78125 1.660156,0.53711 3.173828,1.41602 1.5625,0.83008 2.685547,1.95312 1.171875,1.12305 1.855469,2.58789 0.683593,1.46485 0.683593,3.22266 0,2.24609 -1.123046,3.61328 -1.074219,1.31836 -2.783204,2.00196 -1.708984,0.68359 -3.710937,0.8789 -2.050781,0.19531 -3.808594,0.19531 -2.441406,0 -4.052734,-0.58593 -1.611328,-0.63477 -2.636719,-1.70899 -1.025391,-1.07422 -1.5625,-2.49023 -0.537109,-1.41602 -0.78125,-3.07617 -0.244141,-1.70899 -0.341797,-3.51563 -0.09766,-1.85547 -0.292969,-3.71094 -0.04883,-0.34179 -0.24414,-1.51367 -0.195313,-1.2207 -0.488281,-2.63672 -0.244141,-1.46484 -0.439454,-2.68554 -0.195312,-1.22071 -0.24414,-1.5625 z m 4.6875,12.79296 q -0.488281,2.14844 0.24414,3.71094 0.78125,1.5625 2.197266,2.58789 1.464844,0.97657 3.320313,1.36719 1.904296,0.39063 3.759765,0.14648 1.855469,-0.29296 3.320313,-1.17187 1.5625,-0.92773 2.246093,-2.53906 0,-1.31836 -0.634765,-2.39258 -0.585938,-1.07422 -1.5625,-1.9043 -0.976563,-0.83008 -2.246094,-1.41601 -1.220703,-0.63477 -2.539062,-1.02539 -1.269532,-0.39063 -2.539063,-0.58594 -1.269531,-0.24414 -2.246094,-0.24414 -1.611328,0 -2.490234,0.92773 -0.830078,0.92774 -0.830078,2.53906 z"
       style="font-size:50px"
       id="path3515" />
    <path
       d="m 101.23145,165.17675 q 0,-2.68555 1.17187,-4.6875 1.17188,-2.00195 3.07617,-3.36914 1.9043,-1.36719 4.24805,-2.00196 2.39258,-0.68359 4.78516,-0.68359 1.26953,0 2.34375,0.48828 1.12304,0.43946 2.0996,1.26953 1.0254,0.78125 1.80665,1.85547 0.78125,1.02539 1.31835,2.14844 0.58594,1.12305 0.87891,2.29492 0.29297,1.12305 0.29297,2.19727 0,2.49023 -0.97656,4.44336 -0.97657,1.95312 -2.63672,3.32031 -1.66016,1.31836 -3.75977,2.05078 -2.09961,0.68359 -4.29687,0.68359 -2.2461,0 -4.15039,-0.68359 -1.85547,-0.73242 -3.27149,-2.00195 -1.36718,-1.26953 -2.14843,-3.125 -0.78125,-1.9043 -0.78125,-4.19922 z m 2.39257,-0.39063 q 0,1.51368 0.53711,2.92969 0.58594,1.36719 1.5625,2.39258 1.02539,1.02539 2.39258,1.66016 1.36719,0.58593 2.92969,0.58593 0.83008,0.0977 2.00195,-0.24414 1.2207,-0.39062 2.39258,-1.07422 1.2207,-0.73242 2.29492,-1.70898 1.12305,-1.02539 1.85547,-2.19727 0.73242,-1.2207 0.87891,-2.49023 0.19531,-1.31836 -0.43946,-2.58789 -0.58593,-1.31836 -2.19726,-2.49024 -1.61133,-1.2207 -4.44336,-2.24609 -1.61133,0 -3.36914,0.48828 -1.70899,0.43945 -3.125,1.36719 -1.41602,0.92773 -2.34375,2.34375 -0.92774,1.41601 -0.92774,3.27148 z"
       style="font-size:50px"
       id="path3517" />
    <path
       d="m 125.1084,157.75487 q 0.0488,-0.14648 0.14648,-0.34179 0.0977,-0.24414 0.24414,-0.48828 0.19532,-0.24415 0.3418,-0.39063 0.19531,-0.19531 0.43945,-0.19531 0.0488,0 0.0488,0.0488 0,0 0.0977,0 l 0.0977,0 q 1.12305,0.53711 1.85547,1.5625 0.73242,0.97656 1.26953,2.24609 0.58594,1.26953 1.07422,2.73437 0.48828,1.41602 1.07422,2.83204 0.63477,1.36718 1.46485,2.68554 0.83007,1.31836 2.0996,2.34375 0.43946,-1.46484 0.87891,-2.83203 0.43945,-1.41601 0.97656,-2.83203 0.58594,-1.41602 1.31836,-2.92969 0.78125,-1.51367 1.75782,-3.27148 1.17187,-0.48828 1.85546,-0.58594 0.73243,-0.0977 1.02539,0.19531 0.29297,0.24414 0.0977,0.78125 -0.19531,0.53711 -0.83008,1.26953 -0.39062,0.3418 -0.92773,1.5625 -0.48828,1.22071 -1.07422,2.88086 -0.58594,1.66016 -1.26953,3.4668 -0.63477,1.80664 -1.31836,3.32031 -0.68359,1.46485 -1.36719,2.44141 -0.63476,0.97656 -1.26953,0.92773 -0.68359,0 -1.5625,-1.02539 -0.83008,-1.07422 -1.80664,-2.73437 -0.97656,-1.66016 -1.95313,-3.61328 -0.97656,-2.00196 -1.90429,-3.95508 -0.87891,-1.95313 -1.66016,-3.56445 -0.73242,-1.66016 -1.2207,-2.53907 z"
       style="font-size:50px"
       id="path3519" />
    <path
       d="m 145.0791,162.05175 q 0,-2.53906 0.73242,-4.83399 0.78125,-2.34375 2.19727,-4.10156 1.46484,-1.75781 3.51562,-2.7832 2.09961,-1.07422 4.83399,-1.07422 1.61133,0.19531 2.7832,0.87891 1.2207,0.68359 1.95313,1.70898 0.78125,0.97656 1.12304,2.29492 0.29297,1.26953 0.29297,2.73438 0,1.75781 -1.02539,3.17383 -1.02539,1.41601 -2.58789,2.39257 -1.5625,0.92774 -3.36914,1.46485 -1.80664,0.48828 -3.36914,0.48828 -0.58594,0 -1.2207,0 -0.58594,0 -1.07422,-0.19531 -0.48828,-0.19532 -0.78125,-0.58594 -0.29297,-0.39063 -0.29297,-1.17188 0,-0.24414 0.0488,-0.39062 0.0977,-0.19531 0.43945,-0.24414 0.3418,-0.0977 1.02539,-0.0488 0.68359,0.0977 1.85547,0.29297 0.68359,0 1.95312,-0.43945 1.31836,-0.48829 2.63672,-1.22071 1.36719,-0.73242 2.34375,-1.66015 0.97657,-0.97657 0.97657,-1.9043 0,-0.97656 -0.3418,-1.9043 -0.29297,-0.97656 -0.92774,-1.70898 -0.63476,-0.73242 -1.51367,-1.17188 -0.83008,-0.43945 -1.90429,-0.34179 -1.70899,0.14648 -3.125,0.92773 -1.36719,0.78125 -2.34375,2.05078 -0.97657,1.2207 -1.51368,2.73438 -0.53711,1.51367 -0.53711,3.17382 0,1.26954 0.0488,2.53907 0.0488,1.26953 0.3418,2.49023 0.3418,1.2207 1.02539,2.34375 0.73242,1.12305 2.05078,2.00195 1.36719,0.83008 3.41797,1.41602 2.05078,0.53711 5.07813,0.68359 l 8.74023,-0.58593 q -0.78125,1.07422 -2.00195,1.75781 -1.17188,0.68359 -2.53907,1.12305 -1.31836,0.39062 -2.63671,0.58593 -1.31836,0.19532 -2.49024,0.19532 -2.83203,0 -5.32226,-0.92774 -2.49024,-0.92773 -4.39454,-2.58789 -1.90429,-1.70898 -3.02734,-4.10156 -1.07422,-2.44141 -1.07422,-5.46875 z"
       style="font-size:50px"
       id="path3521" />
    <path
       d="m 195.32324,158.34081 q -0.39062,0 -1.36719,0 -0.97656,0 -2.05078,-0.14648 -1.02539,-0.19532 -1.90429,-0.58594 -0.83008,-0.39063 -0.83008,-1.12305 0,-0.19531 0.0488,-0.53711 0.0977,-0.39062 0.48828,-0.39062 l 5.02929,-0.43946 q 0.19532,-1.80664 0.29297,-2.92968 0.0977,-1.17188 0.0488,-2.14844 -0.0488,-1.02539 -0.14648,-2.09961 -0.0488,-1.12305 -0.0977,-2.88086 0,-0.3418 0.14649,-0.53711 0.14648,-0.19531 0.34179,-0.29297 0.24414,-0.0976 0.48828,-0.14648 0.29297,-0.0488 0.43946,-0.0488 0.29297,0 0.58593,0.19531 0.3418,0.19532 0.58594,0.48828 0.24414,0.29297 0.39063,0.63477 0.14648,0.29297 0.14648,0.58594 l 0.39063,9.13086 4.19921,0.19531 q 0.83008,-0.0977 1.51368,0.3418 0.73242,0.39062 0.78125,1.51367 -0.58594,0.63476 -1.41602,0.78125 -0.83008,0.0976 -1.75781,0.0976 -0.87891,-0.0488 -1.75781,0 -0.87891,0 -1.5625,0.43946 0,0.29297 0.0488,1.61133 0.0488,1.31835 0.0977,3.125 0.0488,1.80664 0.0977,3.85742 0.0977,2.05078 0.14648,3.80859 0.0488,1.70899 0.0488,2.92969 0.0488,1.2207 0.0488,1.36719 -1.12305,0.68359 -1.80664,-0.0977 -0.6836,-0.83008 -1.12305,-2.39258 -0.39063,-1.61133 -0.58594,-3.71094 -0.14648,-2.14843 -0.19531,-4.19921 0,-2.09961 0.0488,-3.85743 0.0488,-1.75781 0.14648,-2.53906 z"
       style="font-size:50px"
       id="path3523" />
    <path
       d="m 221.10449,174.25878 q 0.0977,-1.26953 0.19531,-2.63672 0.0977,-1.36719 0.14649,-2.73437 0.0977,-1.36719 0.0977,-2.68555 0.0488,-1.31836 0.0488,-2.39258 0,-1.5625 -0.43945,-2.97851 -0.43945,-1.41602 -1.26953,-2.44141 -0.83008,-1.07422 -2.09961,-1.66016 -1.2207,-0.63476 -2.92969,-0.63476 -0.68359,0 -1.17187,0.0977 -0.48828,0.0977 -0.97657,0.3418 -0.48828,0.19531 -1.07421,0.53711 -0.58594,0.39062 -1.36719,0.92773 0,0.0977 -0.0488,0.39063 0,0.24414 0,0.29297 0,1.07422 0.19531,2.88086 0.24414,1.75781 0.48828,3.71093 0.24414,1.9043 0.48829,3.71094 0.24414,1.80664 0.24414,2.92969 0,0.0977 0,0.39062 0,0.29297 -0.0488,0.63477 0,0.3418 0,0.63477 0,0.29296 0,0.43945 -0.29297,0.68359 -0.73242,0.87891 -0.39063,0.14648 -0.97657,0.14648 -0.58593,0.0977 -0.8789,-0.83008 -0.29297,-0.92773 -0.43946,-2.68555 -0.14648,-1.75781 -0.29296,-4.24804 -0.0977,-2.49024 -0.3418,-5.46875 -0.19531,-2.97852 -0.63477,-6.29883 -0.39062,-3.36914 -1.17187,-6.88477 -0.39063,-1.36718 -0.63477,-2.29492 -0.19531,-0.97656 -0.39062,-1.70898 -0.19532,-0.78125 -0.3418,-1.5625 -0.14648,-0.83008 -0.3418,-1.95313 l 0,-0.19531 q 0,-0.19531 0.24414,-0.3418 0.24414,-0.19531 0.53711,-0.34179 0.3418,-0.14649 0.63477,-0.19532 0.3418,-0.0976 0.53711,-0.0976 0.92773,2.4414 1.46484,4.15039 0.58594,1.66015 0.92774,2.88086 0.34179,1.2207 0.48828,2.05078 0.14648,0.83008 0.24414,1.61133 0.0977,0.78125 0.14648,1.61133 0.0488,0.83007 0.19532,2.00195 2.53906,-1.5625 4.58984,-1.70899 2.09961,-0.14648 3.71094,0.63477 1.61132,0.73242 2.7832,2.29492 1.2207,1.5625 2.00195,3.51563 0.78125,1.95312 1.17188,4.15039 0.43945,2.19726 0.53711,4.24804 0.14648,2.05079 -0.0977,3.8086 -0.19531,1.70898 -0.63476,2.7832 -0.43946,1.02539 -1.17188,1.17188 -0.73242,0.19531 -1.61133,-0.87891 z"
       style="font-size:50px"
       id="path3525" />
    <path
       d="m 227.40332,162.05175 q 0,-2.53906 0.73242,-4.83399 0.78125,-2.34375 2.19727,-4.10156 1.46484,-1.75781 3.51562,-2.7832 2.09961,-1.07422 4.83399,-1.07422 1.61133,0.19531 2.7832,0.87891 1.2207,0.68359 1.95313,1.70898 0.78125,0.97656 1.12304,2.29492 0.29297,1.26953 0.29297,2.73438 0,1.75781 -1.02539,3.17383 -1.02539,1.41601 -2.58789,2.39257 -1.5625,0.92774 -3.36914,1.46485 -1.80664,0.48828 -3.36914,0.48828 -0.58594,0 -1.2207,0 -0.58594,0 -1.07422,-0.19531 -0.48828,-0.19532 -0.78125,-0.58594 -0.29297,-0.39063 -0.29297,-1.17188 0,-0.24414 0.0488,-0.39062 0.0976,-0.19531 0.43945,-0.24414 0.3418,-0.0977 1.02539,-0.0488 0.68359,0.0977 1.85547,0.29297 0.68359,0 1.95312,-0.43945 1.31836,-0.48829 2.63672,-1.22071 1.36719,-0.73242 2.34375,-1.66015 0.97656,-0.97657 0.97656,-1.9043 0,-0.97656 -0.34179,-1.9043 -0.29297,-0.97656 -0.92774,-1.70898 -0.63476,-0.73242 -1.51367,-1.17188 -0.83008,-0.43945 -1.9043,-0.34179 -1.70898,0.14648 -3.125,0.92773 -1.36718,0.78125 -2.34375,2.05078 -0.97656,1.2207 -1.51367,2.73438 -0.53711,1.51367 -0.53711,3.17382 0,1.26954 0.0488,2.53907 0.0488,1.26953 0.3418,2.49023 0.3418,1.2207 1.02539,2.34375 0.73242,1.12305 2.05078,2.00195 1.36719,0.83008 3.41797,1.41602 2.05078,0.53711 5.07812,0.68359 l 8.74024,-0.58593 q -0.78125,1.07422 -2.00195,1.75781 -1.17188,0.68359 -2.53907,1.12305 -1.31836,0.39062 -2.63672,0.58593 -1.31836,0.19532 -2.49023,0.19532 -2.83203,0 -5.32227,-0.92774 -2.49023,-0.92773 -4.39453,-2.58789 -1.90429,-1.70898 -3.02734,-4.10156 -1.07422,-2.44141 -1.07422,-5.46875 z"
       style="font-size:50px"
       id="path3527" />
    <path
       d="m 271.83691,169.22948 q 0.39063,-0.29297 0.6836,-0.34179 0.34179,-0.0977 0.73242,-0.0977 0.43945,0 0.87891,0.24414 0.43945,0.19531 0.78125,0.53711 0.39062,0.29297 0.78125,0.58594 0.39062,0.29297 0.83007,0.48828 1.26954,0.53711 2.00196,0.8789 0.78125,0.3418 1.41601,0.53711 0.63477,0.19532 1.46485,0.24414 0.83007,0.0488 2.14843,0.0488 1.02539,0 2.49024,0.0488 1.46484,0 2.7832,-0.24414 1.31836,-0.29297 2.2461,-0.97656 0.92773,-0.73242 0.92773,-2.19727 0.0488,-1.41601 -0.78125,-2.19726 -0.78125,-0.83008 -2.14844,-1.26953 -1.36719,-0.43946 -3.07617,-0.58594 -1.70898,-0.19531 -3.51562,-0.39063 -1.80665,-0.19531 -3.56446,-0.53711 -1.70898,-0.39062 -3.07617,-1.17187 -1.36719,-0.78125 -2.19727,-2.14844 -0.83007,-1.36719 -0.8789,-3.51562 0.29297,-1.5625 1.51367,-2.58789 1.26953,-1.07422 2.97852,-1.61133 1.75781,-0.58594 3.71093,-0.58594 1.95313,-0.0488 3.56446,0.48828 1.66015,0.48828 2.73437,1.61133 1.12305,1.12305 1.17188,2.7832 0.0976,0.97656 -0.14649,1.61133 -0.24414,0.63477 -0.68359,0.97656 -0.39063,0.29297 -0.83008,0.29297 -0.43945,-0.0488 -0.68359,-0.3418 -0.24414,-0.34179 -0.24414,-0.92773 0.0488,-0.63477 0.58593,-1.5625 -0.19531,-0.92773 -1.12304,-1.46484 -0.92774,-0.53711 -2.14844,-0.73243 -1.2207,-0.24414 -2.63672,-0.0977 -1.36719,0.0977 -2.53906,0.48828 -1.12305,0.39062 -1.85547,1.02539 -0.68359,0.63477 -0.58594,1.46484 0,1.46485 0.83008,2.29493 0.87891,0.78125 2.24609,1.2207 1.36719,0.43945 3.125,0.63476 1.80664,0.19532 3.66211,0.39063 1.9043,0.14648 3.66211,0.48828 1.75781,0.29297 3.17383,1.02539 1.41602,0.73242 2.24609,2.00195 0.83008,1.22071 0.83008,3.22266 0,1.51367 -0.78125,2.63672 -0.78125,1.07422 -2.00195,1.80664 -1.17188,0.73242 -2.58789,1.07422 -1.41602,0.3418 -2.68555,0.3418 -1.26953,0 -2.73437,0 -1.41602,-0.0488 -2.92969,-0.19532 -1.46484,-0.14648 -2.97852,-0.43945 -1.51367,-0.3418 -2.83203,-0.97656 -1.26953,-0.6836 -2.29492,-1.70899 -1.02539,-1.02539 -1.66016,-2.58789 z"
       style="font-size:50px"
       id="path3529" />
    <path
       d="m 297.71582,162.05175 q 0,-2.53906 0.73242,-4.83399 0.78125,-2.34375 2.19727,-4.10156 1.46484,-1.75781 3.51562,-2.7832 2.09961,-1.07422 4.83399,-1.07422 1.61133,0.19531 2.7832,0.87891 1.2207,0.68359 1.95313,1.70898 0.78125,0.97656 1.12304,2.29492 0.29297,1.26953 0.29297,2.73438 0,1.75781 -1.02539,3.17383 -1.02539,1.41601 -2.58789,2.39257 -1.5625,0.92774 -3.36914,1.46485 -1.80664,0.48828 -3.36914,0.48828 -0.58594,0 -1.2207,0 -0.58594,0 -1.07422,-0.19531 -0.48828,-0.19532 -0.78125,-0.58594 -0.29297,-0.39063 -0.29297,-1.17188 0,-0.24414 0.0488,-0.39062 0.0976,-0.19531 0.43945,-0.24414 0.3418,-0.0977 1.02539,-0.0488 0.68359,0.0977 1.85547,0.29297 0.68359,0 1.95312,-0.43945 1.31836,-0.48829 2.63672,-1.22071 1.36719,-0.73242 2.34375,-1.66015 0.97656,-0.97657 0.97656,-1.9043 0,-0.97656 -0.34179,-1.9043 -0.29297,-0.97656 -0.92774,-1.70898 -0.63476,-0.73242 -1.51367,-1.17188 -0.83008,-0.43945 -1.9043,-0.34179 -1.70898,0.14648 -3.125,0.92773 -1.36718,0.78125 -2.34375,2.05078 -0.97656,1.2207 -1.51367,2.73438 -0.53711,1.51367 -0.53711,3.17382 0,1.26954 0.0488,2.53907 0.0488,1.26953 0.3418,2.49023 0.3418,1.2207 1.02539,2.34375 0.73242,1.12305 2.05078,2.00195 1.36719,0.83008 3.41797,1.41602 2.05078,0.53711 5.07812,0.68359 l 8.74024,-0.58593 q -0.78125,1.07422 -2.00195,1.75781 -1.17188,0.68359 -2.53907,1.12305 -1.31836,0.39062 -2.63672,0.58593 -1.31836,0.19532 -2.49023,0.19532 -2.83203,0 -5.32227,-0.92774 -2.49023,-0.92773 -4.39453,-2.58789 -1.90429,-1.70898 -3.02734,-4.10156 -1.07422,-2.44141 -1.07422,-5.46875 z"
       style="font-size:50px"
       id="path3531" />
    <path
       d="m 323.98535,156.09472 q 0,-0.43946 0.29297,-0.53711 0.3418,-0.14649 0.73242,-0.14649 0.29297,0 0.39063,0.14649 0.14648,0.14648 0.19531,0.34179 0.0488,0.19532 0.14648,0.39063 0.0977,0.14648 0.3418,0.14648 0.68359,0 1.66016,-0.53711 0.97656,-0.5371 2.09961,-1.17187 1.17187,-0.63477 2.4414,-1.17188 1.31836,-0.5371 2.58789,-0.5371 1.66016,0 3.02735,0.8789 1.41601,0.83008 2.49023,2.2461 1.12305,1.41601 1.9043,3.17382 0.78125,1.75782 1.31836,3.61328 0.53711,1.80665 0.78125,3.56446 0.24414,1.70898 0.24414,2.97851 0,0.43946 -0.0977,1.31836 -0.0488,0.87891 -0.24414,1.75782 -0.14648,0.8789 -0.53711,1.5625 -0.39062,0.63476 -0.97656,0.63476 -0.0977,0 -0.3418,0 -0.24414,-0.0488 -0.48828,-0.0977 -0.24414,-0.0977 -0.43945,-0.19531 -0.14649,-0.0977 -0.14649,-0.29297 0.43946,-3.75976 0,-7.03125 -0.43945,-3.32031 -1.41601,-5.81054 -0.97656,-2.49024 -2.39258,-3.95508 -1.41602,-1.46485 -3.02734,-1.46485 -1.51368,0 -2.83203,0.48829 -1.31836,0.48828 -2.29493,1.41601 -0.97656,0.92774 -1.5625,2.2461 -0.53711,1.31835 -0.53711,2.88085 0,1.5625 0.29297,3.125 0.29297,1.51368 0.63477,3.07618 0.39062,1.51367 0.68359,3.07617 0.29297,1.5625 0.29297,3.125 -1.36719,0 -2.29492,-1.12305 -0.92774,-1.12305 -1.51367,-2.88086 -0.53711,-1.75781 -0.87891,-3.95508 -0.29297,-2.19726 -0.43945,-4.29687 -0.0977,-2.14844 -0.0977,-4.00391 0,-1.90429 0,-2.97851 z"
       style="font-size:50px"
       id="path3533" />
    <path
       d="m 346.34863,169.22948 q 0.39063,-0.29297 0.6836,-0.34179 0.34179,-0.0977 0.73242,-0.0977 0.43945,0 0.8789,0.24414 0.43946,0.19531 0.78125,0.53711 0.39063,0.29297 0.78125,0.58594 0.39063,0.29297 0.83008,0.48828 1.26953,0.53711 2.00196,0.8789 0.78125,0.3418 1.41601,0.53711 0.63477,0.19532 1.46485,0.24414 0.83007,0.0488 2.14843,0.0488 1.02539,0 2.49024,0.0488 1.46484,0 2.7832,-0.24414 1.31836,-0.29297 2.24609,-0.97656 0.92774,-0.73242 0.92774,-2.19727 0.0488,-1.41601 -0.78125,-2.19726 -0.78125,-0.83008 -2.14844,-1.26953 -1.36719,-0.43946 -3.07617,-0.58594 -1.70899,-0.19531 -3.51563,-0.39063 -1.80664,-0.19531 -3.56445,-0.53711 -1.70898,-0.39062 -3.07617,-1.17187 -1.36719,-0.78125 -2.19727,-2.14844 -0.83007,-1.36719 -0.8789,-3.51562 0.29297,-1.5625 1.51367,-2.58789 1.26953,-1.07422 2.97851,-1.61133 1.75782,-0.58594 3.71094,-0.58594 1.95313,-0.0488 3.56446,0.48828 1.66015,0.48828 2.73437,1.61133 1.12305,1.12305 1.17188,2.7832 0.0976,0.97656 -0.14649,1.61133 -0.24414,0.63477 -0.68359,0.97656 -0.39063,0.29297 -0.83008,0.29297 -0.43945,-0.0488 -0.68359,-0.3418 -0.24415,-0.34179 -0.24415,-0.92773 0.0488,-0.63477 0.58594,-1.5625 -0.19531,-0.92773 -1.12304,-1.46484 -0.92774,-0.53711 -2.14844,-0.73243 -1.22071,-0.24414 -2.63672,-0.0977 -1.36719,0.0977 -2.53906,0.48828 -1.12305,0.39062 -1.85547,1.02539 -0.6836,0.63477 -0.58594,1.46484 0,1.46485 0.83008,2.29493 0.8789,0.78125 2.24609,1.2207 1.36719,0.43945 3.125,0.63476 1.80664,0.19532 3.66211,0.39063 1.9043,0.14648 3.66211,0.48828 1.75781,0.29297 3.17383,1.02539 1.41601,0.73242 2.24609,2.00195 0.83008,1.22071 0.83008,3.22266 0,1.51367 -0.78125,2.63672 -0.78125,1.07422 -2.00195,1.80664 -1.17188,0.73242 -2.58789,1.07422 -1.41602,0.3418 -2.68555,0.3418 -1.26953,0 -2.73437,0 -1.41602,-0.0488 -2.92969,-0.19532 -1.46485,-0.14648 -2.97852,-0.43945 -1.51367,-0.3418 -2.83203,-0.97656 -1.26953,-0.6836 -2.29492,-1.70899 -1.02539,-1.02539 -1.66016,-2.58789 z"
       style="font-size:50px"
       id="path3535" />
    <path
       d="m 372.22754,165.17675 q 0,-2.68555 1.17187,-4.6875 1.17188,-2.00195 3.07618,-3.36914 1.90429,-1.36719 4.24804,-2.00196 2.39258,-0.68359 4.78516,-0.68359 1.26953,0 2.34375,0.48828 1.12305,0.43946 2.09961,1.26953 1.02539,0.78125 1.80664,1.85547 0.78125,1.02539 1.31836,2.14844 0.58594,1.12305 0.8789,2.29492 0.29297,1.12305 0.29297,2.19727 0,2.49023 -0.97656,4.44336 -0.97656,1.95312 -2.63672,3.32031 -1.66015,1.31836 -3.75976,2.05078 -2.09961,0.68359 -4.29688,0.68359 -2.24609,0 -4.15039,-0.68359 -1.85547,-0.73242 -3.27148,-2.00195 -1.36719,-1.26953 -2.14844,-3.125 -0.78125,-1.9043 -0.78125,-4.19922 z m 2.39258,-0.39063 q 0,1.51368 0.53711,2.92969 0.58593,1.36719 1.5625,2.39258 1.02539,1.02539 2.39257,1.66016 1.36719,0.58593 2.92969,0.58593 0.83008,0.0977 2.00196,-0.24414 1.2207,-0.39062 2.39257,-1.07422 1.22071,-0.73242 2.29493,-1.70898 1.12304,-1.02539 1.85546,-2.19727 0.73243,-1.2207 0.87891,-2.49023 0.19531,-1.31836 -0.43945,-2.58789 -0.58594,-1.31836 -2.19727,-2.49024 -1.61133,-1.2207 -4.44336,-2.24609 -1.61133,0 -3.36914,0.48828 -1.70898,0.43945 -3.125,1.36719 -1.41601,0.92773 -2.34375,2.34375 -0.92773,1.41601 -0.92773,3.27148 z"
       style="font-size:50px"
       id="path3537" />
    <path
       d="m 400.9873,175.13769 q -1.07421,-1.95313 -1.85546,-4.24805 -0.78125,-2.29492 -1.31836,-4.63867 -0.53711,-2.34375 -0.87891,-4.54102 -0.29297,-2.24609 -0.39062,-4.05273 0,-0.3418 -0.0488,-0.73242 -0.0488,-0.43946 -0.0488,-0.87891 0.0488,-0.43945 0.14648,-0.83008 0.14649,-0.39062 0.43946,-0.68359 l 0.0976,0 q 0.0488,0 0.0488,0 0,-0.0488 0.0488,-0.0488 0.0488,0 0.0488,0.0488 0,0 0.0976,0 l 0.0977,0 q 0.0977,0.0488 0.48828,0.19531 0.39063,0.14648 0.48828,0.24414 0.87891,-0.29297 1.80664,-0.68359 0.92774,-0.43946 1.85547,-0.78125 0.97656,-0.39063 1.95313,-0.63477 0.97656,-0.24414 1.90429,-0.24414 0.6836,0 1.17188,0.0488 0.53711,0.0488 1.02539,0.19531 0.53711,0.0977 1.12305,0.29297 0.58593,0.14648 1.36718,0.39062 0.39063,0.29297 0.6836,0.58594 0.34179,0.24414 0.58593,0.58594 0.29297,0.3418 0.43946,0.83008 0.14648,0.48828 0.14648,1.26953 -0.78125,0.0977 -1.85547,-0.0977 -1.02539,-0.24414 -2.19726,-0.58593 -1.12305,-0.3418 -2.34375,-0.58594 -1.22071,-0.24414 -2.34375,-0.19531 -1.12305,0.0488 -2.09961,0.63476 -1.02539,0.48828 -1.80664,1.75781 -0.3418,1.41602 -0.29297,2.78321 0.0488,1.36718 0.3418,2.68554 0.29296,1.26953 0.73242,2.58789 0.48828,1.26954 0.8789,2.58789 0.43946,1.26954 0.78125,2.53907 0.3418,1.26953 0.43946,2.58789 0,0.48828 -0.53711,1.07422 -0.53711,0.53711 -1.22071,0.53711 z"
       style="font-size:50px"
       id="path3539" />
    <path
       d="m 415.19629,170.45019 q 0,-0.39063 0.29297,-1.17188 0.34179,-0.78125 0.78125,-1.5625 0.43945,-0.83008 0.8789,-1.41601 0.48829,-0.58594 0.83008,-0.58594 0.97656,0 1.70899,0.53711 0.73242,0.48828 1.17187,1.26953 0.48828,0.78125 0.73242,1.70898 0.24414,0.92774 0.24414,1.70899 0,0.58593 -0.34179,1.31836 -0.3418,0.73242 -0.87891,1.36718 -0.48828,0.63477 -1.12305,1.07422 -0.63476,0.43946 -1.26953,0.43946 -0.73242,0 -1.26953,-0.48829 -0.53711,-0.5371 -0.97656,-1.26953 -0.39063,-0.78125 -0.58594,-1.5625 -0.19531,-0.83007 -0.19531,-1.36718 z"
       style="font-size:50px"
       id="path3541" />
  </g>
</svg>
