<?xml version="1.0" encoding="UTF-8" standalone="no"?>
<svg
   xmlns:dc="http://purl.org/dc/elements/1.1/"
   xmlns:cc="http://creativecommons.org/ns#"
   xmlns:rdf="http://www.w3.org/1999/02/22-rdf-syntax-ns#"
   xmlns:svg="http://www.w3.org/2000/svg"
   xmlns="http://www.w3.org/2000/svg"
   xmlns:xlink="http://www.w3.org/1999/xlink"
   xmlns:sodipodi="http://sodipodi.sourceforge.net/DTD/sodipodi-0.dtd"
   xmlns:inkscape="http://www.inkscape.org/namespaces/inkscape"
   width="476.0578"
   height="363.5033"
   version="1.1"
   id="svg2"
   inkscape:version="0.91 r13725"
   sodipodi:docname="Instructions 3.svg">
  <metadata
     id="metadata48">
    <rdf:RDF>
      <cc:Work
         rdf:about="">
        <dc:format>image/svg+xml</dc:format>
        <dc:type
           rdf:resource="http://purl.org/dc/dcmitype/StillImage" />
        <dc:title>5 by 3 sigma maze</dc:title>
      </cc:Work>
    </rdf:RDF>
  </metadata>
  <defs
     id="defs46">
    <filter
       style="color-interpolation-filters:sRGB"
       id="filter9008"
       inkscape:collect="always">
      <feGaussianBlur
         id="feGaussianBlur9010"
         stdDeviation="5.0490729"
         inkscape:collect="always" />
    </filter>
    <linearGradient
       id="linearGradient8884"
       y2="660.12"
       xlink:href="#linearGradient8878"
       gradientUnits="userSpaceOnUse"
       x2="377.48999"
       gradientTransform="matrix(1,0,0,1.3366,-573.80304,-477.79491)"
       y1="581.32001"
       x1="371.92999"
       inkscape:collect="always" />
    <linearGradient
       id="linearGradient8878">
      <stop
         id="stop8880"
         style="stop-color:#ffc900"
         offset="0" />
      <stop
         id="stop8882"
         style="stop-color:#9d5700"
         offset="1" />
    </linearGradient>
    <linearGradient
       id="linearGradient8888"
       y2="660.12"
       xlink:href="#linearGradient8878"
       gradientUnits="userSpaceOnUse"
       x2="377.48999"
       gradientTransform="matrix(0.94573,0,0,1.264,-553.33104,-490.05491)"
       y1="581.32001"
       x1="371.92999"
       inkscape:collect="always" />
    <linearGradient
       id="linearGradient8892"
       y2="660.12"
       xlink:href="#linearGradient8878"
       gradientUnits="userSpaceOnUse"
       x2="377.48999"
       gradientTransform="matrix(0.88029,0,0,1.1766,-528.64404,-493.03491)"
       y1="581.32001"
       x1="371.92999"
       inkscape:collect="always" />
    <linearGradient
       id="linearGradient8896"
       y2="660.12"
       xlink:href="#linearGradient8878"
       gradientUnits="userSpaceOnUse"
       x2="377.48999"
       gradientTransform="matrix(0.81804,0,0,1.0934,-505.16104,-498.66491)"
       y1="581.32001"
       x1="371.92999"
       inkscape:collect="always" />
    <linearGradient
       id="linearGradient8900"
       y2="660.12"
       xlink:href="#linearGradient8878"
       gradientUnits="userSpaceOnUse"
       x2="377.48999"
       gradientTransform="matrix(0.75419,0,0,1.008,-481.07603,-502.97491)"
       y1="581.32001"
       x1="371.92999"
       inkscape:collect="always" />
    <linearGradient
       id="linearGradient8904"
       y2="660.12"
       xlink:href="#linearGradient8878"
       gradientUnits="userSpaceOnUse"
       x2="377.48999"
       gradientTransform="matrix(0.71588,0,0,0.95682,-466.62303,-528.50491)"
       y1="581.32001"
       x1="371.92999"
       inkscape:collect="always" />
    <linearGradient
       id="linearGradient8916"
       y2="660.12"
       xlink:href="#linearGradient8878"
       gradientUnits="userSpaceOnUse"
       x2="377.48999"
       gradientTransform="matrix(0.61852,0,0,0.95682,-429.89303,-586.55491)"
       y1="581.32001"
       x1="371.92999"
       inkscape:collect="always" />
    <linearGradient
       id="linearGradient8920"
       y2="660.12"
       xlink:href="#linearGradient8878"
       gradientUnits="userSpaceOnUse"
       x2="377.48999"
       gradientTransform="matrix(0.51796,0,0,0.95682,-391.96303,-643.26491)"
       y1="581.32001"
       x1="371.92999"
       inkscape:collect="always" />
    <linearGradient
       id="linearGradient8924"
       y2="660.12"
       xlink:href="#linearGradient8878"
       gradientUnits="userSpaceOnUse"
       x2="377.48999"
       gradientTransform="matrix(0.38867,0,0,0.95682,-343.19303,-694.56491)"
       y1="581.32001"
       x1="371.92999"
       inkscape:collect="always" />
    <linearGradient
       id="linearGradient8951"
       y2="584.5"
       gradientUnits="userSpaceOnUse"
       x2="394.29001"
       gradientTransform="matrix(1,0,0,1.3366,-573.80304,-477.79491)"
       y1="601.65002"
       x1="504.29001"
       inkscape:collect="always">
      <stop
         id="stop8945"
         style="stop-color:#8c4b00"
         offset="0" />
      <stop
         id="stop8947"
         style="stop-color:#000000"
         offset="1" />
    </linearGradient>
  </defs>
  <sodipodi:namedview
     pagecolor="#ffffff"
     bordercolor="#666666"
     borderopacity="1"
     objecttolerance="10"
     gridtolerance="10"
     guidetolerance="10"
     inkscape:pageopacity="0"
     inkscape:pageshadow="2"
     inkscape:window-width="1680"
     inkscape:window-height="962"
     id="namedview44"
     showgrid="false"
     showguides="false"
     fit-margin-top="0"
     fit-margin-left="0"
     fit-margin-right="0"
     fit-margin-bottom="0"
     inkscape:zoom="1.3182814"
     inkscape:cx="-38.636734"
     inkscape:cy="103.77754"
     inkscape:window-x="648"
     inkscape:window-y="1440"
     inkscape:window-maximized="1"
     inkscape:current-layer="g5157" />
  <title
     id="title4">5 by 3 sigma maze</title>
  <desc
     id="desc6">5 by 3 sigma maze generated by The Maze Generator Website (http://www.mazegenerator.net/).</desc>
  <rect
     style="opacity:1;fill:#ffffff;fill-opacity:1;fill-rule:nonzero;stroke:none;stroke-width:1.80442083;stroke-linejoin:miter;stroke-miterlimit:4;stroke-dasharray:none;stroke-opacity:1"
     id="rect3543"
     width="477.9541"
     height="364.23297"
     x="-0.94815063"
     y="-0.36483765" />
  <g
     id="g5157"
     transform="matrix(0.10919668,0,0,0.10919668,259.47812,34.133608)">
    <path
       transform="matrix(1.0180796,0,0,1.3605473,164.17959,-414.24985)"
       d="m -353.47,176.41 c -38.342,-0.0586 -74.26,7.12 -107.38,18.906 -16.841,5.9941 -19.655,26.002 -11.125,38.375 l -24.344,0 c -26.966,0 -27.32,29.668 -9.6562,42.438 l -17.938,0 c -33.066,0 -32.621,31.293 -9.7812,43.438 l -16.938,0 c -36.205,0 -37.697,28.006 -15.375,41.312 -30.681,2.2269 -33.529,25.7 -16.312,39.875 -32.716,1.606 -37.755,24.7 -22.438,40.438 -28.918,3.5584 -34.178,24.477 -21.5,40.344 -27.81,4.6941 -33.16,25.33 -21.219,41.656 -38.666,10.52 -26.549,54.545 18.906,63.469 125.25,24.588 233.85,30.472 333.16,25.875 0.31281,-0.0116 0.62473,-0.0508 0.9375,-0.0625 7.5606,-0.28372 15.113,-0.57516 22.656,-0.9375 l 0,-0.125 0,-0.1875 c 68.307,-4.3394 132.37,-13.45 194.66,-24.562 49.507,-8.8328 48.571,-50.592 18.031,-62.531 10.216,-15.981 1.0834,-36.535 -20.906,-42.125 10.678,-15.526 1.2053,-36.139 -21.312,-40.5 13.607,-15.525 3.093,-38.438 -22.188,-40.656 15.762,-13.891 7.102,-36.779 -16.375,-39.812 22.394,-13.273 12.311,-41.469 -15.938,-41.469 l -16.531,0 c 23.526,-12.189 15.226,-43.438 -10.469,-43.438 l -17.594,0 c 17.822,-12.812 10.7,-42.438 -10.25,-42.438 l -24.5,0 c 8.0631,-12.794 1.8769,-33.73 -11.312,-38.375 -37.403,-13.172 -73.138,-18.855 -106.97,-18.906 z"
       inkscape:connector-curvature="0"
       style="opacity:0.32692003;fill:#000000;filter:url(#filter9008)"
       id="path8953" />
    <path
       d="m -470.94303,291.02509 551.429995,0 c 46.793005,0 57.919005,74.02 0,87.831 -158.65,37.832 -328.759995,58.424 -551.429995,0 -51.71301,-13.569 -60.27101,-87.831 0,-87.831 z"
       inkscape:connector-curvature="0"
       style="fill:url(#linearGradient8884)"
       sodipodi:nodetypes="sssss"
       id="rect8367" />
    <path
       inkscape:connector-curvature="0"
       style="fill:url(#linearGradient8888)"
       sodipodi:nodetypes="sssss"
       d="m -456.05303,237.03509 521.499995,0 c 44.254005,0 54.776005,70.003 0,83.065 -150.04,35.779 -310.919995,55.253 -521.499995,0 -48.90701,-12.832 -57.00001,-83.065 0,-83.065 z"
       id="path8886" />
    <path
       d="m -438.10303,183.74509 485.419995,0 c 41.192,0 50.986,65.159 0,77.317 -139.66,33.303 -289.409995,51.43 -485.419995,0 -45.52201,-11.944 -53.05601,-77.317 0,-77.317 z"
       inkscape:connector-curvature="0"
       style="fill:url(#linearGradient8892)"
       sodipodi:nodetypes="sssss"
       id="path8890" />
    <path
       inkscape:connector-curvature="0"
       style="fill:url(#linearGradient8896)"
       sodipodi:nodetypes="sssss"
       d="m -421.02303,130.25509 451.089995,0 c 38.279,0 47.38,60.551 0,71.849 -129.78,30.948 -268.939995,47.793 -451.089995,0 -42.303,-11.1 -49.304,-71.849 0,-71.849 z"
       id="path8894" />
    <path
       d="m -403.50303,76.855091 415.879995,0 c 35.291,0 43.682,55.824999 0,66.240999 -119.649995,28.532 -247.949995,44.063 -415.879995,0 -39.001,-10.233 -45.456,-66.240999 0,-66.240999 z"
       inkscape:connector-curvature="0"
       style="fill:url(#linearGradient8900)"
       sodipodi:nodetypes="sssss"
       id="path8898" />
    <path
       inkscape:connector-curvature="0"
       style="fill:url(#linearGradient8904)"
       sodipodi:nodetypes="sssss"
       d="m -392.99303,21.875091 394.7599953,0 c 33.4979997,0 41.4629997,52.989 0,62.877 -113.5699953,27.082999 -235.3599953,41.824999 -394.7599953,0 -37.02,-9.7136 -43.147,-62.877 0,-62.877 z"
       id="path8902" />
    <path
       d="m -366.27303,-36.174909 341.069995,0 c 28.9420003,0 35.824,52.989 0,62.877 -98.126995,27.083 -203.349995,41.825 -341.069995,0 -31.985,-9.7136 -37.279,-62.877 0,-62.877 z"
       inkscape:connector-curvature="0"
       style="fill:url(#linearGradient8916)"
       sodipodi:nodetypes="sssss"
       id="path8914" />
    <path
       inkscape:connector-curvature="0"
       style="fill:url(#linearGradient8920)"
       sodipodi:nodetypes="sssss"
       d="m -338.68303,-92.884909 285.619995,0 c 24.237,0 30,52.989 0,62.877 -82.173995,27.0830003 -170.289995,41.825 -285.619995,0 -26.785,-9.7136 -31.218,-62.877 0,-62.877 z"
       id="path8918" />
    <path
       d="m -303.21303,-144.18691 c 62.333,-29.653 134.53,-37.557 214.319995,0 17.154,8.0743 22.511,52.989001 0,62.877001 -61.661995,27.083 -127.779995,41.825 -214.319995,0 -20.099,-9.7136 -22.069,-52.378001 0,-62.877001 z"
       inkscape:connector-curvature="0"
       style="fill:url(#linearGradient8924)"
       sodipodi:nodetypes="sssss"
       id="path8922" />
    <path
       d="m -252.57303,413.45509 1.0102,-215.8 c 2.0781,-97.564 119.78,-103.589999 129.3,0 l 8.0812,214.45 c -45.717,2.9352 -91.725,4.1229 -138.39,1.3501 z"
       inkscape:connector-curvature="0"
       style="fill:#9d5700"
       sodipodi:nodetypes="ccccc"
       id="path8926" />
    <path
       inkscape:connector-curvature="0"
       style="fill:#008000"
       sodipodi:nodetypes="ccccc"
       d="m -252.57303,413.45509 1.0102,-215.8 c 2.0781,-97.564 119.78,-103.589999 129.3,0 l 8.0812,214.45 c -45.717,2.9352 -91.725,4.1229 -138.39,1.3501 z"
       id="path8928" />
    <path
       d="m -189.71303,122.23509 c -19.563,0.4773 -38.738,11.067 -50.438,31.159 21.66,-37.811 121.35,-38.918 111.61,61.44 l 0.37881,197.92 c 4.9726,-0.27471 9.0046,-0.50539 13.97,-0.82417 l -4.0406,-214.27 c -4.7596,-51.795 -40.609,-76.186 -71.484,-75.432 z"
       inkscape:connector-curvature="0"
       style="fill:url(#linearGradient8951)"
       sodipodi:nodetypes="scccccs"
       id="path8938" />
  </g>
  <g
     transform="translate(-13.779694,-24)"
     style="font-style:normal;font-weight:normal;font-size:40px;line-height:125%;font-family:Sans;letter-spacing:0px;word-spacing:0px;fill:#000000;fill-opacity:1;stroke:none;stroke-width:1px;stroke-linecap:butt;stroke-linejoin:miter;stroke-opacity:1"
     id="flowRoot5172">
    <path
       d="m 81.642578,143.65136 q 0,-2.29492 0.146484,-4.58985 0.146485,-2.29492 0.341797,-4.54101 0.244141,-2.29492 0.390625,-4.54102 0.146485,-2.29492 0.146485,-4.54101 0,-1.26953 -0.292969,-2.44141 -0.244141,-1.17187 -0.244141,-2.39258 l 0,-0.24414 q 0.09766,-0.0488 0.341797,-0.0976 0.292969,-0.0977 0.585938,-0.14649 0.292968,-0.0488 0.585937,-0.14648 0.244141,-0.0977 0.341797,-0.0977 l 0.488281,0 q 0.390625,1.75781 1.025391,4.19922 0.683594,2.44141 1.611328,4.98047 0.927734,2.53906 2.197266,5.07812 1.269531,2.49024 2.929687,4.49219 1.660156,1.95313 3.710938,3.17383 2.050781,1.17187 4.589841,1.12305 1.51367,0 2.63672,-0.48829 1.17188,-0.5371 1.9043,-1.41601 0.73242,-0.92774 1.07422,-2.14844 0.39062,-1.2207 0.39062,-2.68555 0,-1.90429 -0.78125,-3.51562 -0.73242,-1.66016 -1.61133,-3.17383 -0.8789,-1.51367 -1.66015,-3.02734 -0.73242,-1.51367 -0.73242,-3.27149 0,-0.68359 0.14648,-1.07422 0.14648,-0.39062 0.83008,-0.39062 0.78125,0 1.5625,0.87891 0.83008,0.8789 1.5625,2.24609 0.73242,1.36719 1.36719,3.07617 0.63476,1.66016 1.12304,3.32031 0.48828,1.66016 0.73242,3.07618 0.29297,1.41601 0.29297,2.24609 0,2.09961 -0.68359,3.85742 -0.68359,1.70899 -1.95313,3.02735 -1.2207,1.26953 -2.97851,2.00195 -1.70899,0.68359 -3.808595,0.68359 -2.294922,0 -4.150391,-0.8789 -1.80664,-0.87891 -3.271484,-2.2461 -1.416016,-1.41601 -2.539063,-2.97851 -1.074218,-1.5625 -1.855468,-2.92969 -0.78125,-1.41602 -1.367188,-2.29492 -0.537109,-0.87891 -0.878906,-0.87891 -0.634766,0 -0.927734,0.43945 -0.292969,0.43946 -0.439454,1.02539 -0.09766,0.58594 -0.09766,1.26954 0,0.63476 0,0.97656 0,1.5625 0.292969,2.92969 0.292969,1.31836 0.292969,2.83203 0,0.34179 -0.09766,0.8789 -0.04883,0.53711 -0.24414,1.07422 -0.146485,0.53711 -0.488281,0.92774 -0.341797,0.39062 -0.878907,0.39062 -0.488281,0 -0.830078,-0.3418 -0.292969,-0.39062 -0.488281,-0.83007 -0.195313,-0.48828 -0.292969,-0.97657 -0.04883,-0.53711 -0.04883,-0.8789 z"
       style="font-style:normal;font-variant:normal;font-weight:normal;font-stretch:normal;font-size:50px;font-family:'Indie Flower';-inkscape-font-specification:'Indie Flower';text-align:center;text-anchor:middle"
       id="path5181" />
    <path
       d="m 111.7207,136.66894 q 0,-2.68555 1.17188,-4.6875 1.17187,-2.00196 3.07617,-3.36914 1.9043,-1.36719 4.24805,-2.00196 2.39258,-0.68359 4.78515,-0.68359 1.26953,0 2.34375,0.48828 1.12305,0.43945 2.09961,1.26953 1.02539,0.78125 1.80664,1.85547 0.78125,1.02539 1.31836,2.14844 0.58594,1.12304 0.87891,2.29492 0.29297,1.12305 0.29297,2.19726 0,2.49024 -0.97657,4.44336 -0.97656,1.95313 -2.63671,3.32032 -1.66016,1.31836 -3.75977,2.05078 -2.09961,0.68359 -4.29687,0.68359 -2.2461,0 -4.15039,-0.68359 -1.85547,-0.73242 -3.27149,-2.00196 -1.36719,-1.26953 -2.14844,-3.125 -0.78125,-1.90429 -0.78125,-4.19921 z m 2.39258,-0.39063 q 0,1.51367 0.53711,2.92969 0.58594,1.36719 1.5625,2.39258 1.02539,1.02539 2.39258,1.66015 1.36719,0.58594 2.92969,0.58594 0.83007,0.0977 2.00195,-0.24414 1.2207,-0.39063 2.39258,-1.07422 1.2207,-0.73242 2.29492,-1.70898 1.12305,-1.02539 1.85547,-2.19727 0.73242,-1.2207 0.8789,-2.49023 0.19532,-1.31836 -0.43945,-2.58789 -0.58594,-1.31836 -2.19726,-2.49024 -1.61133,-1.2207 -4.44336,-2.24609 -1.61133,0 -3.36914,0.48828 -1.70899,0.43945 -3.125,1.36719 -1.41602,0.92773 -2.34375,2.34375 -0.92774,1.41601 -0.92774,3.27148 z"
       style="font-style:normal;font-variant:normal;font-weight:normal;font-stretch:normal;font-size:50px;font-family:'Indie Flower';-inkscape-font-specification:'Indie Flower';text-align:center;text-anchor:middle"
       id="path5183" />
    <path
       d="m 152.00391,141.94237 q -1.95313,2.63672 -3.95508,3.71094 -1.95313,1.02539 -3.75977,0.92774 -1.75781,-0.14649 -3.36914,-1.31836 -1.5625,-1.17188 -2.73437,-2.92969 -1.12305,-1.75781 -1.85547,-3.95508 -0.6836,-2.24609 -0.73242,-4.54102 -0.0488,-2.29492 0.58593,-4.44335 0.6836,-2.19727 2.2461,-3.90625 0.78125,0.29296 0.8789,0.78125 0.0977,0.5371 0.0977,1.12304 0,0.83008 -0.19531,1.61133 -0.14649,0.73242 -0.3418,1.51367 -0.19531,0.78125 -0.39062,1.61133 -0.14649,0.83008 -0.14649,1.70898 0,0.63477 0.14649,1.61133 0.14648,0.92774 0.39062,2.00196 0.29297,1.07421 0.73242,2.14843 0.43946,1.02539 1.02539,1.9043 0.63477,0.83008 1.36719,1.41602 0.73242,0.53711 1.66016,0.53711 0.83007,0 1.95312,-0.48829 1.17188,-0.53711 2.19727,-1.31836 1.07422,-0.78125 1.75781,-1.75781 0.73242,-0.97656 0.73242,-1.95312 l 0.29297,-6.34766 q 0,-0.14648 0.19531,-0.29297 0.19532,-0.14648 0.39063,-0.24414 0.24414,-0.14648 0.48828,-0.24414 0.24414,-0.0977 0.3418,-0.0977 0.68359,0 0.92773,0.87891 0.24414,0.87891 0.39063,2.29492 0.14648,1.36719 0.34179,2.92969 0.19531,1.5625 0.6836,2.97852 0.53711,1.36718 1.5625,2.24609 0.97656,0.87891 2.83203,0.87891 1.80664,-0.0488 2.88086,-0.73243 1.07422,-0.73242 1.5625,-1.90429 0.48828,-1.17188 0.43945,-2.58789 0,-1.46485 -0.39063,-2.88086 -0.34179,-1.46485 -0.97656,-2.78321 -0.58594,-1.31836 -1.31836,-2.29492 -0.0976,-0.39062 0,-0.53711 0.0977,-0.19531 0.24414,-0.24414 0.19532,-0.0977 0.43946,-0.0977 0.24414,-0.0488 0.39062,-0.0488 0.78125,0.19531 1.66016,1.31836 0.92773,1.07422 1.61133,2.58789 0.68359,1.51367 1.02539,3.36914 0.39062,1.85547 0.19531,3.66211 -0.14649,1.80664 -1.02539,3.36914 -0.87891,1.5625 -2.68555,2.53906 -2.14844,0.14649 -3.51562,0.19531 -1.36719,0 -2.29493,-0.0977 -0.8789,-0.14649 -1.41601,-0.43946 -0.53711,-0.29296 -1.02539,-0.73242 -0.48828,-0.48828 -1.07422,-1.12304 -0.53711,-0.63477 -1.46484,-1.51368 z"
       style="font-style:normal;font-variant:normal;font-weight:normal;font-stretch:normal;font-size:50px;font-family:'Indie Flower';-inkscape-font-specification:'Indie Flower';text-align:center;text-anchor:middle"
       id="path5185" />
    <path
       d="m 168.36133,154.34472 q 0,-1.17188 0.24414,-2.34375 0.24414,-1.17188 0.48828,-2.39258 0.29297,-1.2207 0.53711,-2.44141 0.24414,-1.2207 0.24414,-2.39258 0,-0.0977 0,-0.39062 0,-0.29297 -0.0488,-0.58594 0,-0.29297 0,-0.53711 0,-0.24414 0,-0.34179 -0.68359,0.0488 -0.83008,-0.24414 -0.14648,-0.29297 -0.14648,-0.6836 0,-0.97656 0.3418,-1.70898 0.34179,-0.78125 1.41601,-0.78125 0.97656,0 1.36719,0.68359 0.43945,0.68359 0.58594,1.61133 0.19531,0.92773 0.14648,1.9043 0,0.92773 0,1.51367 0,0.39062 -0.14648,1.36719 -0.0977,0.92773 -0.29297,2.14843 -0.14649,1.22071 -0.43946,2.53907 -0.29296,1.31835 -0.68359,2.39257 -0.39062,1.07422 -0.83008,1.75782 -0.43945,0.68359 -0.97656,0.68359 -0.3418,0 -0.53711,-0.19531 -0.19531,-0.14649 -0.29297,-0.43946 -0.0977,-0.24414 -0.14648,-0.58593 0,-0.29297 0,-0.53711 z"
       style="font-style:normal;font-variant:normal;font-weight:normal;font-stretch:normal;font-size:50px;font-family:'Indie Flower';-inkscape-font-specification:'Indie Flower';text-align:center;text-anchor:middle"
       id="path5187" />
    <path
       d="m 194.14258,140.23339 q 0,-3.07617 1.07422,-5.17578 1.07422,-2.09961 2.83203,-3.36914 1.80664,-1.26953 4.15039,-1.85547 2.39258,-0.58594 4.98047,-0.58594 2.09961,0 4.05273,0.68359 2.00195,0.6836 3.56445,1.9043 1.5625,1.2207 2.49024,2.97852 0.92773,1.75781 0.92773,4.0039 0,1.95313 -0.73242,3.22266 -0.73242,1.2207 -2.00195,1.95312 -1.26953,0.6836 -2.83203,0.97657 -1.51367,0.29297 -3.125,0.29297 -1.5625,0 -3.22266,-0.14649 -1.61133,-0.14648 -2.97851,-0.68359 -1.36719,-0.53711 -2.2461,-1.61133 -0.8789,-1.07422 -0.8789,-3.02734 1.02539,0 1.95312,0.43945 0.97656,0.39062 1.95313,0.87891 0.97656,0.43945 1.95312,0.83007 0.92773,0.43946 2.00195,0.43946 0.78125,0 2.05078,-0.14649 1.31836,-0.14648 2.44141,-0.53711 1.17188,-0.43945 2.00195,-1.17187 0.83008,-0.73242 0.83008,-1.85547 0,-1.66016 -0.73242,-2.88086 -0.73242,-1.2207 -1.9043,-2.00195 -1.17187,-0.83008 -2.63672,-1.26953 -1.46484,-0.43946 -2.92968,-0.43946 -0.19532,0 -0.97657,0.0977 -0.73242,0.0977 -1.70898,0.3418 -0.97656,0.19531 -2.05078,0.5371 -1.07422,0.29297 -2.00195,0.78125 -0.87891,0.43946 -1.46485,1.0254 -0.58594,0.58593 -0.58594,1.31835 l 0,0.58594 q 0.0488,0.53711 0.0977,1.46485 0.0977,0.8789 0.14649,1.80664 0.0488,0.8789 0.14648,1.5625 0.0977,0.68359 0.0977,0.78125 0.0977,0.78125 0.34179,2.4414 0.24414,1.61133 0.53711,3.61328 0.29297,2.05079 0.63477,4.29688 0.39062,2.24609 0.73242,4.24805 0.3418,2.05078 0.58594,3.66211 0.29297,1.61132 0.43945,2.34375 0,0.0976 0,0.14648 0.0488,0.0977 0.0488,0.14648 0,0.0488 0,0.0488 l -0.0488,0.0977 0,0.0977 q -0.0977,0.14649 -0.43945,0.48829 -0.39063,0.29296 -0.48828,0.39062 l -0.29297,0 q -0.48828,0 -1.02539,-0.92773 -0.53711,-0.87891 -1.12305,-2.44141 -0.53711,-1.51367 -1.12305,-3.51562 -0.53711,-2.00196 -1.07422,-4.1504 -0.53711,-2.14843 -0.97656,-4.24804 -0.43945,-2.09961 -0.78125,-3.90625 -0.3418,-1.80664 -0.53711,-3.125 -0.14648,-1.31836 -0.14648,-1.85547 z"
       style="font-style:normal;font-variant:normal;font-weight:normal;font-stretch:normal;font-size:50px;font-family:'Indie Flower';-inkscape-font-specification:'Indie Flower';text-align:center;text-anchor:middle"
       id="path5189" />
    <path
       d="m 222.36523,129.73534 q 0,-0.19531 0,-0.73242 0,-0.53711 0,-1.12305 0.0488,-0.58593 0.0488,-1.12304 0,-0.53711 0,-0.73243 -0.19531,-1.51367 0.87891,-1.51367 0.48828,0 0.83008,0.24414 0.34179,0.24414 0.63476,0.73243 -0.14648,2.53906 0.19531,4.93164 0.39063,2.34375 0.83008,4.6875 0.48828,2.29492 0.87891,4.63867 0.43945,2.34375 0.43945,4.88281 0,0.68359 -0.43945,1.36719 -0.39063,0.68359 -1.2207,0.68359 -0.63477,0 -1.12305,-1.07422 -0.43945,-1.12304 -0.78125,-2.7832 -0.3418,-1.70898 -0.58594,-3.75977 -0.24414,-2.05078 -0.39062,-3.90625 -0.0977,-1.90429 -0.14649,-3.36914 -0.0488,-1.51367 -0.0488,-2.05078 z M 219.875,117.47948 q 0,-0.58593 0.3418,-0.73242 0.34179,-0.19531 0.8789,-0.19531 0.3418,-0.0488 0.87891,0.43945 0.58594,0.43945 0.92773,1.02539 0.39063,0.58594 0.43946,1.07422 0.0488,0.58594 -0.73243,0.68359 l -0.24414,0 q -0.73242,0 -1.2207,-0.0977 -0.48828,-0.0977 -0.78125,-0.29297 -0.24414,-0.24414 -0.39062,-0.68359 -0.0977,-0.43946 -0.0977,-1.22071 z"
       style="font-style:normal;font-variant:normal;font-weight:normal;font-stretch:normal;font-size:50px;font-family:'Indie Flower';-inkscape-font-specification:'Indie Flower';text-align:center;text-anchor:middle"
       id="path5191" />
    <path
       d="m 229.00586,135.7412 q 0,-2.14844 0.83008,-4.15039 0.83008,-2.05078 2.24609,-3.61328 1.46484,-1.5625 3.36914,-2.49023 1.9043,-0.92774 4.05274,-0.92774 0.97656,0 2.05078,0.24414 1.12304,0.19531 2.09961,0.6836 0.97656,0.48828 1.61132,1.31835 0.63477,0.78125 0.63477,2.00196 0,0.19531 -0.14648,0.78125 -0.0977,0.58594 -0.29297,1.17187 -0.19532,0.58594 -0.48828,1.07422 -0.24414,0.43945 -0.43946,0.43945 0,-2.29492 -1.26953,-3.80859 -1.26953,-1.5625 -3.71094,-1.5625 -1.85546,0 -3.32031,0.78125 -1.46484,0.78125 -2.4414,2.05078 -0.97657,1.26953 -1.51368,2.88086 -0.48828,1.5625 -0.48828,3.22266 0,2.24609 0.73242,3.71094 0.73243,1.46484 2.00196,2.39257 1.26953,0.87891 2.92968,1.31836 1.66016,0.43946 3.51563,0.58594 1.85547,0.14648 3.71094,0.0977 1.85547,-0.0488 3.56445,-0.14649 0.14648,0 0.48828,0.19531 0.3418,0.19532 0.48828,0.24415 l 0,0.14648 q 0,0.0977 0,0.0977 0.0488,0 0.0488,0.0488 0,0.53711 -0.53711,0.92774 -0.53711,0.39062 -1.31836,0.63476 -0.78125,0.24414 -1.70898,0.3418 -0.92774,0.0977 -1.85547,0.19531 -0.87891,0.0488 -1.5625,0.0488 -0.68359,0 -0.97656,0 -2.83203,0 -5.12696,-0.63476 -2.24609,-0.63477 -3.85742,-1.95313 -1.5625,-1.36719 -2.4414,-3.41797 -0.87891,-2.09961 -0.87891,-4.93164 z"
       style="font-style:normal;font-variant:normal;font-weight:normal;font-stretch:normal;font-size:50px;font-family:'Indie Flower';-inkscape-font-specification:'Indie Flower';text-align:center;text-anchor:middle"
       id="path5193" />
    <path
       d="m 252.98047,145.21386 q 0,-0.0977 0.0488,-0.48828 0.0488,-0.43946 0.14648,-0.92774 0.0977,-0.48828 0.14649,-0.8789 0.0488,-0.43946 0.0488,-0.53711 0,-0.0977 0,-0.48828 0,-0.43946 0,-0.97657 0.0488,-0.53711 0.0488,-1.12304 0,-0.58594 0,-0.87891 0,-0.29297 0,-0.78125 0,-0.48828 -0.0488,-0.97656 0,-0.53711 0,-0.87891 0,-0.39062 0,-0.43945 -0.14648,-2.2461 -0.58593,-4.73633 -0.39063,-2.53906 -0.87891,-5.0293 -0.43945,-2.49023 -0.87891,-4.88281 -0.39062,-2.39258 -0.58593,-4.39453 0.43945,-1.17188 0.92773,-0.78125 0.53711,0.3418 1.07422,1.70898 0.53711,1.36719 1.07422,3.41797 0.53711,2.00196 0.92773,4.10156 0.43946,2.09961 0.78125,3.95508 0.29297,1.85547 0.48828,2.88086 0.0977,0.0977 0.3418,0.0977 0.29297,0 0.39063,0 0.97656,0 1.70898,-0.58594 0.73242,-0.58594 1.36719,-1.46484 0.68359,-0.92774 1.31836,-1.95313 0.63476,-1.07422 1.31836,-1.95312 0.68359,-0.87891 1.51367,-1.46485 0.83008,-0.63476 1.90429,-0.63476 0.6836,0 0.83008,0.43945 0.14649,0.39063 0.0977,0.92774 -0.68359,0.5371 -1.5625,1.41601 -0.87891,0.87891 -1.9043,1.9043 -0.97656,1.02539 -2.00195,2.14844 -0.97656,1.12304 -1.75781,2.19726 -0.73243,1.02539 -1.26953,2.00195 -0.48829,0.97657 -0.48829,1.70899 0,1.07422 0.6836,1.95312 0.73242,0.87891 1.80664,1.61133 1.12305,0.73242 2.49023,1.26953 1.36719,0.48828 2.73438,0.87891 1.36719,0.3418 2.58789,0.53711 1.17187,0.19531 1.95312,0.19531 0.43946,0.0977 0.48828,0.48828 0.0488,0.39063 0.0488,0.73242 0,0.73243 -0.48828,1.07422 -0.43945,0.3418 -1.12305,0.48828 -0.63476,0.14649 -1.36718,0.14649 -0.6836,0 -1.17188,0 -1.07422,0 -2.49023,-0.6836 -1.36719,-0.68359 -2.68555,-1.46484 -1.26953,-0.83008 -2.24609,-1.51367 -0.97657,-0.68359 -1.36719,-0.68359 -0.78125,0 -1.07422,0.78125 -0.24414,0.73242 -0.3418,1.61132 -0.0976,0.87891 -0.34179,1.66016 -0.19532,0.73242 -0.92774,0.73242 -0.63476,0 -1.17187,-0.3418 -0.53711,-0.34179 -0.53711,-1.12304 z"
       style="font-style:normal;font-variant:normal;font-weight:normal;font-stretch:normal;font-size:50px;font-family:'Indie Flower';-inkscape-font-specification:'Indie Flower';text-align:center;text-anchor:middle"
       id="path5195" />
    <path
       d="m 308.15625,139.5498 q -1.12305,0.63476 -1.95313,1.5625 -0.78125,0.8789 -1.61132,1.70898 -0.83008,0.78125 -1.85547,1.36719 -0.97656,0.58593 -2.53906,0.58593 -1.75782,0 -3.17383,-0.73242 -1.41602,-0.78125 -2.53907,-2.05078 -1.07421,-1.31836 -1.90429,-2.92969 -0.78125,-1.66015 -1.31836,-3.36914 -0.48828,-1.75781 -0.78125,-3.41797 -0.24414,-1.70898 -0.24414,-3.07617 -0.39063,-2.63672 0.14648,-4.10156 0.53711,-1.51367 1.26953,-1.9043 0.78125,-0.43945 1.31836,0.19532 0.53711,0.58593 0.14649,2.09961 -0.0977,0.19531 -0.14649,0.63476 -0.0488,0.39063 -0.0977,0.83008 -0.0488,0.43945 -0.0977,0.83008 -0.0488,0.39062 -0.0488,0.53711 0,1.02539 0.19531,2.4414 0.19532,1.36719 0.58594,2.88086 0.43946,1.51367 1.07422,3.02735 0.63477,1.46484 1.51367,2.63671 0.87891,1.17188 2.00196,1.9043 1.17187,0.73242 2.53906,0.73242 0.8789,0 2.00195,-0.83007 1.12305,-0.87891 2.09961,-2.05079 1.02539,-1.2207 1.70899,-2.49023 0.73242,-1.26953 0.73242,-2.14844 0,-0.48828 0,-1.61133 0.0488,-1.12304 0.0488,-2.39257 0,-1.26954 -0.0488,-2.39258 0,-1.12305 0,-1.5625 0.29297,-0.48828 0.63476,-0.73242 0.3418,-0.29297 0.83008,-0.29297 0.58594,0 0.97656,0.78125 0.39063,0.78125 0.63477,2.00195 0.24414,1.2207 0.3418,2.63672 0.0976,1.41601 0.14648,2.73437 0.0488,1.31836 0.0977,2.34375 0.0488,0.97657 0.14648,1.31836 0.24414,0.97657 0.68359,2.19727 0.48829,1.2207 0.92774,2.39258 0.43945,1.12304 0.78125,2.09961 0.3418,0.92773 0.3418,1.41601 0,0.73242 -0.43946,0.87891 -0.39062,0.14648 -1.02539,0.14648 -0.78125,0 -1.17187,-0.39062 -0.3418,-0.39063 -0.53711,-0.97656 -0.14649,-0.63477 -0.24414,-1.36719 -0.0977,-0.73242 -0.3418,-1.51367 -0.19531,-0.78125 -0.63477,-1.46485 -0.39062,-0.68359 -1.17187,-1.12304 z"
       style="font-style:normal;font-variant:normal;font-weight:normal;font-stretch:normal;font-size:50px;font-family:'Indie Flower';-inkscape-font-specification:'Indie Flower';text-align:center;text-anchor:middle"
       id="path5197" />
    <path
       d="m 315.43164,140.23339 q 0,-3.07617 1.07422,-5.17578 1.07422,-2.09961 2.83203,-3.36914 1.80664,-1.26953 4.15039,-1.85547 2.39258,-0.58594 4.98047,-0.58594 2.09961,0 4.05273,0.68359 2.00196,0.6836 3.56446,1.9043 1.5625,1.2207 2.49023,2.97852 0.92774,1.75781 0.92774,4.0039 0,1.95313 -0.73243,3.22266 -0.73242,1.2207 -2.00195,1.95312 -1.26953,0.6836 -2.83203,0.97657 -1.51367,0.29297 -3.125,0.29297 -1.5625,0 -3.22266,-0.14649 -1.61132,-0.14648 -2.97851,-0.68359 -1.36719,-0.53711 -2.2461,-1.61133 -0.8789,-1.07422 -0.8789,-3.02734 1.02539,0 1.95312,0.43945 0.97657,0.39062 1.95313,0.87891 0.97656,0.43945 1.95312,0.83007 0.92774,0.43946 2.00196,0.43946 0.78125,0 2.05078,-0.14649 1.31836,-0.14648 2.4414,-0.53711 1.17188,-0.43945 2.00196,-1.17187 0.83007,-0.73242 0.83007,-1.85547 0,-1.66016 -0.73242,-2.88086 -0.73242,-1.2207 -1.90429,-2.00195 -1.17188,-0.83008 -2.63672,-1.26953 -1.46485,-0.43946 -2.92969,-0.43946 -0.19531,0 -0.97656,0.0977 -0.73242,0.0977 -1.70899,0.3418 -0.97656,0.19531 -2.05078,0.5371 -1.07422,0.29297 -2.00195,0.78125 -0.87891,0.43946 -1.46485,1.0254 -0.58593,0.58593 -0.58593,1.31835 l 0,0.58594 q 0.0488,0.53711 0.0976,1.46485 0.0977,0.8789 0.14649,1.80664 0.0488,0.8789 0.14648,1.5625 0.0977,0.68359 0.0977,0.78125 0.0976,0.78125 0.3418,2.4414 0.24414,1.61133 0.5371,3.61328 0.29297,2.05079 0.63477,4.29688 0.39063,2.24609 0.73242,4.24805 0.3418,2.05078 0.58594,3.66211 0.29297,1.61132 0.43945,2.34375 0,0.0976 0,0.14648 0.0488,0.0977 0.0488,0.14648 0,0.0488 0,0.0488 l -0.0488,0.0977 0,0.0977 q -0.0977,0.14649 -0.43945,0.48829 -0.39063,0.29296 -0.48828,0.39062 l -0.29297,0 q -0.48828,0 -1.02539,-0.92773 -0.53711,-0.87891 -1.12305,-2.44141 -0.53711,-1.51367 -1.12304,-3.51562 -0.53711,-2.00196 -1.07422,-4.1504 -0.53711,-2.14843 -0.97657,-4.24804 -0.43945,-2.09961 -0.78125,-3.90625 -0.34179,-1.80664 -0.53711,-3.125 -0.14648,-1.31836 -0.14648,-1.85547 z"
       style="font-style:normal;font-variant:normal;font-weight:normal;font-stretch:normal;font-size:50px;font-family:'Indie Flower';-inkscape-font-specification:'Indie Flower';text-align:center;text-anchor:middle"
       id="path5199" />
    <path
       d="m 365.96875,129.833 q -0.39063,0 -1.36719,0 -0.97656,0 -2.05078,-0.14649 -1.02539,-0.19531 -1.9043,-0.58593 -0.83007,-0.39063 -0.83007,-1.12305 0,-0.19531 0.0488,-0.53711 0.0977,-0.39062 0.48829,-0.39062 l 5.02929,-0.43946 q 0.19531,-1.80664 0.29297,-2.92969 0.0977,-1.17187 0.0488,-2.14843 -0.0488,-1.02539 -0.14649,-2.09961 -0.0488,-1.12305 -0.0976,-2.88086 0,-0.3418 0.14648,-0.53711 0.14649,-0.19531 0.3418,-0.29297 0.24414,-0.0977 0.48828,-0.14648 0.29297,-0.0488 0.43945,-0.0488 0.29297,0 0.58594,0.19531 0.3418,0.19531 0.58594,0.48828 0.24414,0.29297 0.39062,0.63477 0.14649,0.29297 0.14649,0.58593 l 0.39062,9.13086 4.19922,0.19532 q 0.83008,-0.0977 1.51367,0.34179 0.73243,0.39063 0.78125,1.51368 -0.58593,0.63476 -1.41601,0.78125 -0.83008,0.0976 -1.75781,0.0976 -0.87891,-0.0488 -1.75782,0 -0.8789,0 -1.5625,0.43945 0,0.29297 0.0488,1.61133 0.0488,1.31836 0.0977,3.125 0.0488,1.80664 0.0976,3.85742 0.0977,2.05079 0.14649,3.8086 0.0488,1.70898 0.0488,2.92969 0.0488,1.2207 0.0488,1.36718 -1.12304,0.6836 -1.80664,-0.0977 -0.68359,-0.83008 -1.12304,-2.39258 -0.39063,-1.61133 -0.58594,-3.71094 -0.14648,-2.14844 -0.19531,-4.19922 0,-2.09961 0.0488,-3.85742 0.0488,-1.75781 0.14648,-2.53906 z"
       style="font-style:normal;font-variant:normal;font-weight:normal;font-stretch:normal;font-size:50px;font-family:'Indie Flower';-inkscape-font-specification:'Indie Flower';text-align:center;text-anchor:middle"
       id="path5201" />
    <path
       d="m 391.75,145.75097 q 0.0977,-1.26953 0.19531,-2.63672 0.0977,-1.36719 0.14649,-2.73438 0.0977,-1.36718 0.0977,-2.68554 0.0488,-1.31836 0.0488,-2.39258 0,-1.5625 -0.43945,-2.97852 -0.43946,-1.41601 -1.26953,-2.4414 -0.83008,-1.07422 -2.09961,-1.66016 -1.22071,-0.63477 -2.92969,-0.63477 -0.68359,0 -1.17188,0.0977 -0.48828,0.0977 -0.97656,0.3418 -0.48828,0.19531 -1.07422,0.53711 -0.58593,0.39062 -1.36718,0.92773 0,0.0977 -0.0488,0.39063 0,0.24414 0,0.29297 0,1.07421 0.19531,2.88085 0.24414,1.75782 0.48828,3.71094 0.24414,1.9043 0.48828,3.71094 0.24414,1.80664 0.24414,2.92969 0,0.0977 0,0.39062 0,0.29297 -0.0488,0.63477 0,0.34179 0,0.63476 0,0.29297 0,0.43946 -0.29297,0.68359 -0.73243,0.8789 -0.39062,0.14649 -0.97656,0.14649 -0.58594,0.0977 -0.87891,-0.83008 -0.29296,-0.92774 -0.43945,-2.68555 -0.14648,-1.75781 -0.29297,-4.24804 -0.0977,-2.49024 -0.34179,-5.46875 -0.19532,-2.97852 -0.63477,-6.29883 -0.39062,-3.36914 -1.17187,-6.88477 -0.39063,-1.36719 -0.63477,-2.29492 -0.19531,-0.97656 -0.39063,-1.70898 -0.19531,-0.78125 -0.34179,-1.5625 -0.14649,-0.83008 -0.3418,-1.95313 l 0,-0.19531 q 0,-0.19531 0.24414,-0.3418 0.24414,-0.19531 0.53711,-0.3418 0.3418,-0.14648 0.63477,-0.19531 0.34179,-0.0977 0.53711,-0.0977 0.92773,2.4414 1.46484,4.15039 0.58594,1.66015 0.92773,2.88086 0.3418,1.2207 0.48829,2.05078 0.14648,0.83007 0.24414,1.61132 0.0976,0.78125 0.14648,1.61133 0.0488,0.83008 0.19531,2.00196 2.53907,-1.5625 4.58985,-1.70899 2.09961,-0.14648 3.71093,0.63477 1.61133,0.73242 2.78321,2.29492 1.2207,1.5625 2.00195,3.51562 0.78125,1.95313 1.17188,4.15039 0.43945,2.19727 0.5371,4.24805 0.14649,2.05078 -0.0976,3.8086 -0.19531,1.70898 -0.63477,2.7832 -0.43945,1.02539 -1.17187,1.17187 -0.73242,0.19532 -1.61133,-0.8789 z"
       style="font-style:normal;font-variant:normal;font-weight:normal;font-stretch:normal;font-size:50px;font-family:'Indie Flower';-inkscape-font-specification:'Indie Flower';text-align:center;text-anchor:middle"
       id="path5203" />
    <path
       d="m 398.04883,133.54394 q 0,-2.53907 0.73242,-4.83399 0.78125,-2.34375 2.19727,-4.10156 1.46484,-1.75781 3.51562,-2.7832 2.09961,-1.07422 4.83398,-1.07422 1.61133,0.19531 2.78321,0.8789 1.2207,0.6836 1.95312,1.70899 0.78125,0.97656 1.12305,2.29492 0.29297,1.26953 0.29297,2.73437 0,1.75782 -1.02539,3.17383 -1.02539,1.41602 -2.58789,2.39258 -1.5625,0.92774 -3.36914,1.46484 -1.80664,0.48829 -3.36914,0.48829 -0.58594,0 -1.22071,0 -0.58593,0 -1.07422,-0.19532 -0.48828,-0.19531 -0.78125,-0.58593 -0.29296,-0.39063 -0.29296,-1.17188 0,-0.24414 0.0488,-0.39062 0.0977,-0.19532 0.43946,-0.24414 0.34179,-0.0977 1.02539,-0.0488 0.68359,0.0977 1.85547,0.29297 0.68359,0 1.95312,-0.43946 1.31836,-0.48828 2.63672,-1.2207 1.36719,-0.73242 2.34375,-1.66016 0.97656,-0.97656 0.97656,-1.90429 0,-0.97657 -0.34179,-1.9043 -0.29297,-0.97656 -0.92774,-1.70898 -0.63476,-0.73243 -1.51367,-1.17188 -0.83008,-0.43945 -1.9043,-0.3418 -1.70898,0.14649 -3.125,0.92774 -1.36719,0.78125 -2.34375,2.05078 -0.97656,1.2207 -1.51367,2.73437 -0.53711,1.51368 -0.53711,3.17383 0,1.26953 0.0488,2.53906 0.0488,1.26954 0.3418,2.49024 0.34179,1.2207 1.02539,2.34375 0.73242,1.12305 2.05078,2.00195 1.36719,0.83008 3.41797,1.41602 2.05078,0.53711 5.07812,0.68359 l 8.74024,-0.58594 q -0.78125,1.07422 -2.00196,1.75782 -1.17187,0.68359 -2.53906,1.12304 -1.31836,0.39063 -2.63672,0.58594 -1.31836,0.19531 -2.49023,0.19531 -2.83203,0 -5.32227,-0.92773 -2.49023,-0.92774 -4.39453,-2.58789 -1.9043,-1.70899 -3.02734,-4.10156 -1.07422,-2.44141 -1.07422,-5.46875 z"
       style="font-style:normal;font-variant:normal;font-weight:normal;font-stretch:normal;font-size:50px;font-family:'Indie Flower';-inkscape-font-specification:'Indie Flower';text-align:center;text-anchor:middle"
       id="path5205" />
    <path
       d="m 54.982422,185.69237 q -0.244141,-2.14843 -0.585938,-3.66211 -0.341797,-1.51367 -0.341797,-2.49023 0.04883,-0.97656 0.634766,-1.51367 0.634766,-0.53711 2.197266,-0.73242 0.09766,0.48828 0.24414,1.85546 0.146485,1.36719 0.292969,3.125 0.195313,1.70899 0.390625,3.61329 0.244141,1.85546 0.439453,3.41796 0.195313,1.5625 0.439453,2.53907 0.244141,1.07422 0.439453,0.97656 0.878907,0 1.708985,-0.29297 0.878906,-0.29297 1.855469,-0.29297 1.464843,0 3.125,0.29297 1.660156,0.24414 3.271484,0.78125 1.660156,0.53711 3.173828,1.41602 1.5625,0.83007 2.685547,1.95312 1.171875,1.12305 1.855469,2.58789 0.683593,1.46485 0.683593,3.22266 0,2.24609 -1.123046,3.61328 -1.074219,1.31836 -2.783204,2.00195 -1.708984,0.6836 -3.710937,0.87891 -2.050781,0.19531 -3.808594,0.19531 -2.441406,0 -4.052734,-0.58594 -1.611328,-0.63476 -2.636719,-1.70898 -1.025391,-1.07422 -1.5625,-2.49023 -0.537109,-1.41602 -0.78125,-3.07618 -0.244141,-1.70898 -0.341797,-3.51562 -0.09766,-1.85547 -0.292969,-3.71094 -0.04883,-0.3418 -0.24414,-1.51367 -0.195313,-1.2207 -0.488281,-2.63672 -0.244141,-1.46484 -0.439454,-2.68555 -0.195312,-1.2207 -0.24414,-1.5625 z m 4.6875,12.79297 q -0.488281,2.14844 0.24414,3.71094 0.78125,1.5625 2.197266,2.58789 1.464844,0.97656 3.320313,1.36719 1.904296,0.39062 3.759765,0.14648 1.855469,-0.29297 3.320313,-1.17187 1.5625,-0.92774 2.246093,-2.53907 0,-1.31835 -0.634765,-2.39257 -0.585938,-1.07422 -1.5625,-1.9043 -0.976563,-0.83008 -2.246094,-1.41602 -1.220703,-0.63476 -2.539062,-1.02539 -1.269532,-0.39062 -2.539063,-0.58593 -1.269531,-0.24414 -2.246094,-0.24414 -1.611328,0 -2.490234,0.92773 -0.830078,0.92773 -0.830078,2.53906 z"
       style="font-style:normal;font-variant:normal;font-weight:normal;font-stretch:normal;font-size:50px;font-family:'Indie Flower';-inkscape-font-specification:'Indie Flower';text-align:center;text-anchor:middle"
       id="path5207" />
    <path
       d="m 79.396484,196.04394 q 0,-2.53907 0.732422,-4.83399 0.78125,-2.34375 2.197266,-4.10156 1.464844,-1.75781 3.515625,-2.7832 2.099609,-1.07422 4.833984,-1.07422 1.611328,0.19531 2.783203,0.8789 1.220703,0.6836 1.953125,1.70899 0.78125,0.97656 1.123047,2.29492 0.292969,1.26953 0.292969,2.73437 0,1.75782 -1.025391,3.17383 -1.02539,1.41602 -2.58789,2.39258 -1.5625,0.92774 -3.369141,1.46484 -1.806641,0.48829 -3.369141,0.48829 -0.585937,0 -1.220703,0 -0.585937,0 -1.074218,-0.19532 -0.488282,-0.19531 -0.78125,-0.58593 -0.292969,-0.39063 -0.292969,-1.17188 0,-0.24414 0.04883,-0.39062 0.09766,-0.19532 0.439453,-0.24414 0.341797,-0.0977 1.025391,-0.0488 0.683593,0.0977 1.855468,0.29297 0.683594,0 1.953125,-0.43946 1.31836,-0.48828 2.636719,-1.2207 1.367188,-0.73242 2.34375,-1.66016 0.976563,-0.97656 0.976563,-1.90429 0,-0.97657 -0.341797,-1.9043 -0.292969,-0.97656 -0.927735,-1.70898 -0.634765,-0.73243 -1.513671,-1.17188 -0.830079,-0.43945 -1.904297,-0.3418 -1.708985,0.14649 -3.125,0.92774 -1.367188,0.78125 -2.34375,2.05078 -0.976563,1.2207 -1.513672,2.73437 -0.53711,1.51368 -0.53711,3.17383 0,1.26953 0.04883,2.53906 0.04883,1.26954 0.341796,2.49024 0.341797,1.2207 1.025391,2.34375 0.732422,1.12305 2.050781,2.00195 1.367188,0.83008 3.417969,1.41602 2.050781,0.53711 5.078125,0.68359 l 8.740232,-0.58594 q -0.78125,1.07422 -2.00195,1.75782 -1.171876,0.68359 -2.539063,1.12304 -1.31836,0.39063 -2.636719,0.58594 -1.318359,0.19531 -2.490234,0.19531 -2.832032,0 -5.322266,-0.92773 -2.490234,-0.92774 -4.394531,-2.58789 -1.904297,-1.70899 -3.027344,-4.10156 -1.074219,-2.44141 -1.074219,-5.46875 z"
       style="font-style:normal;font-variant:normal;font-weight:normal;font-stretch:normal;font-size:50px;font-family:'Indie Flower';-inkscape-font-specification:'Indie Flower';text-align:center;text-anchor:middle"
       id="path5209" />
    <path
       d="m 105.17773,196.04394 q 0,-2.53907 0.73243,-4.83399 0.78125,-2.34375 2.19726,-4.10156 1.46485,-1.75781 3.51563,-2.7832 2.09961,-1.07422 4.83398,-1.07422 1.61133,0.19531 2.7832,0.8789 1.22071,0.6836 1.95313,1.70899 0.78125,0.97656 1.12305,2.29492 0.29297,1.26953 0.29297,2.73437 0,1.75782 -1.0254,3.17383 -1.02539,1.41602 -2.58789,2.39258 -1.5625,0.92774 -3.36914,1.46484 -1.80664,0.48829 -3.36914,0.48829 -0.58593,0 -1.2207,0 -0.58594,0 -1.07422,-0.19532 -0.48828,-0.19531 -0.78125,-0.58593 -0.29297,-0.39063 -0.29297,-1.17188 0,-0.24414 0.0488,-0.39062 0.0977,-0.19532 0.43945,-0.24414 0.3418,-0.0977 1.02539,-0.0488 0.6836,0.0977 1.85547,0.29297 0.6836,0 1.95313,-0.43946 1.31836,-0.48828 2.63672,-1.2207 1.36718,-0.73242 2.34375,-1.66016 0.97656,-0.97656 0.97656,-1.90429 0,-0.97657 -0.3418,-1.9043 -0.29297,-0.97656 -0.92773,-1.70898 -0.63477,-0.73243 -1.51367,-1.17188 -0.83008,-0.43945 -1.9043,-0.3418 -1.70899,0.14649 -3.125,0.92774 -1.36719,0.78125 -2.34375,2.05078 -0.97656,1.2207 -1.51367,2.73437 -0.53711,1.51368 -0.53711,3.17383 0,1.26953 0.0488,2.53906 0.0488,1.26954 0.34179,2.49024 0.3418,1.2207 1.02539,2.34375 0.73243,1.12305 2.05078,2.00195 1.36719,0.83008 3.41797,1.41602 2.05078,0.53711 5.07813,0.68359 l 8.74023,-0.58594 q -0.78125,1.07422 -2.00195,1.75782 -1.17188,0.68359 -2.53906,1.12304 -1.31836,0.39063 -2.63672,0.58594 -1.31836,0.19531 -2.49024,0.19531 -2.83203,0 -5.32226,-0.92773 -2.49024,-0.92774 -4.39453,-2.58789 -1.9043,-1.70899 -3.02735,-4.10156 -1.07422,-2.44141 -1.07422,-5.46875 z"
       style="font-style:normal;font-variant:normal;font-weight:normal;font-stretch:normal;font-size:50px;font-family:'Indie Flower';-inkscape-font-specification:'Indie Flower';text-align:center;text-anchor:middle"
       id="path5211" />
    <path
       d="m 149.70898,200.87792 q 0.0488,-0.83008 0.48829,-1.9043 0.43945,-1.07422 1.36718,-2.09961 0.92774,-1.02539 2.34375,-1.80664 1.41602,-0.83007 3.32032,-1.17187 1.95312,-0.3418 4.39453,-0.0488 2.49023,0.29297 5.51757,1.46484 0,-0.0488 0,-0.48828 l -0.0488,-0.43945 q 0,-1.26953 -0.73243,-2.58789 -0.73242,-1.31836 -1.90429,-2.34375 -1.12305,-1.07422 -2.44141,-1.70899 -1.31836,-0.68359 -2.53906,-0.68359 -0.48828,0 -0.87891,0.14649 -0.34179,0.14648 -0.68359,0.39062 -0.3418,0.19531 -0.68359,0.39063 -0.29297,0.14648 -0.73243,0.14648 -0.0977,0 -0.0977,-0.0488 -0.0488,-0.0488 -0.0977,-0.0976 -0.0977,-0.0977 -0.29297,-0.24415 -0.14648,-0.14648 -0.14648,-0.19531 0,-0.8789 0.29297,-1.51367 0.34179,-0.63477 0.8789,-1.02539 0.58594,-0.39063 1.26953,-0.58594 0.73243,-0.24414 1.51368,-0.24414 1.95312,0.19531 3.71093,1.2207 1.80664,0.97657 3.27149,2.49024 1.51367,1.51367 2.63672,3.51562 1.12304,1.95313 1.85547,4.10157 0.78125,2.09961 1.02539,4.24804 0.29296,2.2461 0.0488,4.19922 -0.0488,0 -0.29296,0 -0.24415,-0.0488 -0.53711,-0.0488 -0.29297,-0.0488 -0.48829,-0.0976 l -0.24414,-0.0488 q -1.02539,-2.29492 -2.29492,-3.71094 -1.26953,-1.41601 -2.53906,-2.19726 -1.2207,-0.83008 -2.29492,-1.12305 -1.07422,-0.3418 -1.75781,-0.48828 -0.73243,0 -1.75782,0.0977 -0.97656,0.0977 -2.05078,0.3418 -1.07422,0.24414 -2.19726,0.6836 -1.07422,0.39062 -1.95313,0.97656 -0.83008,0.58594 -1.36719,1.41601 -0.48828,0.78125 -0.48828,1.85547 0,1.17188 0.92774,2.00196 0.92773,0.78125 2.24609,1.31835 1.31836,0.48829 2.68555,0.6836 1.36718,0.19531 2.19726,0.19531 1.36719,0 2.68555,-0.14648 1.31836,-0.14649 2.58789,-0.3418 1.31836,-0.19531 2.58789,-0.3418 1.26953,-0.14648 2.53906,-0.14648 0.0977,0 0.3418,0 0.24414,0 0.48828,0.0488 0.29297,0 0.48828,0 0.24414,0 0.3418,0 0.39062,0.14648 0.43945,0.43945 0.0488,0.29297 0.0488,0.58594 0,0.29297 -0.63476,0.63476 -0.58594,0.3418 -1.5625,0.6836 -0.97657,0.34179 -2.19727,0.73242 -1.17188,0.3418 -2.29492,0.58594 -1.07422,0.24414 -2.05078,0.43945 -0.92774,0.14648 -1.31836,0.14648 -2.05078,0 -4.34571,-0.34179 -2.29492,-0.3418 -4.19921,-1.22071 -1.9043,-0.92773 -3.17383,-2.53906 -1.22071,-1.61133 -1.22071,-4.15039 z"
       style="font-style:normal;font-variant:normal;font-weight:normal;font-stretch:normal;font-size:50px;font-family:'Indie Flower';-inkscape-font-specification:'Indie Flower';text-align:center;text-anchor:middle"
       id="path5213" />
    <path
       d="m 175.49023,190.0869 q 0,-0.43945 0.29297,-0.5371 0.3418,-0.14649 0.73242,-0.14649 0.29297,0 0.39063,0.14649 0.14648,0.14648 0.19531,0.34179 0.0488,0.19531 0.14649,0.39063 0.0976,0.14648 0.34179,0.14648 0.6836,0 1.66016,-0.53711 0.97656,-0.53711 2.09961,-1.17187 1.17187,-0.63477 2.44141,-1.17188 1.31835,-0.53711 2.58789,-0.53711 1.66015,0 3.02734,0.87891 1.41602,0.83008 2.49023,2.24609 1.12305,1.41602 1.9043,3.17383 0.78125,1.75781 1.31836,3.61328 0.53711,1.80664 0.78125,3.56446 0.24414,1.70898 0.24414,2.97851 0,0.43945 -0.0977,1.31836 -0.0488,0.87891 -0.24414,1.75781 -0.14648,0.87891 -0.53711,1.5625 -0.39062,0.63477 -0.97656,0.63477 -0.0977,0 -0.34179,0 -0.24415,-0.0488 -0.48829,-0.0977 -0.24414,-0.0977 -0.43945,-0.19531 -0.14648,-0.0977 -0.14648,-0.29297 0.43945,-3.75976 0,-7.03125 -0.43946,-3.32031 -1.41602,-5.81055 -0.97656,-2.49023 -2.39258,-3.95507 -1.41601,-1.46485 -3.02734,-1.46485 -1.51367,0 -2.83203,0.48828 -1.31836,0.48828 -2.29492,1.41602 -0.97657,0.92773 -1.5625,2.24609 -0.53711,1.31836 -0.53711,2.88086 0,1.5625 0.29297,3.125 0.29296,1.51367 0.63476,3.07617 0.39063,1.51368 0.68359,3.07618 0.29297,1.5625 0.29297,3.125 -1.36718,0 -2.29492,-1.12305 -0.92773,-1.12305 -1.51367,-2.88086 -0.53711,-1.75781 -0.87891,-3.95508 -0.29297,-2.19726 -0.43945,-4.29687 -0.0977,-2.14844 -0.0977,-4.00391 0,-1.9043 0,-2.97852 z"
       style="font-style:normal;font-variant:normal;font-weight:normal;font-stretch:normal;font-size:50px;font-family:'Indie Flower';-inkscape-font-specification:'Indie Flower';text-align:center;text-anchor:middle"
       id="path5215" />
    <path
       d="m 197.95117,198.04589 q 0,-1.80664 0.43945,-3.80859 0.48829,-2.00196 1.46485,-3.71094 1.02539,-1.70899 2.53906,-2.78321 1.5625,-1.12304 3.80859,-1.12304 1.17188,0 2.34375,0.34179 1.17188,0.3418 2.39258,0.97657 1.26953,0.63476 2.58789,1.51367 1.36719,0.83008 2.88086,1.85547 0.19532,-1.95313 -0.14648,-4.00391 -0.3418,-2.09961 -0.87891,-4.10156 -0.53711,-2.00195 -1.12304,-3.75977 -0.53711,-1.80664 -0.78125,-3.22265 -0.24415,-1.41602 -0.0488,-2.34375 0.19531,-0.92774 1.17187,-1.17188 1.31836,0.97656 2.2461,2.78321 0.97656,1.75781 1.66015,4.10156 0.6836,2.34375 1.12305,5.02929 0.43945,2.63672 0.73242,5.3711 0.29297,2.73437 0.43945,5.32226 0.19532,2.58789 0.39063,4.78516 0.19531,2.14844 0.3418,3.71094 0.19531,1.51367 0.53711,2.14844 0,0.78125 -0.58594,0.97656 -0.53711,0.19531 -1.12305,0.19531 -0.48828,0 -0.83008,-0.3418 -0.34179,-0.39062 -0.53711,-0.8789 -0.19531,-0.48828 -0.39062,-1.07422 -0.14649,-0.63477 -0.3418,-1.12305 -0.19531,-0.53711 -0.43945,-0.8789 -0.24414,-0.3418 -0.63477,-0.3418 -0.0976,0 -0.29297,0.0488 -0.14648,0 -0.14648,0.0488 -0.92773,1.26954 -2.19727,2.49024 -1.2207,1.17187 -2.73437,2.09961 -1.46484,0.8789 -3.125,1.41601 -1.61133,0.53711 -3.27149,0.53711 -1.85546,0 -3.27148,-1.2207 -1.36719,-1.2207 -2.34375,-2.92969 -0.92773,-1.70898 -1.41602,-3.61328 -0.43945,-1.9043 -0.43945,-3.32031 z m 3.02735,0.87891 q 0.48828,1.75781 0.8789,3.07617 0.39063,1.31836 0.92774,2.14843 0.58593,0.83008 1.36718,1.26954 0.78125,0.39062 2.05078,0.39062 1.5625,0 3.32032,-0.87891 1.75781,-0.92773 3.27148,-2.34375 1.51367,-1.41601 2.49024,-3.07617 0.97656,-1.70898 0.97656,-3.27148 0,-0.14649 0,-0.58594 0,-0.43945 0,-0.58594 -2.58789,-2.53906 -4.78516,-3.61328 -2.14844,-1.12304 -3.85742,-1.12304 -1.70898,-0.0488 -2.97852,0.73242 -1.26953,0.78125 -2.0996,2.05078 -0.83008,1.26953 -1.22071,2.83203 -0.39062,1.5625 -0.34179,2.97852 z"
       style="font-style:normal;font-variant:normal;font-weight:normal;font-stretch:normal;font-size:50px;font-family:'Indie Flower';-inkscape-font-specification:'Indie Flower';text-align:center;text-anchor:middle"
       id="path5217" />
    <path
       d="m 235.40234,222.70409 q -0.19531,-0.68359 0.0488,-1.2207 0.19531,-0.53711 0.58594,-0.87891 0.39062,-0.34179 0.87891,-0.43945 0.43945,-0.0977 0.78125,0.0977 0.29296,0.24414 0.39062,0.83007 0.0488,0.58594 -0.3418,1.61133 0,1.07422 0.92774,2.09961 0.8789,1.02539 2.34375,1.85547 1.41601,0.83008 3.125,1.51367 1.70898,0.6836 3.32031,1.17188 1.61133,0.48828 2.88086,0.73242 1.17187,0.24414 1.75781,0.24414 1.22071,0 2.05078,-0.63477 0.87891,-0.63476 1.46485,-1.66015 0.63476,-1.02539 0.97656,-2.34375 0.39062,-1.26953 0.58594,-2.58789 0.19531,-1.26953 0.24414,-2.49024 0.0488,-1.2207 0.0488,-2.05078 0,-0.39062 -0.0977,-1.46484 -0.0488,-1.02539 -0.19531,-2.39258 -0.14649,-1.36719 -0.3418,-2.83203 -0.19531,-1.46485 -0.43945,-2.73438 -0.24414,-1.26953 -0.53711,-2.05078 -0.24414,-0.78125 -0.53711,-0.78125 -0.48828,0 -1.17188,0.29297 -0.63476,0.29297 -1.36718,0.63477 -0.6836,0.34179 -1.41602,0.63476 -0.73242,0.29297 -1.41602,0.29297 -1.36718,0 -2.68554,-0.58594 -1.31836,-0.58593 -2.29492,-1.51367 -0.92774,-0.92773 -1.51368,-2.19726 -0.58593,-1.26954 -0.58593,-2.63672 0,-2.14844 0.83007,-4.39453 0.87891,-2.2461 2.34375,-4.10157 1.51368,-1.85547 3.51563,-3.02734 2.05078,-1.17188 4.3457,-1.17188 1.75782,0.48829 2.83203,2.2461 1.12305,1.70898 1.70899,4.24805 0.63476,2.53906 0.8789,5.66406 0.29297,3.07617 0.39063,6.29883 0.0977,3.22265 0.14648,6.29882 0.0977,3.125 0.39063,5.66407 0,1.12304 -0.14649,2.63672 -0.0976,1.5625 -0.39062,3.17382 -0.29297,1.61133 -0.83008,3.17383 -0.48828,1.61133 -1.31836,2.83203 -0.83008,1.26953 -2.05078,2.00196 -1.17187,0.78125 -2.73437,0.78125 -1.26954,0 -3.07618,-0.29297 -1.75781,-0.29297 -3.71093,-0.92774 -1.9043,-0.63476 -3.8086,-1.5625 -1.90429,-0.92773 -3.41797,-2.14843 -1.51367,-1.17188 -2.4414,-2.68555 -0.92774,-1.46485 -0.92774,-3.22266 z m 10.25391,-22.31445 q 0,0.87891 0.24414,1.70898 0.29297,0.78125 0.78125,1.41602 0.53711,0.63476 1.26953,1.02539 0.78125,0.3418 1.70899,0.3418 2.49023,0 3.75976,-0.97657 1.31836,-0.97656 1.80664,-2.4414 0.48828,-1.46485 0.48828,-3.125 -0.0488,-1.70899 -0.14648,-3.07617 0,-0.6836 -0.0977,-1.36719 -0.0976,-0.6836 -0.39062,-1.26953 -0.29297,-0.58594 -0.83008,-0.92774 -0.48828,-0.34179 -1.26953,-0.34179 -1.61133,0 -2.97852,0.92773 -1.36718,0.87891 -2.34375,2.24609 -0.92773,1.31836 -1.46484,2.92969 -0.53711,1.5625 -0.53711,2.92969 z"
       style="font-style:normal;font-variant:normal;font-weight:normal;font-stretch:normal;font-size:50px;font-family:'Indie Flower';-inkscape-font-specification:'Indie Flower';text-align:center;text-anchor:middle"
       id="path5219" />
    <path
       d="m 279.05469,202.0498 q -1.12305,0.63476 -1.95313,1.5625 -0.78125,0.8789 -1.61133,1.70898 -0.83007,0.78125 -1.85546,1.36719 -0.97657,0.58593 -2.53907,0.58593 -1.75781,0 -3.17383,-0.73242 -1.41601,-0.78125 -2.53906,-2.05078 -1.07422,-1.31836 -1.90429,-2.92969 -0.78125,-1.66015 -1.31836,-3.36914 -0.48829,-1.75781 -0.78125,-3.41797 -0.24414,-1.70898 -0.24414,-3.07617 -0.39063,-2.63672 0.14648,-4.10156 0.53711,-1.51367 1.26953,-1.9043 0.78125,-0.43945 1.31836,0.19532 0.53711,0.58593 0.14648,2.09961 -0.0976,0.19531 -0.14648,0.63476 -0.0488,0.39063 -0.0977,0.83008 -0.0488,0.43945 -0.0976,0.83008 -0.0488,0.39062 -0.0488,0.53711 0,1.02539 0.19531,2.4414 0.19531,1.36719 0.58594,2.88086 0.43945,1.51367 1.07422,3.02735 0.63476,1.46484 1.51367,2.63671 0.87891,1.17188 2.00195,1.9043 1.17188,0.73242 2.53907,0.73242 0.8789,0 2.00195,-0.83007 1.12305,-0.87891 2.09961,-2.05079 1.02539,-1.2207 1.70898,-2.49023 0.73242,-1.26953 0.73242,-2.14844 0,-0.48828 0,-1.61133 0.0488,-1.12304 0.0488,-2.39257 0,-1.26954 -0.0488,-2.39258 0,-1.12305 0,-1.5625 0.29297,-0.48828 0.63477,-0.73242 0.3418,-0.29297 0.83008,-0.29297 0.58594,0 0.97656,0.78125 0.39063,0.78125 0.63477,2.00195 0.24414,1.2207 0.34179,2.63672 0.0977,1.41601 0.14649,2.73437 0.0488,1.31836 0.0976,2.34375 0.0488,0.97657 0.14649,1.31836 0.24414,0.97657 0.68359,2.19727 0.48828,1.2207 0.92774,2.39258 0.43945,1.12304 0.78125,2.09961 0.34179,0.92773 0.34179,1.41601 0,0.73242 -0.43945,0.87891 -0.39062,0.14648 -1.02539,0.14648 -0.78125,0 -1.17188,-0.39062 -0.34179,-0.39063 -0.5371,-0.97656 -0.14649,-0.63477 -0.24415,-1.36719 -0.0976,-0.73242 -0.34179,-1.51367 -0.19531,-0.78125 -0.63477,-1.46485 -0.39062,-0.68359 -1.17187,-1.12304 z"
       style="font-style:normal;font-variant:normal;font-weight:normal;font-stretch:normal;font-size:50px;font-family:'Indie Flower';-inkscape-font-specification:'Indie Flower';text-align:center;text-anchor:middle"
       id="path5221" />
    <path
       d="m 288.47852,192.23534 q 0,-0.19531 0,-0.73242 0,-0.53711 0,-1.12305 0.0488,-0.58593 0.0488,-1.12304 0,-0.53711 0,-0.73243 -0.19531,-1.51367 0.87891,-1.51367 0.48828,0 0.83008,0.24414 0.34179,0.24414 0.63476,0.73243 -0.14648,2.53906 0.19532,4.93164 0.39062,2.34375 0.83007,4.6875 0.48829,2.29492 0.87891,4.63867 0.43945,2.34375 0.43945,4.88281 0,0.68359 -0.43945,1.36719 -0.39062,0.68359 -1.2207,0.68359 -0.63477,0 -1.12305,-1.07422 -0.43945,-1.12304 -0.78125,-2.7832 -0.3418,-1.70898 -0.58594,-3.75977 -0.24414,-2.05078 -0.39062,-3.90625 -0.0977,-1.90429 -0.14649,-3.36914 -0.0488,-1.51367 -0.0488,-2.05078 z m -2.49024,-12.25586 q 0,-0.58593 0.3418,-0.73242 0.34179,-0.19531 0.8789,-0.19531 0.3418,-0.0488 0.87891,0.43945 0.58594,0.43945 0.92773,1.02539 0.39063,0.58594 0.43946,1.07422 0.0488,0.58594 -0.73242,0.68359 l -0.24414,0 q -0.73243,0 -1.22071,-0.0977 -0.48828,-0.0977 -0.78125,-0.29297 -0.24414,-0.24414 -0.39062,-0.68359 -0.0977,-0.43946 -0.0977,-1.22071 z"
       style="font-style:normal;font-variant:normal;font-weight:normal;font-stretch:normal;font-size:50px;font-family:'Indie Flower';-inkscape-font-specification:'Indie Flower';text-align:center;text-anchor:middle"
       id="path5223" />
    <path
       d="m 295.11914,198.04589 q 0,-1.80664 0.43945,-3.80859 0.48828,-2.00196 1.46485,-3.71094 1.02539,-1.70899 2.53906,-2.78321 1.5625,-1.12304 3.80859,-1.12304 1.17188,0 2.34375,0.34179 1.17188,0.3418 2.39258,0.97657 1.26953,0.63476 2.58789,1.51367 1.36719,0.83008 2.88086,1.85547 0.19531,-1.95313 -0.14648,-4.00391 -0.3418,-2.09961 -0.87891,-4.10156 -0.53711,-2.00195 -1.12305,-3.75977 -0.53711,-1.80664 -0.78125,-3.22265 -0.24414,-1.41602 -0.0488,-2.34375 0.19531,-0.92774 1.17187,-1.17188 1.31836,0.97656 2.24609,2.78321 0.97657,1.75781 1.66016,4.10156 0.68359,2.34375 1.12305,5.02929 0.43945,2.63672 0.73242,5.3711 0.29297,2.73437 0.43945,5.32226 0.19532,2.58789 0.39063,4.78516 0.19531,2.14844 0.34179,3.71094 0.19532,1.51367 0.53711,2.14844 0,0.78125 -0.58593,0.97656 -0.53711,0.19531 -1.12305,0.19531 -0.48828,0 -0.83008,-0.3418 -0.3418,-0.39062 -0.53711,-0.8789 -0.19531,-0.48828 -0.39062,-1.07422 -0.14649,-0.63477 -0.3418,-1.12305 -0.19531,-0.53711 -0.43945,-0.8789 -0.24414,-0.3418 -0.63477,-0.3418 -0.0976,0 -0.29297,0.0488 -0.14648,0 -0.14648,0.0488 -0.92774,1.26954 -2.19727,2.49024 -1.2207,1.17187 -2.73437,2.09961 -1.46485,0.8789 -3.125,1.41601 -1.61133,0.53711 -3.27149,0.53711 -1.85547,0 -3.27148,-1.2207 -1.36719,-1.2207 -2.34375,-2.92969 -0.92774,-1.70898 -1.41602,-3.61328 -0.43945,-1.9043 -0.43945,-3.32031 z m 3.02734,0.87891 q 0.48829,1.75781 0.87891,3.07617 0.39063,1.31836 0.92773,2.14843 0.58594,0.83008 1.36719,1.26954 0.78125,0.39062 2.05078,0.39062 1.5625,0 3.32032,-0.87891 1.75781,-0.92773 3.27148,-2.34375 1.51367,-1.41601 2.49023,-3.07617 0.97657,-1.70898 0.97657,-3.27148 0,-0.14649 0,-0.58594 0,-0.43945 0,-0.58594 -2.58789,-2.53906 -4.78516,-3.61328 -2.14844,-1.12304 -3.85742,-1.12304 -1.70899,-0.0488 -2.97852,0.73242 -1.26953,0.78125 -2.09961,2.05078 -0.83007,1.26953 -1.2207,2.83203 -0.39062,1.5625 -0.3418,2.97852 z"
       style="font-style:normal;font-variant:normal;font-weight:normal;font-stretch:normal;font-size:50px;font-family:'Indie Flower';-inkscape-font-specification:'Indie Flower';text-align:center;text-anchor:middle"
       id="path5225" />
    <path
       d="m 321.29102,196.04394 q 0,-2.53907 0.73242,-4.83399 0.78125,-2.34375 2.19726,-4.10156 1.46485,-1.75781 3.51563,-2.7832 2.09961,-1.07422 4.83398,-1.07422 1.61133,0.19531 2.78321,0.8789 1.2207,0.6836 1.95312,1.70899 0.78125,0.97656 1.12305,2.29492 0.29297,1.26953 0.29297,2.73437 0,1.75782 -1.02539,3.17383 -1.0254,1.41602 -2.5879,2.39258 -1.5625,0.92774 -3.36914,1.46484 -1.80664,0.48829 -3.36914,0.48829 -0.58593,0 -1.2207,0 -0.58594,0 -1.07422,-0.19532 -0.48828,-0.19531 -0.78125,-0.58593 -0.29297,-0.39063 -0.29297,-1.17188 0,-0.24414 0.0488,-0.39062 0.0977,-0.19532 0.43945,-0.24414 0.3418,-0.0977 1.02539,-0.0488 0.6836,0.0977 1.85547,0.29297 0.6836,0 1.95313,-0.43946 1.31836,-0.48828 2.63672,-1.2207 1.36718,-0.73242 2.34375,-1.66016 0.97656,-0.97656 0.97656,-1.90429 0,-0.97657 -0.3418,-1.9043 -0.29297,-0.97656 -0.92773,-1.70898 -0.63477,-0.73243 -1.51367,-1.17188 -0.83008,-0.43945 -1.9043,-0.3418 -1.70898,0.14649 -3.125,0.92774 -1.36719,0.78125 -2.34375,2.05078 -0.97656,1.2207 -1.51367,2.73437 -0.53711,1.51368 -0.53711,3.17383 0,1.26953 0.0488,2.53906 0.0488,1.26954 0.34179,2.49024 0.3418,1.2207 1.02539,2.34375 0.73243,1.12305 2.05079,2.00195 1.36718,0.83008 3.41796,1.41602 2.05079,0.53711 5.07813,0.68359 l 8.74023,-0.58594 q -0.78125,1.07422 -2.00195,1.75782 -1.17187,0.68359 -2.53906,1.12304 -1.31836,0.39063 -2.63672,0.58594 -1.31836,0.19531 -2.49024,0.19531 -2.83203,0 -5.32226,-0.92773 -2.49024,-0.92774 -4.39453,-2.58789 -1.9043,-1.70899 -3.02735,-4.10156 -1.07421,-2.44141 -1.07421,-5.46875 z"
       style="font-style:normal;font-variant:normal;font-weight:normal;font-stretch:normal;font-size:50px;font-family:'Indie Flower';-inkscape-font-specification:'Indie Flower';text-align:center;text-anchor:middle"
       id="path5227" />
    <path
       d="m 367.9707,192.23534 q 0,-0.19531 0,-0.73242 0,-0.53711 0,-1.12305 0.0488,-0.58593 0.0488,-1.12304 0,-0.53711 0,-0.73243 -0.19531,-1.51367 0.87891,-1.51367 0.48828,0 0.83008,0.24414 0.34179,0.24414 0.63476,0.73243 -0.14648,2.53906 0.19531,4.93164 0.39063,2.34375 0.83008,4.6875 0.48828,2.29492 0.87891,4.63867 0.43945,2.34375 0.43945,4.88281 0,0.68359 -0.43945,1.36719 -0.39063,0.68359 -1.22071,0.68359 -0.63476,0 -1.12304,-1.07422 -0.43946,-1.12304 -0.78125,-2.7832 -0.3418,-1.70898 -0.58594,-3.75977 -0.24414,-2.05078 -0.39062,-3.90625 -0.0977,-1.90429 -0.14649,-3.36914 -0.0488,-1.51367 -0.0488,-2.05078 z m -2.49023,-12.25586 q 0,-0.58593 0.3418,-0.73242 0.34179,-0.19531 0.8789,-0.19531 0.3418,-0.0488 0.87891,0.43945 0.58594,0.43945 0.92773,1.02539 0.39063,0.58594 0.43946,1.07422 0.0488,0.58594 -0.73243,0.68359 l -0.24414,0 q -0.73242,0 -1.2207,-0.0977 -0.48828,-0.0977 -0.78125,-0.29297 -0.24414,-0.24414 -0.39063,-0.68359 -0.0976,-0.43946 -0.0976,-1.22071 z"
       style="font-style:normal;font-variant:normal;font-weight:normal;font-stretch:normal;font-size:50px;font-family:'Indie Flower';-inkscape-font-specification:'Indie Flower';text-align:center;text-anchor:middle"
       id="path5229" />
    <path
       d="m 380.32422,192.333 q -0.39063,0 -1.36719,0 -0.97656,0 -2.05078,-0.14649 -1.02539,-0.19531 -1.9043,-0.58593 -0.83008,-0.39063 -0.83008,-1.12305 0,-0.19531 0.0488,-0.53711 0.0977,-0.39062 0.48828,-0.39062 l 5.0293,-0.43946 q 0.19531,-1.80664 0.29297,-2.92969 0.0977,-1.17187 0.0488,-2.14843 -0.0488,-1.02539 -0.14649,-2.09961 -0.0488,-1.12305 -0.0976,-2.88086 0,-0.3418 0.14648,-0.53711 0.14649,-0.19531 0.3418,-0.29297 0.24414,-0.0977 0.48828,-0.14648 0.29297,-0.0488 0.43945,-0.0488 0.29297,0 0.58594,0.19531 0.3418,0.19531 0.58594,0.48828 0.24414,0.29297 0.39062,0.63477 0.14649,0.29297 0.14649,0.58593 l 0.39062,9.13086 4.19922,0.19532 q 0.83008,-0.0977 1.51367,0.34179 0.73242,0.39063 0.78125,1.51368 -0.58593,0.63476 -1.41601,0.78125 -0.83008,0.0976 -1.75782,0.0976 -0.8789,-0.0488 -1.75781,0 -0.8789,0 -1.5625,0.43945 0,0.29297 0.0488,1.61133 0.0488,1.31836 0.0977,3.125 0.0488,1.80664 0.0977,3.85742 0.0977,2.05079 0.14649,3.8086 0.0488,1.70898 0.0488,2.92969 0.0488,1.2207 0.0488,1.36718 -1.12304,0.6836 -1.80664,-0.0977 -0.68359,-0.83008 -1.12304,-2.39258 -0.39063,-1.61133 -0.58594,-3.71094 -0.14649,-2.14844 -0.19531,-4.19922 0,-2.09961 0.0488,-3.85742 0.0488,-1.75781 0.14649,-2.53906 z"
       style="font-style:normal;font-variant:normal;font-weight:normal;font-stretch:normal;font-size:50px;font-family:'Indie Flower';-inkscape-font-specification:'Indie Flower';text-align:center;text-anchor:middle"
       id="path5231" />
    <path
       d="m 415.48047,192.333 q -0.39063,0 -1.36719,0 -0.97656,0 -2.05078,-0.14649 -1.02539,-0.19531 -1.9043,-0.58593 -0.83008,-0.39063 -0.83008,-1.12305 0,-0.19531 0.0488,-0.53711 0.0977,-0.39062 0.48828,-0.39062 l 5.0293,-0.43946 q 0.19531,-1.80664 0.29297,-2.92969 0.0977,-1.17187 0.0488,-2.14843 -0.0488,-1.02539 -0.14649,-2.09961 -0.0488,-1.12305 -0.0976,-2.88086 0,-0.3418 0.14648,-0.53711 0.14649,-0.19531 0.3418,-0.29297 0.24414,-0.0977 0.48828,-0.14648 0.29297,-0.0488 0.43945,-0.0488 0.29297,0 0.58594,0.19531 0.3418,0.19531 0.58594,0.48828 0.24414,0.29297 0.39062,0.63477 0.14649,0.29297 0.14649,0.58593 l 0.39062,9.13086 4.19922,0.19532 q 0.83008,-0.0977 1.51367,0.34179 0.73242,0.39063 0.78125,1.51368 -0.58593,0.63476 -1.41601,0.78125 -0.83008,0.0976 -1.75782,0.0976 -0.8789,-0.0488 -1.75781,0 -0.8789,0 -1.5625,0.43945 0,0.29297 0.0488,1.61133 0.0488,1.31836 0.0977,3.125 0.0488,1.80664 0.0977,3.85742 0.0977,2.05079 0.14649,3.8086 0.0488,1.70898 0.0488,2.92969 0.0488,1.2207 0.0488,1.36718 -1.12304,0.6836 -1.80664,-0.0977 -0.68359,-0.83008 -1.12304,-2.39258 -0.39063,-1.61133 -0.58594,-3.71094 -0.14649,-2.14844 -0.19531,-4.19922 0,-2.09961 0.0488,-3.85742 0.0488,-1.75781 0.14649,-2.53906 z"
       style="font-style:normal;font-variant:normal;font-weight:normal;font-stretch:normal;font-size:50px;font-family:'Indie Flower';-inkscape-font-specification:'Indie Flower';text-align:center;text-anchor:middle"
       id="path5233" />
    <path
       d="m 426.17383,199.16894 q 0,-2.68555 1.17187,-4.6875 1.17188,-2.00196 3.07617,-3.36914 1.9043,-1.36719 4.24805,-2.00196 2.39258,-0.68359 4.78516,-0.68359 1.26953,0 2.34375,0.48828 1.12304,0.43945 2.09961,1.26953 1.02539,0.78125 1.80664,1.85547 0.78125,1.02539 1.31836,2.14844 0.58593,1.12304 0.8789,2.29492 0.29297,1.12305 0.29297,2.19726 0,2.49024 -0.97656,4.44336 -0.97656,1.95313 -2.63672,3.32032 -1.66016,1.31836 -3.75976,2.05078 -2.09961,0.68359 -4.29688,0.68359 -2.24609,0 -4.15039,-0.68359 -1.85547,-0.73242 -3.27148,-2.00196 -1.36719,-1.26953 -2.14844,-3.125 -0.78125,-1.90429 -0.78125,-4.19921 z m 2.39258,-0.39063 q 0,1.51367 0.53711,2.92969 0.58593,1.36719 1.5625,2.39258 1.02539,1.02539 2.39257,1.66015 1.36719,0.58594 2.92969,0.58594 0.83008,0.0977 2.00195,-0.24414 1.22071,-0.39063 2.39258,-1.07422 1.22071,-0.73242 2.29492,-1.70898 1.12305,-1.02539 1.85547,-2.19727 0.73242,-1.2207 0.87891,-2.49023 0.19531,-1.31836 -0.43945,-2.58789 -0.58594,-1.31836 -2.19727,-2.49024 -1.61133,-1.2207 -4.44336,-2.24609 -1.61133,0 -3.36914,0.48828 -1.70898,0.43945 -3.125,1.36719 -1.41602,0.92773 -2.34375,2.34375 -0.92773,1.41601 -0.92773,3.27148 z"
       style="font-style:normal;font-variant:normal;font-weight:normal;font-stretch:normal;font-size:50px;font-family:'Indie Flower';-inkscape-font-specification:'Indie Flower';text-align:center;text-anchor:middle"
       id="path5235" />
    <path
       d="m 176.95508,254.73534 q 0,-0.19531 0,-0.73242 0,-0.53711 0,-1.12305 0.0488,-0.58593 0.0488,-1.12304 0,-0.53711 0,-0.73243 -0.19532,-1.51367 0.8789,-1.51367 0.48828,0 0.83008,0.24414 0.3418,0.24414 0.63477,0.73243 -0.14649,2.53906 0.19531,4.93164 0.39062,2.34375 0.83008,4.6875 0.48828,2.29492 0.8789,4.63867 0.43946,2.34375 0.43946,4.88281 0,0.68359 -0.43946,1.36719 -0.39062,0.68359 -1.2207,0.68359 -0.63477,0 -1.12305,-1.07422 -0.43945,-1.12304 -0.78125,-2.7832 -0.34179,-1.70898 -0.58593,-3.75977 -0.24415,-2.05078 -0.39063,-3.90625 -0.0977,-1.90429 -0.14648,-3.36914 -0.0488,-1.51367 -0.0488,-2.05078 z m -2.49024,-12.25586 q 0,-0.58593 0.3418,-0.73242 0.3418,-0.19531 0.87891,-0.19531 0.34179,-0.0488 0.8789,0.43945 0.58594,0.43945 0.92774,1.02539 0.39062,0.58594 0.43945,1.07422 0.0488,0.58594 -0.73242,0.68359 l -0.24414,0 q -0.73242,0 -1.22071,-0.0977 -0.48828,-0.0977 -0.78125,-0.29297 -0.24414,-0.24414 -0.39062,-0.68359 -0.0977,-0.43946 -0.0977,-1.22071 z"
       style="font-style:normal;font-variant:normal;font-weight:normal;font-stretch:normal;font-size:50px;font-family:'Indie Flower';-inkscape-font-specification:'Indie Flower';text-align:center;text-anchor:middle"
       id="path5237" />
    <path
       d="m 189.30859,254.833 q -0.39062,0 -1.36718,0 -0.97657,0 -2.05079,-0.14649 -1.02539,-0.19531 -1.90429,-0.58593 -0.83008,-0.39063 -0.83008,-1.12305 0,-0.19531 0.0488,-0.53711 0.0976,-0.39062 0.48828,-0.39062 l 5.0293,-0.43946 q 0.19531,-1.80664 0.29296,-2.92969 0.0977,-1.17187 0.0488,-2.14843 -0.0488,-1.02539 -0.14648,-2.09961 -0.0488,-1.12305 -0.0977,-2.88086 0,-0.3418 0.14649,-0.53711 0.14648,-0.19531 0.34179,-0.29297 0.24414,-0.0977 0.48828,-0.14648 0.29297,-0.0488 0.43946,-0.0488 0.29297,0 0.58594,0.19531 0.34179,0.19531 0.58593,0.48828 0.24414,0.29297 0.39063,0.63477 0.14648,0.29297 0.14648,0.58593 l 0.39063,9.13086 4.19922,0.19532 q 0.83007,-0.0977 1.51367,0.34179 0.73242,0.39063 0.78125,1.51368 -0.58594,0.63476 -1.41602,0.78125 -0.83008,0.0976 -1.75781,0.0976 -0.87891,-0.0488 -1.75781,0 -0.87891,0 -1.5625,0.43945 0,0.29297 0.0488,1.61133 0.0488,1.31836 0.0976,3.125 0.0488,1.80664 0.0977,3.85742 0.0976,2.05079 0.14648,3.8086 0.0488,1.70898 0.0488,2.92969 0.0488,1.2207 0.0488,1.36718 -1.12305,0.6836 -1.80664,-0.0976 -0.6836,-0.83008 -1.12305,-2.39258 -0.39062,-1.61133 -0.58594,-3.71094 -0.14648,-2.14844 -0.19531,-4.19922 0,-2.09961 0.0488,-3.85742 0.0488,-1.75781 0.14648,-2.53906 z"
       style="font-style:normal;font-variant:normal;font-weight:normal;font-stretch:normal;font-size:50px;font-family:'Indie Flower';-inkscape-font-specification:'Indie Flower';text-align:center;text-anchor:middle"
       id="path5239" />
    <path
       d="m 199.9043,265.72167 q 0.39062,-0.29297 0.68359,-0.3418 0.3418,-0.0976 0.73242,-0.0976 0.43946,0 0.87891,0.24414 0.43945,0.19531 0.78125,0.53711 0.39062,0.29297 0.78125,0.58593 0.39062,0.29297 0.83008,0.48829 1.26953,0.53711 2.00195,0.8789 0.78125,0.3418 1.41602,0.53711 0.63476,0.19531 1.46484,0.24414 0.83008,0.0488 2.14844,0.0488 1.02539,0 2.49023,0.0488 1.46484,0 2.7832,-0.24414 1.31836,-0.29297 2.2461,-0.97656 0.92773,-0.73243 0.92773,-2.19727 0.0488,-1.41602 -0.78125,-2.19727 -0.78125,-0.83007 -2.14844,-1.26953 -1.36718,-0.43945 -3.07617,-0.58593 -1.70898,-0.19532 -3.51562,-0.39063 -1.80664,-0.19531 -3.56446,-0.53711 -1.70898,-0.39062 -3.07617,-1.17187 -1.36718,-0.78125 -2.19726,-2.14844 -0.83008,-1.36719 -0.87891,-3.51563 0.29297,-1.5625 1.51367,-2.58789 1.26953,-1.07422 2.97852,-1.61133 1.75781,-0.58593 3.71094,-0.58593 1.95312,-0.0488 3.56445,0.48828 1.66016,0.48828 2.73437,1.61133 1.12305,1.12304 1.17188,2.7832 0.0977,0.97656 -0.14649,1.61133 -0.24414,0.63476 -0.68359,0.97656 -0.39062,0.29297 -0.83008,0.29297 -0.43945,-0.0488 -0.68359,-0.3418 -0.24414,-0.34179 -0.24414,-0.92773 0.0488,-0.63477 0.58594,-1.5625 -0.19532,-0.92774 -1.12305,-1.46485 -0.92774,-0.53711 -2.14844,-0.73242 -1.2207,-0.24414 -2.63672,-0.0977 -1.36718,0.0977 -2.53906,0.48828 -1.12305,0.39062 -1.85547,1.02539 -0.68359,0.63476 -0.58594,1.46484 0,1.46485 0.83008,2.29492 0.87891,0.78125 2.2461,1.22071 1.36718,0.43945 3.125,0.63476 1.80664,0.19531 3.66211,0.39063 1.90429,0.14648 3.6621,0.48828 1.75782,0.29297 3.17383,1.02539 1.41602,0.73242 2.2461,2.00195 0.83007,1.22071 0.83007,3.22266 0,1.51367 -0.78125,2.63672 -0.78125,1.07422 -2.00195,1.80664 -1.17187,0.73242 -2.58789,1.07422 -1.41601,0.34179 -2.68555,0.34179 -1.26953,0 -2.73437,0 -1.41602,-0.0488 -2.92969,-0.19531 -1.46484,-0.14648 -2.97851,-0.43945 -1.51368,-0.3418 -2.83204,-0.97656 -1.26953,-0.6836 -2.29492,-1.70899 -1.02539,-1.02539 -1.66015,-2.58789 z"
       style="font-style:normal;font-variant:normal;font-weight:normal;font-stretch:normal;font-size:50px;font-family:'Indie Flower';-inkscape-font-specification:'Indie Flower';text-align:center;text-anchor:middle"
       id="path5241" />
    <path
       d="m 259.62109,270.75097 q 0.0977,-1.26953 0.19532,-2.63672 0.0976,-1.36719 0.14648,-2.73438 0.0977,-1.36718 0.0977,-2.68554 0.0488,-1.31836 0.0488,-2.39258 0,-1.5625 -0.43945,-2.97852 -0.43945,-1.41601 -1.26953,-2.4414 -0.83008,-1.07422 -2.09961,-1.66016 -1.2207,-0.63477 -2.92969,-0.63477 -0.68359,0 -1.17187,0.0977 -0.48828,0.0977 -0.97656,0.3418 -0.48829,0.19531 -1.07422,0.53711 -0.58594,0.39062 -1.36719,0.92773 0,0.0977 -0.0488,0.39063 0,0.24414 0,0.29297 0,1.07421 0.19531,2.88085 0.24414,1.75782 0.48829,3.71094 0.24414,1.9043 0.48828,3.71094 0.24414,1.80664 0.24414,2.92969 0,0.0976 0,0.39062 0,0.29297 -0.0488,0.63477 0,0.34179 0,0.63476 0,0.29297 0,0.43946 -0.29297,0.68359 -0.73242,0.8789 -0.39063,0.14649 -0.97657,0.14649 -0.58593,0.0976 -0.8789,-0.83008 -0.29297,-0.92774 -0.43945,-2.68555 -0.14649,-1.75781 -0.29297,-4.24804 -0.0977,-2.49024 -0.3418,-5.46875 -0.19531,-2.97852 -0.63477,-6.29883 -0.39062,-3.36914 -1.17187,-6.88477 -0.39063,-1.36719 -0.63477,-2.29492 -0.19531,-0.97656 -0.39062,-1.70898 -0.19531,-0.78125 -0.3418,-1.5625 -0.14648,-0.83008 -0.3418,-1.95313 l 0,-0.19531 q 0,-0.19531 0.24415,-0.3418 0.24414,-0.19531 0.5371,-0.3418 0.3418,-0.14648 0.63477,-0.19531 0.3418,-0.0976 0.53711,-0.0976 0.92773,2.4414 1.46484,4.15039 0.58594,1.66015 0.92774,2.88086 0.34179,1.2207 0.48828,2.05078 0.14648,0.83007 0.24414,1.61132 0.0977,0.78125 0.14648,1.61133 0.0488,0.83008 0.19532,2.00196 2.53906,-1.5625 4.58984,-1.70899 2.09961,-0.14648 3.71094,0.63477 1.61133,0.73242 2.7832,2.29492 1.2207,1.5625 2.00195,3.51562 0.78125,1.95313 1.17188,4.15039 0.43945,2.19727 0.53711,4.24805 0.14648,2.05078 -0.0977,3.8086 -0.19531,1.70898 -0.63476,2.7832 -0.43946,1.02539 -1.17188,1.17187 -0.73242,0.19532 -1.61133,-0.8789 z"
       style="font-style:normal;font-variant:normal;font-weight:normal;font-stretch:normal;font-size:50px;font-family:'Indie Flower';-inkscape-font-specification:'Indie Flower';text-align:center;text-anchor:middle"
       id="path5243" />
    <path
       d="m 268.06836,254.73534 q 0,-0.19531 0,-0.73242 0,-0.53711 0,-1.12305 0.0488,-0.58593 0.0488,-1.12304 0,-0.53711 0,-0.73243 -0.19532,-1.51367 0.8789,-1.51367 0.48828,0 0.83008,0.24414 0.3418,0.24414 0.63477,0.73243 -0.14649,2.53906 0.19531,4.93164 0.39062,2.34375 0.83008,4.6875 0.48828,2.29492 0.8789,4.63867 0.43946,2.34375 0.43946,4.88281 0,0.68359 -0.43946,1.36719 -0.39062,0.68359 -1.2207,0.68359 -0.63476,0 -1.12305,-1.07422 -0.43945,-1.12304 -0.78125,-2.7832 -0.34179,-1.70898 -0.58593,-3.75977 -0.24414,-2.05078 -0.39063,-3.90625 -0.0976,-1.90429 -0.14648,-3.36914 -0.0488,-1.51367 -0.0488,-2.05078 z m -2.49024,-12.25586 q 0,-0.58593 0.3418,-0.73242 0.3418,-0.19531 0.87891,-0.19531 0.34179,-0.0488 0.8789,0.43945 0.58594,0.43945 0.92774,1.02539 0.39062,0.58594 0.43945,1.07422 0.0488,0.58594 -0.73242,0.68359 l -0.24414,0 q -0.73242,0 -1.2207,-0.0977 -0.48829,-0.0977 -0.78125,-0.29297 -0.24414,-0.24414 -0.39063,-0.68359 -0.0977,-0.43946 -0.0977,-1.22071 z"
       style="font-style:normal;font-variant:normal;font-weight:normal;font-stretch:normal;font-size:50px;font-family:'Indie Flower';-inkscape-font-specification:'Indie Flower';text-align:center;text-anchor:middle"
       id="path5245" />
    <path
       d="m 274.26953,254.24706 q 0.0488,-0.14648 0.14649,-0.3418 0.0976,-0.24414 0.24414,-0.48828 0.19531,-0.24414 0.34179,-0.39062 0.19532,-0.19531 0.43946,-0.19531 0.0488,0 0.0488,0.0488 0,0 0.0977,0 l 0.0977,0 q 1.12304,0.53711 1.85547,1.5625 0.73242,0.97657 1.26953,2.2461 0.58593,1.26953 1.07422,2.73437 0.48828,1.41602 1.07421,2.83203 0.63477,1.36719 1.46485,2.68555 0.83008,1.31836 2.09961,2.34375 0.43945,-1.46484 0.8789,-2.83203 0.43946,-1.41602 0.97657,-2.83203 0.58593,-1.41602 1.31836,-2.92969 0.78125,-1.51367 1.75781,-3.27148 1.17187,-0.48829 1.85547,-0.58594 0.73242,-0.0977 1.02539,0.19531 0.29297,0.24414 0.0976,0.78125 -0.19531,0.53711 -0.83007,1.26953 -0.39063,0.3418 -0.92774,1.5625 -0.48828,1.22071 -1.07422,2.88086 -0.58594,1.66016 -1.26953,3.4668 -0.63476,1.80664 -1.31836,3.32031 -0.68359,1.46484 -1.36719,2.44141 -0.63476,0.97656 -1.26953,0.92773 -0.68359,0 -1.5625,-1.02539 -0.83008,-1.07422 -1.80664,-2.73437 -0.97656,-1.66016 -1.95312,-3.61329 -0.97657,-2.00195 -1.9043,-3.95507 -0.87891,-1.95313 -1.66016,-3.56446 -0.73242,-1.66015 -1.2207,-2.53906 z"
       style="font-style:normal;font-variant:normal;font-weight:normal;font-stretch:normal;font-size:50px;font-family:'Indie Flower';-inkscape-font-specification:'Indie Flower';text-align:center;text-anchor:middle"
       id="path5247" />
    <path
       d="m 294.24023,258.54394 q 0,-2.53907 0.73243,-4.83399 0.78125,-2.34375 2.19726,-4.10156 1.46485,-1.75781 3.51563,-2.7832 2.09961,-1.07422 4.83398,-1.07422 1.61133,0.19531 2.7832,0.8789 1.22071,0.6836 1.95313,1.70899 0.78125,0.97656 1.12305,2.29492 0.29296,1.26953 0.29296,2.73437 0,1.75782 -1.02539,3.17383 -1.02539,1.41602 -2.58789,2.39258 -1.5625,0.92774 -3.36914,1.46484 -1.80664,0.48829 -3.36914,0.48829 -0.58594,0 -1.2207,0 -0.58594,0 -1.07422,-0.19532 -0.48828,-0.19531 -0.78125,-0.58593 -0.29297,-0.39063 -0.29297,-1.17188 0,-0.24414 0.0488,-0.39062 0.0977,-0.19532 0.43945,-0.24414 0.3418,-0.0977 1.02539,-0.0488 0.6836,0.0976 1.85547,0.29297 0.6836,0 1.95313,-0.43946 1.31836,-0.48828 2.63672,-1.2207 1.36718,-0.73242 2.34375,-1.66016 0.97656,-0.97656 0.97656,-1.90429 0,-0.97657 -0.3418,-1.9043 -0.29297,-0.97656 -0.92773,-1.70898 -0.63477,-0.73243 -1.51367,-1.17188 -0.83008,-0.43945 -1.9043,-0.3418 -1.70899,0.14649 -3.125,0.92774 -1.36719,0.78125 -2.34375,2.05078 -0.97656,1.2207 -1.51367,2.73437 -0.53711,1.51368 -0.53711,3.17383 0,1.26953 0.0488,2.53906 0.0488,1.26954 0.34179,2.49024 0.3418,1.2207 1.02539,2.34375 0.73242,1.12305 2.05078,2.00195 1.36719,0.83008 3.41797,1.41602 2.05078,0.53711 5.07813,0.68359 l 8.74023,-0.58594 q -0.78125,1.07422 -2.00195,1.75782 -1.17188,0.68359 -2.53906,1.12304 -1.31836,0.39063 -2.63672,0.58594 -1.31836,0.19531 -2.49024,0.19531 -2.83203,0 -5.32226,-0.92773 -2.49024,-0.92774 -4.39453,-2.58789 -1.9043,-1.70899 -3.02735,-4.10156 -1.07422,-2.44141 -1.07422,-5.46875 z"
       style="font-style:normal;font-variant:normal;font-weight:normal;font-stretch:normal;font-size:50px;font-family:'Indie Flower';-inkscape-font-specification:'Indie Flower';text-align:center;text-anchor:middle"
       id="path5249" />
    <path
       d="m 321.29102,266.94237 q 0,-0.39062 0.29296,-1.17187 0.3418,-0.78125 0.78125,-1.5625 0.43946,-0.83008 0.87891,-1.41602 0.48828,-0.58593 0.83008,-0.58593 0.97656,0 1.70898,0.5371 0.73242,0.48829 1.17188,1.26954 0.48828,0.78125 0.73242,1.70898 0.24414,0.92773 0.24414,1.70898 0,0.58594 -0.3418,1.31836 -0.34179,0.73243 -0.8789,1.36719 -0.48828,0.63477 -1.12305,1.07422 -0.63477,0.43945 -1.26953,0.43945 -0.73242,0 -1.26953,-0.48828 -0.53711,-0.53711 -0.97656,-1.26953 -0.39063,-0.78125 -0.58594,-1.5625 -0.19531,-0.83008 -0.19531,-1.36719 z"
       style="font-style:normal;font-variant:normal;font-weight:normal;font-stretch:normal;font-size:50px;font-family:'Indie Flower';-inkscape-font-specification:'Indie Flower';text-align:center;text-anchor:middle"
       id="path5251" />
  </g>
</svg>
