<?xml version="1.0" encoding="UTF-8" standalone="no"?>
<svg
   xmlns:dc="http://purl.org/dc/elements/1.1/"
   xmlns:cc="http://creativecommons.org/ns#"
   xmlns:rdf="http://www.w3.org/1999/02/22-rdf-syntax-ns#"
   xmlns:svg="http://www.w3.org/2000/svg"
   xmlns="http://www.w3.org/2000/svg"
   xmlns:sodipodi="http://sodipodi.sourceforge.net/DTD/sodipodi-0.dtd"
   xmlns:inkscape="http://www.inkscape.org/namespaces/inkscape"
   width="476.0578"
   height="363.5033"
   version="1.1"
   id="svg2"
   inkscape:version="0.91 r13725"
   sodipodi:docname="Instructions 2.svg">
  <metadata
     id="metadata48">
    <rdf:RDF>
      <cc:Work
         rdf:about="">
        <dc:format>image/svg+xml</dc:format>
        <dc:type
           rdf:resource="http://purl.org/dc/dcmitype/StillImage" />
        <dc:title>5 by 3 sigma maze</dc:title>
      </cc:Work>
    </rdf:RDF>
  </metadata>
  <defs
     id="defs46" />
  <sodipodi:namedview
     pagecolor="#ffffff"
     bordercolor="#666666"
     borderopacity="1"
     objecttolerance="10"
     gridtolerance="10"
     guidetolerance="10"
     inkscape:pageopacity="0"
     inkscape:pageshadow="2"
     inkscape:window-width="1680"
     inkscape:window-height="962"
     id="namedview44"
     showgrid="false"
     showguides="false"
     fit-margin-top="0"
     fit-margin-left="0"
     fit-margin-right="0"
     fit-margin-bottom="0"
     inkscape:zoom="0.87055056"
     inkscape:cx="-171.58455"
     inkscape:cy="103.77754"
     inkscape:window-x="648"
     inkscape:window-y="1440"
     inkscape:window-maximized="1"
     inkscape:current-layer="svg2" />
  <title
     id="title4">5 by 3 sigma maze</title>
  <desc
     id="desc6">5 by 3 sigma maze generated by The Maze Generator Website (http://www.mazegenerator.net/).</desc>
  <rect
     style="opacity:1;fill:#ffffff;fill-opacity:1;fill-rule:nonzero;stroke:none;stroke-width:1.80442083;stroke-linejoin:miter;stroke-miterlimit:4;stroke-dasharray:none;stroke-opacity:1"
     id="rect3543"
     width="477.9541"
     height="364.23297"
     x="-0.94815063"
     y="-0.36483765" />
  <g
     transform="translate(7.8827413,-2.4322622)"
     style="font-style:normal;font-weight:normal;font-size:40px;line-height:125%;font-family:Sans;letter-spacing:0px;word-spacing:0px;fill:#000000;fill-opacity:1;stroke:none;stroke-width:1px;stroke-linecap:butt;stroke-linejoin:miter;stroke-opacity:1"
     id="flowRoot4390">
    <path
       d="m 69.875977,126.11425 q -0.09766,-2.14844 0.537109,-4.00391 0.683594,-1.85547 1.904297,-3.27148 1.220703,-1.46485 2.978515,-2.34375 1.757813,-0.78125 3.857422,-0.97656 3.66211,0.5371 6.982422,1.85546 3.369141,1.31836 5.908203,3.36914 2.587891,2.05079 4.199219,4.78516 1.611328,2.73438 1.806641,6.15234 -0.488282,2.53907 -2.001953,4.00391 -1.513672,1.46484 -3.564454,2.29492 -2.050781,0.78125 -4.394531,1.17188 -2.34375,0.34179 -4.296875,0.63476 -3.027344,0 -5.615234,-0.97656 -2.539063,-1.02539 -4.394531,-2.7832 -1.806641,-1.75781 -2.88086,-4.29688 -1.02539,-2.53906 -1.02539,-5.61523 z m 2.294921,-0.24414 q -0.04883,2.24609 0.927735,4.19922 1.02539,1.95312 2.636719,3.41797 1.611328,1.46484 3.613281,2.4414 2.001953,0.97656 4.003906,1.26953 0.683594,0 1.806641,-0.0976 1.123047,-0.14649 2.441406,-0.39063 1.318359,-0.29297 2.636719,-0.73242 1.367187,-0.48828 2.441406,-1.12305 1.123047,-0.68359 1.806641,-1.5625 0.732421,-0.92773 0.732421,-2.09961 -0.341796,-2.4414 -1.513671,-4.3457 -1.123047,-1.9043 -2.783204,-3.36914 -1.660156,-1.46484 -3.613281,-2.49023 -1.953125,-1.0254 -3.857422,-1.61133 -1.904297,-0.63477 -3.564453,-0.83008 -1.660156,-0.19531 -2.734375,0 -1.513672,0.53711 -2.490234,1.41601 -0.927735,0.87891 -1.513672,1.9043 -0.537109,0.97656 -0.78125,2.00195 -0.195313,1.0254 -0.195313,2.00196 z"
       style="font-style:normal;font-variant:normal;font-weight:normal;font-stretch:normal;font-size:50px;font-family:'Indie Flower';-inkscape-font-specification:'Indie Flower';text-align:center;text-anchor:middle"
       id="path4458" />
    <path
       d="m 100.34473,133.34081 q 0,-3.07617 1.07422,-5.17578 1.07421,-2.09961 2.83203,-3.36914 1.80664,-1.26953 4.15039,-1.85547 2.39258,-0.58594 4.98047,-0.58594 2.09961,0 4.05273,0.6836 2.00195,0.68359 3.56445,1.90429 1.5625,1.22071 2.49024,2.97852 0.92773,1.75781 0.92773,4.00391 0,1.95312 -0.73242,3.22265 -0.73242,1.2207 -2.00195,1.95313 -1.26953,0.68359 -2.83203,0.97656 -1.51368,0.29297 -3.125,0.29297 -1.5625,0 -3.22266,-0.14649 -1.61133,-0.14648 -2.97852,-0.68359 -1.36718,-0.53711 -2.24609,-1.61133 -0.87891,-1.07422 -0.87891,-3.02734 1.02539,0 1.95313,0.43945 0.97656,0.39063 1.95312,0.87891 0.97657,0.43945 1.95313,0.83008 0.92773,0.43945 2.00195,0.43945 0.78125,0 2.05078,-0.14649 1.31836,-0.14648 2.44141,-0.53711 1.17187,-0.43945 2.00195,-1.17187 0.83008,-0.73242 0.83008,-1.85547 0,-1.66016 -0.73242,-2.88086 -0.73242,-1.2207 -1.9043,-2.00195 -1.17187,-0.83008 -2.63672,-1.26953 -1.46484,-0.43946 -2.92968,-0.43946 -0.19532,0 -0.97657,0.0977 -0.73242,0.0977 -1.70898,0.3418 -0.97656,0.19531 -2.05078,0.53711 -1.07422,0.29297 -2.00196,0.78125 -0.8789,0.43945 -1.46484,1.02539 -0.58594,0.58593 -0.58594,1.31836 l 0,0.58593 q 0.0488,0.53711 0.0977,1.46485 0.0977,0.8789 0.14648,1.80664 0.0488,0.8789 0.14649,1.5625 0.0977,0.68359 0.0977,0.78125 0.0977,0.78125 0.3418,2.4414 0.24414,1.61133 0.53711,3.61329 0.29297,2.05078 0.63477,4.29687 0.39062,2.24609 0.73242,4.24805 0.3418,2.05078 0.58594,3.66211 0.29296,1.61133 0.43945,2.34375 0,0.0977 0,0.14648 0.0488,0.0977 0.0488,0.14649 0,0.0488 0,0.0488 l -0.0488,0.0977 0,0.0977 q -0.0977,0.14648 -0.43945,0.48828 -0.39063,0.29297 -0.48829,0.39062 l -0.29296,0 q -0.48829,0 -1.02539,-0.92773 -0.53711,-0.87891 -1.12305,-2.44141 -0.53711,-1.51367 -1.12305,-3.51562 -0.53711,-2.00196 -1.07422,-4.15039 -0.53711,-2.14844 -0.97656,-4.24805 -0.43945,-2.09961 -0.78125,-3.90625 -0.3418,-1.80664 -0.53711,-3.125 -0.14648,-1.31836 -0.14648,-1.85547 z"
       style="font-style:normal;font-variant:normal;font-weight:normal;font-stretch:normal;font-size:50px;font-family:'Indie Flower';-inkscape-font-specification:'Indie Flower';text-align:center;text-anchor:middle"
       id="path4460" />
    <path
       d="m 126.41895,126.65136 q 0,-2.53906 0.73242,-4.83399 0.78125,-2.34375 2.19726,-4.10156 1.46485,-1.75781 3.51563,-2.7832 2.09961,-1.07422 4.83398,-1.07422 1.61133,0.19531 2.78321,0.87891 1.2207,0.68359 1.95312,1.70898 0.78125,0.97656 1.12305,2.29492 0.29297,1.26953 0.29297,2.73438 0,1.75781 -1.02539,3.17382 -1.0254,1.41602 -2.5879,2.39258 -1.5625,0.92774 -3.36914,1.46485 -1.80664,0.48828 -3.36914,0.48828 -0.58593,0 -1.2207,0 -0.58594,0 -1.07422,-0.19531 -0.48828,-0.19532 -0.78125,-0.58594 -0.29297,-0.39063 -0.29297,-1.17188 0,-0.24414 0.0488,-0.39062 0.0977,-0.19531 0.43945,-0.24414 0.3418,-0.0977 1.02539,-0.0488 0.6836,0.0977 1.85547,0.29297 0.6836,0 1.95313,-0.43946 1.31836,-0.48828 2.63672,-1.2207 1.36718,-0.73242 2.34375,-1.66015 0.97656,-0.97657 0.97656,-1.9043 0,-0.97656 -0.3418,-1.9043 -0.29297,-0.97656 -0.92773,-1.70898 -0.63477,-0.73242 -1.51367,-1.17188 -0.83008,-0.43945 -1.9043,-0.34179 -1.70898,0.14648 -3.125,0.92773 -1.36719,0.78125 -2.34375,2.05078 -0.97656,1.2207 -1.51367,2.73438 -0.53711,1.51367 -0.53711,3.17382 0,1.26954 0.0488,2.53907 0.0488,1.26953 0.34179,2.49023 0.3418,1.2207 1.02539,2.34375 0.73243,1.12305 2.05079,2.00195 1.36718,0.83008 3.41796,1.41602 2.05079,0.53711 5.07813,0.68359 l 8.74023,-0.58593 q -0.78125,1.07421 -2.00195,1.75781 -1.17187,0.68359 -2.53906,1.12305 -1.31836,0.39062 -2.63672,0.58593 -1.31836,0.19532 -2.49024,0.19532 -2.83203,0 -5.32226,-0.92774 -2.49024,-0.92773 -4.39453,-2.58789 -1.9043,-1.70898 -3.02735,-4.10156 -1.07421,-2.44141 -1.07421,-5.46875 z"
       style="font-style:normal;font-variant:normal;font-weight:normal;font-stretch:normal;font-size:50px;font-family:'Indie Flower';-inkscape-font-specification:'Indie Flower';text-align:center;text-anchor:middle"
       id="path4462" />
    <path
       d="m 152.68848,120.69433 q 0,-0.43946 0.29297,-0.53711 0.34179,-0.14649 0.73242,-0.14649 0.29297,0 0.39062,0.14649 0.14649,0.14648 0.19531,0.34179 0.0488,0.19532 0.14649,0.39063 0.0977,0.14648 0.3418,0.14648 0.68359,0 1.66015,-0.53711 0.97656,-0.53711 2.09961,-1.17187 1.17188,-0.63477 2.44141,-1.17188 1.31836,-0.53711 2.58789,-0.53711 1.66015,0 3.02734,0.87891 1.41602,0.83008 2.49024,2.24609 1.12304,1.41602 1.90429,3.17383 0.78125,1.75782 1.31836,3.61328 0.53711,1.80664 0.78125,3.56446 0.24414,1.70898 0.24414,2.97851 0,0.43946 -0.0977,1.31836 -0.0488,0.87891 -0.24414,1.75781 -0.14649,0.87891 -0.53711,1.5625 -0.39063,0.63477 -0.97657,0.63477 -0.0977,0 -0.34179,0 -0.24414,-0.0488 -0.48828,-0.0977 -0.24414,-0.0976 -0.43946,-0.19531 -0.14648,-0.0976 -0.14648,-0.29297 0.43945,-3.75976 0,-7.03125 -0.43945,-3.32031 -1.41602,-5.81054 -0.97656,-2.49024 -2.39257,-3.95508 -1.41602,-1.46485 -3.02735,-1.46485 -1.51367,0 -2.83203,0.48829 -1.31836,0.48828 -2.29492,1.41601 -0.97656,0.92774 -1.5625,2.24609 -0.53711,1.31836 -0.53711,2.88086 0,1.5625 0.29297,3.125 0.29297,1.51368 0.63476,3.07618 0.39063,1.51367 0.6836,3.07617 0.29297,1.5625 0.29297,3.125 -1.36719,0 -2.29493,-1.12305 -0.92773,-1.12305 -1.51367,-2.88086 -0.53711,-1.75781 -0.8789,-3.95508 -0.29297,-2.19726 -0.43946,-4.29687 -0.0977,-2.14844 -0.0977,-4.00391 0,-1.90429 0,-2.97851 z"
       style="font-style:normal;font-variant:normal;font-weight:normal;font-stretch:normal;font-size:50px;font-family:'Indie Flower';-inkscape-font-specification:'Indie Flower';text-align:center;text-anchor:middle"
       id="path4464" />
    <path
       d="m 193.89941,131.48534 q 0.0488,-0.83008 0.48829,-1.90429 0.43945,-1.07422 1.36718,-2.09961 0.92774,-1.02539 2.34375,-1.80664 1.41602,-0.83008 3.32032,-1.17188 1.95312,-0.3418 4.39453,-0.0488 2.49023,0.29297 5.51757,1.46485 0,-0.0488 0,-0.48829 l -0.0488,-0.43945 q 0,-1.26953 -0.73243,-2.58789 -0.73242,-1.31836 -1.90429,-2.34375 -1.12305,-1.07422 -2.44141,-1.70898 -1.31836,-0.6836 -2.53906,-0.6836 -0.48828,0 -0.87891,0.14649 -0.34179,0.14648 -0.68359,0.39062 -0.3418,0.19531 -0.68359,0.39063 -0.29297,0.14648 -0.73243,0.14648 -0.0977,0 -0.0977,-0.0488 -0.0488,-0.0488 -0.0977,-0.0977 -0.0977,-0.0977 -0.29297,-0.24414 -0.14648,-0.14649 -0.14648,-0.19532 0,-0.8789 0.29297,-1.51367 0.34179,-0.63476 0.8789,-1.02539 0.58594,-0.39062 1.26953,-0.58594 0.73243,-0.24414 1.51368,-0.24414 1.95312,0.19532 3.71093,1.22071 1.80664,0.97656 3.27149,2.49023 1.51367,1.51367 2.63672,3.51563 1.12304,1.95312 1.85547,4.10156 0.78125,2.09961 1.02539,4.24805 0.29296,2.24609 0.0488,4.19921 -0.0488,0 -0.29296,0 -0.24415,-0.0488 -0.53711,-0.0488 -0.29297,-0.0488 -0.48829,-0.0977 l -0.24414,-0.0488 q -1.02539,-2.29492 -2.29492,-3.71094 -1.26953,-1.41601 -2.53906,-2.19726 -1.2207,-0.83008 -2.29492,-1.12305 -1.07422,-0.3418 -1.75781,-0.48828 -0.73243,0 -1.75782,0.0977 -0.97656,0.0977 -2.05078,0.34179 -1.07422,0.24414 -2.19726,0.6836 -1.07422,0.39062 -1.95313,0.97656 -0.83008,0.58594 -1.36719,1.41602 -0.48828,0.78125 -0.48828,1.85546 0,1.17188 0.92774,2.00196 0.92773,0.78125 2.24609,1.31836 1.31836,0.48828 2.68555,0.68359 1.36718,0.19531 2.19726,0.19531 1.36719,0 2.68555,-0.14648 1.31836,-0.14649 2.58789,-0.3418 1.31836,-0.19531 2.58789,-0.3418 1.26953,-0.14648 2.53906,-0.14648 0.0977,0 0.3418,0 0.24414,0 0.48828,0.0488 0.29297,0 0.48828,0 0.24414,0 0.3418,0 0.39062,0.14648 0.43945,0.43945 0.0488,0.29297 0.0488,0.58594 0,0.29297 -0.63476,0.63476 -0.58594,0.3418 -1.5625,0.6836 -0.97657,0.3418 -2.19727,0.73242 -1.17188,0.3418 -2.29492,0.58594 -1.07422,0.24414 -2.05078,0.43945 -0.92774,0.14649 -1.31836,0.14649 -2.05078,0 -4.34571,-0.3418 -2.29492,-0.3418 -4.19921,-1.2207 -1.9043,-0.92774 -3.17383,-2.53907 -1.22071,-1.61133 -1.22071,-4.15039 z"
       style="font-style:normal;font-variant:normal;font-weight:normal;font-stretch:normal;font-size:50px;font-family:'Indie Flower';-inkscape-font-specification:'Indie Flower';text-align:center;text-anchor:middle"
       id="path4466" />
    <path
       d="m 219.68066,120.69433 q 0,-0.43946 0.29297,-0.53711 0.3418,-0.14649 0.73242,-0.14649 0.29297,0 0.39063,0.14649 0.14648,0.14648 0.19531,0.34179 0.0488,0.19532 0.14649,0.39063 0.0977,0.14648 0.34179,0.14648 0.6836,0 1.66016,-0.53711 0.97656,-0.53711 2.09961,-1.17187 1.17187,-0.63477 2.44141,-1.17188 1.31835,-0.53711 2.58789,-0.53711 1.66015,0 3.02734,0.87891 1.41602,0.83008 2.49023,2.24609 1.12305,1.41602 1.9043,3.17383 0.78125,1.75782 1.31836,3.61328 0.53711,1.80664 0.78125,3.56446 0.24414,1.70898 0.24414,2.97851 0,0.43946 -0.0977,1.31836 -0.0488,0.87891 -0.24414,1.75781 -0.14648,0.87891 -0.53711,1.5625 -0.39062,0.63477 -0.97656,0.63477 -0.0976,0 -0.34179,0 -0.24415,-0.0488 -0.48829,-0.0977 -0.24414,-0.0976 -0.43945,-0.19531 -0.14648,-0.0976 -0.14648,-0.29297 0.43945,-3.75976 0,-7.03125 -0.43946,-3.32031 -1.41602,-5.81054 -0.97656,-2.49024 -2.39258,-3.95508 -1.41601,-1.46485 -3.02734,-1.46485 -1.51367,0 -2.83203,0.48829 -1.31836,0.48828 -2.29492,1.41601 -0.97657,0.92774 -1.5625,2.24609 -0.53711,1.31836 -0.53711,2.88086 0,1.5625 0.29297,3.125 0.29296,1.51368 0.63476,3.07618 0.39063,1.51367 0.68359,3.07617 0.29297,1.5625 0.29297,3.125 -1.36718,0 -2.29492,-1.12305 -0.92773,-1.12305 -1.51367,-2.88086 -0.53711,-1.75781 -0.87891,-3.95508 -0.29297,-2.19726 -0.43945,-4.29687 -0.0977,-2.14844 -0.0977,-4.00391 0,-1.90429 0,-2.97851 z"
       style="font-style:normal;font-variant:normal;font-weight:normal;font-stretch:normal;font-size:50px;font-family:'Indie Flower';-inkscape-font-specification:'Indie Flower';text-align:center;text-anchor:middle"
       id="path4468" />
    <path
       d="m 242.1416,128.65331 q 0,-1.80664 0.43945,-3.80859 0.48829,-2.00196 1.46485,-3.71094 1.02539,-1.70898 2.53906,-2.7832 1.5625,-1.12305 3.80859,-1.12305 1.17188,0 2.34375,0.3418 1.17188,0.34179 2.39258,0.97656 1.26953,0.63476 2.58789,1.51367 1.36719,0.83008 2.88086,1.85547 0.19532,-1.95313 -0.14648,-4.00391 -0.3418,-2.09961 -0.87891,-4.10156 -0.53711,-2.00195 -1.12304,-3.75976 -0.53711,-1.80665 -0.78125,-3.22266 -0.24415,-1.41602 -0.0488,-2.34375 0.19531,-0.92774 1.17187,-1.17188 1.31836,0.97657 2.2461,2.78321 0.97656,1.75781 1.66015,4.10156 0.6836,2.34375 1.12305,5.0293 0.43945,2.63672 0.73242,5.37109 0.29297,2.73438 0.43945,5.32227 0.19532,2.58789 0.39063,4.78515 0.19531,2.14844 0.3418,3.71094 0.19531,1.51367 0.53711,2.14844 0,0.78125 -0.58594,0.97656 -0.53711,0.19531 -1.12305,0.19531 -0.48828,0 -0.83008,-0.34179 -0.34179,-0.39063 -0.53711,-0.87891 -0.19531,-0.48828 -0.39062,-1.07422 -0.14649,-0.63477 -0.3418,-1.12305 -0.19531,-0.53711 -0.43945,-0.8789 -0.24414,-0.3418 -0.63477,-0.3418 -0.0976,0 -0.29297,0.0488 -0.14648,0 -0.14648,0.0488 -0.92773,1.26953 -2.19727,2.49023 -1.2207,1.17188 -2.73437,2.09961 -1.46484,0.87891 -3.125,1.41602 -1.61133,0.53711 -3.27149,0.53711 -1.85546,0 -3.27148,-1.22071 -1.36719,-1.2207 -2.34375,-2.92969 -0.92773,-1.70898 -1.41602,-3.61328 -0.43945,-1.90429 -0.43945,-3.32031 z m 3.02735,0.87891 q 0.48828,1.75781 0.8789,3.07617 0.39063,1.31836 0.92774,2.14844 0.58593,0.83007 1.36718,1.26953 0.78125,0.39062 2.05078,0.39062 1.5625,0 3.32032,-0.8789 1.75781,-0.92774 3.27148,-2.34375 1.51367,-1.41602 2.49024,-3.07618 0.97656,-1.70898 0.97656,-3.27148 0,-0.14648 0,-0.58594 0,-0.43945 0,-0.58593 -2.58789,-2.53907 -4.78516,-3.61329 -2.14844,-1.12304 -3.85742,-1.12304 -1.70898,-0.0488 -2.97852,0.73242 -1.26953,0.78125 -2.0996,2.05078 -0.83008,1.26953 -1.22071,2.83203 -0.39062,1.5625 -0.34179,2.97852 z"
       style="font-style:normal;font-variant:normal;font-weight:normal;font-stretch:normal;font-size:50px;font-family:'Indie Flower';-inkscape-font-specification:'Indie Flower';text-align:center;text-anchor:middle"
       id="path4470" />
    <path
       d="m 287.06348,128.84862 q 0,-2.14843 0.83007,-4.15039 0.83008,-2.05078 2.2461,-3.61328 1.46484,-1.5625 3.36914,-2.49023 1.9043,-0.92774 4.05273,-0.92774 0.97657,0 2.05078,0.24414 1.12305,0.19532 2.09961,0.6836 0.97657,0.48828 1.61133,1.31836 0.63477,0.78125 0.63477,2.00195 0,0.19531 -0.14649,0.78125 -0.0976,0.58594 -0.29297,1.17187 -0.19531,0.58594 -0.48828,1.07422 -0.24414,0.43946 -0.43945,0.43946 0,-2.29493 -1.26953,-3.8086 -1.26953,-1.5625 -3.71094,-1.5625 -1.85547,0 -3.32031,0.78125 -1.46484,0.78125 -2.44141,2.05078 -0.97656,1.26954 -1.51367,2.88086 -0.48828,1.5625 -0.48828,3.22266 0,2.24609 0.73242,3.71094 0.73242,1.46484 2.00195,2.39258 1.26954,0.8789 2.92969,1.31835 1.66016,0.43946 3.51563,0.58594 1.85547,0.14649 3.71093,0.0977 1.85547,-0.0488 3.56446,-0.14649 0.14648,0 0.48828,0.19532 0.3418,0.19531 0.48828,0.24414 l 0,0.14648 q 0,0.0977 0,0.0977 0.0488,0 0.0488,0.0488 0,0.53711 -0.53711,0.92773 -0.53711,0.39063 -1.31836,0.63477 -0.78125,0.24414 -1.70898,0.34179 -0.92774,0.0977 -1.85547,0.19532 -0.87891,0.0488 -1.5625,0.0488 -0.6836,0 -0.97657,0 -2.83203,0 -5.12695,-0.63476 -2.24609,-0.63477 -3.85742,-1.95313 -1.5625,-1.36718 -2.44141,-3.41797 -0.8789,-2.09961 -0.8789,-4.93164 z"
       style="font-style:normal;font-variant:normal;font-weight:normal;font-stretch:normal;font-size:50px;font-family:'Indie Flower';-inkscape-font-specification:'Indie Flower';text-align:center;text-anchor:middle"
       id="path4472" />
    <path
       d="m 310.59863,139.34667 q -0.48828,-3.4668 -0.63476,-6.88477 -0.0977,-3.46679 -0.0977,-6.93359 0,-3.4668 0.0977,-6.88476 0.0976,-3.41797 0.0488,-6.83594 0,-0.39063 0.29296,-0.53711 0.29297,-0.14649 0.6836,-0.14649 0.43945,0 0.78125,0.3418 0.34179,0.29297 0.58594,0.78125 0.24414,0.43945 0.34179,0.92774 0.14649,0.43945 0.14649,0.73242 0.29297,6.98242 0.39062,11.66992 0.0977,4.63867 0,7.51953 -0.0976,2.83203 -0.3418,4.19922 -0.19531,1.36719 -0.5371,1.85547 -0.3418,0.48828 -0.83008,0.39062 -0.43946,-0.0976 -0.92774,-0.19531 z"
       style="font-style:normal;font-variant:normal;font-weight:normal;font-stretch:normal;font-size:50px;font-family:'Indie Flower';-inkscape-font-specification:'Indie Flower';text-align:center;text-anchor:middle"
       id="path4474" />
    <path
       d="m 315.5791,129.77636 q 0,-2.68555 1.17188,-4.6875 1.17187,-2.00196 3.07617,-3.36914 1.9043,-1.36719 4.24805,-2.00196 2.39257,-0.68359 4.78515,-0.68359 1.26953,0 2.34375,0.48828 1.12305,0.43945 2.09961,1.26953 1.02539,0.78125 1.80664,1.85547 0.78125,1.02539 1.31836,2.14844 0.58594,1.12305 0.87891,2.29492 0.29297,1.12305 0.29297,2.19727 0,2.49023 -0.97657,4.44336 -0.97656,1.95312 -2.63672,3.32031 -1.66015,1.31836 -3.75976,2.05078 -2.09961,0.68359 -4.29688,0.68359 -2.24609,0 -4.15039,-0.68359 -1.85547,-0.73242 -3.27148,-2.00195 -1.36719,-1.26953 -2.14844,-3.125 -0.78125,-1.9043 -0.78125,-4.19922 z m 2.39258,-0.39063 q 0,1.51367 0.53711,2.92969 0.58594,1.36719 1.5625,2.39258 1.02539,1.02539 2.39258,1.66015 1.36718,0.58594 2.92968,0.58594 0.83008,0.0977 2.00196,-0.24414 1.2207,-0.39062 2.39258,-1.07422 1.2207,-0.73242 2.29492,-1.70898 1.12304,-1.02539 1.85547,-2.19727 0.73242,-1.2207 0.8789,-2.49023 0.19532,-1.31836 -0.43945,-2.58789 -0.58594,-1.31836 -2.19727,-2.49024 -1.61132,-1.2207 -4.44336,-2.24609 -1.61132,0 -3.36914,0.48828 -1.70898,0.43945 -3.125,1.36719 -1.41601,0.92773 -2.34375,2.34375 -0.92773,1.41601 -0.92773,3.27148 z"
       style="font-style:normal;font-variant:normal;font-weight:normal;font-stretch:normal;font-size:50px;font-family:'Indie Flower';-inkscape-font-specification:'Indie Flower';text-align:center;text-anchor:middle"
       id="path4476" />
    <path
       d="m 339.79785,133.82909 q 0.39063,-0.29297 0.6836,-0.34179 0.34179,-0.0977 0.73242,-0.0977 0.43945,0 0.8789,0.24414 0.43946,0.19531 0.78125,0.53711 0.39063,0.29297 0.78125,0.58594 0.39063,0.29297 0.83008,0.48828 1.26953,0.53711 2.00195,0.8789 0.78125,0.3418 1.41602,0.53711 0.63477,0.19532 1.46484,0.24414 0.83008,0.0488 2.14844,0.0488 1.02539,0 2.49024,0.0488 1.46484,0 2.7832,-0.24414 1.31836,-0.29297 2.24609,-0.97656 0.92774,-0.73242 0.92774,-2.19727 0.0488,-1.41601 -0.78125,-2.19726 -0.78125,-0.83008 -2.14844,-1.26954 -1.36719,-0.43945 -3.07617,-0.58593 -1.70899,-0.19532 -3.51563,-0.39063 -1.80664,-0.19531 -3.56445,-0.53711 -1.70898,-0.39062 -3.07617,-1.17187 -1.36719,-0.78125 -2.19727,-2.14844 -0.83008,-1.36719 -0.8789,-3.51562 0.29296,-1.5625 1.51367,-2.5879 1.26953,-1.07421 2.97851,-1.61132 1.75782,-0.58594 3.71094,-0.58594 1.95313,-0.0488 3.56445,0.48828 1.66016,0.48828 2.73438,1.61133 1.12305,1.12305 1.17187,2.7832 0.0977,0.97656 -0.14648,1.61133 -0.24414,0.63477 -0.68359,0.97656 -0.39063,0.29297 -0.83008,0.29297 -0.43946,-0.0488 -0.6836,-0.3418 -0.24414,-0.34179 -0.24414,-0.92773 0.0488,-0.63477 0.58594,-1.5625 -0.19531,-0.92773 -1.12305,-1.46484 -0.92773,-0.53711 -2.14843,-0.73243 -1.22071,-0.24414 -2.63672,-0.0977 -1.36719,0.0977 -2.53906,0.48828 -1.12305,0.39062 -1.85547,1.02539 -0.6836,0.63477 -0.58594,1.46484 0,1.46485 0.83008,2.29493 0.8789,0.78125 2.24609,1.2207 1.36719,0.43945 3.125,0.63476 1.80664,0.19532 3.66211,0.39063 1.9043,0.14648 3.66211,0.48828 1.75781,0.29297 3.17383,1.02539 1.41601,0.73242 2.24609,2.00195 0.83008,1.22071 0.83008,3.22266 0,1.51367 -0.78125,2.63672 -0.78125,1.07422 -2.00195,1.80664 -1.17188,0.73242 -2.58789,1.07422 -1.41602,0.3418 -2.68555,0.3418 -1.26953,0 -2.73438,0 -1.41601,-0.0488 -2.92968,-0.19532 -1.46485,-0.14648 -2.97852,-0.43945 -1.51367,-0.3418 -2.83203,-0.97656 -1.26953,-0.6836 -2.29492,-1.70899 -1.02539,-1.02539 -1.66016,-2.58789 z"
       style="font-style:normal;font-variant:normal;font-weight:normal;font-stretch:normal;font-size:50px;font-family:'Indie Flower';-inkscape-font-specification:'Indie Flower';text-align:center;text-anchor:middle"
       id="path4478" />
    <path
       d="m 365.67676,126.65136 q 0,-2.53906 0.73242,-4.83399 0.78125,-2.34375 2.19727,-4.10156 1.46484,-1.75781 3.51562,-2.7832 2.09961,-1.07422 4.83398,-1.07422 1.61133,0.19531 2.78321,0.87891 1.2207,0.68359 1.95312,1.70898 0.78125,0.97656 1.12305,2.29492 0.29297,1.26953 0.29297,2.73438 0,1.75781 -1.02539,3.17382 -1.02539,1.41602 -2.58789,2.39258 -1.5625,0.92774 -3.36914,1.46485 -1.80664,0.48828 -3.36914,0.48828 -0.58594,0 -1.22071,0 -0.58593,0 -1.07422,-0.19531 -0.48828,-0.19532 -0.78125,-0.58594 -0.29296,-0.39063 -0.29296,-1.17188 0,-0.24414 0.0488,-0.39062 0.0977,-0.19531 0.43946,-0.24414 0.34179,-0.0977 1.02539,-0.0488 0.68359,0.0977 1.85547,0.29297 0.68359,0 1.95312,-0.43946 1.31836,-0.48828 2.63672,-1.2207 1.36719,-0.73242 2.34375,-1.66015 0.97656,-0.97657 0.97656,-1.9043 0,-0.97656 -0.34179,-1.9043 -0.29297,-0.97656 -0.92774,-1.70898 -0.63476,-0.73242 -1.51367,-1.17188 -0.83008,-0.43945 -1.9043,-0.34179 -1.70898,0.14648 -3.125,0.92773 -1.36719,0.78125 -2.34375,2.05078 -0.97656,1.2207 -1.51367,2.73438 -0.53711,1.51367 -0.53711,3.17382 0,1.26954 0.0488,2.53907 0.0488,1.26953 0.3418,2.49023 0.34179,1.2207 1.02539,2.34375 0.73242,1.12305 2.05078,2.00195 1.36719,0.83008 3.41797,1.41602 2.05078,0.53711 5.07812,0.68359 l 8.74024,-0.58593 q -0.78125,1.07421 -2.00196,1.75781 -1.17187,0.68359 -2.53906,1.12305 -1.31836,0.39062 -2.63672,0.58593 -1.31836,0.19532 -2.49023,0.19532 -2.83203,0 -5.32227,-0.92774 -2.49023,-0.92773 -4.39453,-2.58789 -1.9043,-1.70898 -3.02734,-4.10156 -1.07422,-2.44141 -1.07422,-5.46875 z"
       style="font-style:normal;font-variant:normal;font-weight:normal;font-stretch:normal;font-size:50px;font-family:'Indie Flower';-inkscape-font-specification:'Indie Flower';text-align:center;text-anchor:middle"
       id="path4480" />
    <path
       d="m 58.938477,217.47167 q 0,-0.3418 0,-0.68359 0,-0.29297 0.09766,-0.53711 0.09766,-0.19532 0.292969,-0.3418 0.292968,-0.0977 0.683593,-0.0977 0.732422,0.83008 1.855469,2.09961 1.171875,1.31836 2.636719,2.53907 1.464844,1.2207 3.076172,2.14843 1.611328,0.92774 3.271484,0.92774 1.367188,-0.0488 2.34375,-0.73242 0.976563,-0.63477 1.660156,-1.70899 0.683594,-1.07422 1.123047,-2.4414 0.439453,-1.36719 0.683594,-2.78321 0.292969,-1.41601 0.390625,-2.73437 0.146484,-1.31836 0.292969,-2.29492 0.09766,-0.48829 0.195312,-1.66016 0.146485,-1.12305 0.244141,-2.53906 0.146484,-1.36719 0.195312,-2.88086 0.09766,-1.51367 0,-2.73438 -0.09766,-1.26953 -0.390625,-2.05078 -0.292968,-0.83008 -0.878906,-0.83008 -0.830078,0 -1.757812,0.48828 -0.927735,0.48829 -1.953125,1.12305 -0.976563,0.58594 -2.001954,1.07422 -1.02539,0.48828 -2.001953,0.48828 -1.855468,0 -3.417968,-0.73242 -1.513672,-0.78125 -2.783204,-2.00195 -1.269531,-1.22071 -2.246093,-2.83204 -0.976563,-1.66015 -1.660157,-3.41796 -0.634765,-1.75782 -0.976562,-3.51563 -0.292969,-1.75781 -0.292969,-3.32031 0,-0.3418 -0.09766,-1.12305 -0.04883,-0.78125 0.04883,-1.61133 0.09766,-0.83007 0.439453,-1.46484 0.341797,-0.63477 1.074219,-0.63477 0.195312,0 0.292969,0.78125 0.146484,0.78125 0.292968,2.05079 0.195313,1.2207 0.439454,2.83203 0.292968,1.61132 0.732421,3.27148 0.439454,1.66016 1.074219,3.27149 0.634766,1.61132 1.5625,2.88085 0.927735,1.22071 2.197266,2.00196 1.318359,0.78125 2.978515,0.78125 1.074219,0 2.246094,-0.43946 1.171875,-0.48828 2.197266,-1.2207 1.074219,-0.73242 1.953125,-1.66015 0.878906,-0.97657 1.367187,-1.9043 0,-0.19531 -0.04883,-0.92774 -0.04883,-0.73242 -0.09766,-1.66015 -0.04883,-0.97656 -0.09766,-2.09961 -0.04883,-1.12305 -0.09766,-2.09961 -0.04883,-1.02539 -0.09766,-1.75781 0,-0.73243 0,-0.92774 0.09766,-2.97851 0.439453,-3.61328 0.341797,-0.68359 0.830078,0.39063 0.488282,1.07421 1.025391,3.61328 0.537109,2.53906 0.976563,5.95703 0.488281,3.36914 0.732421,7.37305 0.292969,4.0039 0.244141,8.00781 -0.04883,4.05273 -0.537109,7.8125 -0.439453,3.75976 -1.464844,6.64062 -1.025391,2.92969 -2.685547,4.73633 -1.660156,1.80664 -4.101562,1.9043 -0.976563,0 -2.34375,-0.39063 -1.31836,-0.34179 -2.685547,-0.97656 -1.367188,-0.63477 -2.734375,-1.51367 -1.31836,-0.87891 -2.392578,-1.9043 -1.025391,-1.02539 -1.708985,-2.14844 -0.634765,-1.12304 -0.634765,-2.24609 z"
       style="font-style:normal;font-variant:normal;font-weight:normal;font-stretch:normal;font-size:50px;font-family:'Indie Flower';-inkscape-font-specification:'Indie Flower';text-align:center;text-anchor:middle"
       id="path4482" />
    <path
       d="m 82.03418,192.27636 q 0,-2.68555 1.171875,-4.6875 1.171875,-2.00196 3.076172,-3.36914 1.904296,-1.36719 4.248046,-2.00196 2.392579,-0.68359 4.785157,-0.68359 1.269531,0 2.34375,0.48828 1.123047,0.43945 2.099609,1.26953 1.025391,0.78125 1.806641,1.85547 0.78125,1.02539 1.31836,2.14844 0.58594,1.12305 0.87891,2.29492 0.29296,1.12305 0.29296,2.19727 0,2.49023 -0.97656,4.44336 -0.97656,1.95312 -2.63672,3.32031 -1.660153,1.31836 -3.759763,2.05078 -2.099609,0.68359 -4.296875,0.68359 -2.246094,0 -4.15039,-0.68359 -1.855469,-0.73242 -3.271485,-2.00195 -1.367187,-1.26953 -2.148437,-3.125 -0.78125,-1.9043 -0.78125,-4.19922 z m 2.392578,-0.39063 q 0,1.51367 0.537109,2.92969 0.585938,1.36719 1.5625,2.39258 1.025391,1.02539 2.392578,1.66015 1.367188,0.58594 2.929688,0.58594 0.830078,0.0977 2.001953,-0.24414 1.220703,-0.39062 2.392578,-1.07422 1.220703,-0.73242 2.294922,-1.70898 1.123047,-1.02539 1.855464,-2.19727 0.73243,-1.2207 0.87891,-2.49023 0.19531,-1.31836 -0.43945,-2.58789 -0.58594,-1.31836 -2.197268,-2.49024 -1.611328,-1.2207 -4.443359,-2.24609 -1.611328,0 -3.369141,0.48828 -1.708984,0.43945 -3.125,1.36719 -1.416015,0.92773 -2.34375,2.34375 -0.927734,1.41601 -0.927734,3.27148 z"
       style="font-style:normal;font-variant:normal;font-weight:normal;font-stretch:normal;font-size:50px;font-family:'Indie Flower';-inkscape-font-specification:'Indie Flower';text-align:center;text-anchor:middle"
       id="path4484" />
    <path
       d="m 124.17285,195.15722 q -1.12305,0.63476 -1.95312,1.5625 -0.78125,0.8789 -1.61133,1.70898 -0.83008,0.78125 -1.85547,1.36719 -0.97656,0.58594 -2.53906,0.58594 -1.75782,0 -3.17383,-0.73243 -1.41602,-0.78125 -2.53906,-2.05078 -1.07422,-1.31836 -1.9043,-2.92968 -0.78125,-1.66016 -1.31836,-3.36914 -0.48828,-1.75782 -0.78125,-3.41797 -0.24414,-1.70899 -0.24414,-3.07618 -0.39063,-2.63671 0.14648,-4.10156 0.53711,-1.51367 1.26954,-1.90429 0.78125,-0.43946 1.31835,0.19531 0.53711,0.58594 0.14649,2.09961 -0.0977,0.19531 -0.14649,0.63476 -0.0488,0.39063 -0.0977,0.83008 -0.0488,0.43945 -0.0977,0.83008 -0.0488,0.39062 -0.0488,0.53711 0,1.02539 0.19532,2.4414 0.19531,1.36719 0.58593,2.88086 0.43946,1.51368 1.07422,3.02735 0.63477,1.46484 1.51367,2.63672 0.87891,1.17187 2.00196,1.90429 1.17187,0.73243 2.53906,0.73243 0.87891,0 2.00195,-0.83008 1.12305,-0.87891 2.09961,-2.05078 1.02539,-1.22071 1.70899,-2.49024 0.73242,-1.26953 0.73242,-2.14844 0,-0.48828 0,-1.61132 0.0488,-1.12305 0.0488,-2.39258 0,-1.26953 -0.0488,-2.39258 0,-1.12305 0,-1.5625 0.29297,-0.48828 0.63476,-0.73242 0.3418,-0.29297 0.83008,-0.29297 0.58594,0 0.97657,0.78125 0.39062,0.78125 0.63476,2.00195 0.24414,1.22071 0.3418,2.63672 0.0977,1.41602 0.14648,2.73438 0.0488,1.31836 0.0977,2.34375 0.0488,0.97656 0.14648,1.31836 0.24414,0.97656 0.6836,2.19726 0.48828,1.2207 0.92773,2.39258 0.43945,1.12305 0.78125,2.09961 0.3418,0.92773 0.3418,1.41601 0,0.73243 -0.43946,0.87891 -0.39062,0.14648 -1.02539,0.14648 -0.78125,0 -1.17187,-0.39062 -0.3418,-0.39063 -0.53711,-0.97656 -0.14648,-0.63477 -0.24414,-1.36719 -0.0977,-0.73242 -0.3418,-1.51367 -0.19531,-0.78125 -0.63476,-1.46485 -0.39063,-0.68359 -1.17188,-1.12304 z"
       style="font-style:normal;font-variant:normal;font-weight:normal;font-stretch:normal;font-size:50px;font-family:'Indie Flower';-inkscape-font-specification:'Indie Flower';text-align:center;text-anchor:middle"
       id="path4486" />
    <path
       d="m 135.8916,202.2373 q -1.07422,-1.95313 -1.85547,-4.24805 -0.78125,-2.29492 -1.31836,-4.63867 -0.53711,-2.34375 -0.8789,-4.54102 -0.29297,-2.24609 -0.39063,-4.05273 0,-0.3418 -0.0488,-0.73243 -0.0488,-0.43945 -0.0488,-0.8789 0.0488,-0.43945 0.14648,-0.83008 0.14648,-0.39062 0.43945,-0.68359 l 0.0977,0 q 0.0488,0 0.0488,0 0,-0.0488 0.0488,-0.0488 0.0488,0 0.0488,0.0488 0,0 0.0977,0 l 0.0977,0 q 0.0977,0.0488 0.48828,0.19531 0.39062,0.14648 0.48828,0.24414 0.87891,-0.29297 1.80664,-0.68359 0.92773,-0.43946 1.85547,-0.78125 0.97656,-0.39063 1.95312,-0.63477 0.97657,-0.24414 1.9043,-0.24414 0.68359,0 1.17188,0.0488 0.5371,0.0488 1.02539,0.19531 0.53711,0.0977 1.12304,0.29297 0.58594,0.14648 1.36719,0.39062 0.39063,0.29297 0.68359,0.58594 0.3418,0.24414 0.58594,0.58594 0.29297,0.3418 0.43945,0.83008 0.14649,0.48828 0.14649,1.26953 -0.78125,0.0977 -1.85547,-0.0977 -1.02539,-0.24414 -2.19727,-0.58594 -1.12304,-0.34179 -2.34375,-0.58593 -1.2207,-0.24414 -2.34375,-0.19532 -1.12304,0.0488 -2.0996,0.63477 -1.0254,0.48828 -1.80665,1.75781 -0.34179,1.41602 -0.29296,2.78321 0.0488,1.36718 0.34179,2.68554 0.29297,1.26953 0.73242,2.58789 0.48829,1.26953 0.87891,2.58789 0.43945,1.26954 0.78125,2.53907 0.3418,1.26953 0.43945,2.58789 0,0.48828 -0.53711,1.07422 -0.5371,0.53711 -1.2207,0.53711 z"
       style="font-style:normal;font-variant:normal;font-weight:normal;font-stretch:normal;font-size:50px;font-family:'Indie Flower';-inkscape-font-specification:'Indie Flower';text-align:center;text-anchor:middle"
       id="path4488" />
    <path
       d="m 182.66895,201.35839 q 0.0977,-1.26953 0.19531,-2.63672 0.0976,-1.36719 0.14648,-2.73437 0.0977,-1.36719 0.0977,-2.68555 0.0488,-1.31836 0.0488,-2.39258 0,-1.5625 -0.43946,-2.97852 -0.43945,-1.41601 -1.26953,-2.4414 -0.83008,-1.07422 -2.09961,-1.66016 -1.2207,-0.63476 -2.92968,-0.63476 -0.6836,0 -1.17188,0.0976 -0.48828,0.0977 -0.97656,0.3418 -0.48828,0.19531 -1.07422,0.53711 -0.58594,0.39062 -1.36719,0.92773 0,0.0977 -0.0488,0.39063 0,0.24414 0,0.29297 0,1.07422 0.19532,2.88086 0.24414,1.75781 0.48828,3.71093 0.24414,1.9043 0.48828,3.71094 0.24414,1.80664 0.24414,2.92969 0,0.0977 0,0.39062 0,0.29297 -0.0488,0.63477 0,0.3418 0,0.63477 0,0.29296 0,0.43945 -0.29297,0.68359 -0.73242,0.8789 -0.39063,0.14649 -0.97656,0.14649 -0.58594,0.0977 -0.87891,-0.83008 -0.29297,-0.92773 -0.43945,-2.68555 -0.14649,-1.75781 -0.29297,-4.24804 -0.0977,-2.49024 -0.3418,-5.46875 -0.19531,-2.97852 -0.63476,-6.29883 -0.39063,-3.36914 -1.17188,-6.88477 -0.39062,-1.36718 -0.63476,-2.29492 -0.19532,-0.97656 -0.39063,-1.70898 -0.19531,-0.78125 -0.3418,-1.5625 -0.14648,-0.83008 -0.34179,-1.95313 l 0,-0.19531 q 0,-0.19531 0.24414,-0.3418 0.24414,-0.19531 0.53711,-0.34179 0.34179,-0.14649 0.63476,-0.19532 0.3418,-0.0977 0.53711,-0.0977 0.92774,2.4414 1.46485,4.15039 0.58593,1.66015 0.92773,2.88086 0.3418,1.2207 0.48828,2.05078 0.14649,0.83008 0.24414,1.61133 0.0977,0.78125 0.14649,1.61132 0.0488,0.83008 0.19531,2.00196 2.53906,-1.5625 4.58984,-1.70899 2.09961,-0.14648 3.71094,0.63477 1.61133,0.73242 2.7832,2.29492 1.22071,1.5625 2.00196,3.51563 0.78125,1.95312 1.17187,4.15039 0.43945,2.19726 0.53711,4.24804 0.14648,2.05078 -0.0977,3.8086 -0.19531,1.70898 -0.63476,2.7832 -0.43945,1.02539 -1.17188,1.17188 -0.73242,0.19531 -1.61132,-0.87891 z"
       style="font-style:normal;font-variant:normal;font-weight:normal;font-stretch:normal;font-size:50px;font-family:'Indie Flower';-inkscape-font-specification:'Indie Flower';text-align:center;text-anchor:middle"
       id="path4490" />
    <path
       d="m 188.96777,193.98534 q 0.0488,-0.83008 0.48828,-1.90429 0.43946,-1.07422 1.36719,-2.09961 0.92774,-1.02539 2.34375,-1.80664 1.41602,-0.83008 3.32031,-1.17188 1.95313,-0.3418 4.39454,-0.0488 2.49023,0.29297 5.51757,1.46485 0,-0.0488 0,-0.48829 l -0.0488,-0.43945 q 0,-1.26953 -0.73243,-2.58789 -0.73242,-1.31836 -1.90429,-2.34375 -1.12305,-1.07422 -2.44141,-1.70898 -1.31836,-0.6836 -2.53906,-0.6836 -0.48828,0 -0.87891,0.14649 -0.34179,0.14648 -0.68359,0.39062 -0.3418,0.19531 -0.6836,0.39063 -0.29296,0.14648 -0.73242,0.14648 -0.0977,0 -0.0977,-0.0488 -0.0488,-0.0488 -0.0977,-0.0977 -0.0977,-0.0977 -0.29297,-0.24414 -0.14648,-0.14649 -0.14648,-0.19532 0,-0.8789 0.29297,-1.51367 0.34179,-0.63476 0.8789,-1.02539 0.58594,-0.39062 1.26953,-0.58594 0.73243,-0.24414 1.51368,-0.24414 1.95312,0.19532 3.71093,1.22071 1.80664,0.97656 3.27149,2.49023 1.51367,1.51367 2.63672,3.51563 1.12304,1.95312 1.85546,4.10156 0.78125,2.09961 1.0254,4.24805 0.29296,2.24609 0.0488,4.19921 -0.0488,0 -0.29297,0 -0.24414,-0.0488 -0.5371,-0.0488 -0.29297,-0.0488 -0.48829,-0.0977 l -0.24414,-0.0488 q -1.02539,-2.29492 -2.29492,-3.71094 -1.26953,-1.41601 -2.53906,-2.19726 -1.2207,-0.83008 -2.29492,-1.12305 -1.07422,-0.3418 -1.75782,-0.48828 -0.73242,0 -1.75781,0.0977 -0.97656,0.0976 -2.05078,0.34179 -1.07422,0.24414 -2.19726,0.6836 -1.07422,0.39062 -1.95313,0.97656 -0.83008,0.58594 -1.36719,1.41602 -0.48828,0.78125 -0.48828,1.85546 0,1.17188 0.92774,2.00196 0.92773,0.78125 2.24609,1.31836 1.31836,0.48828 2.68555,0.68359 1.36718,0.19531 2.19726,0.19531 1.36719,0 2.68555,-0.14648 1.31836,-0.14649 2.58789,-0.3418 1.31836,-0.19531 2.58789,-0.3418 1.26953,-0.14648 2.53906,-0.14648 0.0977,0 0.3418,0 0.24414,0 0.48828,0.0488 0.29297,0 0.48828,0 0.24414,0 0.3418,0 0.39062,0.14648 0.43945,0.43945 0.0488,0.29297 0.0488,0.58594 0,0.29297 -0.63477,0.63476 -0.58593,0.3418 -1.5625,0.6836 -0.97656,0.3418 -2.19726,0.73242 -1.17188,0.3418 -2.29492,0.58594 -1.07422,0.24414 -2.05078,0.43945 -0.92774,0.14649 -1.31836,0.14649 -2.05078,0 -4.34571,-0.3418 -2.29492,-0.3418 -4.19922,-1.2207 -1.90429,-0.92774 -3.17382,-2.53907 -1.22071,-1.61133 -1.22071,-4.15039 z"
       style="font-style:normal;font-variant:normal;font-weight:normal;font-stretch:normal;font-size:50px;font-family:'Indie Flower';-inkscape-font-specification:'Indie Flower';text-align:center;text-anchor:middle"
       id="path4492" />
    <path
       d="m 214.74902,183.19433 q 0,-0.43946 0.29297,-0.53711 0.3418,-0.14649 0.73242,-0.14649 0.29297,0 0.39063,0.14649 0.14648,0.14648 0.19531,0.34179 0.0488,0.19532 0.14649,0.39063 0.0976,0.14648 0.34179,0.14648 0.6836,0 1.66016,-0.53711 0.97656,-0.53711 2.09961,-1.17187 1.17187,-0.63477 2.4414,-1.17188 1.31836,-0.53711 2.5879,-0.53711 1.66015,0 3.02734,0.87891 1.41601,0.83008 2.49023,2.24609 1.12305,1.41602 1.9043,3.17383 0.78125,1.75782 1.31836,3.61328 0.53711,1.80664 0.78125,3.56446 0.24414,1.70898 0.24414,2.97851 0,0.43946 -0.0977,1.31836 -0.0488,0.87891 -0.24414,1.75781 -0.14648,0.87891 -0.53711,1.5625 -0.39062,0.63477 -0.97656,0.63477 -0.0977,0 -0.3418,0 -0.24414,-0.0488 -0.48828,-0.0977 -0.24414,-0.0976 -0.43945,-0.19531 -0.14648,-0.0976 -0.14648,-0.29297 0.43945,-3.75976 0,-7.03125 -0.43946,-3.32031 -1.41602,-5.81054 -0.97656,-2.49024 -2.39258,-3.95508 -1.41601,-1.46485 -3.02734,-1.46485 -1.51367,0 -2.83203,0.48829 -1.31836,0.48828 -2.29492,1.41601 -0.97657,0.92774 -1.5625,2.24609 -0.53711,1.31836 -0.53711,2.88086 0,1.5625 0.29296,3.125 0.29297,1.51368 0.63477,3.07618 0.39063,1.51367 0.68359,3.07617 0.29297,1.5625 0.29297,3.125 -1.36718,0 -2.29492,-1.12305 -0.92773,-1.12305 -1.51367,-2.88086 -0.53711,-1.75781 -0.87891,-3.95508 -0.29297,-2.19726 -0.43945,-4.29687 -0.0977,-2.14844 -0.0977,-4.00391 0,-1.90429 0,-2.97851 z"
       style="font-style:normal;font-variant:normal;font-weight:normal;font-stretch:normal;font-size:50px;font-family:'Indie Flower';-inkscape-font-specification:'Indie Flower';text-align:center;text-anchor:middle"
       id="path4494" />
    <path
       d="m 237.20996,191.15331 q 0,-1.80664 0.43945,-3.80859 0.48829,-2.00196 1.46485,-3.71094 1.02539,-1.70898 2.53906,-2.7832 1.5625,-1.12305 3.80859,-1.12305 1.17188,0 2.34375,0.3418 1.17188,0.34179 2.39258,0.97656 1.26953,0.63476 2.58789,1.51367 1.36719,0.83008 2.88086,1.85547 0.19531,-1.95313 -0.14648,-4.00391 -0.3418,-2.09961 -0.87891,-4.10156 -0.53711,-2.00195 -1.12305,-3.75976 -0.5371,-1.80665 -0.78125,-3.22266 -0.24414,-1.41602 -0.0488,-2.34375 0.19531,-0.92774 1.17187,-1.17188 1.31836,0.97657 2.2461,2.78321 0.97656,1.75781 1.66015,4.10156 0.6836,2.34375 1.12305,5.0293 0.43945,2.63672 0.73242,5.37109 0.29297,2.73438 0.43945,5.32227 0.19532,2.58789 0.39063,4.78515 0.19531,2.14844 0.3418,3.71094 0.19531,1.51367 0.5371,2.14844 0,0.78125 -0.58593,0.97656 -0.53711,0.19531 -1.12305,0.19531 -0.48828,0 -0.83008,-0.34179 -0.34179,-0.39063 -0.53711,-0.87891 -0.19531,-0.48828 -0.39062,-1.07422 -0.14649,-0.63477 -0.3418,-1.12305 -0.19531,-0.53711 -0.43945,-0.8789 -0.24414,-0.3418 -0.63477,-0.3418 -0.0976,0 -0.29297,0.0488 -0.14648,0 -0.14648,0.0488 -0.92774,1.26953 -2.19727,2.49023 -1.2207,1.17188 -2.73437,2.09961 -1.46485,0.87891 -3.125,1.41602 -1.61133,0.53711 -3.27149,0.53711 -1.85546,0 -3.27148,-1.22071 -1.36719,-1.2207 -2.34375,-2.92969 -0.92773,-1.70898 -1.41602,-3.61328 -0.43945,-1.90429 -0.43945,-3.32031 z m 3.02734,0.87891 q 0.48829,1.75781 0.87891,3.07617 0.39063,1.31836 0.92774,2.14844 0.58593,0.83007 1.36718,1.26953 0.78125,0.39062 2.05078,0.39062 1.5625,0 3.32032,-0.8789 1.75781,-0.92774 3.27148,-2.34375 1.51367,-1.41602 2.49024,-3.07618 0.97656,-1.70898 0.97656,-3.27148 0,-0.14648 0,-0.58594 0,-0.43945 0,-0.58593 -2.58789,-2.53907 -4.78516,-3.61329 -2.14844,-1.12304 -3.85742,-1.12304 -1.70898,-0.0488 -2.97852,0.73242 -1.26953,0.78125 -2.09961,2.05078 -0.83007,1.26953 -1.2207,2.83203 -0.39062,1.5625 -0.3418,2.97852 z"
       style="font-style:normal;font-variant:normal;font-weight:normal;font-stretch:normal;font-size:50px;font-family:'Indie Flower';-inkscape-font-specification:'Indie Flower';text-align:center;text-anchor:middle"
       id="path4496" />
    <path
       d="m 282.13184,193.98534 q 0.0488,-0.83008 0.48828,-1.90429 0.43945,-1.07422 1.36718,-2.09961 0.92774,-1.02539 2.34375,-1.80664 1.41602,-0.83008 3.32032,-1.17188 1.95312,-0.3418 4.39453,-0.0488 2.49023,0.29297 5.51758,1.46485 0,-0.0488 0,-0.48829 l -0.0488,-0.43945 q 0,-1.26953 -0.73242,-2.58789 -0.73243,-1.31836 -1.9043,-2.34375 -1.12305,-1.07422 -2.44141,-1.70898 -1.31836,-0.6836 -2.53906,-0.6836 -0.48828,0 -0.87891,0.14649 -0.34179,0.14648 -0.68359,0.39062 -0.3418,0.19531 -0.68359,0.39063 -0.29297,0.14648 -0.73242,0.14648 -0.0977,0 -0.0977,-0.0488 -0.0488,-0.0488 -0.0977,-0.0977 -0.0976,-0.0977 -0.29297,-0.24414 -0.14648,-0.14649 -0.14648,-0.19532 0,-0.8789 0.29297,-1.51367 0.3418,-0.63476 0.8789,-1.02539 0.58594,-0.39062 1.26954,-0.58594 0.73242,-0.24414 1.51367,-0.24414 1.95312,0.19532 3.71094,1.22071 1.80664,0.97656 3.27148,2.49023 1.51367,1.51367 2.63672,3.51563 1.12305,1.95312 1.85547,4.10156 0.78125,2.09961 1.02539,4.24805 0.29297,2.24609 0.0488,4.19921 -0.0488,0 -0.29297,0 -0.24414,-0.0488 -0.53711,-0.0488 -0.29297,-0.0488 -0.48828,-0.0977 l -0.24414,-0.0488 q -1.02539,-2.29492 -2.29493,-3.71094 -1.26953,-1.41601 -2.53906,-2.19726 -1.2207,-0.83008 -2.29492,-1.12305 -1.07422,-0.3418 -1.75781,-0.48828 -0.73242,0 -1.75782,0.0977 -0.97656,0.0976 -2.05078,0.34179 -1.07422,0.24414 -2.19726,0.6836 -1.07422,0.39062 -1.95313,0.97656 -0.83008,0.58594 -1.36718,1.41602 -0.48829,0.78125 -0.48829,1.85546 0,1.17188 0.92774,2.00196 0.92773,0.78125 2.24609,1.31836 1.31836,0.48828 2.68555,0.68359 1.36719,0.19531 2.19726,0.19531 1.36719,0 2.68555,-0.14648 1.31836,-0.14649 2.58789,-0.3418 1.31836,-0.19531 2.58789,-0.3418 1.26953,-0.14648 2.53907,-0.14648 0.0976,0 0.34179,0 0.24414,0 0.48828,0.0488 0.29297,0 0.48828,0 0.24415,0 0.3418,0 0.39063,0.14648 0.43945,0.43945 0.0488,0.29297 0.0488,0.58594 0,0.29297 -0.63476,0.63476 -0.58594,0.3418 -1.5625,0.6836 -0.97657,0.3418 -2.19727,0.73242 -1.17187,0.3418 -2.29492,0.58594 -1.07422,0.24414 -2.05078,0.43945 -0.92774,0.14649 -1.31836,0.14649 -2.05078,0 -4.3457,-0.3418 -2.29493,-0.3418 -4.19922,-1.2207 -1.9043,-0.92774 -3.17383,-2.53907 -1.2207,-1.61133 -1.2207,-4.15039 z"
       style="font-style:normal;font-variant:normal;font-weight:normal;font-stretch:normal;font-size:50px;font-family:'Indie Flower';-inkscape-font-specification:'Indie Flower';text-align:center;text-anchor:middle"
       id="path4498" />
    <path
       d="m 341.75098,186.70995 q 1.02539,0 0.8789,0.97656 0.43946,0.53711 -0.0488,1.02539 -0.43945,0.43946 -1.51367,0.6836 -1.07422,0.19531 -2.68554,0.19531 -1.61133,-0.0488 -3.51563,-0.43945 0,1.85547 0.83008,3.46679 0.87891,1.61133 1.9043,3.07618 1.02539,1.46484 1.90429,2.83203 0.87891,1.36719 0.87891,2.73437 0,0.63477 -0.39063,0.83008 -0.29296,0.19531 -0.8789,0.19531 -0.48828,0 -1.07422,-0.34179 -0.53711,-0.39063 -1.02539,-0.92774 -0.43945,-0.53711 -0.83008,-1.12304 -0.3418,-0.58594 -0.53711,-0.97657 -0.19531,-0.39062 -0.58594,-1.12304 -0.34179,-0.73243 -0.83007,-1.70899 -0.48829,-0.97656 -0.97657,-2.00195 -0.48828,-1.07422 -0.97656,-2.05078 -0.43945,-0.97657 -0.78125,-1.75782 -0.39062,-0.73242 -0.53711,-1.12304 l -0.53711,-0.53711 q -0.24414,0.0977 -0.92773,0.24414 -0.63477,0.0977 -1.36719,0.24414 -0.73242,0.14648 -1.41602,0.29297 -0.68359,0.14648 -0.97656,0.14648 l -0.24414,0 q -0.39062,0 -0.53711,-0.24414 -0.14648,-0.29297 -0.14648,-0.68359 0,-0.83008 0.58593,-1.26953 0.58594,-0.43946 1.41602,-0.63477 0.83008,-0.19531 1.70898,-0.24414 0.92774,-0.0977 1.51368,-0.14648 -0.0977,-1.46485 -0.14649,-3.4668 -0.0488,-2.00195 0.19531,-4.15039 0.24415,-2.14844 0.78125,-4.19922 0.58594,-2.09961 1.61133,-3.75977 1.07422,-1.66015 2.68555,-2.68554 1.61133,-1.02539 3.95508,-1.02539 1.31836,0 2.88086,0.68359 1.5625,0.63477 2.88086,1.70899 1.36718,1.07421 2.24609,2.4414 0.87891,1.31836 0.87891,2.68555 l -1.12305,0 q -0.97656,0 -1.75781,-0.73242 -0.73242,-0.73243 -1.5625,-1.61133 -0.83008,-0.92774 -1.75782,-1.66016 -0.92773,-0.73242 -2.0996,-0.73242 -1.66016,0 -3.02735,0.73242 -1.36719,0.73242 -2.34375,1.95313 -0.97656,1.2207 -1.46484,2.73437 -0.48828,1.51367 -0.48828,3.07617 l 0,0.48829 0.8789,6.98242 q 0.0977,0.0977 0.53711,0.19531 0.43946,0.0488 1.36719,0.19531 0.97656,0.0977 2.53906,0.24414 1.61133,0.14649 4.05274,0.29297 z"
       style="font-style:normal;font-variant:normal;font-weight:normal;font-stretch:normal;font-size:50px;font-family:'Indie Flower';-inkscape-font-specification:'Indie Flower';text-align:center;text-anchor:middle"
       id="path4500" />
    <path
       d="m 345.12012,189.15136 q 0,-2.53906 0.73242,-4.83399 0.78125,-2.34375 2.19726,-4.10156 1.46485,-1.75781 3.51563,-2.7832 2.09961,-1.07422 4.83398,-1.07422 1.61133,0.19531 2.78321,0.87891 1.2207,0.68359 1.95312,1.70898 0.78125,0.97656 1.12305,2.29492 0.29297,1.26953 0.29297,2.73438 0,1.75781 -1.02539,3.17382 -1.02539,1.41602 -2.58789,2.39258 -1.5625,0.92774 -3.36914,1.46485 -1.80664,0.48828 -3.36914,0.48828 -0.58594,0 -1.22071,0 -0.58594,0 -1.07422,-0.19531 -0.48828,-0.19532 -0.78125,-0.58594 -0.29297,-0.39063 -0.29297,-1.17188 0,-0.24414 0.0488,-0.39062 0.0977,-0.19531 0.43946,-0.24414 0.34179,-0.0977 1.02539,-0.0488 0.68359,0.0977 1.85547,0.29297 0.68359,0 1.95312,-0.43946 1.31836,-0.48828 2.63672,-1.2207 1.36719,-0.73242 2.34375,-1.66015 0.97656,-0.97657 0.97656,-1.9043 0,-0.97656 -0.3418,-1.9043 -0.29296,-0.97656 -0.92773,-1.70898 -0.63477,-0.73242 -1.51367,-1.17188 -0.83008,-0.43945 -1.9043,-0.34179 -1.70898,0.14648 -3.125,0.92773 -1.36719,0.78125 -2.34375,2.05078 -0.97656,1.2207 -1.51367,2.73438 -0.53711,1.51367 -0.53711,3.17382 0,1.26954 0.0488,2.53907 0.0488,1.26953 0.3418,2.49023 0.34179,1.2207 1.02539,2.34375 0.73242,1.12305 2.05078,2.00195 1.36718,0.83008 3.41797,1.41602 2.05078,0.53711 5.07812,0.68359 l 8.74024,-0.58593 q -0.78125,1.07421 -2.00196,1.75781 -1.17187,0.68359 -2.53906,1.12305 -1.31836,0.39062 -2.63672,0.58593 -1.31836,0.19532 -2.49023,0.19532 -2.83203,0 -5.32227,-0.92774 -2.49023,-0.92773 -4.39453,-2.58789 -1.9043,-1.70898 -3.02734,-4.10156 -1.07422,-2.44141 -1.07422,-5.46875 z"
       style="font-style:normal;font-variant:normal;font-weight:normal;font-stretch:normal;font-size:50px;font-family:'Indie Flower';-inkscape-font-specification:'Indie Flower';text-align:center;text-anchor:middle"
       id="path4502" />
    <path
       d="m 386.86816,197.5498 q -1.95312,2.63671 -3.95507,3.71093 -1.95313,1.02539 -3.75977,0.92774 -1.75781,-0.14649 -3.36914,-1.31836 -1.5625,-1.17188 -2.73438,-2.92969 -1.12304,-1.75781 -1.85546,-3.95508 -0.6836,-2.24609 -0.73243,-4.54101 -0.0488,-2.29493 0.58594,-4.44336 0.6836,-2.19727 2.2461,-3.90625 0.78125,0.29297 0.8789,0.78125 0.0977,0.53711 0.0977,1.12304 0,0.83008 -0.19531,1.61133 -0.14649,0.73242 -0.3418,1.51367 -0.19531,0.78125 -0.39063,1.61133 -0.14648,0.83008 -0.14648,1.70899 0,0.63476 0.14648,1.61132 0.14649,0.92774 0.39063,2.00196 0.29297,1.07422 0.73242,2.14844 0.43945,1.02539 1.02539,1.90429 0.63477,0.83008 1.36719,1.41602 0.73242,0.53711 1.66015,0.53711 0.83008,0 1.95313,-0.48828 1.17187,-0.53711 2.19727,-1.31836 1.07421,-0.78125 1.75781,-1.75782 0.73242,-0.97656 0.73242,-1.95312 l 0.29297,-6.34766 q 0,-0.14648 0.19531,-0.29297 0.19531,-0.14648 0.39063,-0.24414 0.24414,-0.14648 0.48828,-0.24414 0.24414,-0.0976 0.34179,-0.0976 0.6836,0 0.92774,0.8789 0.24414,0.87891 0.39062,2.29492 0.14649,1.36719 0.3418,2.92969 0.19531,1.5625 0.68359,2.97852 0.53711,1.36719 1.5625,2.24609 0.97657,0.87891 2.83204,0.87891 1.80664,-0.0488 2.88085,-0.73242 1.07422,-0.73243 1.5625,-1.9043 0.48829,-1.17188 0.43946,-2.58789 0,-1.46485 -0.39063,-2.88086 -0.34179,-1.46484 -0.97656,-2.7832 -0.58594,-1.31836 -1.31836,-2.29493 -0.0977,-0.39062 0,-0.53711 0.0977,-0.19531 0.24414,-0.24414 0.19531,-0.0976 0.43945,-0.0976 0.24415,-0.0488 0.39063,-0.0488 0.78125,0.19531 1.66016,1.31836 0.92773,1.07422 1.61132,2.58789 0.6836,1.51367 1.02539,3.36914 0.39063,1.85547 0.19532,3.66211 -0.14649,1.80664 -1.02539,3.36914 -0.87891,1.5625 -2.68555,2.53906 -2.14844,0.14649 -3.51563,0.19532 -1.36718,0 -2.29492,-0.0977 -0.8789,-0.14649 -1.41601,-0.43945 -0.53711,-0.29297 -1.02539,-0.73243 -0.48828,-0.48828 -1.07422,-1.12304 -0.53711,-0.63477 -1.46485,-1.51367 z"
       style="font-style:normal;font-variant:normal;font-weight:normal;font-stretch:normal;font-size:50px;font-family:'Indie Flower';-inkscape-font-specification:'Indie Flower';text-align:center;text-anchor:middle"
       id="path4504" />
    <path
       d="m 174.12402,247.94042 q -0.39062,0 -1.36718,0 -0.97657,0 -2.05079,-0.14648 -1.02539,-0.19532 -1.90429,-0.58594 -0.83008,-0.39063 -0.83008,-1.12305 0,-0.19531 0.0488,-0.53711 0.0976,-0.39062 0.48828,-0.39062 l 5.0293,-0.43946 q 0.19531,-1.80664 0.29296,-2.92968 0.0977,-1.17188 0.0488,-2.14844 -0.0488,-1.02539 -0.14648,-2.09961 -0.0488,-1.12305 -0.0977,-2.88086 0,-0.3418 0.14649,-0.53711 0.14648,-0.19531 0.34179,-0.29297 0.24414,-0.0977 0.48828,-0.14648 0.29297,-0.0488 0.43946,-0.0488 0.29297,0 0.58594,0.19531 0.34179,0.19531 0.58593,0.48828 0.24414,0.29297 0.39063,0.63477 0.14648,0.29297 0.14648,0.58594 l 0.39063,9.13086 4.19922,0.19531 q 0.83007,-0.0977 1.51367,0.3418 0.73242,0.39062 0.78125,1.51367 -0.58594,0.63476 -1.41602,0.78125 -0.83008,0.0977 -1.75781,0.0977 -0.87891,-0.0488 -1.75781,0 -0.87891,0 -1.5625,0.43946 0,0.29297 0.0488,1.61132 0.0488,1.31836 0.0977,3.125 0.0488,1.80665 0.0977,3.85743 0.0976,2.05078 0.14648,3.80859 0.0488,1.70898 0.0488,2.92969 0.0488,1.2207 0.0488,1.36719 -1.12305,0.68359 -1.80664,-0.0977 -0.6836,-0.83008 -1.12305,-2.39258 -0.39062,-1.61133 -0.58594,-3.71094 -0.14648,-2.14843 -0.19531,-4.19922 0,-2.0996 0.0488,-3.85742 0.0488,-1.75781 0.14648,-2.53906 z"
       style="font-style:normal;font-variant:normal;font-weight:normal;font-stretch:normal;font-size:50px;font-family:'Indie Flower';-inkscape-font-specification:'Indie Flower';text-align:center;text-anchor:middle"
       id="path4506" />
    <path
       d="m 186.96582,247.84276 q 0,-0.19531 0,-0.73242 0,-0.53711 0,-1.12304 0.0488,-0.58594 0.0488,-1.12305 0,-0.53711 0,-0.73242 -0.19531,-1.51368 0.8789,-1.51368 0.48829,0 0.83008,0.24415 0.3418,0.24414 0.63477,0.73242 -0.14649,2.53906 0.19531,4.93164 0.39063,2.34375 0.83008,4.6875 0.48828,2.29492 0.87891,4.63867 0.43945,2.34375 0.43945,4.88281 0,0.6836 -0.43945,1.36719 -0.39063,0.68359 -1.22071,0.68359 -0.63476,0 -1.12304,-1.07422 -0.43946,-1.12304 -0.78125,-2.7832 -0.3418,-1.70898 -0.58594,-3.75976 -0.24414,-2.05079 -0.39063,-3.90625 -0.0977,-1.9043 -0.14648,-3.36914 -0.0488,-1.51368 -0.0488,-2.05079 z m -2.49023,-12.25586 q 0,-0.58593 0.34179,-0.73242 0.3418,-0.19531 0.87891,-0.19531 0.3418,-0.0488 0.87891,0.43945 0.58593,0.43946 0.92773,1.02539 0.39062,0.58594 0.43945,1.07422 0.0488,0.58594 -0.73242,0.6836 l -0.24414,0 q -0.73242,0 -1.2207,-0.0977 -0.48828,-0.0977 -0.78125,-0.29297 -0.24414,-0.24414 -0.39063,-0.68359 -0.0976,-0.43946 -0.0976,-1.22071 z"
       style="font-style:normal;font-variant:normal;font-weight:normal;font-stretch:normal;font-size:50px;font-family:'Indie Flower';-inkscape-font-specification:'Indie Flower';text-align:center;text-anchor:middle"
       id="path4508" />
    <path
       d="m 225.44238,263.02831 q 0,-0.14648 0,-0.39062 0.0488,-0.24414 0.0488,-0.48829 0,-0.24414 0,-0.43945 l 0.0488,-0.29297 q 0,-0.14648 0.0488,-0.83008 0.0977,-0.68359 0.19531,-1.46484 0.0977,-0.78125 0.14648,-1.46484 0.0488,-0.73242 0.0488,-0.92774 -0.0976,-1.02539 -0.43945,-2.68554 -0.3418,-1.66016 -1.07422,-3.27149 -0.68359,-1.61133 -1.75781,-2.7832 -1.07422,-1.17188 -2.53906,-1.17188 -1.31836,0 -2.78321,0.6836 -1.41601,0.63476 -2.68554,1.70898 -1.22071,1.02539 -2.00196,2.39258 -0.83008,1.31836 -0.83008,2.7832 0,0.73242 0.24414,1.46485 0.24415,0.68359 0.48829,1.36718 0.29296,0.6836 0.53711,1.41602 0.24414,0.73242 0.24414,1.51367 0,0.58594 -0.24414,1.17188 -0.19532,0.58593 -1.0254,0.58593 -0.8789,0 -1.46484,-1.02539 -0.53711,-1.02539 -1.02539,-2.58789 -0.43945,-1.61133 -0.97656,-3.41797 -0.48828,-1.80664 -1.26953,-3.36914 -0.73243,-1.61132 -1.85547,-2.63672 -1.07422,-1.02539 -2.78321,-1.02539 -1.31835,0 -2.34375,0.58594 -1.02539,0.53711 -1.70898,1.46485 -0.63477,0.92773 -1.02539,2.0996 -0.3418,1.17188 -0.3418,2.39258 0,1.95313 0.24414,3.85742 0.29297,1.85547 0.29297,3.75977 0,0.68359 -0.14648,1.26953 -0.14649,0.53711 -0.97656,0.53711 -0.53711,0 -0.92774,-0.24414 -0.3418,-0.29297 -0.58594,-0.68359 -0.24414,-0.43946 -0.39062,-0.92774 -0.14649,-0.53711 -0.24414,-0.92773 0.0976,-2.00196 0,-3.71094 -0.0488,-1.70898 -0.19531,-3.22266 -0.0977,-1.5625 -0.24415,-3.125 -0.0977,-1.5625 -0.0977,-3.32031 0,-0.0976 0,-0.3418 0,-0.24414 0,-0.48828 0.0488,-0.29297 0.0488,-0.48828 0,-0.24414 0,-0.34179 0.0488,-0.0977 0.24414,-0.24415 0.19531,-0.14648 0.24414,-0.24414 l 0.24414,0 q 0.83008,0 1.2207,0.58594 0.39063,0.48828 0.39063,1.26953 0.78125,-0.83008 1.36718,-1.26953 0.63477,-0.48828 1.17188,-0.73242 0.58594,-0.24414 1.17187,-0.29297 0.63477,-0.0488 1.51368,-0.0488 1.41601,0 2.53906,0.29297 1.17187,0.29297 2.09961,0.87891 0.92773,0.53711 1.70898,1.46484 0.78125,0.87891 1.5625,2.05078 0.0488,0 0.0977,0.0488 0.0977,0 0.14648,0 0.0488,0 0.48828,-0.43945 0.43946,-0.48828 1.17188,-1.12305 0.73242,-0.68359 1.70898,-1.46484 0.97657,-0.83008 2.05078,-1.51367 1.07422,-0.6836 2.19727,-1.12305 1.12305,-0.48828 2.19727,-0.48828 1.66015,0 2.92968,0.68359 1.31836,0.68359 2.34375,1.85547 1.02539,1.12305 1.75782,2.58789 0.73242,1.41602 1.2207,2.97852 0.48828,1.51367 0.68359,3.02734 0.24414,1.51367 0.24414,2.7832 0,0.48828 -0.0488,1.70899 0,1.17187 -0.24415,2.4414 -0.19531,1.22071 -0.68359,2.19727 -0.48828,0.92773 -1.36719,0.92773 -0.43945,0 -0.63476,-0.14648 -0.19531,-0.19531 -0.29297,-0.43945 -0.0977,-0.24414 -0.0977,-0.53711 0,-0.29297 0,-0.63477 z"
       style="font-style:normal;font-variant:normal;font-weight:normal;font-stretch:normal;font-size:50px;font-family:'Indie Flower';-inkscape-font-specification:'Indie Flower';text-align:center;text-anchor:middle"
       id="path4510" />
    <path
       d="m 231.2041,251.65136 q 0,-2.53906 0.73242,-4.83399 0.78125,-2.34375 2.19727,-4.10156 1.46484,-1.75781 3.51562,-2.7832 2.09961,-1.07422 4.83399,-1.07422 1.61133,0.19531 2.7832,0.87891 1.2207,0.68359 1.95313,1.70898 0.78125,0.97656 1.12304,2.29492 0.29297,1.26953 0.29297,2.73438 0,1.75781 -1.02539,3.17382 -1.02539,1.41602 -2.58789,2.39258 -1.5625,0.92774 -3.36914,1.46485 -1.80664,0.48828 -3.36914,0.48828 -0.58594,0 -1.2207,0 -0.58594,0 -1.07422,-0.19531 -0.48828,-0.19532 -0.78125,-0.58594 -0.29297,-0.39063 -0.29297,-1.17188 0,-0.24414 0.0488,-0.39062 0.0977,-0.19531 0.43945,-0.24414 0.3418,-0.0977 1.02539,-0.0488 0.68359,0.0977 1.85547,0.29297 0.68359,0 1.95312,-0.43946 1.31836,-0.48828 2.63672,-1.2207 1.36719,-0.73242 2.34375,-1.66015 0.97657,-0.97657 0.97657,-1.9043 0,-0.97656 -0.3418,-1.9043 -0.29297,-0.97656 -0.92774,-1.70898 -0.63476,-0.73242 -1.51367,-1.17188 -0.83008,-0.43945 -1.90429,-0.34179 -1.70899,0.14648 -3.125,0.92773 -1.36719,0.78125 -2.34375,2.05078 -0.97657,1.2207 -1.51368,2.73438 -0.53711,1.51367 -0.53711,3.17382 0,1.26954 0.0488,2.53907 0.0488,1.26953 0.3418,2.49023 0.3418,1.2207 1.02539,2.34375 0.73242,1.12305 2.05078,2.00195 1.36719,0.83008 3.41797,1.41602 2.05078,0.53711 5.07813,0.68359 l 8.74023,-0.58593 q -0.78125,1.07421 -2.00195,1.75781 -1.17188,0.68359 -2.53907,1.12305 -1.31836,0.39062 -2.63671,0.58593 -1.31836,0.19532 -2.49024,0.19532 -2.83203,0 -5.32226,-0.92774 -2.49024,-0.92773 -4.39454,-2.58789 -1.90429,-1.70898 -3.02734,-4.10156 -1.07422,-2.44141 -1.07422,-5.46875 z"
       style="font-style:normal;font-variant:normal;font-weight:normal;font-stretch:normal;font-size:50px;font-family:'Indie Flower';-inkscape-font-specification:'Indie Flower';text-align:center;text-anchor:middle"
       id="path4512" />
    <path
       d="m 256.8877,258.82909 q 0.39062,-0.29297 0.68359,-0.34179 0.3418,-0.0977 0.73242,-0.0977 0.43945,0 0.87891,0.24414 0.43945,0.19531 0.78125,0.53711 0.39062,0.29297 0.78125,0.58594 0.39062,0.29297 0.83008,0.48828 1.26953,0.53711 2.00195,0.8789 0.78125,0.3418 1.41601,0.53711 0.63477,0.19532 1.46485,0.24414 0.83008,0.0488 2.14844,0.0488 1.02539,0 2.49023,0.0488 1.46484,0 2.7832,-0.24414 1.31836,-0.29297 2.2461,-0.97656 0.92773,-0.73242 0.92773,-2.19727 0.0488,-1.41601 -0.78125,-2.19726 -0.78125,-0.83008 -2.14844,-1.26954 -1.36718,-0.43945 -3.07617,-0.58593 -1.70898,-0.19532 -3.51562,-0.39063 -1.80664,-0.19531 -3.56446,-0.53711 -1.70898,-0.39062 -3.07617,-1.17187 -1.36719,-0.78125 -2.19726,-2.14844 -0.83008,-1.36719 -0.87891,-3.51562 0.29297,-1.5625 1.51367,-2.5879 1.26953,-1.07421 2.97852,-1.61132 1.75781,-0.58594 3.71093,-0.58594 1.95313,-0.0488 3.56446,0.48828 1.66015,0.48828 2.73437,1.61133 1.12305,1.12305 1.17188,2.7832 0.0976,0.97656 -0.14649,1.61133 -0.24414,0.63477 -0.68359,0.97656 -0.39063,0.29297 -0.83008,0.29297 -0.43945,-0.0488 -0.68359,-0.3418 -0.24414,-0.34179 -0.24414,-0.92773 0.0488,-0.63477 0.58593,-1.5625 -0.19531,-0.92773 -1.12304,-1.46484 -0.92774,-0.53711 -2.14844,-0.73243 -1.2207,-0.24414 -2.63672,-0.0976 -1.36719,0.0976 -2.53906,0.48828 -1.12305,0.39062 -1.85547,1.02539 -0.68359,0.63477 -0.58594,1.46484 0,1.46485 0.83008,2.29493 0.87891,0.78125 2.24609,1.2207 1.36719,0.43945 3.125,0.63476 1.80665,0.19532 3.66211,0.39063 1.9043,0.14648 3.66211,0.48828 1.75782,0.29297 3.17383,1.02539 1.41602,0.73242 2.2461,2.00195 0.83007,1.22071 0.83007,3.22266 0,1.51367 -0.78125,2.63672 -0.78125,1.07422 -2.00195,1.80664 -1.17187,0.73242 -2.58789,1.07422 -1.41602,0.3418 -2.68555,0.3418 -1.26953,0 -2.73437,0 -1.41602,-0.0488 -2.92969,-0.19532 -1.46484,-0.14648 -2.97852,-0.43945 -1.51367,-0.3418 -2.83203,-0.97656 -1.26953,-0.6836 -2.29492,-1.70899 -1.02539,-1.02539 -1.66015,-2.58789 z"
       style="font-style:normal;font-variant:normal;font-weight:normal;font-stretch:normal;font-size:50px;font-family:'Indie Flower';-inkscape-font-specification:'Indie Flower';text-align:center;text-anchor:middle"
       id="path4514" />
    <path
       d="m 284.03613,260.0498 q 0,-0.39063 0.29297,-1.17188 0.3418,-0.78125 0.78125,-1.5625 0.43945,-0.83008 0.87891,-1.41602 0.48828,-0.58593 0.83008,-0.58593 0.97656,0 1.70898,0.53711 0.73242,0.48828 1.17188,1.26953 0.48828,0.78125 0.73242,1.70898 0.24414,0.92774 0.24414,1.70899 0,0.58593 -0.3418,1.31836 -0.3418,0.73242 -0.87891,1.36718 -0.48828,0.63477 -1.12304,1.07422 -0.63477,0.43946 -1.26953,0.43946 -0.73243,0 -1.26953,-0.48829 -0.53711,-0.53711 -0.97657,-1.26953 -0.39062,-0.78125 -0.58593,-1.5625 -0.19532,-0.83008 -0.19532,-1.36718 z"
       style="font-style:normal;font-variant:normal;font-weight:normal;font-stretch:normal;font-size:50px;font-family:'Indie Flower';-inkscape-font-specification:'Indie Flower';text-align:center;text-anchor:middle"
       id="path4516" />
  </g>
</svg>
