<?xml version="1.0" encoding="UTF-8" standalone="no"?>
<svg
   xmlns:dc="http://purl.org/dc/elements/1.1/"
   xmlns:cc="http://creativecommons.org/ns#"
   xmlns:rdf="http://www.w3.org/1999/02/22-rdf-syntax-ns#"
   xmlns:svg="http://www.w3.org/2000/svg"
   xmlns="http://www.w3.org/2000/svg"
   xmlns:sodipodi="http://sodipodi.sourceforge.net/DTD/sodipodi-0.dtd"
   xmlns:inkscape="http://www.inkscape.org/namespaces/inkscape"
   width="476.0578"
   height="363.5033"
   version="1.1"
   id="svg2"
   inkscape:version="0.91 r13725"
   sodipodi:docname="Instructions 7.svg">
  <metadata
     id="metadata48">
    <rdf:RDF>
      <cc:Work
         rdf:about="">
        <dc:format>image/svg+xml</dc:format>
        <dc:type
           rdf:resource="http://purl.org/dc/dcmitype/StillImage" />
        <dc:title>5 by 3 sigma maze</dc:title>
      </cc:Work>
    </rdf:RDF>
  </metadata>
  <defs
     id="defs46" />
  <sodipodi:namedview
     pagecolor="#ffffff"
     bordercolor="#666666"
     borderopacity="1"
     objecttolerance="10"
     gridtolerance="10"
     guidetolerance="10"
     inkscape:pageopacity="0"
     inkscape:pageshadow="2"
     inkscape:window-width="1680"
     inkscape:window-height="962"
     id="namedview44"
     showgrid="false"
     showguides="false"
     fit-margin-top="0"
     fit-margin-left="0"
     fit-margin-right="0"
     fit-margin-bottom="0"
     inkscape:zoom="0.87055056"
     inkscape:cx="451.67446"
     inkscape:cy="103.77754"
     inkscape:window-x="0"
     inkscape:window-y="0"
     inkscape:window-maximized="1"
     inkscape:current-layer="svg2" />
  <title
     id="title4">5 by 3 sigma maze</title>
  <desc
     id="desc6">5 by 3 sigma maze generated by The Maze Generator Website (http://www.mazegenerator.net/).</desc>
  <path
     style="opacity:1;fill:#ffffff;fill-opacity:1;fill-rule:nonzero;stroke:none;stroke-width:1.80442083;stroke-linejoin:miter;stroke-miterlimit:4;stroke-dasharray:none;stroke-opacity:1"
     d="m -0.94815063,-0.36483765 477.95410063,0 0,364.23296765 -477.95410063,0 z"
     id="rect3543" />
  <flowRoot
     xml:space="preserve"
     id="flowRoot4210"
     style="fill:black;stroke:none;stroke-opacity:1;stroke-width:1px;stroke-linejoin:miter;stroke-linecap:butt;fill-opacity:1;font-family:Sans;font-style:normal;font-weight:normal;font-size:40px;line-height:125%;letter-spacing:0px;word-spacing:0px"><flowRegion
       id="flowRegion4212"><rect
         id="rect4214"
         width="516.91425"
         height="328.52774"
         x="-19.527872"
         y="8.5555029" /></flowRegion><flowPara
       id="flowPara4216" /></flowRoot>  <g
     transform="translate(-599.90075,-17.862262)"
     style="font-style:normal;font-weight:normal;font-size:40px;line-height:125%;font-family:Sans;text-align:center;letter-spacing:0px;word-spacing:0px;text-anchor:middle;fill:#000000;fill-opacity:1;stroke:none;stroke-width:1px;stroke-linecap:butt;stroke-linejoin:miter;stroke-opacity:1"
     id="flowRoot4230">
    <path
       d="m 730.8859,121.99391 q -1.5,0.72 -3.12,1.44 -1.56,0.66 -3.36,1.2 -1.8,0.48 -3.96,0.78 -2.1,0.3 -4.62,0.3 -8.04,0 -12.42,-3.6 -4.32,-3.6 -4.32,-12 0,-4.86 1.5,-9.12 1.5,-4.32 4.44,-7.5 2.94,-3.24 7.26,-5.1 4.32,-1.86 9.9,-1.86 2.64,0 4.8,0.36 2.22,0.36 3.96,0.96 1.8,0.54 3.18,1.2 1.44,0.66 2.58,1.26 l -2.16,11.16 -10.8,0 q 0.06,-0.6 0.12,-1.56 0.12,-0.96 0.18,-1.92 0.06,-1.02 0.12,-1.98 0.06,-0.96 0.06,-1.62 0,-0.48 -0.06,-1.08 -0.06,-0.66 -0.3,-1.26 -0.24,-0.6 -0.78,-0.96 -0.48,-0.42 -1.32,-0.42 -1.56,0 -2.88,1.32 -1.26,1.26 -2.28,3.42 -1.02,2.1 -1.8,4.8 -0.78,2.7 -1.32,5.52 -0.48,2.76 -0.78,5.46 -0.24,2.7 -0.24,4.74 0,0.6 0.06,1.5 0.06,0.9 0.36,1.74 0.3,0.84 0.9,1.44 0.66,0.6 1.74,0.6 1.86,0 3.6,-2.28 1.74,-2.34 3.06,-8.28 l 11.1,0 -2.4,11.34 z"
       style="font-style:normal;font-variant:normal;font-weight:normal;font-stretch:normal;font-size:60px;font-family:'Racing Sans One';-inkscape-font-specification:'Racing Sans One'"
       id="path4269" />
    <path
       d="m 751.68621,103.27391 0.42,0 q 1.14,-1.14 2.64,-2.1 1.26,-0.84 3,-1.5 1.74,-0.66 3.9,-0.66 3.12,0 5.16,1.62 2.04,1.56 2.04,4.32 0,0.84 -0.18,1.92 -0.18,1.02 -0.42,2.22 -0.24,1.14 -0.54,2.34 -0.24,1.14 -0.42,2.1 l -2.52,11.7 -12.18,0 3.3,-15.66 q 0.12,-0.78 0.3,-1.56 0.18,-0.84 0.18,-1.5 0,-0.9 -0.48,-1.44 -0.42,-0.6 -1.32,-0.6 -1.08,0 -2.1,0.78 -0.96,0.78 -1.5,1.38 l -3.96,18.6 -12.24,0 8.52,-40.32 12.3,0 -3.9,18.36 z"
       style="font-style:normal;font-variant:normal;font-weight:normal;font-stretch:normal;font-size:60px;font-family:'Racing Sans One';-inkscape-font-specification:'Racing Sans One'"
       id="path4271" />
    <path
       d="m 783.60246,113.17391 q -0.24,1.32 -0.36,2.52 -0.06,1.2 -0.06,2.16 0,0.54 0.06,1.2 0.06,0.66 0.24,1.26 0.24,0.54 0.6,0.96 0.42,0.36 1.14,0.36 0.54,0 1.2,-0.36 0.72,-0.36 1.38,-1.02 0.72,-0.66 1.32,-1.62 0.66,-0.96 1.02,-2.16 l 9.84,0 -1.56,6.42 q -1.2,0.78 -2.76,1.32 -1.56,0.54 -3.3,0.9 -1.74,0.3 -3.54,0.42 -1.8,0.18 -3.42,0.18 -3,0 -5.58,-0.54 -2.58,-0.54 -4.5,-1.86 -1.92,-1.32 -3.06,-3.48 -1.08,-2.22 -1.08,-5.46 0,-2.94 0.9,-5.76 0.96,-2.82 3.12,-4.98 2.22,-2.22 5.88,-3.54 3.72,-1.32 9.24,-1.32 6,0 9,1.86 3.06,1.86 3.06,5.82 0,1.62 -0.48,3.54 -0.48,1.86 -1.44,3.18 l -16.86,0 z m 7.98,-7.14 q 0,-1.86 -0.6,-2.52 -0.6,-0.66 -1.44,-0.66 -0.96,0 -1.8,0.66 -0.78,0.6 -1.44,1.68 -0.66,1.02 -1.2,2.4 -0.54,1.32 -0.9,2.82 l 6.84,0 q 0.12,-0.72 0.24,-1.5 0.12,-0.66 0.18,-1.44 0.12,-0.78 0.12,-1.44 z"
       style="font-style:normal;font-variant:normal;font-weight:normal;font-stretch:normal;font-size:60px;font-family:'Racing Sans One';-inkscape-font-specification:'Racing Sans One'"
       id="path4273" />
    <path
       d="m 829.97496,123.79391 q -2.52,1.02 -5.34,1.44 -2.76,0.48 -6.3,0.48 -3.12,0 -5.76,-0.6 -2.58,-0.66 -4.5,-2.04 -1.92,-1.38 -3,-3.54 -1.08,-2.22 -1.08,-5.34 0,-3.24 1.08,-6 1.14,-2.82 3.36,-4.92 2.28,-2.1 5.76,-3.3 3.48,-1.2 8.28,-1.2 3.9,0 6.78,0.66 2.88,0.6 4.74,2.82 l -1.68,7.68 -8.16,0 q 0.06,-1.02 0.12,-1.8 0.06,-0.78 0.06,-1.74 0,-1.92 -0.42,-2.7 -0.42,-0.84 -1.38,-0.84 -1.68,0 -2.94,1.68 -1.26,1.62 -2.1,3.96 -0.78,2.28 -1.2,4.86 -0.36,2.52 -0.36,4.32 0,0.66 0.06,1.38 0.06,0.66 0.24,1.26 0.24,0.6 0.6,0.96 0.36,0.36 1.02,0.36 0.6,0 1.38,-0.36 0.78,-0.36 1.5,-1.08 0.72,-0.78 1.38,-1.98 0.66,-1.2 1.02,-2.88 l 8.58,0 -1.74,8.46 z"
       style="font-style:normal;font-variant:normal;font-weight:normal;font-stretch:normal;font-size:60px;font-family:'Racing Sans One';-inkscape-font-specification:'Racing Sans One'"
       id="path4275" />
    <path
       d="m 849.44402,110.35391 13.98,-10.92 7.92,0 -11.94,9.78 8.94,16.02 -13.44,0 -6.12,-12.06 -2.52,12.06 -12.24,0 8.52,-40.32 12.3,0 -5.4,25.44 z"
       style="font-style:normal;font-variant:normal;font-weight:normal;font-stretch:normal;font-size:60px;font-family:'Racing Sans One';-inkscape-font-specification:'Racing Sans One'"
       id="path4277" />
    <path
       d="m 900.28184,98.77391 q 7.14,0 10.38,2.52 3.42,2.64 3.42,8.76 0,3.78 -1.26,6.84 -1.26,3 -3.54,4.98 -4.56,3.84 -13.2,3.84 -7.38,0 -10.56,-2.82 -3.42,-2.94 -3.42,-8.82 0,-3.9 1.56,-7.08 1.62,-3.18 4.62,-5.28 4.38,-2.94 12,-2.94 z m -4.08,22.86 q 1.5,0 2.58,-1.68 1.14,-1.68 1.8,-4.08 0.66,-2.46 0.96,-5.04 0.36,-2.64 0.36,-4.56 0,-1.68 -0.36,-2.52 -0.3,-0.9 -1.38,-0.9 -1.62,0 -2.82,1.74 -1.14,1.74 -1.86,4.14 -0.72,2.4 -1.08,4.92 -0.3,2.52 -0.3,4.08 0,3.9 2.1,3.9 z"
       style="font-style:normal;font-variant:normal;font-weight:normal;font-stretch:normal;font-size:60px;font-family:'Racing Sans One';-inkscape-font-specification:'Racing Sans One'"
       id="path4279" />
    <path
       d="m 938.21496,99.43391 12.24,0 -5.52,25.8 -9.72,0 -1.08,-3.84 -0.36,0 q -1.56,1.86 -4.26,3.12 -2.64,1.2 -5.34,1.2 -3.6,0 -5.64,-1.8 -2.04,-1.86 -2.04,-4.8 0,-1.5 0.48,-3.72 0.54,-2.28 0.96,-4.26 l 2.52,-11.7 12.18,0 -3,14.04 q -0.12,0.48 -0.24,1.14 -0.12,0.66 -0.24,1.32 -0.12,0.6 -0.24,1.2 -0.06,0.54 -0.06,0.9 0,0.9 0.36,1.56 0.42,0.6 1.44,0.6 1.08,0 2.04,-0.72 0.96,-0.72 1.5,-1.38 l 4.02,-18.66 z"
       style="font-style:normal;font-variant:normal;font-weight:normal;font-stretch:normal;font-size:60px;font-family:'Racing Sans One';-inkscape-font-specification:'Racing Sans One'"
       id="path4281" />
    <path
       d="m 953.63402,99.43391 q 2.22,-0.48 3.9,-1.08 1.68,-0.6 3.06,-1.5 1.44,-0.9 2.7,-2.22 1.32,-1.32 2.82,-3.24 l 6.18,0 -1.74,8.04 4.68,0 -0.78,4.02 -4.74,0 -2.46,11.7 q -0.3,1.38 -0.48,2.46 -0.18,1.08 -0.18,1.68 0,1.2 0.84,1.5 0.9,0.3 3.3,0.3 l -0.9,4.14 q -0.42,0.12 -1.32,0.18 -0.84,0.06 -1.92,0.12 -1.02,0.12 -2.16,0.12 -1.08,0.06 -1.92,0.06 -1.5,0 -2.94,-0.24 -1.44,-0.18 -2.58,-0.78 -1.14,-0.66 -1.86,-1.86 -0.66,-1.2 -0.66,-3.24 0,-0.72 0.06,-1.8 0.12,-1.08 0.42,-2.4 l 2.52,-11.94 -4.68,0 0.84,-4.02 z"
       style="font-style:normal;font-variant:normal;font-weight:normal;font-stretch:normal;font-size:60px;font-family:'Racing Sans One';-inkscape-font-specification:'Racing Sans One'"
       id="path4283" />
    <path
       d="m 684.45434,174.43391 q 2.22,-0.48 3.9,-1.08 1.68,-0.6 3.06,-1.5 1.44,-0.9 2.7,-2.22 1.32,-1.32 2.82,-3.24 l 6.18,0 -1.74,8.04 4.68,0 -0.78,4.02 -4.74,0 -2.46,11.7 q -0.3,1.38 -0.48,2.46 -0.18,1.08 -0.18,1.68 0,1.2 0.84,1.5 0.9,0.3 3.3,0.3 l -0.9,4.14 q -0.42,0.12 -1.32,0.18 -0.84,0.06 -1.92,0.12 -1.02,0.12 -2.16,0.12 -1.08,0.06 -1.92,0.06 -1.5,0 -2.94,-0.24 -1.44,-0.18 -2.58,-0.78 -1.14,-0.66 -1.86,-1.86 -0.66,-1.2 -0.66,-3.24 0,-0.72 0.06,-1.8 0.12,-1.08 0.42,-2.4 l 2.52,-11.94 -4.68,0 0.84,-4.02 z"
       style="font-style:normal;font-variant:normal;font-weight:normal;font-stretch:normal;font-size:60px;font-family:'Racing Sans One';-inkscape-font-specification:'Racing Sans One'"
       id="path4285" />
    <path
       d="m 721.45184,178.27391 0.42,0 q 1.14,-1.14 2.64,-2.1 1.26,-0.84 3,-1.5 1.74,-0.66 3.9,-0.66 3.12,0 5.16,1.62 2.04,1.56 2.04,4.32 0,0.84 -0.18,1.92 -0.18,1.02 -0.42,2.22 -0.24,1.14 -0.54,2.34 -0.24,1.14 -0.42,2.1 l -2.52,11.7 -12.18,0 3.3,-15.66 q 0.12,-0.78 0.3,-1.56 0.18,-0.84 0.18,-1.5 0,-0.9 -0.48,-1.44 -0.42,-0.6 -1.32,-0.6 -1.08,0 -2.1,0.78 -0.96,0.78 -1.5,1.38 l -3.96,18.6 -12.24,0 8.52,-40.32 12.3,0 -3.9,18.36 z"
       style="font-style:normal;font-variant:normal;font-weight:normal;font-stretch:normal;font-size:60px;font-family:'Racing Sans One';-inkscape-font-specification:'Racing Sans One'"
       id="path4287" />
    <path
       d="m 744.60809,176.65391 q 3.06,-1.5 6.24,-2.16 3.24,-0.72 7.2,-0.72 3.84,0 6.36,0.6 2.52,0.6 4.02,1.74 1.5,1.14 2.1,2.7 0.6,1.56 0.6,3.54 0,1.14 -0.18,2.46 -0.12,1.32 -0.3,2.22 l -2.82,13.2 -9.66,0 -1.08,-3.84 -0.36,0 q -1.92,2.1 -4.5,3.24 -2.52,1.08 -5.04,1.08 -1.44,0 -2.82,-0.42 -1.38,-0.42 -2.46,-1.26 -1.08,-0.9 -1.74,-2.22 -0.66,-1.38 -0.66,-3.3 0,-3.12 1.68,-4.92 1.74,-1.86 4.5,-2.76 2.82,-0.96 6.3,-1.2 3.54,-0.24 7.08,-0.24 0.12,-0.6 0.3,-1.68 0.18,-1.14 0.18,-1.98 0,-1.08 -0.6,-1.98 -0.54,-0.96 -2.34,-0.96 -2.1,0 -3.12,1.26 -0.96,1.2 -1.26,2.94 l -8.76,0 1.14,-5.34 z m 13.8,10.56 -1.08,0 q -1.74,0 -3,0.48 -1.2,0.42 -1.98,1.14 -0.72,0.72 -1.08,1.62 -0.36,0.9 -0.36,1.8 0,1.44 0.72,2.16 0.78,0.72 1.8,0.72 1.26,0 2.46,-0.9 1.26,-0.9 1.56,-2.4 l 0.96,-4.62 z"
       style="font-style:normal;font-variant:normal;font-weight:normal;font-stretch:normal;font-size:60px;font-family:'Racing Sans One';-inkscape-font-specification:'Racing Sans One'"
       id="path4289" />
    <path
       d="m 775.15746,174.43391 q 2.22,-0.48 3.9,-1.08 1.68,-0.6 3.06,-1.5 1.44,-0.9 2.7,-2.22 1.32,-1.32 2.82,-3.24 l 6.18,0 -1.74,8.04 4.68,0 -0.78,4.02 -4.74,0 -2.46,11.7 q -0.3,1.38 -0.48,2.46 -0.18,1.08 -0.18,1.68 0,1.2 0.84,1.5 0.9,0.3 3.3,0.3 l -0.9,4.14 q -0.42,0.12 -1.32,0.18 -0.84,0.06 -1.92,0.12 -1.02,0.12 -2.16,0.12 -1.08,0.06 -1.92,0.06 -1.5,0 -2.94,-0.24 -1.44,-0.18 -2.58,-0.78 -1.14,-0.66 -1.86,-1.86 -0.66,-1.2 -0.66,-3.24 0,-0.72 0.06,-1.8 0.12,-1.08 0.42,-2.4 l 2.52,-11.94 -4.68,0 0.84,-4.02 z"
       style="font-style:normal;font-variant:normal;font-weight:normal;font-stretch:normal;font-size:60px;font-family:'Racing Sans One';-inkscape-font-specification:'Racing Sans One'"
       id="path4291" />
    <path
       d="m 825.73934,181.99391 q 0.06,-0.3 0.12,-0.6 0.06,-0.3 0.06,-0.66 0,-1.08 -0.42,-1.98 -0.36,-0.96 -1.5,-0.96 -1.02,0 -2.04,0.9 -1.02,0.84 -1.02,2.28 0,0.96 0.48,1.56 0.54,0.54 1.38,0.9 0.84,0.36 1.86,0.6 1.08,0.24 2.1,0.48 1.44,0.36 2.7,0.9 1.32,0.48 2.34,1.32 1.02,0.84 1.62,2.1 0.6,1.2 0.6,3 0,2.52 -1.2,4.26 -1.14,1.68 -3.24,2.76 -2.04,1.02 -4.86,1.44 -2.76,0.42 -5.94,0.42 -4.86,0 -8.04,-0.72 -3.18,-0.72 -4.44,-1.38 l 1.26,-6 8.1,0 q -0.06,0.3 -0.06,0.6 0,0.24 0,0.54 0,1.38 0.6,2.22 0.66,0.78 2.22,0.78 1.74,0 2.46,-0.96 0.78,-1.02 0.78,-1.86 0,-0.84 -0.66,-1.44 -0.6,-0.66 -1.56,-1.08 -0.96,-0.48 -2.16,-0.78 -1.14,-0.36 -2.22,-0.66 -0.78,-0.18 -1.8,-0.6 -0.96,-0.42 -1.86,-1.2 -0.9,-0.78 -1.5,-1.98 -0.6,-1.26 -0.6,-3.12 0,-2.64 1.26,-4.38 1.32,-1.8 3.36,-2.88 2.1,-1.08 4.68,-1.56 2.64,-0.48 5.28,-0.48 3.3,0 6.24,0.6 2.94,0.6 4.8,1.56 l -1.38,6.06 -7.8,0 z"
       style="font-style:normal;font-variant:normal;font-weight:normal;font-stretch:normal;font-size:60px;font-family:'Racing Sans One';-inkscape-font-specification:'Racing Sans One'"
       id="path4293" />
    <path
       d="m 846.09621,210.31391 -12.24,0 7.56,-35.88 9.78,0 1.08,3.84 0.36,0 q 2.16,-2.28 4.8,-3.24 2.7,-1.02 5.28,-1.02 2.1,0 3.48,0.66 1.44,0.6 2.28,1.68 0.84,1.08 1.2,2.58 0.36,1.5 0.36,3.18 0,0.84 -0.12,2.52 -0.12,1.68 -0.54,3.78 -0.42,2.04 -1.2,4.26 -0.78,2.16 -2.1,3.96 -1.26,1.8 -3.24,2.94 -1.92,1.14 -4.62,1.14 -1.5,0 -2.94,-0.36 -1.38,-0.36 -2.52,-0.96 -1.14,-0.6 -2.04,-1.38 -0.84,-0.84 -1.26,-1.68 l -0.36,0 -3,13.98 z m 6.36,-15.42 q 1.44,0 2.4,-1.5 0.96,-1.56 1.56,-3.6 0.6,-2.1 0.84,-4.14 0.3,-2.1 0.3,-3.12 0,-1.2 -0.42,-1.98 -0.36,-0.78 -1.38,-0.78 -1.14,0 -2.16,0.84 -1.02,0.78 -1.5,1.38 l -2.34,10.98 q 0.48,0.66 1.14,1.32 0.66,0.6 1.56,0.6 z"
       style="font-style:normal;font-variant:normal;font-weight:normal;font-stretch:normal;font-size:60px;font-family:'Racing Sans One';-inkscape-font-specification:'Racing Sans One'"
       id="path4295" />
    <path
       d="m 884.85246,188.17391 q -0.24,1.32 -0.36,2.52 -0.06,1.2 -0.06,2.16 0,0.54 0.06,1.2 0.06,0.66 0.24,1.26 0.24,0.54 0.6,0.96 0.42,0.36 1.14,0.36 0.54,0 1.2,-0.36 0.72,-0.36 1.38,-1.02 0.72,-0.66 1.32,-1.62 0.66,-0.96 1.02,-2.16 l 9.84,0 -1.56,6.42 q -1.2,0.78 -2.76,1.32 -1.56,0.54 -3.3,0.9 -1.74,0.3 -3.54,0.42 -1.8,0.18 -3.42,0.18 -3,0 -5.58,-0.54 -2.58,-0.54 -4.5,-1.86 -1.92,-1.32 -3.06,-3.48 -1.08,-2.22 -1.08,-5.46 0,-2.94 0.9,-5.76 0.96,-2.82 3.12,-4.98 2.22,-2.22 5.88,-3.54 3.72,-1.32 9.24,-1.32 6,0 9,1.86 3.06,1.86 3.06,5.82 0,1.62 -0.48,3.54 -0.48,1.86 -1.44,3.18 l -16.86,0 z m 7.98,-7.14 q 0,-1.86 -0.6,-2.52 -0.6,-0.66 -1.44,-0.66 -0.96,0 -1.8,0.66 -0.78,0.6 -1.44,1.68 -0.66,1.02 -1.2,2.4 -0.54,1.32 -0.9,2.82 l 6.84,0 q 0.12,-0.72 0.24,-1.5 0.12,-0.66 0.18,-1.44 0.12,-0.78 0.12,-1.44 z"
       style="font-style:normal;font-variant:normal;font-weight:normal;font-stretch:normal;font-size:60px;font-family:'Racing Sans One';-inkscape-font-specification:'Racing Sans One'"
       id="path4297" />
    <path
       d="m 917.66496,188.17391 q -0.24,1.32 -0.36,2.52 -0.06,1.2 -0.06,2.16 0,0.54 0.06,1.2 0.06,0.66 0.24,1.26 0.24,0.54 0.6,0.96 0.42,0.36 1.14,0.36 0.54,0 1.2,-0.36 0.72,-0.36 1.38,-1.02 0.72,-0.66 1.32,-1.62 0.66,-0.96 1.02,-2.16 l 9.84,0 -1.56,6.42 q -1.2,0.78 -2.76,1.32 -1.56,0.54 -3.3,0.9 -1.74,0.3 -3.54,0.42 -1.8,0.18 -3.42,0.18 -3,0 -5.58,-0.54 -2.58,-0.54 -4.5,-1.86 -1.92,-1.32 -3.06,-3.48 -1.08,-2.22 -1.08,-5.46 0,-2.94 0.9,-5.76 0.96,-2.82 3.12,-4.98 2.22,-2.22 5.88,-3.54 3.72,-1.32 9.24,-1.32 6,0 9,1.86 3.06,1.86 3.06,5.82 0,1.62 -0.48,3.54 -0.48,1.86 -1.44,3.18 l -16.86,0 z m 7.98,-7.14 q 0,-1.86 -0.6,-2.52 -0.6,-0.66 -1.44,-0.66 -0.96,0 -1.8,0.66 -0.78,0.6 -1.44,1.68 -0.66,1.02 -1.2,2.4 -0.54,1.32 -0.9,2.82 l 6.84,0 q 0.12,-0.72 0.24,-1.5 0.12,-0.66 0.18,-1.44 0.12,-0.78 0.12,-1.44 z"
       style="font-style:normal;font-variant:normal;font-weight:normal;font-stretch:normal;font-size:60px;font-family:'Racing Sans One';-inkscape-font-specification:'Racing Sans One'"
       id="path4299" />
    <path
       d="m 962.35746,159.91391 12.3,0 -8.58,40.32 -9.72,0 -1.08,-3.84 -0.42,0 q -0.36,0.54 -1.14,1.32 -0.72,0.72 -1.86,1.44 -1.14,0.66 -2.7,1.08 -1.56,0.48 -3.6,0.48 -2.1,0 -3.6,-0.6 -1.44,-0.66 -2.4,-1.74 -0.9,-1.08 -1.32,-2.58 -0.42,-1.56 -0.42,-3.36 0,-0.78 0.12,-2.46 0.12,-1.74 0.54,-3.78 0.48,-2.1 1.32,-4.26 0.9,-2.22 2.34,-4.02 1.5,-1.8 3.66,-2.94 2.16,-1.2 5.22,-1.2 0.96,0 2.04,0.18 1.08,0.18 2.04,0.66 1.02,0.48 1.8,1.38 0.78,0.9 1.14,2.34 l 0.42,0 3.9,-18.42 z m -7.32,19.74 q -1.44,0 -2.4,1.62 -0.96,1.56 -1.56,3.66 -0.6,2.1 -0.9,4.2 -0.24,2.1 -0.24,3.12 0,1.2 0.36,2.04 0.36,0.78 1.38,0.78 0.6,0 1.14,-0.24 0.6,-0.3 1.08,-0.66 0.54,-0.42 0.9,-0.84 0.36,-0.42 0.6,-0.72 l 2.34,-10.92 q -0.42,-0.66 -1.14,-1.32 -0.66,-0.72 -1.56,-0.72 z"
       style="font-style:normal;font-variant:normal;font-weight:normal;font-stretch:normal;font-size:60px;font-family:'Racing Sans One';-inkscape-font-specification:'Racing Sans One'"
       id="path4301" />
    <path
       d="m 980.00496,159.91391 12.24,0 -7.68,28.26 -8.52,0 3.96,-28.26 z m -6.66,36.42 q 0,-1.26 0.54,-2.22 0.54,-1.02 1.38,-1.68 0.9,-0.66 1.98,-0.96 1.14,-0.36 2.34,-0.36 2.22,0 3.72,1.08 1.56,1.08 1.56,3.3 0,1.26 -0.54,2.28 -0.48,0.96 -1.38,1.62 -0.84,0.66 -1.98,0.96 -1.08,0.36 -2.34,0.36 -2.22,0 -3.78,-1.08 -1.5,-1.08 -1.5,-3.3 z"
       style="font-style:normal;font-variant:normal;font-weight:normal;font-stretch:normal;font-size:60px;font-family:'Racing Sans One';-inkscape-font-specification:'Racing Sans One'"
       id="path4303" />
  </g>
  <g
     id="g4248"
     transform="translate(25.501225,50)">
    <g
       style="font-style:normal;font-weight:normal;font-size:40px;line-height:125%;font-family:Sans;letter-spacing:0px;word-spacing:0px;fill:#000000;fill-opacity:1;stroke:none;stroke-width:1px;stroke-linecap:butt;stroke-linejoin:miter;stroke-opacity:1"
       id="text4244">
      <path
         d="m 215.59961,184.78205 q 0.04,-0.2 0.08,-0.4 0.04,-0.2 0.04,-0.44 0,-0.72 -0.28,-1.32 -0.24,-0.64 -1,-0.64 -0.68,0 -1.36,0.6 -0.68,0.56 -0.68,1.52 0,0.64 0.32,1.04 0.36,0.36 0.92,0.6 0.56,0.24 1.24,0.4 0.72,0.16 1.4,0.32 0.96,0.24 1.8,0.6 0.88,0.32 1.56,0.88 0.68,0.56 1.08,1.4 0.4,0.8 0.4,2 0,1.68 -0.8,2.84 -0.76,1.12 -2.16,1.84 -1.36,0.68 -3.24,0.96 -1.84,0.28 -3.96,0.28 -3.24,0 -5.36,-0.48 -2.12,-0.48 -2.96,-0.92 l 0.84,-4 5.4,0 q -0.04,0.2 -0.04,0.4 0,0.16 0,0.36 0,0.92 0.4,1.48 0.44,0.52 1.48,0.52 1.16,0 1.64,-0.64 0.52,-0.68 0.52,-1.24 0,-0.56 -0.44,-0.96 -0.4,-0.44 -1.04,-0.72 -0.64,-0.32 -1.44,-0.52 -0.76,-0.24 -1.48,-0.44 -0.52,-0.12 -1.2,-0.4 -0.64,-0.28 -1.24,-0.8 -0.6,-0.52 -1,-1.32 -0.4,-0.84 -0.4,-2.08 0,-1.76 0.84,-2.92 0.88,-1.2 2.24,-1.92 1.4,-0.72 3.12,-1.04 1.76,-0.32 3.52,-0.32 2.2,0 4.16,0.4 1.96,0.4 3.2,1.04 l -0.92,4.04 -5.2,0 z"
         style="font-style:normal;font-variant:normal;font-weight:normal;font-stretch:normal;font-family:'Racing Sans One';-inkscape-font-specification:'Racing Sans One'"
         id="path4254" />
      <path
         d="m 231.41461,188.90205 q -0.16,0.88 -0.24,1.68 -0.04,0.8 -0.04,1.44 0,0.36 0.04,0.8 0.04,0.44 0.16,0.84 0.16,0.36 0.4,0.64 0.28,0.24 0.76,0.24 0.36,0 0.8,-0.24 0.48,-0.24 0.92,-0.68 0.48,-0.44 0.88,-1.08 0.44,-0.64 0.68,-1.44 l 6.56,0 -1.04,4.28 q -0.8,0.52 -1.84,0.88 -1.04,0.36 -2.2,0.6 -1.16,0.2 -2.36,0.28 -1.2,0.12 -2.28,0.12 -2,0 -3.72,-0.36 -1.72,-0.36 -3,-1.24 -1.28,-0.88 -2.04,-2.32 -0.72,-1.48 -0.72,-3.64 0,-1.96 0.6,-3.84 0.64,-1.88 2.08,-3.32 1.48,-1.48 3.92,-2.36 2.48,-0.88 6.16,-0.88 4,0 6,1.24 2.04,1.24 2.04,3.88 0,1.08 -0.32,2.36 -0.32,1.24 -0.96,2.12 l -11.24,0 z m 5.32,-4.76 q 0,-1.24 -0.4,-1.68 -0.4,-0.44 -0.96,-0.44 -0.64,0 -1.2,0.44 -0.52,0.4 -0.96,1.12 -0.44,0.68 -0.8,1.6 -0.36,0.88 -0.6,1.88 l 4.56,0 q 0.08,-0.48 0.16,-1 0.08,-0.44 0.12,-0.96 0.08,-0.52 0.08,-0.96 z"
         style="font-style:normal;font-variant:normal;font-weight:normal;font-stretch:normal;font-family:'Racing Sans One';-inkscape-font-specification:'Racing Sans One'"
         id="path4256" />
      <path
         d="m 262.32961,195.98205 q -1.68,0.68 -3.56,0.96 -1.84,0.32 -4.2,0.32 -2.08,0 -3.84,-0.4 -1.72,-0.44 -3,-1.36 -1.28,-0.92 -2,-2.36 -0.72,-1.48 -0.72,-3.56 0,-2.16 0.72,-4 0.76,-1.88 2.24,-3.28 1.52,-1.4 3.84,-2.2 2.32,-0.8 5.52,-0.8 2.6,0 4.52,0.44 1.92,0.4 3.16,1.88 l -1.12,5.12 -5.44,0 q 0.04,-0.68 0.08,-1.2 0.04,-0.52 0.04,-1.16 0,-1.28 -0.28,-1.8 -0.28,-0.56 -0.92,-0.56 -1.12,0 -1.96,1.12 -0.84,1.08 -1.4,2.64 -0.52,1.52 -0.8,3.24 -0.24,1.68 -0.24,2.88 0,0.44 0.04,0.92 0.04,0.44 0.16,0.84 0.16,0.4 0.4,0.64 0.24,0.24 0.68,0.24 0.4,0 0.92,-0.24 0.52,-0.24 1,-0.72 0.48,-0.52 0.92,-1.32 0.44,-0.8 0.68,-1.92 l 5.72,0 -1.16,5.64 z"
         style="font-style:normal;font-variant:normal;font-weight:normal;font-stretch:normal;font-family:'Racing Sans One';-inkscape-font-specification:'Racing Sans One'"
         id="path4258" />
      <path
         d="m 278.02899,179.30205 q 4.76,0 6.92,1.68 2.28,1.76 2.28,5.84 0,2.52 -0.84,4.56 -0.84,2 -2.36,3.32 -3.04,2.56 -8.8,2.56 -4.92,0 -7.04,-1.88 -2.28,-1.96 -2.28,-5.88 0,-2.6 1.04,-4.72 1.08,-2.12 3.08,-3.52 2.92,-1.96 8,-1.96 z m -2.72,15.24 q 1,0 1.72,-1.12 0.76,-1.12 1.2,-2.72 0.44,-1.64 0.64,-3.36 0.24,-1.76 0.24,-3.04 0,-1.12 -0.24,-1.68 -0.2,-0.6 -0.92,-0.6 -1.08,0 -1.88,1.16 -0.76,1.16 -1.24,2.76 -0.48,1.6 -0.72,3.28 -0.2,1.68 -0.2,2.72 0,2.6 1.4,2.6 z"
         style="font-style:normal;font-variant:normal;font-weight:normal;font-stretch:normal;font-family:'Racing Sans One';-inkscape-font-specification:'Racing Sans One'"
         id="path4260" />
      <path
         d="m 299.11774,182.30205 q 0.84,-0.8 1.88,-1.48 0.92,-0.56 2.16,-1.04 1.24,-0.48 2.76,-0.48 2.08,0 3.44,1.08 1.36,1.04 1.36,2.88 0,0.52 -0.12,1.28 -0.12,0.72 -0.28,1.52 -0.16,0.8 -0.36,1.64 -0.16,0.8 -0.28,1.44 l -1.68,7.8 -8.12,0 2.2,-10.44 q 0.08,-0.52 0.2,-1.04 0.12,-0.56 0.12,-1 0,-0.6 -0.32,-0.96 -0.28,-0.4 -0.88,-0.4 -0.72,0 -1.4,0.52 -0.64,0.52 -1,0.88 l -2.64,12.44 -8.16,0 3.64,-17.2 6.52,0 0.72,2.56 0.24,0 z"
         style="font-style:normal;font-variant:normal;font-weight:normal;font-stretch:normal;font-family:'Racing Sans One';-inkscape-font-specification:'Racing Sans One'"
         id="path4262" />
      <path
         d="m 328.47524,170.06205 8.2,0 -5.72,26.88 -6.48,0 -0.72,-2.56 -0.28,0 q -0.24,0.36 -0.76,0.88 -0.48,0.48 -1.24,0.96 -0.76,0.44 -1.8,0.72 -1.04,0.32 -2.4,0.32 -1.4,0 -2.4,-0.4 -0.96,-0.44 -1.6,-1.16 -0.6,-0.72 -0.88,-1.72 -0.28,-1.04 -0.28,-2.24 0,-0.52 0.08,-1.64 0.08,-1.16 0.36,-2.52 0.32,-1.4 0.88,-2.84 0.6,-1.48 1.56,-2.68 1,-1.2 2.44,-1.96 1.44,-0.8 3.48,-0.8 0.64,0 1.36,0.12 0.72,0.12 1.36,0.44 0.68,0.32 1.2,0.92 0.52,0.6 0.76,1.56 l 0.28,0 2.6,-12.28 z m -4.88,13.16 q -0.96,0 -1.6,1.08 -0.64,1.04 -1.04,2.44 -0.4,1.4 -0.6,2.8 -0.16,1.4 -0.16,2.08 0,0.8 0.24,1.36 0.24,0.52 0.92,0.52 0.4,0 0.76,-0.16 0.4,-0.2 0.72,-0.44 0.36,-0.28 0.6,-0.56 0.24,-0.28 0.4,-0.48 l 1.56,-7.28 q -0.28,-0.44 -0.76,-0.88 -0.44,-0.48 -1.04,-0.48 z"
         style="font-style:normal;font-variant:normal;font-weight:normal;font-stretch:normal;font-family:'Racing Sans One';-inkscape-font-specification:'Racing Sans One'"
         id="path4264" />
      <path
         d="m 347.24024,184.78205 q 0.04,-0.2 0.08,-0.4 0.04,-0.2 0.04,-0.44 0,-0.72 -0.28,-1.32 -0.24,-0.64 -1,-0.64 -0.68,0 -1.36,0.6 -0.68,0.56 -0.68,1.52 0,0.64 0.32,1.04 0.36,0.36 0.92,0.6 0.56,0.24 1.24,0.4 0.72,0.16 1.4,0.32 0.96,0.24 1.8,0.6 0.88,0.32 1.56,0.88 0.68,0.56 1.08,1.4 0.4,0.8 0.4,2 0,1.68 -0.8,2.84 -0.76,1.12 -2.16,1.84 -1.36,0.68 -3.24,0.96 -1.84,0.28 -3.96,0.28 -3.24,0 -5.36,-0.48 -2.12,-0.48 -2.96,-0.92 l 0.84,-4 5.4,0 q -0.04,0.2 -0.04,0.4 0,0.16 0,0.36 0,0.92 0.4,1.48 0.44,0.52 1.48,0.52 1.16,0 1.64,-0.64 0.52,-0.68 0.52,-1.24 0,-0.56 -0.44,-0.96 -0.4,-0.44 -1.04,-0.72 -0.64,-0.32 -1.44,-0.52 -0.76,-0.24 -1.48,-0.44 -0.52,-0.12 -1.2,-0.4 -0.64,-0.28 -1.24,-0.8 -0.6,-0.52 -1,-1.32 -0.4,-0.84 -0.4,-2.08 0,-1.76 0.84,-2.92 0.88,-1.2 2.24,-1.92 1.4,-0.72 3.12,-1.04 1.76,-0.32 3.52,-0.32 2.2,0 4.16,0.4 1.96,0.4 3.2,1.04 l -0.92,4.04 -5.2,0 z"
         style="font-style:normal;font-variant:normal;font-weight:normal;font-stretch:normal;font-family:'Racing Sans One';-inkscape-font-specification:'Racing Sans One'"
         id="path4266" />
    </g>
  </g>
</svg>
