<?xml version="1.0" encoding="UTF-8" standalone="no"?>
<svg
   xmlns:dc="http://purl.org/dc/elements/1.1/"
   xmlns:cc="http://creativecommons.org/ns#"
   xmlns:rdf="http://www.w3.org/1999/02/22-rdf-syntax-ns#"
   xmlns:svg="http://www.w3.org/2000/svg"
   xmlns="http://www.w3.org/2000/svg"
   xmlns:sodipodi="http://sodipodi.sourceforge.net/DTD/sodipodi-0.dtd"
   xmlns:inkscape="http://www.inkscape.org/namespaces/inkscape"
   width="476.0578"
   height="363.5033"
   version="1.1"
   id="svg2"
   inkscape:version="0.91 r13725"
   sodipodi:docname="Instructions 6.svg">
  <metadata
     id="metadata48">
    <rdf:RDF>
      <cc:Work
         rdf:about="">
        <dc:format>image/svg+xml</dc:format>
        <dc:type
           rdf:resource="http://purl.org/dc/dcmitype/StillImage" />
        <dc:title>5 by 3 sigma maze</dc:title>
      </cc:Work>
    </rdf:RDF>
  </metadata>
  <defs
     id="defs46" />
  <sodipodi:namedview
     pagecolor="#ffffff"
     bordercolor="#666666"
     borderopacity="1"
     objecttolerance="10"
     gridtolerance="10"
     guidetolerance="10"
     inkscape:pageopacity="0"
     inkscape:pageshadow="2"
     inkscape:window-width="1680"
     inkscape:window-height="962"
     id="namedview44"
     showgrid="false"
     showguides="false"
     fit-margin-top="0"
     fit-margin-left="0"
     fit-margin-right="0"
     fit-margin-bottom="0"
     inkscape:zoom="0.87055056"
     inkscape:cx="-103.86025"
     inkscape:cy="103.77754"
     inkscape:window-x="0"
     inkscape:window-y="0"
     inkscape:window-maximized="1"
     inkscape:current-layer="svg2" />
  <title
     id="title4">5 by 3 sigma maze</title>
  <desc
     id="desc6">5 by 3 sigma maze generated by The Maze Generator Website (http://www.mazegenerator.net/).</desc>
  <path
     style="opacity:1;fill:#ffffff;fill-opacity:1;fill-rule:nonzero;stroke:none;stroke-width:1.80442083;stroke-linejoin:miter;stroke-miterlimit:4;stroke-dasharray:none;stroke-opacity:1"
     d="m -0.94815063,-0.36483765 477.95410063,0 0,364.23296765 -477.95410063,0 z"
     id="rect3543" />
  <flowRoot
     xml:space="preserve"
     id="flowRoot4210"
     style="fill:black;stroke:none;stroke-opacity:1;stroke-width:1px;stroke-linejoin:miter;stroke-linecap:butt;fill-opacity:1;font-family:Sans;font-style:normal;font-weight:normal;font-size:40px;line-height:125%;letter-spacing:0px;word-spacing:0px"><flowRegion
       id="flowRegion4212"><rect
         id="rect4214"
         width="516.91425"
         height="328.52774"
         x="-19.527872"
         y="8.5555029" /></flowRegion><flowPara
       id="flowPara4216" /></flowRoot>  <g
     transform="matrix(1.0545281,0,0,1.0545281,873.64835,66.16006)"
     style="font-style:normal;font-weight:normal;font-size:40px;line-height:125%;font-family:Sans;letter-spacing:0px;word-spacing:0px;fill:#000000;fill-opacity:1;stroke:none;stroke-width:1px;stroke-linecap:butt;stroke-linejoin:miter;stroke-opacity:1"
     id="flowRoot4187">
    <path
       d="m -746.46281,34.817424 q 0,2.36 -1.32,4.36 -1.32,2 -4.36,3.04 l 4.64,11.96 -8.92,0 -3.52,-11.08 -0.44,0 -2.36,11.08 -8.64,0 5.4,-25.4 10.52,0 q 1.84,0 3.48,0.24 1.64,0.2 2.84,0.88 1.24,0.64 1.96,1.84 0.72,1.16 0.72,3.08 z m -11.52,5.72 q 1.04,0 1.76,-0.68 0.76,-0.72 1.2,-1.72 0.48,-1 0.68,-2.12 0.2,-1.16 0.2,-2 0,-1.04 -0.36,-1.76 -0.36,-0.76 -1.56,-0.76 l -1.8,0 -2,9.04 1.88,0 z"
       style="font-style:normal;font-variant:normal;font-weight:normal;font-stretch:normal;font-family:'Racing Sans One';-inkscape-font-specification:'Racing Sans One';text-align:center;text-anchor:middle"
       id="path4235"
       inkscape:connector-curvature="0" />
    <path
       d="m -743.19031,38.457424 q 2.04,-1 4.16,-1.44 2.16,-0.48 4.8,-0.48 2.56,0 4.24,0.4 1.68,0.4 2.68,1.16 1,0.76 1.4,1.8 0.4,1.04 0.4,2.36 0,0.76 -0.12,1.64 -0.08,0.88 -0.2,1.48 l -1.88,8.8 -6.44,0 -0.72,-2.56 -0.24,0 q -1.28,1.4 -3,2.16 -1.68,0.72 -3.36,0.72 -0.96,0 -1.88,-0.28 -0.92,-0.28 -1.64,-0.84 -0.72,-0.6 -1.16,-1.48 -0.44,-0.92 -0.44,-2.2 0,-2.08 1.12,-3.28 1.16,-1.24 3,-1.84 1.88,-0.64 4.2,-0.8 2.36,-0.16 4.72,-0.16 0.08,-0.4 0.2,-1.12 0.12,-0.76 0.12,-1.32 0,-0.72 -0.4,-1.32 -0.36,-0.64 -1.56,-0.64 -1.4,0 -2.08,0.84 -0.64,0.8 -0.84,1.96 l -5.84,0 0.76,-3.56 z m 9.2,7.04 -0.72,0 q -1.16,0 -2,0.32 -0.8,0.28 -1.32,0.76 -0.48,0.48 -0.72,1.08 -0.24,0.6 -0.24,1.2 0,0.96 0.48,1.44 0.52,0.48 1.2,0.48 0.84,0 1.64,-0.6 0.84,-0.6 1.04,-1.6 l 0.64,-3.08 z"
       style="font-style:normal;font-variant:normal;font-weight:normal;font-stretch:normal;font-family:'Racing Sans One';-inkscape-font-specification:'Racing Sans One';text-align:center;text-anchor:middle"
       id="path4237"
       inkscape:connector-curvature="0" />
    <path
       d="m -706.27906,53.217424 q -1.68,0.68 -3.56,0.96 -1.84,0.32 -4.2,0.32 -2.08,0 -3.84,-0.4 -1.72,-0.44 -3,-1.36 -1.28,-0.92 -2,-2.36 -0.72,-1.48 -0.72,-3.56 0,-2.16 0.72,-4 0.76,-1.88 2.24,-3.28 1.52,-1.4 3.84,-2.2 2.32,-0.8 5.52,-0.8 2.6,0 4.52,0.44 1.92,0.4 3.16,1.88 l -1.12,5.12 -5.44,0 q 0.04,-0.68 0.08,-1.2 0.04,-0.52 0.04,-1.16 0,-1.28 -0.28,-1.8 -0.28,-0.56 -0.92,-0.56 -1.12,0 -1.96,1.12 -0.84,1.08 -1.4,2.64 -0.52,1.52 -0.8,3.24 -0.24,1.68 -0.24,2.88 0,0.44 0.04,0.92 0.04,0.44 0.16,0.84 0.16,0.4 0.4,0.64 0.24,0.24 0.68,0.24 0.4,0 0.92,-0.24 0.52,-0.24 1,-0.72 0.48,-0.52 0.92,-1.32 0.44,-0.8 0.68,-1.92 l 5.72,0 -1.16,5.64 z"
       style="font-style:normal;font-variant:normal;font-weight:normal;font-stretch:normal;font-family:'Racing Sans One';-inkscape-font-specification:'Racing Sans One';text-align:center;text-anchor:middle"
       id="path4239"
       inkscape:connector-curvature="0" />
    <path
       d="m -694.45969,46.137424 q -0.16,0.88 -0.24,1.68 -0.04,0.8 -0.04,1.44 0,0.36 0.04,0.8 0.04,0.44 0.16,0.84 0.16,0.36 0.4,0.64 0.28,0.24 0.76,0.24 0.36,0 0.8,-0.24 0.48,-0.24 0.92,-0.68 0.48,-0.44 0.88,-1.08 0.44,-0.64 0.68,-1.44 l 6.56,0 -1.04,4.28 q -0.8,0.52 -1.84,0.88 -1.04,0.36 -2.2,0.6 -1.16,0.2 -2.36,0.28 -1.2,0.12 -2.28,0.12 -2,0 -3.72,-0.36 -1.72,-0.36 -3,-1.24 -1.28,-0.88 -2.04,-2.32 -0.72,-1.48 -0.72,-3.64 0,-1.96 0.6,-3.84 0.64,-1.88 2.08,-3.32 1.48,-1.48 3.92,-2.36 2.48,-0.88 6.16,-0.88 4,0 6,1.24 2.04,1.24 2.04,3.88 0,1.08 -0.32,2.36 -0.32,1.24 -0.96,2.12 l -11.24,0 z m 5.32,-4.76 q 0,-1.24 -0.4,-1.68 -0.4,-0.44 -0.96,-0.44 -0.64,0 -1.2,0.44 -0.52,0.4 -0.96,1.12 -0.44,0.68 -0.8,1.6 -0.36,0.88 -0.6,1.88 l 4.56,0 q 0.08,-0.48 0.16,-1 0.08,-0.44 0.12,-0.96 0.08,-0.52 0.08,-0.96 z"
       style="font-style:normal;font-variant:normal;font-weight:normal;font-stretch:normal;font-family:'Racing Sans One';-inkscape-font-specification:'Racing Sans One';text-align:center;text-anchor:middle"
       id="path4241"
       inkscape:connector-curvature="0" />
    <path
       d="m -672.58969,36.977424 q 1.48,-0.32 2.6,-0.72 1.12,-0.4 2.04,-1 0.96,-0.6 1.8,-1.48 0.88,-0.88 1.88,-2.16 l 4.12,0 -1.16,5.36 3.12,0 -0.52,2.68 -3.16,0 -1.64,7.8 q -0.2,0.92 -0.32,1.64 -0.12,0.72 -0.12,1.12 0,0.8 0.56,1 0.6,0.2 2.2,0.2 l -0.6,2.76 q -0.28,0.08 -0.88,0.12 -0.56,0.04 -1.28,0.08 -0.68,0.08 -1.44,0.08 -0.72,0.04 -1.28,0.04 -1,0 -1.96,-0.16 -0.96,-0.12 -1.72,-0.52 -0.76,-0.44 -1.24,-1.24 -0.44,-0.8 -0.44,-2.16 0,-0.48 0.04,-1.2 0.08,-0.72 0.28,-1.6 l 1.68,-7.96 -3.12,0 0.56,-2.68 z"
       style="font-style:normal;font-variant:normal;font-weight:normal;font-stretch:normal;font-family:'Racing Sans One';-inkscape-font-specification:'Racing Sans One';text-align:center;text-anchor:middle"
       id="path4243"
       inkscape:connector-curvature="0" />
    <path
       d="m -647.92469,39.537424 0.28,0 q 0.76,-0.76 1.76,-1.4 0.84,-0.56 2,-1 1.16,-0.44 2.6,-0.44 2.08,0 3.44,1.08 1.36,1.04 1.36,2.88 0,0.56 -0.12,1.28 -0.12,0.68 -0.28,1.48 -0.16,0.76 -0.36,1.56 -0.16,0.76 -0.28,1.4 l -1.68,7.8 -8.12,0 2.2,-10.44 q 0.08,-0.52 0.2,-1.04 0.12,-0.56 0.12,-1 0,-0.6 -0.32,-0.96 -0.28,-0.4 -0.88,-0.4 -0.72,0 -1.4,0.52 -0.64,0.52 -1,0.92 l -2.64,12.4 -8.16,0 5.68,-26.88 8.2,0 -2.6,12.24 z"
       style="font-style:normal;font-variant:normal;font-weight:normal;font-stretch:normal;font-family:'Racing Sans One';-inkscape-font-specification:'Racing Sans One';text-align:center;text-anchor:middle"
       id="path4245"
       inkscape:connector-curvature="0" />
    <path
       d="m -626.64719,46.137424 q -0.16,0.88 -0.24,1.68 -0.04,0.8 -0.04,1.44 0,0.36 0.04,0.8 0.04,0.44 0.16,0.84 0.16,0.36 0.4,0.64 0.28,0.24 0.76,0.24 0.36,0 0.8,-0.24 0.48,-0.24 0.92,-0.68 0.48,-0.44 0.88,-1.08 0.44,-0.64 0.68,-1.44 l 6.56,0 -1.04,4.28 q -0.8,0.52 -1.84,0.88 -1.04,0.36 -2.2,0.6 -1.16,0.2 -2.36,0.28 -1.2,0.12 -2.28,0.12 -2,0 -3.72,-0.36 -1.72,-0.36 -3,-1.24 -1.28,-0.88 -2.04,-2.32 -0.72,-1.48 -0.72,-3.64 0,-1.96 0.6,-3.84 0.64,-1.88 2.08,-3.32 1.48,-1.48 3.92,-2.36 2.48,-0.88 6.16,-0.88 4,0 6,1.24 2.04,1.24 2.04,3.88 0,1.08 -0.32,2.36 -0.32,1.24 -0.96,2.12 l -11.24,0 z m 5.32,-4.76 q 0,-1.24 -0.4,-1.68 -0.4,-0.44 -0.96,-0.44 -0.64,0 -1.2,0.44 -0.52,0.4 -0.96,1.12 -0.44,0.68 -0.8,1.6 -0.36,0.88 -0.6,1.88 l 4.56,0 q 0.08,-0.48 0.16,-1 0.08,-0.44 0.12,-0.96 0.08,-0.52 0.08,-0.96 z"
       style="font-style:normal;font-variant:normal;font-weight:normal;font-stretch:normal;font-family:'Racing Sans One';-inkscape-font-specification:'Racing Sans One';text-align:center;text-anchor:middle"
       id="path4247"
       inkscape:connector-curvature="0" />
    <path
       d="m -588.07594,53.217424 q -1.68,0.68 -3.56,0.96 -1.84,0.32 -4.2,0.32 -2.08,0 -3.84,-0.4 -1.72,-0.44 -3,-1.36 -1.28,-0.92 -2,-2.36 -0.72,-1.48 -0.72,-3.56 0,-2.16 0.72,-4 0.76,-1.88 2.24,-3.28 1.52,-1.4 3.84,-2.2 2.32,-0.8 5.52,-0.8 2.6,0 4.52,0.44 1.92,0.4 3.16,1.88 l -1.12,5.12 -5.44,0 q 0.04,-0.68 0.08,-1.2 0.04,-0.52 0.04,-1.16 0,-1.28 -0.28,-1.8 -0.28,-0.56 -0.92,-0.56 -1.12,0 -1.96,1.12 -0.84,1.08 -1.4,2.64 -0.52,1.52 -0.8,3.24 -0.24,1.68 -0.24,2.88 0,0.44 0.04,0.92 0.04,0.44 0.16,0.84 0.16,0.4 0.4,0.64 0.24,0.24 0.68,0.24 0.4,0 0.92,-0.24 0.52,-0.24 1,-0.72 0.48,-0.52 0.92,-1.32 0.44,-0.8 0.68,-1.92 l 5.72,0 -1.16,5.64 z"
       style="font-style:normal;font-variant:normal;font-weight:normal;font-stretch:normal;font-family:'Racing Sans One';-inkscape-font-specification:'Racing Sans One';text-align:center;text-anchor:middle"
       id="path4249"
       inkscape:connector-curvature="0" />
    <path
       d="m -582.09656,38.457424 q 2.04,-1 4.16,-1.44 2.16,-0.48 4.8,-0.48 2.56,0 4.24,0.4 1.68,0.4 2.68,1.16 1,0.76 1.4,1.8 0.4,1.04 0.4,2.36 0,0.76 -0.12,1.64 -0.08,0.88 -0.2,1.48 l -1.88,8.8 -6.44,0 -0.72,-2.56 -0.24,0 q -1.28,1.4 -3,2.16 -1.68,0.72 -3.36,0.72 -0.96,0 -1.88,-0.28 -0.92,-0.28 -1.64,-0.84 -0.72,-0.6 -1.16,-1.48 -0.44,-0.92 -0.44,-2.2 0,-2.08 1.12,-3.28 1.16,-1.24 3,-1.84 1.88,-0.64 4.2,-0.8 2.36,-0.16 4.72,-0.16 0.08,-0.4 0.2,-1.12 0.12,-0.76 0.12,-1.32 0,-0.72 -0.4,-1.32 -0.36,-0.64 -1.56,-0.64 -1.4,0 -2.08,0.84 -0.64,0.8 -0.84,1.96 l -5.84,0 0.76,-3.56 z m 9.2,7.04 -0.72,0 q -1.16,0 -2,0.32 -0.8,0.28 -1.32,0.76 -0.48,0.48 -0.72,1.08 -0.24,0.6 -0.24,1.2 0,0.96 0.48,1.44 0.52,0.48 1.2,0.48 0.84,0 1.64,-0.6 0.84,-0.6 1.04,-1.6 l 0.64,-3.08 z"
       style="font-style:normal;font-variant:normal;font-weight:normal;font-stretch:normal;font-family:'Racing Sans One';-inkscape-font-specification:'Racing Sans One';text-align:center;text-anchor:middle"
       id="path4251"
       inkscape:connector-curvature="0" />
    <path
       d="m -559.70531,36.977424 6.52,0 0.6,3 0.28,0 q 0.92,-1.44 2.36,-2.44 1.44,-1 3.8,-1 0.16,0 0.48,0.04 0.36,0 0.76,0.12 0.44,0.08 0.88,0.28 0.48,0.16 0.92,0.48 l -1.76,8.24 -4.36,0 q -0.08,-2.48 -0.44,-3.44 -0.36,-1 -1.16,-1 -0.4,0 -0.88,0.2 -0.44,0.16 -0.92,0.76 l -2.56,11.96 -8.16,0 3.64,-17.2 z"
       style="font-style:normal;font-variant:normal;font-weight:normal;font-stretch:normal;font-family:'Racing Sans One';-inkscape-font-specification:'Racing Sans One';text-align:center;text-anchor:middle"
       id="path4253"
       inkscape:connector-curvature="0" />
    <path
       d="m -535.48031,36.977424 q 1.48,-0.32 2.6,-0.72 1.12,-0.4 2.04,-1 0.96,-0.6 1.8,-1.48 0.88,-0.88 1.88,-2.16 l 4.12,0 -1.16,5.36 3.12,0 -0.52,2.68 -3.16,0 -1.64,7.8 q -0.2,0.92 -0.32,1.64 -0.12,0.72 -0.12,1.12 0,0.8 0.56,1 0.6,0.2 2.2,0.2 l -0.6,2.76 q -0.28,0.08 -0.88,0.12 -0.56,0.04 -1.28,0.08 -0.68,0.08 -1.44,0.08 -0.72,0.04 -1.28,0.04 -1,0 -1.96,-0.16 -0.96,-0.12 -1.72,-0.52 -0.76,-0.44 -1.24,-1.24 -0.44,-0.8 -0.44,-2.16 0,-0.48 0.04,-1.2 0.08,-0.72 0.28,-1.6 l 1.68,-7.96 -3.12,0 0.56,-2.68 z"
       style="font-style:normal;font-variant:normal;font-weight:normal;font-stretch:normal;font-family:'Racing Sans One';-inkscape-font-specification:'Racing Sans One';text-align:center;text-anchor:middle"
       id="path4255"
       inkscape:connector-curvature="0" />
    <path
       d="m -509.48594,36.537424 q 4.76,0 6.92,1.68 2.28,1.76 2.28,5.84 0,2.52 -0.84,4.56 -0.84,2 -2.36,3.32 -3.04,2.56 -8.8,2.56 -4.92,0 -7.04,-1.88 -2.28,-1.96 -2.28,-5.88 0,-2.6 1.04,-4.72 1.08,-2.12 3.08,-3.52 2.92,-1.96 8,-1.96 z m -2.72,15.24 q 1,0 1.72,-1.12 0.76,-1.12 1.2,-2.72 0.44,-1.64 0.64,-3.36 0.24,-1.76 0.24,-3.04 0,-1.12 -0.24,-1.68 -0.2,-0.6 -0.92,-0.6 -1.08,0 -1.88,1.16 -0.76,1.16 -1.24,2.76 -0.48,1.6 -0.72,3.28 -0.2,1.68 -0.2,2.72 0,2.6 1.4,2.6 z"
       style="font-style:normal;font-variant:normal;font-weight:normal;font-stretch:normal;font-family:'Racing Sans One';-inkscape-font-specification:'Racing Sans One';text-align:center;text-anchor:middle"
       id="path4257"
       inkscape:connector-curvature="0" />
    <path
       d="m -490.40219,36.977424 q 1.48,-0.32 2.6,-0.72 1.12,-0.4 2.04,-1 0.96,-0.6 1.8,-1.48 0.88,-0.88 1.88,-2.16 l 4.12,0 -1.16,5.36 3.12,0 -0.52,2.68 -3.16,0 -1.64,7.8 q -0.2,0.92 -0.32,1.64 -0.12,0.72 -0.12,1.12 0,0.8 0.56,1 0.6,0.2 2.2,0.2 l -0.6,2.76 q -0.28,0.08 -0.88,0.12 -0.56,0.04 -1.28,0.08 -0.68,0.08 -1.44,0.08 -0.72,0.04 -1.28,0.04 -1,0 -1.96,-0.16 -0.96,-0.12 -1.72,-0.52 -0.76,-0.44 -1.24,-1.24 -0.44,-0.8 -0.44,-2.16 0,-0.48 0.04,-1.2 0.08,-0.72 0.28,-1.6 l 1.68,-7.96 -3.12,0 0.56,-2.68 z"
       style="font-style:normal;font-variant:normal;font-weight:normal;font-stretch:normal;font-family:'Racing Sans One';-inkscape-font-specification:'Racing Sans One';text-align:center;text-anchor:middle"
       id="path4259"
       inkscape:connector-curvature="0" />
    <path
       d="m -465.73719,39.537424 0.28,0 q 0.76,-0.76 1.76,-1.4 0.84,-0.56 2,-1 1.16,-0.44 2.6,-0.44 2.08,0 3.44,1.08 1.36,1.04 1.36,2.88 0,0.56 -0.12,1.28 -0.12,0.68 -0.28,1.48 -0.16,0.76 -0.36,1.56 -0.16,0.76 -0.28,1.4 l -1.68,7.8 -8.12,0 2.2,-10.44 q 0.08,-0.52 0.2,-1.04 0.12,-0.56 0.12,-1 0,-0.6 -0.32,-0.96 -0.28,-0.4 -0.88,-0.4 -0.72,0 -1.4,0.52 -0.64,0.52 -1,0.92 l -2.64,12.4 -8.16,0 5.68,-26.88 8.2,0 -2.6,12.24 z"
       style="font-style:normal;font-variant:normal;font-weight:normal;font-stretch:normal;font-family:'Racing Sans One';-inkscape-font-specification:'Racing Sans One';text-align:center;text-anchor:middle"
       id="path4261"
       inkscape:connector-curvature="0" />
    <path
       d="m -444.45969,46.137424 q -0.16,0.88 -0.24,1.68 -0.04,0.8 -0.04,1.44 0,0.36 0.04,0.8 0.04,0.44 0.16,0.84 0.16,0.36 0.4,0.64 0.28,0.24 0.76,0.24 0.36,0 0.8,-0.24 0.48,-0.24 0.92,-0.68 0.48,-0.44 0.88,-1.08 0.44,-0.64 0.68,-1.44 l 6.56,0 -1.04,4.28 q -0.8,0.52 -1.84,0.88 -1.04,0.36 -2.2,0.6 -1.16,0.2 -2.36,0.28 -1.2,0.12 -2.28,0.12 -2,0 -3.72,-0.36 -1.72,-0.36 -3,-1.24 -1.28,-0.88 -2.04,-2.32 -0.72,-1.48 -0.72,-3.64 0,-1.96 0.6,-3.84 0.64,-1.88 2.08,-3.32 1.48,-1.48 3.92,-2.36 2.48,-0.88 6.16,-0.88 4,0 6,1.24 2.04,1.24 2.04,3.88 0,1.08 -0.32,2.36 -0.32,1.24 -0.96,2.12 l -11.24,0 z m 5.32,-4.76 q 0,-1.24 -0.4,-1.68 -0.4,-0.44 -0.96,-0.44 -0.64,0 -1.2,0.44 -0.52,0.4 -0.96,1.12 -0.44,0.68 -0.8,1.6 -0.36,0.88 -0.6,1.88 l 4.56,0 q 0.08,-0.48 0.16,-1 0.08,-0.44 0.12,-0.96 0.08,-0.52 0.08,-0.96 z"
       style="font-style:normal;font-variant:normal;font-weight:normal;font-stretch:normal;font-family:'Racing Sans One';-inkscape-font-specification:'Racing Sans One';text-align:center;text-anchor:middle"
       id="path4263"
       inkscape:connector-curvature="0" />
    <path
       d="m -695.51937,86.977424 3.07999,0 0.36,-1.64 q 0.52,-2.4 1.64,-4.04 1.16001,-1.68 2.76,-2.72 1.64001,-1.04 3.6,-1.48 2,-0.48 4.20001,-0.48 1.96,0 3.72,0.36 1.8,0.36 3.83999,1.16 l -1.27999,3.96 q -1.28,-0.56 -2.56,-0.88 -1.24,-0.36 -2.68001,-0.36 -0.75999,0 -1.51999,0.12 -0.76,0.12 -1.4,0.48 -0.64,0.32 -1.12,0.96 -0.48,0.6 -0.72,1.6 l -0.64,2.96 13.2,0 -3.68001,17.199996 -8.15999,0 3.07999,-14.519996 -5,0 -3.11999,14.519996 -8.12,0 3.04,-14.519996 -3.08001,0 0.56001,-2.68 z"
       style="font-style:normal;font-variant:normal;font-weight:normal;font-stretch:normal;font-family:'Racing Sans One';-inkscape-font-specification:'Racing Sans One';text-align:center;text-anchor:middle"
       id="path4265"
       inkscape:connector-curvature="0" />
    <path
       d="m -660.07687,89.537424 q 0.83999,-0.8 1.88,-1.48 0.91999,-0.56 2.16,-1.04 1.24,-0.48 2.75999,-0.48 2.08001,0 3.44001,1.08 1.36,1.04 1.36,2.88 0,0.52 -0.12,1.28 -0.12,0.72 -0.28001,1.52 -0.15999,0.8 -0.36,1.64 -0.16,0.8 -0.28,1.44 l -1.67999,7.799996 -8.12,0 2.19999,-10.439996 q 0.08,-0.52 0.20001,-1.04 0.12,-0.56 0.12,-1 0,-0.6 -0.32001,-0.96 -0.28,-0.4 -0.88,-0.4 -0.71999,0 -1.4,0.52 -0.63999,0.52 -1,0.88 l -2.63999,12.439996 -8.16,0 3.64,-17.199996 6.52,0 0.72,2.56 0.24,0 z"
       style="font-style:normal;font-variant:normal;font-weight:normal;font-stretch:normal;font-family:'Racing Sans One';-inkscape-font-specification:'Racing Sans One';text-align:center;text-anchor:middle"
       id="path4267"
       inkscape:connector-curvature="0" />
    <path
       d="m -639.63937,104.17742 -8.12,0 3.64,-17.199996 8.2,0 -3.72,17.199996 z m 4.76,-22.439996 q 0,0.92 -0.4,1.6 -0.36,0.68 -1,1.16 -0.6,0.48 -1.40001,0.72 -0.79999,0.24 -1.64,0.24 -1.59999,0 -2.67999,-0.76 -1.08001,-0.76 -1.08001,-2.4 0,-0.88 0.36,-1.56 0.36001,-0.72 0.96001,-1.16 0.64,-0.48 1.43999,-0.72 0.84001,-0.24 1.72001,-0.24 1.56,0 2.63999,0.76 1.08001,0.76 1.08001,2.36 z"
       style="font-style:normal;font-variant:normal;font-weight:normal;font-stretch:normal;font-family:'Racing Sans One';-inkscape-font-specification:'Racing Sans One';text-align:center;text-anchor:middle"
       id="path4269"
       inkscape:connector-curvature="0" />
    <path
       d="m -623.36063,92.017424 q 0.04,-0.2 0.08,-0.4 0.04,-0.2 0.04,-0.44 0,-0.72 -0.27999,-1.32 -0.24,-0.64 -1,-0.64 -0.68,0 -1.36,0.6 -0.68,0.56 -0.68,1.52 0,0.64 0.31999,1.04 0.36001,0.36 0.92001,0.6 0.56,0.24 1.23999,0.4 0.72,0.16 1.40001,0.32 0.95999,0.24 1.8,0.6 0.87999,0.32 1.56,0.88 0.68,0.56 1.07999,1.4 0.4,0.8 0.4,2 0,1.679996 -0.79999,2.839996 -0.76,1.12 -2.16,1.84 -1.36,0.68 -3.24,0.96 -1.84,0.28 -3.96001,0.28 -3.24,0 -5.36,-0.48 -2.12,-0.48 -2.95999,-0.92 l 0.83999,-3.999996 5.4,0 q -0.04,0.2 -0.04,0.4 0,0.16 0,0.36 0,0.919996 0.4,1.479996 0.44001,0.52 1.48,0.52 1.16,0 1.64,-0.64 0.52,-0.68 0.52,-1.239996 0,-0.56 -0.43999,-0.96 -0.4,-0.44 -1.04,-0.72 -0.64,-0.32 -1.44001,-0.52 -0.75999,-0.24 -1.48,-0.44 -0.52,-0.12 -1.19999,-0.4 -0.64,-0.28 -1.24,-0.8 -0.6,-0.52 -1,-1.32 -0.4,-0.84 -0.4,-2.08 0,-1.76 0.83999,-2.92 0.88,-1.2 2.24,-1.92 1.4,-0.72 3.12,-1.04 1.76,-0.32 3.52,-0.32 2.20001,0 4.16001,0.4 1.95999,0.4 3.19999,1.04 l -0.91999,4.04 -5.20001,0 z"
       style="font-style:normal;font-variant:normal;font-weight:normal;font-stretch:normal;font-family:'Racing Sans One';-inkscape-font-specification:'Racing Sans One';text-align:center;text-anchor:middle"
       id="path4271"
       inkscape:connector-curvature="0" />
    <path
       d="m -605.22937,89.537424 0.27999,0 q 0.76,-0.76 1.76,-1.4 0.84001,-0.56 2,-1 1.16001,-0.44 2.6,-0.44 2.08001,0 3.44001,1.08 1.36,1.04 1.36,2.88 0,0.56 -0.12,1.28 -0.12,0.68 -0.28001,1.48 -0.15999,0.76 -0.36,1.56 -0.16,0.76 -0.28,1.4 l -1.67999,7.799996 -8.12,0 2.19999,-10.439996 q 0.08,-0.52 0.20001,-1.04 0.12,-0.56 0.12,-1 0,-0.6 -0.32001,-0.96 -0.28,-0.4 -0.88,-0.4 -0.71999,0 -1.4,0.52 -0.63999,0.52 -1,0.92 l -2.63999,12.399996 -8.16,0 5.67999,-26.879996 8.20001,0 -2.6,12.24 z"
       style="font-style:normal;font-variant:normal;font-weight:normal;font-stretch:normal;font-family:'Racing Sans One';-inkscape-font-specification:'Racing Sans One';text-align:center;text-anchor:middle"
       id="path4273"
       inkscape:connector-curvature="0" />
    <path
       d="m -577.25562,104.17742 -8.16,0 5.67999,-26.879996 8.20001,0 -5.72,26.879996 z"
       style="font-style:normal;font-variant:normal;font-weight:normal;font-stretch:normal;font-family:'Racing Sans One';-inkscape-font-specification:'Racing Sans One';text-align:center;text-anchor:middle"
       id="path4275"
       inkscape:connector-curvature="0" />
    <path
       d="m -565.57687,104.17742 -8.12,0 3.64,-17.199996 8.2,0 -3.72,17.199996 z m 4.76,-22.439996 q 0,0.92 -0.4,1.6 -0.36,0.68 -1,1.16 -0.6,0.48 -1.40001,0.72 -0.79999,0.24 -1.64,0.24 -1.59999,0 -2.67999,-0.76 -1.08001,-0.76 -1.08001,-2.4 0,-0.88 0.36,-1.56 0.36001,-0.72 0.96001,-1.16 0.64,-0.48 1.43999,-0.72 0.84001,-0.24 1.72001,-0.24 1.56,0 2.63999,0.76 1.08001,0.76 1.08001,2.36 z"
       style="font-style:normal;font-variant:normal;font-weight:normal;font-stretch:normal;font-family:'Racing Sans One';-inkscape-font-specification:'Racing Sans One';text-align:center;text-anchor:middle"
       id="path4277"
       inkscape:connector-curvature="0" />
    <path
       d="m -550.85812,89.537424 q 0.83999,-0.8 1.88,-1.48 0.91999,-0.56 2.16,-1.04 1.24,-0.48 2.75999,-0.48 2.08001,0 3.44001,1.08 1.36,1.04 1.36,2.88 0,0.52 -0.12,1.28 -0.12,0.72 -0.28001,1.52 -0.15999,0.8 -0.36,1.64 -0.16,0.8 -0.28,1.44 l -1.67999,7.799996 -8.12,0 2.19999,-10.439996 q 0.08,-0.52 0.20001,-1.04 0.12,-0.56 0.12,-1 0,-0.6 -0.32001,-0.96 -0.28,-0.4 -0.88,-0.4 -0.71999,0 -1.4,0.52 -0.63999,0.52 -1,0.88 l -2.63999,12.439996 -8.16,0 3.64,-17.199996 6.52,0 0.72,2.56 0.24,0 z"
       style="font-style:normal;font-variant:normal;font-weight:normal;font-stretch:normal;font-family:'Racing Sans One';-inkscape-font-specification:'Racing Sans One';text-align:center;text-anchor:middle"
       id="path4279"
       inkscape:connector-curvature="0" />
    <path
       d="m -529.42062,96.137424 q -0.16001,0.88 -0.24,1.68 -0.04,0.8 -0.04,1.44 0,0.36 0.04,0.799996 0.04,0.44 0.15999,0.84 0.16,0.36 0.4,0.64 0.28001,0.24 0.76,0.24 0.36,0 0.80001,-0.24 0.48,-0.24 0.91999,-0.68 0.48001,-0.44 0.88,-1.079996 0.44001,-0.64 0.68001,-1.44 l 6.55999,0 -1.03999,4.279996 q -0.80001,0.52 -1.84,0.88 -1.04,0.36 -2.20001,0.6 -1.16,0.2 -2.35999,0.28 -1.2,0.12 -2.28001,0.12 -2,0 -3.71999,-0.36 -1.72,-0.36 -3,-1.24 -1.28001,-0.88 -2.04001,-2.32 -0.71999,-1.479996 -0.71999,-3.639996 0,-1.96 0.59999,-3.84 0.64,-1.88 2.08001,-3.32 1.48,-1.48 3.91999,-2.36 2.48,-0.88 6.16001,-0.88 4,0 6,1.24 2.04,1.24 2.04,3.88 0,1.08 -0.32001,2.36 -0.31999,1.24 -0.95999,2.12 l -11.24,0 z m 5.31999,-4.76 q 0,-1.24 -0.4,-1.68 -0.39999,-0.44 -0.96,-0.44 -0.64,0 -1.19999,0.44 -0.52,0.4 -0.96001,1.12 -0.43999,0.68 -0.79999,1.6 -0.36,0.88 -0.6,1.88 l 4.55999,0 q 0.08,-0.48 0.16001,-1 0.08,-0.44 0.12,-0.96 0.08,-0.52 0.08,-0.96 z"
       style="font-style:normal;font-variant:normal;font-weight:normal;font-stretch:normal;font-family:'Racing Sans One';-inkscape-font-specification:'Racing Sans One';text-align:center;text-anchor:middle"
       id="path4281"
       inkscape:connector-curvature="0" />
    <path
       d="m -508.14562,100.65742 q 0,0.92 -0.4,1.64 -0.36,0.72 -1,1.2 -0.6,0.48 -1.4,0.72 -0.80001,0.28 -1.68001,0.28 -1.51999,0 -2.6,-0.8 -1.03999,-0.84 -1.03999,-2.6 0,-0.92 0.36,-1.639996 0.36,-0.72 0.96,-1.2 0.59999,-0.48 1.35999,-0.72 0.80001,-0.28 1.64001,-0.28 1.63999,0 2.72,0.84 1.08,0.8 1.08,2.559996 z"
       style="font-style:normal;font-variant:normal;font-weight:normal;font-stretch:normal;font-family:'Racing Sans One';-inkscape-font-specification:'Racing Sans One';text-align:center;text-anchor:middle"
       id="path4283"
       inkscape:connector-curvature="0" />
    <path
       d="m -804.77406,185.21161 -8.64,0 5.4,-25.4 8.68,0 -5.44,25.4 z"
       style="font-style:normal;font-variant:normal;font-weight:normal;font-stretch:normal;font-family:'Racing Sans One';-inkscape-font-specification:'Racing Sans One';text-align:center;text-anchor:middle"
       id="path4285"
       inkscape:connector-curvature="0" />
    <path
       d="m -798.52719,168.01161 q 1.48,-0.32 2.6,-0.72 1.12,-0.4 2.04,-1 0.96,-0.6 1.8,-1.48 0.88,-0.88 1.88,-2.16 l 4.12,0 -1.16,5.36 3.12,0 -0.52,2.68 -3.16,0 -1.64,7.8 q -0.2,0.92 -0.32,1.64 -0.12,0.72 -0.12,1.12 0,0.8 0.56,1 0.6,0.2 2.2,0.2 l -0.6,2.76 q -0.28,0.08 -0.88,0.12 -0.56,0.04 -1.28,0.08 -0.68,0.08 -1.44,0.08 -0.72,0.04 -1.28,0.04 -1,0 -1.96,-0.16 -0.96,-0.12 -1.72,-0.52 -0.76,-0.44 -1.24,-1.24 -0.44,-0.8 -0.44,-2.16 0,-0.48 0.04,-1.2 0.08,-0.72 0.28,-1.6 l 1.68,-7.96 -3.12,0 0.56,-2.68 z"
       style="font-style:normal;font-variant:normal;font-weight:normal;font-stretch:normal;font-family:'Racing Sans One';-inkscape-font-specification:'Racing Sans One';text-align:center;text-anchor:middle"
       id="path4287"
       inkscape:connector-curvature="0" />
    <path
       d="m -778.26219,169.49161 -3.12,0 1.76,-11.16 6.12,0 -4.76,11.16 z"
       style="font-style:normal;font-variant:normal;font-weight:normal;font-stretch:normal;font-family:'Racing Sans One';-inkscape-font-specification:'Racing Sans One';text-align:center;text-anchor:middle"
       id="path4289"
       inkscape:connector-curvature="0" />
    <path
       d="m -763.86844,173.05161 q 0.04,-0.2 0.08,-0.4 0.04,-0.2 0.04,-0.44 0,-0.72 -0.28,-1.32 -0.24,-0.64 -1,-0.64 -0.68,0 -1.36,0.6 -0.68,0.56 -0.68,1.52 0,0.64 0.32,1.04 0.36,0.36 0.92,0.6 0.56,0.24 1.24,0.4 0.72,0.16 1.4,0.32 0.96,0.24 1.8,0.6 0.88,0.32 1.56,0.88 0.68,0.56 1.08,1.4 0.4,0.8 0.4,2 0,1.68 -0.8,2.84 -0.76,1.12 -2.16,1.84 -1.36,0.68 -3.24,0.96 -1.84,0.28 -3.96,0.28 -3.24,0 -5.36,-0.48 -2.12,-0.48 -2.96,-0.92 l 0.84,-4 5.4,0 q -0.04,0.2 -0.04,0.4 0,0.16 0,0.36 0,0.92 0.4,1.48 0.44,0.52 1.48,0.52 1.16,0 1.64,-0.64 0.52,-0.68 0.52,-1.24 0,-0.56 -0.44,-0.96 -0.4,-0.44 -1.04,-0.72 -0.64,-0.32 -1.44,-0.52 -0.76,-0.24 -1.48,-0.44 -0.52,-0.12 -1.2,-0.4 -0.64,-0.28 -1.24,-0.8 -0.6,-0.52 -1,-1.32 -0.4,-0.84 -0.4,-2.08 0,-1.76 0.84,-2.92 0.88,-1.2 2.24,-1.92 1.4,-0.72 3.12,-1.04 1.76,-0.32 3.52,-0.32 2.2,0 4.16,0.4 1.96,0.4 3.2,1.04 l -0.92,4.04 -5.2,0 z"
       style="font-style:normal;font-variant:normal;font-weight:normal;font-stretch:normal;font-family:'Racing Sans One';-inkscape-font-specification:'Racing Sans One';text-align:center;text-anchor:middle"
       id="path4291"
       inkscape:connector-curvature="0" />
    <path
       d="m -747.90219,168.01161 q 1.48,-0.32 2.6,-0.72 1.12,-0.4 2.04,-1 0.96,-0.6 1.8,-1.48 0.88,-0.88 1.88,-2.16 l 4.12,0 -1.16,5.36 3.12,0 -0.52,2.68 -3.16,0 -1.64,7.8 q -0.2,0.92 -0.32,1.64 -0.12,0.72 -0.12,1.12 0,0.8 0.56,1 0.6,0.2 2.2,0.2 l -0.6,2.76 q -0.28,0.08 -0.88,0.12 -0.56,0.04 -1.28,0.08 -0.68,0.08 -1.44,0.08 -0.72,0.04 -1.28,0.04 -1,0 -1.96,-0.16 -0.96,-0.12 -1.72,-0.52 -0.76,-0.44 -1.24,-1.24 -0.44,-0.8 -0.44,-2.16 0,-0.48 0.04,-1.2 0.08,-0.72 0.28,-1.6 l 1.68,-7.96 -3.12,0 0.56,-2.68 z"
       style="font-style:normal;font-variant:normal;font-weight:normal;font-stretch:normal;font-family:'Racing Sans One';-inkscape-font-specification:'Racing Sans One';text-align:center;text-anchor:middle"
       id="path4293"
       inkscape:connector-curvature="0" />
    <path
       d="m -726.39719,185.21161 -8.12,0 3.64,-17.2 8.2,0 -3.72,17.2 z m 4.76,-22.44 q 0,0.92 -0.4,1.6 -0.36,0.68 -1,1.16 -0.6,0.48 -1.4,0.72 -0.8,0.24 -1.64,0.24 -1.6,0 -2.68,-0.76 -1.08,-0.76 -1.08,-2.4 0,-0.88 0.36,-1.56 0.36,-0.72 0.96,-1.16 0.64,-0.48 1.44,-0.72 0.84,-0.24 1.72,-0.24 1.56,0 2.64,0.76 1.08,0.76 1.08,2.36 z"
       style="font-style:normal;font-variant:normal;font-weight:normal;font-stretch:normal;font-family:'Racing Sans One';-inkscape-font-specification:'Racing Sans One';text-align:center;text-anchor:middle"
       id="path4295"
       inkscape:connector-curvature="0" />
    <path
       d="m -711.67844,170.57161 q 0.84,-0.8 1.88,-1.48 0.92,-0.56 2.2,-1.04 1.28,-0.48 2.88,-0.48 1.92,0 2.84,0.88 0.96,0.88 1.08,2.16 l 0.24,0 q 0.92,-0.84 2,-1.52 0.92,-0.56 2.16,-1.04 1.24,-0.48 2.64,-0.48 2.08,0 3.36,1.16 1.32,1.12 1.32,2.92 0,0.92 -0.32,2.44 -0.32,1.52 -0.72,3.32 l -1.68,7.8 -7.88,0 2.16,-10.44 q 0.12,-0.6 0.24,-1.16 0.12,-0.56 0.12,-0.92 0,-0.56 -0.32,-0.92 -0.32,-0.4 -0.92,-0.4 -0.76,0 -1.44,0.56 -0.64,0.52 -1,0.88 l -2.6,12.4 -7.48,0 2.2,-10.44 q 0.08,-0.52 0.2,-1.04 0.12,-0.56 0.12,-1 0,-0.6 -0.32,-0.96 -0.28,-0.4 -0.88,-0.4 -0.72,0 -1.4,0.52 -0.64,0.52 -1,0.88 l -2.64,12.44 -8.16,0 3.64,-17.2 6.52,0 0.72,2.56 0.24,0 z"
       style="font-style:normal;font-variant:normal;font-weight:normal;font-stretch:normal;font-family:'Racing Sans One';-inkscape-font-specification:'Racing Sans One';text-align:center;text-anchor:middle"
       id="path4297"
       inkscape:connector-curvature="0" />
    <path
       d="m -679.30344,177.17161 q -0.16,0.88 -0.24,1.68 -0.04,0.8 -0.04,1.44 0,0.36 0.04,0.8 0.04,0.44 0.16,0.84 0.16,0.36 0.4,0.64 0.28,0.24 0.76,0.24 0.36,0 0.8,-0.24 0.48,-0.24 0.92,-0.68 0.48,-0.44 0.88,-1.08 0.44,-0.64 0.68,-1.44 l 6.56,0 -1.04,4.28 q -0.8,0.52 -1.84,0.88 -1.04,0.36 -2.2,0.6 -1.16,0.2 -2.36,0.28 -1.2,0.12 -2.28,0.12 -2,0 -3.72,-0.36 -1.72,-0.36 -3,-1.24 -1.28,-0.88 -2.04,-2.32 -0.72,-1.48 -0.72,-3.64 0,-1.96 0.6,-3.84 0.64,-1.88 2.08,-3.32 1.48,-1.48 3.92,-2.36 2.48,-0.88 6.16,-0.88 4,0 6,1.24 2.04,1.24 2.04,3.88 0,1.08 -0.32,2.36 -0.32,1.24 -0.96,2.12 l -11.24,0 z m 5.32,-4.76 q 0,-1.24 -0.4,-1.68 -0.4,-0.44 -0.96,-0.44 -0.64,0 -1.2,0.44 -0.52,0.4 -0.96,1.12 -0.44,0.68 -0.8,1.6 -0.36,0.88 -0.6,1.88 l 4.56,0 q 0.08,-0.48 0.16,-1 0.08,-0.44 0.12,-0.96 0.08,-0.52 0.08,-0.96 z"
       style="font-style:normal;font-variant:normal;font-weight:normal;font-stretch:normal;font-family:'Racing Sans One';-inkscape-font-specification:'Racing Sans One';text-align:center;text-anchor:middle"
       id="path4299"
       inkscape:connector-curvature="0" />
    <path
       d="m -649.50844,158.33161 8.2,0 -5.72,26.88 -6.48,0 -0.72,-2.56 -0.28,0 q -0.24,0.36 -0.76,0.88 -0.48,0.48 -1.24,0.96 -0.76,0.44 -1.8,0.72 -1.04,0.32 -2.4,0.32 -1.4,0 -2.4,-0.4 -0.96,-0.44 -1.6,-1.16 -0.6,-0.72 -0.88,-1.72 -0.28,-1.04 -0.28,-2.24 0,-0.52 0.08,-1.64 0.08,-1.16 0.36,-2.52 0.32,-1.4 0.88,-2.84 0.6,-1.48 1.56,-2.68 1,-1.2 2.44,-1.96 1.44,-0.8 3.48,-0.8 0.64,0 1.36,0.12 0.72,0.12 1.36,0.44 0.68,0.32 1.2,0.92 0.52,0.6 0.76,1.56 l 0.28,0 2.6,-12.28 z m -4.88,13.16 q -0.96,0 -1.6,1.08 -0.64,1.04 -1.04,2.44 -0.4,1.4 -0.6,2.8 -0.16,1.4 -0.16,2.08 0,0.8 0.24,1.36 0.24,0.52 0.92,0.52 0.4,0 0.76,-0.16 0.4,-0.2 0.72,-0.44 0.36,-0.28 0.6,-0.56 0.24,-0.28 0.4,-0.48 l 1.56,-7.28 q -0.28,-0.44 -0.76,-0.88 -0.44,-0.48 -1.04,-0.48 z"
       style="font-style:normal;font-variant:normal;font-weight:normal;font-stretch:normal;font-family:'Racing Sans One';-inkscape-font-specification:'Racing Sans One';text-align:center;text-anchor:middle"
       id="path4301"
       inkscape:connector-curvature="0" />
    <path
       d="m -634.98344,181.81161 q 0,1.52 -0.72,2.92 -0.72,1.4 -1.84,2.56 -1.08,1.2 -2.48,2.08 -1.36,0.92 -2.68,1.44 l -1.12,-1.68 q 1.44,-1.12 2.16,-2 0.76,-0.88 0.76,-1.76 0,-1.4 -2.24,-3.04 0,-0.96 0.36,-1.72 0.36,-0.76 0.96,-1.28 0.64,-0.52 1.44,-0.8 0.8,-0.28 1.64,-0.28 1.6,0 2.68,0.88 1.08,0.88 1.08,2.68 z"
       style="font-style:normal;font-variant:normal;font-weight:normal;font-stretch:normal;font-family:'Racing Sans One';-inkscape-font-specification:'Racing Sans One';text-align:center;text-anchor:middle"
       id="path4303"
       inkscape:connector-curvature="0" />
    <path
       d="m -612.07156,173.05161 q 0.04,-0.2 0.08,-0.4 0.04,-0.2 0.04,-0.44 0,-0.72 -0.28,-1.32 -0.24,-0.64 -1,-0.64 -0.68,0 -1.36,0.6 -0.68,0.56 -0.68,1.52 0,0.64 0.32,1.04 0.36,0.36 0.92,0.6 0.56,0.24 1.24,0.4 0.72,0.16 1.4,0.32 0.96,0.24 1.8,0.6 0.88,0.32 1.56,0.88 0.68,0.56 1.08,1.4 0.4,0.8 0.4,2 0,1.68 -0.8,2.84 -0.76,1.12 -2.16,1.84 -1.36,0.68 -3.24,0.96 -1.84,0.28 -3.96,0.28 -3.24,0 -5.36,-0.48 -2.12,-0.48 -2.96,-0.92 l 0.84,-4 5.4,0 q -0.04,0.2 -0.04,0.4 0,0.16 0,0.36 0,0.92 0.4,1.48 0.44,0.52 1.48,0.52 1.16,0 1.64,-0.64 0.52,-0.68 0.52,-1.24 0,-0.56 -0.44,-0.96 -0.4,-0.44 -1.04,-0.72 -0.64,-0.32 -1.44,-0.52 -0.76,-0.24 -1.48,-0.44 -0.52,-0.12 -1.2,-0.4 -0.64,-0.28 -1.24,-0.8 -0.6,-0.52 -1,-1.32 -0.4,-0.84 -0.4,-2.08 0,-1.76 0.84,-2.92 0.88,-1.2 2.24,-1.92 1.4,-0.72 3.12,-1.04 1.76,-0.32 3.52,-0.32 2.2,0 4.16,0.4 1.96,0.4 3.2,1.04 l -0.92,4.04 -5.2,0 z"
       style="font-style:normal;font-variant:normal;font-weight:normal;font-stretch:normal;font-family:'Racing Sans One';-inkscape-font-specification:'Racing Sans One';text-align:center;text-anchor:middle"
       id="path4305"
       inkscape:connector-curvature="0" />
    <path
       d="m -592.37656,167.57161 q 4.76,0 6.92,1.68 2.28,1.76 2.28,5.84 0,2.52 -0.84,4.56 -0.84,2 -2.36,3.32 -3.04,2.56 -8.8,2.56 -4.92,0 -7.04,-1.88 -2.28,-1.96 -2.28,-5.88 0,-2.6 1.04,-4.72 1.08,-2.12 3.08,-3.52 2.92,-1.96 8,-1.96 z m -2.72,15.24 q 1,0 1.72,-1.12 0.76,-1.12 1.2,-2.72 0.44,-1.64 0.64,-3.36 0.24,-1.76 0.24,-3.04 0,-1.12 -0.24,-1.68 -0.2,-0.6 -0.92,-0.6 -1.08,0 -1.88,1.16 -0.76,1.16 -1.24,2.76 -0.48,1.6 -0.72,3.28 -0.2,1.68 -0.2,2.72 0,2.6 1.4,2.6 z"
       style="font-style:normal;font-variant:normal;font-weight:normal;font-stretch:normal;font-family:'Racing Sans One';-inkscape-font-specification:'Racing Sans One';text-align:center;text-anchor:middle"
       id="path4307"
       inkscape:connector-curvature="0" />
    <path
       d="m -558.03156,168.01161 6.48,0 -3.28,15.56 q -0.36,1.8 -1.2,3.32 -0.84,1.52 -2.36,2.64 -1.48,1.12 -3.76,1.76 -2.24,0.64 -5.48,0.64 -0.6,0 -1.44,-0.04 -0.84,0 -1.72,-0.04 -0.88,0 -1.68,-0.04 -0.8,-0.04 -1.28,-0.08 l 0.76,-2.88 q 1.28,0.2 2.6,0.2 1.36,0.04 2.32,0.04 1.2,0 2,-0.24 0.84,-0.2 1.36,-0.68 0.56,-0.48 0.88,-1.28 0.36,-0.8 0.56,-1.96 l 0.48,-2.6 -0.28,0 q -0.24,0.36 -0.72,0.88 -0.44,0.48 -1.16,0.96 -0.72,0.44 -1.72,0.76 -0.96,0.28 -2.2,0.28 -1.4,0 -2.4,-0.4 -0.96,-0.44 -1.56,-1.16 -0.6,-0.76 -0.88,-1.76 -0.28,-1.04 -0.28,-2.24 0,-0.52 0.08,-1.6 0.08,-1.08 0.36,-2.44 0.32,-1.36 0.88,-2.76 0.6,-1.44 1.56,-2.6 1,-1.16 2.44,-1.92 1.48,-0.76 3.56,-0.76 0.64,0 1.4,0.12 0.76,0.12 1.48,0.44 0.72,0.32 1.28,0.92 0.56,0.6 0.88,1.56 l 0.24,0 1.8,-2.6 z m -4.48,3.48 q -0.96,0 -1.6,1.04 -0.64,1 -1.04,2.36 -0.4,1.36 -0.6,2.72 -0.16,1.32 -0.16,1.96 0,0.8 0.24,1.36 0.28,0.52 0.96,0.52 0.4,0 0.76,-0.2 0.4,-0.2 0.72,-0.44 0.36,-0.28 0.6,-0.56 0.28,-0.28 0.4,-0.44 l 1.48,-7 q -0.32,-0.44 -0.76,-0.88 -0.4,-0.44 -1,-0.44 z"
       style="font-style:normal;font-variant:normal;font-weight:normal;font-stretch:normal;font-family:'Racing Sans One';-inkscape-font-specification:'Racing Sans One';text-align:center;text-anchor:middle"
       id="path4309"
       inkscape:connector-curvature="0" />
    <path
       d="m -542.50656,177.17161 q -0.16,0.88 -0.24,1.68 -0.04,0.8 -0.04,1.44 0,0.36 0.04,0.8 0.04,0.44 0.16,0.84 0.16,0.36 0.4,0.64 0.28,0.24 0.76,0.24 0.36,0 0.8,-0.24 0.48,-0.24 0.92,-0.68 0.48,-0.44 0.88,-1.08 0.44,-0.64 0.68,-1.44 l 6.56,0 -1.04,4.28 q -0.8,0.52 -1.84,0.88 -1.04,0.36 -2.2,0.6 -1.16,0.2 -2.36,0.28 -1.2,0.12 -2.28,0.12 -2,0 -3.72,-0.36 -1.72,-0.36 -3,-1.24 -1.28,-0.88 -2.04,-2.32 -0.72,-1.48 -0.72,-3.64 0,-1.96 0.6,-3.84 0.64,-1.88 2.08,-3.32 1.48,-1.48 3.92,-2.36 2.48,-0.88 6.16,-0.88 4,0 6,1.24 2.04,1.24 2.04,3.88 0,1.08 -0.32,2.36 -0.32,1.24 -0.96,2.12 l -11.24,0 z m 5.32,-4.76 q 0,-1.24 -0.4,-1.68 -0.4,-0.44 -0.96,-0.44 -0.64,0 -1.2,0.44 -0.52,0.4 -0.96,1.12 -0.44,0.68 -0.8,1.6 -0.36,0.88 -0.6,1.88 l 4.56,0 q 0.08,-0.48 0.16,-1 0.08,-0.44 0.12,-0.96 0.08,-0.52 0.08,-0.96 z"
       style="font-style:normal;font-variant:normal;font-weight:normal;font-stretch:normal;font-family:'Racing Sans One';-inkscape-font-specification:'Racing Sans One';text-align:center;text-anchor:middle"
       id="path4311"
       inkscape:connector-curvature="0" />
    <path
       d="m -527.74594,168.01161 q 1.48,-0.32 2.6,-0.72 1.12,-0.4 2.04,-1 0.96,-0.6 1.8,-1.48 0.88,-0.88 1.88,-2.16 l 4.12,0 -1.16,5.36 3.12,0 -0.52,2.68 -3.16,0 -1.64,7.8 q -0.2,0.92 -0.32,1.64 -0.12,0.72 -0.12,1.12 0,0.8 0.56,1 0.6,0.2 2.2,0.2 l -0.6,2.76 q -0.28,0.08 -0.88,0.12 -0.56,0.04 -1.28,0.08 -0.68,0.08 -1.44,0.08 -0.72,0.04 -1.28,0.04 -1,0 -1.96,-0.16 -0.96,-0.12 -1.72,-0.52 -0.76,-0.44 -1.24,-1.24 -0.44,-0.8 -0.44,-2.16 0,-0.48 0.04,-1.2 0.08,-0.72 0.28,-1.6 l 1.68,-7.96 -3.12,0 0.56,-2.68 z"
       style="font-style:normal;font-variant:normal;font-weight:normal;font-stretch:normal;font-family:'Racing Sans One';-inkscape-font-specification:'Racing Sans One';text-align:center;text-anchor:middle"
       id="path4313"
       inkscape:connector-curvature="0" />
    <path
       d="m -503.06469,168.01161 6.52,0 0.6,3 0.28,0 q 0.92,-1.44 2.36,-2.44 1.44,-1 3.8,-1 0.16,0 0.48,0.04 0.36,0 0.76,0.12 0.44,0.08 0.88,0.28 0.48,0.16 0.92,0.48 l -1.76,8.24 -4.36,0 q -0.08,-2.48 -0.44,-3.44 -0.36,-1 -1.16,-1 -0.4,0 -0.88,0.2 -0.44,0.16 -0.92,0.76 l -2.56,11.96 -8.16,0 3.64,-17.2 z"
       style="font-style:normal;font-variant:normal;font-weight:normal;font-stretch:normal;font-family:'Racing Sans One';-inkscape-font-specification:'Racing Sans One';text-align:center;text-anchor:middle"
       id="path4315"
       inkscape:connector-curvature="0" />
    <path
       d="m -478.28781,177.17161 q -0.16,0.88 -0.24,1.68 -0.04,0.8 -0.04,1.44 0,0.36 0.04,0.8 0.04,0.44 0.16,0.84 0.16,0.36 0.4,0.64 0.28,0.24 0.76,0.24 0.36,0 0.8,-0.24 0.48,-0.24 0.92,-0.68 0.48,-0.44 0.88,-1.08 0.44,-0.64 0.68,-1.44 l 6.56,0 -1.04,4.28 q -0.8,0.52 -1.84,0.88 -1.04,0.36 -2.2,0.6 -1.16,0.2 -2.36,0.28 -1.2,0.12 -2.28,0.12 -2,0 -3.72,-0.36 -1.72,-0.36 -3,-1.24 -1.28,-0.88 -2.04,-2.32 -0.72,-1.48 -0.72,-3.64 0,-1.96 0.6,-3.84 0.64,-1.88 2.08,-3.32 1.48,-1.48 3.92,-2.36 2.48,-0.88 6.16,-0.88 4,0 6,1.24 2.04,1.24 2.04,3.88 0,1.08 -0.32,2.36 -0.32,1.24 -0.96,2.12 l -11.24,0 z m 5.32,-4.76 q 0,-1.24 -0.4,-1.68 -0.4,-0.44 -0.96,-0.44 -0.64,0 -1.2,0.44 -0.52,0.4 -0.96,1.12 -0.44,0.68 -0.8,1.6 -0.36,0.88 -0.6,1.88 l 4.56,0 q 0.08,-0.48 0.16,-1 0.08,-0.44 0.12,-0.96 0.08,-0.52 0.08,-0.96 z"
       style="font-style:normal;font-variant:normal;font-weight:normal;font-stretch:normal;font-family:'Racing Sans One';-inkscape-font-specification:'Racing Sans One';text-align:center;text-anchor:middle"
       id="path4317"
       inkscape:connector-curvature="0" />
    <path
       d="m -462.25281,169.49161 q 2.04,-1 4.16,-1.44 2.16,-0.48 4.8,-0.48 2.56,0 4.24,0.4 1.68,0.4 2.68,1.16 1,0.76 1.4,1.8 0.4,1.04 0.4,2.36 0,0.76 -0.12,1.64 -0.08,0.88 -0.2,1.48 l -1.88,8.8 -6.44,0 -0.72,-2.56 -0.24,0 q -1.28,1.4 -3,2.16 -1.68,0.72 -3.36,0.72 -0.96,0 -1.88,-0.28 -0.92,-0.28 -1.64,-0.84 -0.72,-0.6 -1.16,-1.48 -0.44,-0.92 -0.44,-2.2 0,-2.08 1.12,-3.28 1.16,-1.24 3,-1.84 1.88,-0.64 4.2,-0.8 2.36,-0.16 4.72,-0.16 0.08,-0.4 0.2,-1.12 0.12,-0.76 0.12,-1.32 0,-0.72 -0.4,-1.32 -0.36,-0.64 -1.56,-0.64 -1.4,0 -2.08,0.84 -0.64,0.8 -0.84,1.96 l -5.84,0 0.76,-3.56 z m 9.2,7.04 -0.72,0 q -1.16,0 -2,0.32 -0.8,0.28 -1.32,0.76 -0.48,0.48 -0.72,1.08 -0.24,0.6 -0.24,1.2 0,0.96 0.48,1.44 0.52,0.48 1.2,0.48 0.84,0 1.64,-0.6 0.84,-0.6 1.04,-1.6 l 0.64,-3.08 z"
       style="font-style:normal;font-variant:normal;font-weight:normal;font-stretch:normal;font-family:'Racing Sans One';-inkscape-font-specification:'Racing Sans One';text-align:center;text-anchor:middle"
       id="path4319"
       inkscape:connector-curvature="0" />
    <path
       d="m -426.46156,158.33161 8.2,0 -5.72,26.88 -6.48,0 -0.72,-2.56 -0.28,0 q -0.24,0.36 -0.76,0.88 -0.48,0.48 -1.24,0.96 -0.76,0.44 -1.8,0.72 -1.04,0.32 -2.4,0.32 -1.4,0 -2.4,-0.4 -0.96,-0.44 -1.6,-1.16 -0.6,-0.72 -0.88,-1.72 -0.28,-1.04 -0.28,-2.24 0,-0.52 0.08,-1.64 0.08,-1.16 0.36,-2.52 0.32,-1.4 0.88,-2.84 0.6,-1.48 1.56,-2.68 1,-1.2 2.44,-1.96 1.44,-0.8 3.48,-0.8 0.64,0 1.36,0.12 0.72,0.12 1.36,0.44 0.68,0.32 1.2,0.92 0.52,0.6 0.76,1.56 l 0.28,0 2.6,-12.28 z m -4.88,13.16 q -0.96,0 -1.6,1.08 -0.64,1.04 -1.04,2.44 -0.4,1.4 -0.6,2.8 -0.16,1.4 -0.16,2.08 0,0.8 0.24,1.36 0.24,0.52 0.92,0.52 0.4,0 0.76,-0.16 0.4,-0.2 0.72,-0.44 0.36,-0.28 0.6,-0.56 0.24,-0.28 0.4,-0.48 l 1.56,-7.28 q -0.28,-0.44 -0.76,-0.88 -0.44,-0.48 -1.04,-0.48 z"
       style="font-style:normal;font-variant:normal;font-weight:normal;font-stretch:normal;font-family:'Racing Sans One';-inkscape-font-specification:'Racing Sans One';text-align:center;text-anchor:middle"
       id="path4321"
       inkscape:connector-curvature="0" />
    <path
       d="m -409.93656,168.01161 1.2,11.76 6.32,-11.76 4.24,0 -9.64,17.2 q -1.44,2.52 -2.92,3.88 -1.48,1.36 -3.24,2 -1.72,0.64 -3.84,0.72 -2.08,0.12 -4.76,0.12 l 0.6,-2.76 q 1.32,0 2.44,-0.04 1.16,-0.04 1.84,-0.24 0.92,-0.24 1.32,-0.88 0.4,-0.6 0.4,-1.8 0,-0.8 -0.16,-1.84 -0.12,-1.04 -0.28,-2.2 l -1.96,-14.16 8.44,0 z"
       style="font-style:normal;font-variant:normal;font-weight:normal;font-stretch:normal;font-family:'Racing Sans One';-inkscape-font-specification:'Racing Sans One';text-align:center;text-anchor:middle"
       id="path4323"
       inkscape:connector-curvature="0" />
    <path
       d="m -392.09094,181.69161 q 0,0.92 -0.4,1.64 -0.36,0.72 -1,1.2 -0.6,0.48 -1.4,0.72 -0.8,0.28 -1.68,0.28 -1.52,0 -2.6,-0.8 -1.04,-0.84 -1.04,-2.6 0,-0.92 0.36,-1.64 0.36,-0.72 0.96,-1.2 0.6,-0.48 1.36,-0.72 0.8,-0.28 1.64,-0.28 1.64,0 2.72,0.84 1.08,0.8 1.08,2.56 z"
       style="font-style:normal;font-variant:normal;font-weight:normal;font-stretch:normal;font-family:'Racing Sans One';-inkscape-font-specification:'Racing Sans One';text-align:center;text-anchor:middle"
       id="path4325"
       inkscape:connector-curvature="0" />
  </g>
</svg>
