<?xml version="1.0" encoding="UTF-8" standalone="no"?>
<svg
   xmlns:dc="http://purl.org/dc/elements/1.1/"
   xmlns:cc="http://creativecommons.org/ns#"
   xmlns:rdf="http://www.w3.org/1999/02/22-rdf-syntax-ns#"
   xmlns:svg="http://www.w3.org/2000/svg"
   xmlns="http://www.w3.org/2000/svg"
   xmlns:sodipodi="http://sodipodi.sourceforge.net/DTD/sodipodi-0.dtd"
   xmlns:inkscape="http://www.inkscape.org/namespaces/inkscape"
   width="476.0578"
   height="363.5033"
   version="1.1"
   id="svg2"
   inkscape:version="0.91 r13725"
   sodipodi:docname="Instructions 8.svg">
  <metadata
     id="metadata48">
    <rdf:RDF>
      <cc:Work
         rdf:about="">
        <dc:format>image/svg+xml</dc:format>
        <dc:type
           rdf:resource="http://purl.org/dc/dcmitype/StillImage" />
        <dc:title>5 by 3 sigma maze</dc:title>
      </cc:Work>
    </rdf:RDF>
  </metadata>
  <defs
     id="defs46" />
  <sodipodi:namedview
     pagecolor="#ffffff"
     bordercolor="#666666"
     borderopacity="1"
     objecttolerance="10"
     gridtolerance="10"
     guidetolerance="10"
     inkscape:pageopacity="0"
     inkscape:pageshadow="2"
     inkscape:window-width="1680"
     inkscape:window-height="962"
     id="namedview44"
     showgrid="false"
     showguides="false"
     fit-margin-top="0"
     fit-margin-left="0"
     fit-margin-right="0"
     fit-margin-bottom="0"
     inkscape:zoom="0.87055056"
     inkscape:cx="283.9645"
     inkscape:cy="103.77754"
     inkscape:window-x="0"
     inkscape:window-y="0"
     inkscape:window-maximized="1"
     inkscape:current-layer="svg2" />
  <title
     id="title4">5 by 3 sigma maze</title>
  <desc
     id="desc6">5 by 3 sigma maze generated by The Maze Generator Website (http://www.mazegenerator.net/).</desc>
  <path
     style="opacity:1;fill:#ffffff;fill-opacity:1;fill-rule:nonzero;stroke:none;stroke-width:1.80442083;stroke-linejoin:miter;stroke-miterlimit:4;stroke-dasharray:none;stroke-opacity:1"
     d="m -0.94815063,-0.36483765 477.95410063,0 0,364.23296765 -477.95410063,0 z"
     id="rect3543" />
  <flowRoot
     xml:space="preserve"
     id="flowRoot4210"
     style="fill:black;stroke:none;stroke-opacity:1;stroke-width:1px;stroke-linejoin:miter;stroke-linecap:butt;fill-opacity:1;font-family:Sans;font-style:normal;font-weight:normal;font-size:40px;line-height:125%;letter-spacing:0px;word-spacing:0px"><flowRegion
       id="flowRegion4212"><rect
         id="rect4214"
         width="516.91425"
         height="328.52774"
         x="-19.527872"
         y="8.5555029" /></flowRegion><flowPara
       id="flowPara4216" /></flowRoot>  <g
     transform="matrix(1.1370264,0,0,1.1370264,-89.404057,25.721326)"
     style="font-style:normal;font-weight:normal;font-size:40px;line-height:125%;font-family:Sans;letter-spacing:0px;word-spacing:0px;fill:#000000;fill-opacity:1;stroke:none;stroke-width:1px;stroke-linecap:butt;stroke-linejoin:miter;stroke-opacity:1"
     id="flowRoot4167">
    <path
       d="m 107.80148,69.569148 -0.585,0.405 q -1.26,0 -3.87,-0.09 -2.565,-0.135 -3.824996,-0.135 -0.855,0.54 -2.115,0.54 -0.99,0 -1.26,0.585 -0.45,0.855 -0.45,4.005 0,0.945 0.225,5.04 l 0.54,0.945 q 1.665,0 5.039996,-1.035 3.375,-1.08 5.04,-1.08 l 0.945,0.63 q 0,3.195 -0.315,7.155 l -0.27,0.135 q -3.825,0 -7.874996,-1.485 -0.495,0 -1.035,0.36 -0.54,0.315 -0.54,0.72 0,7.515 2.295,12.33 l -0.54,0.585 q -2.61,-0.945 -4.77,-0.945 -0.9,0 -1.125,-1.125 -0.405,-2.16 -0.855,-5.895 -0.09,-0.81 -0.315,-12.735 -0.225,-9.765 -1.17,-11.25 1.485,-0.99 4.86,-0.99 1.215,0 5.354996,-1.53 1.935,-0.765 4.86,-1.53 l 0.81,1.035 q 0.495,3.33 0.945,5.355 z"
       style="font-style:normal;font-variant:normal;font-weight:normal;font-stretch:normal;font-size:45px;font-family:BeachType;-inkscape-font-specification:BeachType;text-align:center;text-anchor:middle"
       id="path4208" />
    <path
       d="m 113.16984,97.829148 q -0.99,0.36 -2.925,0.36 -0.225,-0.405 -0.225,-1.485 0,-0.765 0.225,-5.04 0.225,-4.275 0.225,-5.04 0,-0.765 -0.63,-5.13 -0.585,-4.41 -0.585,-5.175 0,-1.215 0.405,-1.575 0.45,-0.36 1.755,-0.36 0.945,0 1.395,-0.315 0,0.045 0.18,0.585 0.18,0.54 0.18,0.675 0,0.675 -0.315,4.41 -0.315,3.735 -0.315,4.41 0,1.755 0.63,13.68 z"
       style="font-style:normal;font-variant:normal;font-weight:normal;font-stretch:normal;font-size:45px;font-family:BeachType;-inkscape-font-specification:BeachType;text-align:center;text-anchor:middle"
       id="path4210" />
    <path
       d="m 132.49172,96.974148 q 0,1.08 -1.89,1.35 -0.27,-0.315 -3.78,-6.075 -2.79,-4.545 -6.21,-10.485 -0.9,2.655 -1.08,6.345 -0.045,0.9 -0.045,6.48 0,1.215 -0.315,4.14 l -0.855,0.045 q -0.135,-0.27 -1.125,-1.71 -0.72,-1.08 -0.72,-1.89 0,-1.08 1.125,-6.48 0.225,-1.08 0.495,-5.265 0.225,-3.42 0.81,-5.13 0.225,-0.675 2.205,-1.08 2.43,4.95 3.69,7.29 2.115,3.915 3.555,5.805 0.09,-0.27 0.09,-0.81 0,-0.855 -0.405,-5.895 -0.36,-5.04 -0.36,-5.895 0,-1.125 0.18,-2.475 0.54,-0.405 1.35,-0.45 0.495,0.81 1.62,2.25 l 0.315,0.81 q 0,0.225 -0.45,2.925 -0.405,2.7 -0.405,3.33 0,5.04 1.62,10.305 0.585,1.89 0.585,2.565 z"
       style="font-style:normal;font-variant:normal;font-weight:normal;font-stretch:normal;font-size:45px;font-family:BeachType;-inkscape-font-specification:BeachType;text-align:center;text-anchor:middle"
       id="path4212" />
    <path
       d="m 137.69133,97.829148 q -0.99,0.36 -2.925,0.36 -0.225,-0.405 -0.225,-1.485 0,-0.765 0.225,-5.04 0.225,-4.275 0.225,-5.04 0,-0.765 -0.63,-5.13 -0.585,-4.41 -0.585,-5.175 0,-1.215 0.405,-1.575 0.45,-0.36 1.755,-0.36 0.945,0 1.395,-0.315 0,0.045 0.18,0.585 0.18,0.54 0.18,0.675 0,0.675 -0.315,4.41 -0.315,3.735 -0.315,4.41 0,1.755 0.63,13.68 z"
       style="font-style:normal;font-variant:normal;font-weight:normal;font-stretch:normal;font-size:45px;font-family:BeachType;-inkscape-font-specification:BeachType;text-align:center;text-anchor:middle"
       id="path4214" />
    <path
       d="m 156.4732,89.144148 q 0,2.79 -1.215,5.625 -1.485,3.555 -3.825,3.555 -6.255,0 -9.135,-3.555 -0.405,-0.495 -0.405,-3.24 0,-2.7 4.455,-2.7 l 2.115,0 0.27,0.315 q 0.225,-0.18 0.405,-0.225 l -0.225,0.495 -0.18,-0.27 q -0.72,0.585 -1.53,1.935 -0.81,1.305 -0.81,1.935 0,0.495 1.08,0.945 0.945,0.36 1.575,0.36 1.395,0 2.295,-1.35 0.765,-1.17 0.765,-2.655 0,-1.575 -0.18,-2.16 -0.315,-0.9 -1.44,-1.62 -0.81,-0.135 -2.295,-0.45 -1.89,-0.585 -4.005,-1.98 -2.655,-1.755 -2.655,-3.24 0,-2.7 3.735,-4.545 3.15,-1.53 6.21,-1.53 1.125,0 1.44,0.54 0.18,0.315 0.315,1.62 -1.62,0.045 -2.79,0.405 -1.305,0.45 -2.61,0.9 0.045,-0.9 -0.45,-0.9 -0.855,0 -1.935,1.665 -1.035,1.665 -1.035,2.655 0,1.125 3.105,2.025 5.22,1.575 5.85,1.845 3.105,1.395 3.105,3.6 z"
       style="font-style:normal;font-variant:normal;font-weight:normal;font-stretch:normal;font-size:45px;font-family:BeachType;-inkscape-font-specification:BeachType;text-align:center;text-anchor:middle"
       id="path4216" />
    <path
       d="m 175.72547,75.734148 q -0.045,0.405 -1.665,5.49 -1.62,5.04 -1.62,6.39 0,2.07 0.765,4.95 1.035,3.96 1.17,4.86 -1.125,0.54 -2.61,0.54 -1.17,0 -1.485,-4.545 -0.045,-0.99 -0.27,-5.715 -0.63,-0.765 -2.025,-0.765 -1.935,0.045 -2.295,-0.135 -0.315,0.045 -0.855,0.045 -0.54,0 -1.215,-0.045 -0.63,0.585 -0.63,4.5 0,0.315 0.09,2.16 0.09,1.845 0.09,2.16 0,0.81 -0.045,1.26 l -0.27,0.315 q -1.035,0.585 -2.385,0.585 -0.36,0 -0.63,-0.18 0.045,-0.585 0.81,-5.895 0.81,-5.175 0.81,-6.39 0,-3.87 -1.08,-9.855 l 0.18,-0.09 0.405,0.09 q 1.125,-0.36 2.205,-0.36 0.09,0 0.675,0.135 0.63,0.09 0.765,0.09 0,0.54 -0.45,3.69 -0.45,3.15 -0.45,3.735 0,2.07 0.45,2.655 l 2.655,0 q 1.8,0 2.52,-0.27 1.215,-0.45 1.89,-2.88 0.36,-1.215 0.945,-4.5 0.45,-2.475 0.99,-2.88 0.9,0.09 2.565,0.855 z"
       style="font-style:normal;font-variant:normal;font-weight:normal;font-stretch:normal;font-size:45px;font-family:BeachType;-inkscape-font-specification:BeachType;text-align:center;text-anchor:middle"
       id="path4218" />
    <path
       d="m 214.31719,89.729148 q 0,3.33 -2.025,5.49 -2.025,2.115 -5.31,2.115 -2.79,0 -6.075,-2.205 -0.09,0.27 -0.09,0.54 0,0.09 0.045,0.72 0.09,0.585 0.09,0.675 0,0.585 -0.72,0.945 l -1.08,0 q -0.945,0 -1.44,-4.59 -0.36,-3.285 -0.36,-5.445 0,-4.725 0.855,-8.19 -1.215,-0.54 -1.575,-0.855 -0.585,-0.54 -0.585,-1.665 0,-1.53 3.87,-2.385 2.835,-0.63 5.175,-0.63 2.385,0 4.86,1.08 3.015,1.305 3.015,3.375 0,2.25 -3.24,4.005 -2.475,1.35 -5.22,1.8 0.945,0.315 4.05,0.72 2.79,0.36 3.96,1.08 1.8,1.08 1.8,3.42 z m -4.5,-10.35 q 0,-1.035 -1.665,-2.07 -1.665,-1.08 -3.15,-1.08 -1.215,0 -2.97,0.81 -2.025,0.945 -2.025,2.025 0,-0.225 0.09,1.935 0.09,1.935 0.045,2.565 1.845,0 5.49,-1.305 4.185,-1.485 4.185,-2.88 z m 1.035,11.16 q 0,-1.935 -3.87,-3.69 -2.565,-1.17 -5.67,-1.8 0,0.405 -0.405,2.475 -0.36,2.025 -0.36,2.385 0,0.63 0.9,2.115 1.125,1.89 2.43,2.655 1.305,0.72 3.51,0.72 1.575,0 2.52,-1.35 0.945,-1.35 0.945,-3.51 z"
       style="font-style:normal;font-variant:normal;font-weight:normal;font-stretch:normal;font-size:45px;font-family:BeachType;-inkscape-font-specification:BeachType;text-align:center;text-anchor:middle"
       id="path4220" />
    <path
       d="m 236.34328,75.374148 q 0,1.845 -1.71,3.105 -0.945,0.63 -3.375,2.385 -1.935,1.395 -2.16,2.88 -0.45,2.925 -0.45,4.14 0,4.365 1.305,9.9 l -0.585,0.405 q -2.295,0 -3.915,0.09 -0.09,-0.495 -0.09,-1.035 0,-0.765 0.675,-4.86 0.72,-4.095 0.72,-4.815 0,-1.62 -0.405,-3.78 -0.225,-1.26 -3.645,-4.05 -3.15,-2.565 -4.77,-3.24 1.35,-1.35 2.475,-1.89 0.945,2.205 7.56,7.83 2.295,-2.16 3.51,-4.32 2.025,-3.555 3.87,-3.555 0.36,0 0.99,0.27 l 0,0.54 z"
       style="font-style:normal;font-variant:normal;font-weight:normal;font-stretch:normal;font-size:45px;font-family:BeachType;-inkscape-font-specification:BeachType;text-align:center;text-anchor:middle"
       id="path4222" />
    <path
       d="m 272.07539,89.144148 q -0.135,0.495 -0.36,3.42 -0.18,2.115 -0.72,3.06 -0.63,1.08 -2.565,1.935 -1.89,0.81 -3.375,0.81 -3.375,0 -4.95,-1.44 -1.575,-1.485 -2.43,-5.49 -0.45,-2.16 -0.45,-4.995 0,-3.825 1.08,-6.885 1.53,-4.32 4.59,-4.32 0.225,0 1.485,-0.09 1.26,-0.09 1.485,-0.09 2.745,0 4.815,3.465 l -0.9,0.675 q -0.36,-0.18 -1.395,-1.395 -0.855,-0.99 -1.62,-0.99 -0.675,0 -2.52,0.9 -4.32,2.115 -4.32,10.08 0,3.195 1.44,5.355 1.44,2.115 3.6,2.115 4.5,0 4.5,-3.87 0,-2.475 -0.765,-2.475 -0.045,0 -0.9,0.585 -0.81,0.54 -1.035,0.54 -1.215,-0.45 -1.26,-0.495 -0.675,-0.36 -0.675,-0.945 0,-0.63 2.115,-1.98 -0.495,-0.045 2.205,-0.045 2.205,0 2.925,2.565 z"
       style="font-style:normal;font-variant:normal;font-weight:normal;font-stretch:normal;font-size:45px;font-family:BeachType;-inkscape-font-specification:BeachType;text-align:center;text-anchor:middle"
       id="path4224" />
    <path
       d="m 297.37523,91.619148 q -0.765,2.16 -4.995,5.4 -0.855,0.09 -1.71,0.09 -3.6,0 -6.795,-1.62 -3.15,-1.665 -4.77,-4.365 -0.72,-1.215 -0.72,-3.6 l 0,-2.79 q 0,-4.41 2.565,-7.65 2.61,-3.24 6.255,-3.24 5.445,0 8.595,9.495 -0.675,0.18 -3.465,0.405 -2.115,0.135 -3.33,0.54 -2.25,0.36 -4.23,0.765 -3.15,0.63 -3.15,1.98 0,1.485 0.765,3.24 0.81,1.71 1.8,2.385 0.99,0.675 5.805,0.675 1.035,0 3.195,-1.98 2.205,-2.025 1.98,-2.025 0.54,0 2.205,2.295 z m -5.445,-10.8 q -1.035,-1.305 -2.025,-2.655 -1.44,-1.575 -2.745,-1.575 -2.115,0 -3.735,1.755 -1.575,1.71 -1.575,3.96 0,0.72 0.675,1.575 7.605,-0.945 9.405,-3.06 z"
       style="font-style:normal;font-variant:normal;font-weight:normal;font-stretch:normal;font-size:45px;font-family:BeachType;-inkscape-font-specification:BeachType;text-align:center;text-anchor:middle"
       id="path4226" />
    <path
       d="m 324.66492,79.334148 q -1.395,0.72 -2.835,1.44 -0.54,0.18 -3.375,0.18 -0.27,0 -0.945,0.045 -0.63,0.045 -0.945,0 l -0.585,0.675 q -0.225,0.09 -1.485,1.35 0.18,1.53 0.18,3.555 0,0.675 0.945,4.23 0.99,3.51 0.99,4.185 0,1.17 -0.225,1.395 -0.18,0.18 -1.44,0.45 l -1.8,0.36 q -1.395,0 -1.395,-1.98 0,-0.495 0.27,-3.375 0.27,-2.88 0.27,-3.375 0,-2.61 -0.99,-6.435 -3.06,0.45 -8.055,3.015 l -1.395,-3.69 10.935,-2.34 q 6.75,-1.44 10.8,-1.44 0.54,0 1.08,1.755 z"
       style="font-style:normal;font-variant:normal;font-weight:normal;font-stretch:normal;font-size:45px;font-family:BeachType;-inkscape-font-specification:BeachType;text-align:center;text-anchor:middle"
       id="path4228" />
    <path
       d="m 351.99891,79.334148 q -1.395,0.72 -2.835,1.44 -0.54,0.18 -3.375,0.18 -0.27,0 -0.945,0.045 -0.63,0.045 -0.945,0 l -0.585,0.675 q -0.225,0.09 -1.485,1.35 0.18,1.53 0.18,3.555 0,0.675 0.945,4.23 0.99,3.51 0.99,4.185 0,1.17 -0.225,1.395 -0.18,0.18 -1.44,0.45 l -1.8,0.36 q -1.395,0 -1.395,-1.98 0,-0.495 0.27,-3.375 0.27,-2.88 0.27,-3.375 0,-2.61 -0.99,-6.435 -3.06,0.45 -8.055,3.015 l -1.395,-3.69 10.935,-2.34 q 6.75,-1.44 10.8,-1.44 0.54,0 1.08,1.755 z"
       style="font-style:normal;font-variant:normal;font-weight:normal;font-stretch:normal;font-size:45px;font-family:BeachType;-inkscape-font-specification:BeachType;text-align:center;text-anchor:middle"
       id="path4230" />
    <path
       d="m 357.41789,97.829148 q -0.99,0.36 -2.925,0.36 -0.225,-0.405 -0.225,-1.485 0,-0.765 0.225,-5.04 0.225,-4.275 0.225,-5.04 0,-0.765 -0.63,-5.13 -0.585,-4.41 -0.585,-5.175 0,-1.215 0.405,-1.575 0.45,-0.36 1.755,-0.36 0.945,0 1.395,-0.315 0,0.045 0.18,0.585 0.18,0.54 0.18,0.675 0,0.675 -0.315,4.41 -0.315,3.735 -0.315,4.41 0,1.755 0.63,13.68 z"
       style="font-style:normal;font-variant:normal;font-weight:normal;font-stretch:normal;font-size:45px;font-family:BeachType;-inkscape-font-specification:BeachType;text-align:center;text-anchor:middle"
       id="path4232" />
    <path
       d="m 376.73977,96.974148 q 0,1.08 -1.89,1.35 -0.27,-0.315 -3.78,-6.075 -2.79,-4.545 -6.21,-10.485 -0.9,2.655 -1.08,6.345 -0.045,0.9 -0.045,6.48 0,1.215 -0.315,4.14 l -0.855,0.045 q -0.135,-0.27 -1.125,-1.71 -0.72,-1.08 -0.72,-1.89 0,-1.08 1.125,-6.48 0.225,-1.08 0.495,-5.265 0.225,-3.42 0.81,-5.13 0.225,-0.675 2.205,-1.08 2.43,4.95 3.69,7.29 2.115,3.915 3.555,5.805 0.09,-0.27 0.09,-0.81 0,-0.855 -0.405,-5.895 -0.36,-5.04 -0.36,-5.895 0,-1.125 0.18,-2.475 0.54,-0.405 1.35,-0.45 0.495,0.81 1.62,2.25 l 0.315,0.81 q 0,0.225 -0.45,2.925 -0.405,2.7 -0.405,3.33 0,5.04 1.62,10.305 0.585,1.89 0.585,2.565 z"
       style="font-style:normal;font-variant:normal;font-weight:normal;font-stretch:normal;font-size:45px;font-family:BeachType;-inkscape-font-specification:BeachType;text-align:center;text-anchor:middle"
       id="path4234" />
    <path
       d="m 395.03437,89.144148 q -0.13499,0.495 -0.36,3.42 -0.18,2.115 -0.71999,3.06 -0.63001,1.08 -2.56501,1.935 -1.89,0.81 -3.375,0.81 -3.375,0 -4.95,-1.44 -1.575,-1.485 -2.43,-5.49 -0.45,-2.16 -0.45,-4.995 0,-3.825 1.08,-6.885 1.53,-4.32 4.59,-4.32 0.22501,0 1.48501,-0.09 1.25999,-0.09 1.48499,-0.09 2.745,0 4.815,3.465 l -0.9,0.675 q -0.36,-0.18 -1.39499,-1.395 -0.85501,-0.99 -1.62001,-0.99 -0.675,0 -2.51999,0.9 -4.32001,2.115 -4.32001,10.08 0,3.195 1.44,5.355 1.44,2.115 3.6,2.115 4.5,0 4.5,-3.87 0,-2.475 -0.765,-2.475 -0.045,0 -0.9,0.585 -0.81,0.54 -1.035,0.54 -1.215,-0.45 -1.25999,-0.495 -0.67501,-0.36 -0.67501,-0.945 0,-0.63 2.11501,-1.98 -0.49501,-0.045 2.20499,-0.045 2.205,0 2.925,2.565 z"
       style="font-style:normal;font-variant:normal;font-weight:normal;font-stretch:normal;font-size:45px;font-family:BeachType;-inkscape-font-specification:BeachType;text-align:center;text-anchor:middle"
       id="path4236" />
    <path
       d="m 441.12,79.334148 q -1.395,0.72 -2.835,1.44 -0.54,0.18 -3.375,0.18 -0.27,0 -0.945,0.045 -0.63,0.045 -0.945,0 l -0.585,0.675 q -0.225,0.09 -1.485,1.35 0.18,1.53 0.18,3.555 0,0.675 0.945,4.23 0.99,3.51 0.99,4.185 0,1.17 -0.225,1.395 -0.18,0.18 -1.44,0.45 l -1.8,0.36 q -1.395,0 -1.395,-1.98 0,-0.495 0.27,-3.375 0.27,-2.88 0.27,-3.375 0,-2.61 -0.99,-6.435 -3.06,0.45 -8.055,3.015 l -1.395,-3.69 10.935,-2.34 q 6.75,-1.44 10.8,-1.44 0.54,0 1.08,1.755 z"
       style="font-style:normal;font-variant:normal;font-weight:normal;font-stretch:normal;font-size:45px;font-family:BeachType;-inkscape-font-specification:BeachType;text-align:center;text-anchor:middle"
       id="path4238" />
    <path
       d="m 460.57898,75.734148 q -0.045,0.405 -1.665,5.49 -1.62,5.04 -1.62,6.39 0,2.07 0.765,4.95 1.035,3.96 1.17,4.86 -1.125,0.54 -2.61,0.54 -1.17,0 -1.485,-4.545 -0.045,-0.99 -0.27,-5.715 -0.63,-0.765 -2.025,-0.765 -1.935,0.045 -2.295,-0.135 -0.315,0.045 -0.855,0.045 -0.54,0 -1.215,-0.045 -0.63,0.585 -0.63,4.5 0,0.315 0.09,2.16 0.09,1.845 0.09,2.16 0,0.81 -0.045,1.26 l -0.27,0.315 q -1.035,0.585 -2.385,0.585 -0.36,0 -0.63,-0.18 0.045,-0.585 0.81,-5.895 0.81,-5.175 0.81,-6.39 0,-3.87 -1.08,-9.855 l 0.18,-0.09 0.405,0.09 q 1.125,-0.36 2.205,-0.36 0.09,0 0.675,0.135 0.63,0.09 0.765,0.09 0,0.54 -0.45,3.69 -0.45,3.15 -0.45,3.735 0,2.07 0.45,2.655 l 2.655,0 q 1.8,0 2.52,-0.27 1.215,-0.45 1.89,-2.88 0.36,-1.215 0.945,-4.5 0.45,-2.475 0.99,-2.88 0.9,0.09 2.565,0.855 z"
       style="font-style:normal;font-variant:normal;font-weight:normal;font-stretch:normal;font-size:45px;font-family:BeachType;-inkscape-font-specification:BeachType;text-align:center;text-anchor:middle"
       id="path4240" />
    <path
       d="m 484.05492,91.619148 q -0.765,2.16 -4.995,5.4 -0.855,0.09 -1.71,0.09 -3.6,0 -6.795,-1.62 -3.15,-1.665 -4.77,-4.365 -0.72,-1.215 -0.72,-3.6 l 0,-2.79 q 0,-4.41 2.565,-7.65 2.61,-3.24 6.255,-3.24 5.445,0 8.595,9.495 -0.675,0.18 -3.465,0.405 -2.115,0.135 -3.33,0.54 -2.25,0.36 -4.23,0.765 -3.15,0.63 -3.15,1.98 0,1.485 0.765,3.24 0.81,1.71 1.8,2.385 0.99,0.675 5.805,0.675 1.035,0 3.195,-1.98 2.205,-2.025 1.98,-2.025 0.54,0 2.205,2.295 z m -5.445,-10.8 q -1.035,-1.305 -2.025,-2.655 -1.44,-1.575 -2.745,-1.575 -2.115,0 -3.735,1.755 -1.575,1.71 -1.575,3.96 0,0.72 0.675,1.575 7.605,-0.945 9.405,-3.06 z"
       style="font-style:normal;font-variant:normal;font-weight:normal;font-stretch:normal;font-size:45px;font-family:BeachType;-inkscape-font-specification:BeachType;text-align:center;text-anchor:middle"
       id="path4242" />
    <path
       d="m 179.49387,132.34415 q -0.36,0.54 -0.72,1.08 -0.63,0.99 -0.72,0.99 0,0 -1.53,-0.81 -1.485,-0.855 -1.98,-0.855 -0.63,0 -1.35,0.54 -4.5,3.42 -4.5,11.79 0,6.12 3.33,6.12 1.26,0 3.24,-1.035 2.025,-1.035 1.665,-1.035 0.585,0 2.115,0.765 l 0.315,0.9 q -0.405,0.9 -2.7,1.98 -2.295,1.035 -3.735,1.035 -2.025,0 -4.05,-1.44 -2.025,-1.485 -2.7,-3.51 -0.585,-1.8 -0.585,-5.04 0,-6.12 2.88,-9.72 2.925,-3.645 7.965,-3.645 0.855,0 1.53,0.225 0.63,0.54 1.53,1.665 z"
       style="font-style:normal;font-variant:normal;font-weight:normal;font-stretch:normal;font-size:45px;font-family:BeachType;-inkscape-font-specification:BeachType;text-align:center;text-anchor:middle"
       id="path4244" />
    <path
       d="m 199.79098,146.92415 q 0,1.575 -2.205,3.96 -2.16,2.34 -3.69,2.385 l -3.69,-2.52 q -2.025,-1.44 -3.51,-2.835 -1.62,-0.045 -1.62,1.35 0,0.36 0.675,4.77 -0.99,-0.36 -1.755,-0.225 l -1.35,-0.405 q 2.34,-3.96 2.34,-22.32 1.125,0.09 2.25,0.09 0.9,0 5.175,-0.45 4.32,-0.495 4.815,-0.495 0.765,0.675 0.765,1.845 0,5.085 -1.35,7.065 -0.945,1.395 -3.915,2.43 -4.005,1.395 -6.3,2.835 0,0.945 1.935,2.745 l 1.8,2.295 q 1.215,1.215 2.52,1.215 1.575,0 2.7,-0.855 1.17,-0.9 1.17,-2.16 0,-0.765 -0.405,-1.53 -1.845,0 -2.655,0.72 -1.125,0.99 -1.26,1.08 -0.765,-0.54 -0.765,-1.17 0,-1.71 3.6,-3.105 0.54,0.09 4.725,3.285 z m -4.815,-13.635 q -0.135,-0.225 -0.63,-0.9 -0.27,0.135 -0.72,0.315 l -0.63,-0.045 q -0.27,0 -1.485,0.27 -1.17,0.225 -1.305,0.225 -0.09,0 -0.63,-0.135 -0.54,-0.135 -0.63,-0.135 -1.98,0 -1.98,7.65 0,0.45 0.045,0.765 0.675,0.18 1.125,0.18 0.54,0 1.755,-0.81 2.295,-1.53 2.79,-2.16 0.54,-0.63 1.62,-3.15 0.36,-0.855 0.675,-2.07 z"
       style="font-style:normal;font-variant:normal;font-weight:normal;font-stretch:normal;font-size:45px;font-family:BeachType;-inkscape-font-specification:BeachType;text-align:center;text-anchor:middle"
       id="path4246" />
    <path
       d="m 230.57238,154.30415 q -1.035,0.135 -1.935,0.135 -2.205,0 -2.475,-0.945 -0.09,-0.315 -0.585,-2.565 -3.465,1.755 -4.05,2.025 -2.34,0.99 -4.32,0.99 -4.14,0 -6.345,-2.565 -2.205,-2.565 -2.205,-7.335 0,-2.97 2.52,-4.815 2.565,-1.89 6.525,-1.89 1.71,0 3.33,1.08 0.27,0.18 2.745,2.295 0.045,-0.405 0.045,-0.99 0,-0.765 -0.63,-2.115 -0.765,-1.665 -0.9,-2.07 -0.18,-1.395 -0.27,-1.575 -0.585,-1.845 -3.51,-1.845 -0.99,0 -6.075,1.44 -5.04,1.395 -5.94,1.395 -0.225,-0.18 -1.17,-2.16 1.935,-0.495 6.57,-1.575 3.78,-0.9 6.705,-0.9 2.34,0 4.5,0.585 0.855,2.925 3.465,11.79 2.16,7.47 4.005,11.61 z m -5.4,-6.795 q 0,-0.18 -0.225,-1.26 -0.18,-1.125 -0.18,-1.35 0,-1.8 -1.44,-3.24 -1.44,-1.44 -3.87,-2.115 -1.62,-0.45 -1.98,-0.45 -2.34,0 -4.095,1.53 -1.71,1.485 -1.71,3.51 0,2.475 2.115,5.265 2.115,2.79 4.095,2.79 1.485,0 4.275,-1.62 3.015,-1.755 3.015,-3.06 z"
       style="font-style:normal;font-variant:normal;font-weight:normal;font-stretch:normal;font-size:45px;font-family:BeachType;-inkscape-font-specification:BeachType;text-align:center;text-anchor:middle"
       id="path4248" />
    <path
       d="m 252.50566,145.97915 q 0,3.33 -2.025,5.49 -2.025,2.115 -5.31,2.115 -2.79,0 -6.075,-2.205 -0.09,0.27 -0.09,0.54 0,0.09 0.045,0.72 0.09,0.585 0.09,0.675 0,0.585 -0.72,0.945 l -1.08,0 q -0.945,0 -1.44,-4.59 -0.36,-3.285 -0.36,-5.445 0,-4.725 0.855,-8.19 -1.215,-0.54 -1.575,-0.855 -0.585,-0.54 -0.585,-1.665 0,-1.53 3.87,-2.385 2.835,-0.63 5.175,-0.63 2.385,0 4.86,1.08 3.015,1.305 3.015,3.375 0,2.25 -3.24,4.005 -2.475,1.35 -5.22,1.8 0.945,0.315 4.05,0.72 2.79,0.36 3.96,1.08 1.8,1.08 1.8,3.42 z m -4.5,-10.35 q 0,-1.035 -1.665,-2.07 -1.665,-1.08 -3.15,-1.08 -1.215,0 -2.97,0.81 -2.025,0.945 -2.025,2.025 0,-0.225 0.09,1.935 0.09,1.935 0.045,2.565 1.845,0 5.49,-1.305 4.185,-1.485 4.185,-2.88 z m 1.035,11.16 q 0,-1.935 -3.87,-3.69 -2.565,-1.17 -5.67,-1.8 0,0.405 -0.405,2.475 -0.36,2.025 -0.36,2.385 0,0.63 0.9,2.115 1.125,1.89 2.43,2.655 1.305,0.72 3.51,0.72 1.575,0 2.52,-1.35 0.945,-1.35 0.945,-3.51 z"
       style="font-style:normal;font-variant:normal;font-weight:normal;font-stretch:normal;font-size:45px;font-family:BeachType;-inkscape-font-specification:BeachType;text-align:center;text-anchor:middle"
       id="path4250" />
    <path
       d="m 296.84754,135.58415 q -1.395,0.72 -2.835,1.44 -0.54,0.18 -3.375,0.18 -0.27,0 -0.945,0.045 -0.63,0.045 -0.945,0 l -0.585,0.675 q -0.225,0.09 -1.485,1.35 0.18,1.53 0.18,3.555 0,0.675 0.945,4.23 0.99,3.51 0.99,4.185 0,1.17 -0.225,1.395 -0.18,0.18 -1.44,0.45 l -1.8,0.36 q -1.395,0 -1.395,-1.98 0,-0.495 0.27,-3.375 0.27,-2.88 0.27,-3.375 0,-2.61 -0.99,-6.435 -3.06,0.45 -8.055,3.015 l -1.395,-3.69 10.935,-2.34 q 6.75,-1.44 10.8,-1.44 0.54,0 1.08,1.755 z"
       style="font-style:normal;font-variant:normal;font-weight:normal;font-stretch:normal;font-size:45px;font-family:BeachType;-inkscape-font-specification:BeachType;text-align:center;text-anchor:middle"
       id="path4252" />
    <path
       d="m 323.77652,139.58915 q 0,1.71 -1.485,7.875 -2.475,2.835 -2.79,3.105 -2.16,2.07 -3.87,2.07 -0.765,0.495 -3.06,0.99 -2.25,0.45 -3.735,0.45 -0.9,0 -1.215,-0.18 -0.45,0.405 -1.08,0.405 -1.71,0 -3.915,-2.7 -2.16,-2.745 -2.16,-4.725 0,-2.97 3.69,-7.92 3.87,-5.175 6.705,-5.175 0.045,0 2.025,1.17 1.98,1.125 2.565,1.215 l 0.09,0.045 -1.665,5.895 q -0.72,-1.755 -0.765,-3.285 l -1.485,-2.205 q -3.555,1.395 -5.58,3.78 -2.025,2.34 -2.025,5.13 0,4.905 5.265,4.905 4.635,0 8.235,-3.105 3.645,-3.15 3.645,-7.245 0,-2.16 -1.08,-4.455 l -1.71,-1.08 -0.36,0.09 q -1.17,-0.63 -2.97,-1.665 -0.765,0.315 -1.17,0.315 -0.45,0 -0.45,-0.495 0,-0.855 0.585,-1.665 0.63,-0.855 1.35,-0.855 0.18,0 1.305,0.585 1.17,0.585 1.44,0.63 2.61,1.89 3.87,3.42 1.8,2.16 1.8,4.68 z"
       style="font-style:normal;font-variant:normal;font-weight:normal;font-stretch:normal;font-size:45px;font-family:BeachType;-inkscape-font-specification:BeachType;text-align:center;text-anchor:middle"
       id="path4254" />
    <path
       d="m 368.30262,135.58415 q -1.395,0.72 -2.835,1.44 -0.54,0.18 -3.375,0.18 -0.27,0 -0.945,0.045 -0.63,0.045 -0.945,0 l -0.585,0.675 q -0.225,0.09 -1.485,1.35 0.18,1.53 0.18,3.555 0,0.675 0.945,4.23 0.99,3.51 0.99,4.185 0,1.17 -0.225,1.395 -0.18,0.18 -1.44,0.45 l -1.8,0.36 q -1.395,0 -1.395,-1.98 0,-0.495 0.27,-3.375 0.27,-2.88 0.27,-3.375 0,-2.61 -0.99,-6.435 -3.06,0.45 -8.055,3.015 l -1.395,-3.69 10.935,-2.34 q 6.75,-1.44 10.8,-1.44 0.54,0 1.08,1.755 z"
       style="font-style:normal;font-variant:normal;font-weight:normal;font-stretch:normal;font-size:45px;font-family:BeachType;-inkscape-font-specification:BeachType;text-align:center;text-anchor:middle"
       id="path4256" />
    <path
       d="m 387.7616,131.98415 q -0.045,0.405 -1.665,5.49 -1.62,5.04 -1.62,6.39 0,2.07 0.765,4.95 1.035,3.96 1.17,4.86 -1.125,0.54 -2.61,0.54 -1.17,0 -1.485,-4.545 -0.045,-0.99 -0.27,-5.715 -0.63,-0.765 -2.025,-0.765 -1.935,0.045 -2.295,-0.135 -0.315,0.045 -0.855,0.045 -0.54,0 -1.215,-0.045 -0.63,0.585 -0.63,4.5 0,0.315 0.09,2.16 0.09,1.845 0.09,2.16 0,0.81 -0.045,1.26 l -0.27,0.315 q -1.035,0.585 -2.385,0.585 -0.36,0 -0.63,-0.18 0.045,-0.585 0.81,-5.895 0.81,-5.175 0.81,-6.39 0,-3.87 -1.08,-9.855 l 0.18,-0.09 0.405,0.09 q 1.125,-0.36 2.205,-0.36 0.09,0 0.675,0.135 0.63,0.09 0.765,0.09 0,0.54 -0.45,3.69 -0.45,3.15 -0.45,3.735 0,2.07 0.45,2.655 l 2.655,0 q 1.8,0 2.52,-0.27 1.215,-0.45 1.89,-2.88 0.36,-1.215 0.945,-4.5 0.45,-2.475 0.99,-2.88 0.9,0.09 2.565,0.855 z"
       style="font-style:normal;font-variant:normal;font-weight:normal;font-stretch:normal;font-size:45px;font-family:BeachType;-inkscape-font-specification:BeachType;text-align:center;text-anchor:middle"
       id="path4258" />
    <path
       d="m 411.23754,147.86915 q -0.765,2.16 -4.995,5.4 -0.855,0.09 -1.71,0.09 -3.6,0 -6.795,-1.62 -3.15,-1.665 -4.77,-4.365 -0.72,-1.215 -0.72,-3.6 l 0,-2.79 q 0,-4.41 2.565,-7.65 2.61,-3.24 6.255,-3.24 5.445,0 8.595,9.495 -0.675,0.18 -3.465,0.405 -2.115,0.135 -3.33,0.54 -2.25,0.36 -4.23,0.765 -3.15,0.63 -3.15,1.98 0,1.485 0.765,3.24 0.81,1.71 1.8,2.385 0.99,0.675 5.805,0.675 1.035,0 3.195,-1.98 2.205,-2.025 1.98,-2.025 0.54,0 2.205,2.295 z m -5.445,-10.8 q -1.035,-1.305 -2.025,-2.655 -1.44,-1.575 -2.745,-1.575 -2.115,0 -3.735,1.755 -1.575,1.71 -1.575,3.96 0,0.72 0.675,1.575 7.605,-0.945 9.405,-3.06 z"
       style="font-style:normal;font-variant:normal;font-weight:normal;font-stretch:normal;font-size:45px;font-family:BeachType;-inkscape-font-specification:BeachType;text-align:center;text-anchor:middle"
       id="path4260" />
    <path
       d="m 187.58648,201.64415 q 0,2.79 -1.215,5.625 -1.485,3.555 -3.825,3.555 -6.255,0 -9.135,-3.555 -0.405,-0.495 -0.405,-3.24 0,-2.7 4.455,-2.7 l 2.115,0 0.27,0.315 q 0.225,-0.18 0.405,-0.225 l -0.225,0.495 -0.18,-0.27 q -0.72,0.585 -1.53,1.935 -0.81,1.305 -0.81,1.935 0,0.495 1.08,0.945 0.945,0.36 1.575,0.36 1.395,0 2.295,-1.35 0.765,-1.17 0.765,-2.655 0,-1.575 -0.18,-2.16 -0.315,-0.9 -1.44,-1.62 -0.81,-0.135 -2.295,-0.45 -1.89,-0.585 -4.005,-1.98 -2.655,-1.755 -2.655,-3.24 0,-2.7 3.735,-4.545 3.15,-1.53 6.21,-1.53 1.125,0 1.44,0.54 0.18,0.315 0.315,1.62 -1.62,0.045 -2.79,0.405 -1.305,0.45 -2.61,0.9 0.045,-0.9 -0.45,-0.9 -0.855,0 -1.935,1.665 -1.035,1.665 -1.035,2.655 0,1.125 3.105,2.025 5.22,1.575 5.85,1.845 3.105,1.395 3.105,3.6 z"
       style="font-style:normal;font-variant:normal;font-weight:normal;font-stretch:normal;font-size:45px;font-family:BeachType;-inkscape-font-specification:BeachType;text-align:center;text-anchor:middle"
       id="path4262" />
    <path
       d="m 218.22375,210.55415 q -1.035,0.135 -1.935,0.135 -2.205,0 -2.475,-0.945 -0.09,-0.315 -0.585,-2.565 -3.465,1.755 -4.05,2.025 -2.34,0.99 -4.32,0.99 -4.14,0 -6.345,-2.565 -2.205,-2.565 -2.205,-7.335 0,-2.97 2.52,-4.815 2.565,-1.89 6.525,-1.89 1.71,0 3.33,1.08 0.27,0.18 2.745,2.295 0.045,-0.405 0.045,-0.99 0,-0.765 -0.63,-2.115 -0.765,-1.665 -0.9,-2.07 -0.18,-1.395 -0.27,-1.575 -0.585,-1.845 -3.51,-1.845 -0.99,0 -6.075,1.44 -5.04,1.395 -5.94,1.395 -0.225,-0.18 -1.17,-2.16 1.935,-0.495 6.57,-1.575 3.78,-0.9 6.705,-0.9 2.34,0 4.5,0.585 0.855,2.925 3.465,11.79 2.16,7.47 4.005,11.61 z m -5.4,-6.795 q 0,-0.18 -0.225,-1.26 -0.18,-1.125 -0.18,-1.35 0,-1.8 -1.44,-3.24 -1.44,-1.44 -3.87,-2.115 -1.62,-0.45 -1.98,-0.45 -2.34,0 -4.095,1.53 -1.71,1.485 -1.71,3.51 0,2.475 2.115,5.265 2.115,2.79 4.095,2.79 1.485,0 4.275,-1.62 3.015,-1.755 3.015,-3.06 z"
       style="font-style:normal;font-variant:normal;font-weight:normal;font-stretch:normal;font-size:45px;font-family:BeachType;-inkscape-font-specification:BeachType;text-align:center;text-anchor:middle"
       id="path4264" />
    <path
       d="m 238.31203,209.47415 q 0,1.08 -1.89,1.35 -0.27,-0.315 -3.78,-6.075 -2.79,-4.545 -6.21,-10.485 -0.9,2.655 -1.08,6.345 -0.045,0.9 -0.045,6.48 0,1.215 -0.315,4.14 l -0.855,0.045 q -0.135,-0.27 -1.125,-1.71 -0.72,-1.08 -0.72,-1.89 0,-1.08 1.125,-6.48 0.225,-1.08 0.495,-5.265 0.225,-3.42 0.81,-5.13 0.225,-0.675 2.205,-1.08 2.43,4.95 3.69,7.29 2.115,3.915 3.555,5.805 0.09,-0.27 0.09,-0.81 0,-0.855 -0.405,-5.895 -0.36,-5.04 -0.36,-5.895 0,-1.125 0.18,-2.475 0.54,-0.405 1.35,-0.45 0.495,0.81 1.62,2.25 l 0.315,0.81 q 0,0.225 -0.45,2.925 -0.405,2.7 -0.405,3.33 0,5.04 1.62,10.305 0.585,1.89 0.585,2.565 z"
       style="font-style:normal;font-variant:normal;font-weight:normal;font-stretch:normal;font-size:45px;font-family:BeachType;-inkscape-font-specification:BeachType;text-align:center;text-anchor:middle"
       id="path4266" />
    <path
       d="m 258.49664,201.55415 q 0,4.365 -4.455,7.02 -3.96,2.385 -8.325,2.205 l -1.125,-0.045 q -0.855,-1.035 -0.855,-3.06 0,-0.27 0.09,-1.755 0.09,-1.485 0.09,-1.755 0,-5.805 -0.9,-10.125 -0.315,-1.53 -0.315,-3.375 0,-1.575 1.485,-2.745 1.53,-1.17 3.465,-1.17 1.575,0 4.59,2.025 1.845,1.215 2.385,1.8 1.89,1.89 2.88,5.085 0.99,3.195 0.99,5.895 z m -3.6,-0.45 q 0,-4.5 -1.35,-7.83 -1.845,-4.545 -5.715,-4.545 -1.575,0 -2.835,1.395 1.44,3.105 1.62,8.19 0.315,8.01 0.405,8.415 0.09,1.71 0.45,1.935 1.035,-0.27 4.23,-1.665 1.755,-0.765 2.475,-2.07 0.72,-1.35 0.72,-3.825 z"
       style="font-style:normal;font-variant:normal;font-weight:normal;font-stretch:normal;font-size:45px;font-family:BeachType;-inkscape-font-specification:BeachType;text-align:center;text-anchor:middle"
       id="path4268" />
    <path
       d="m 275.42648,188.59415 q -0.36,0.54 -0.72,1.08 -0.63,0.99 -0.72,0.99 0,0 -1.53,-0.81 -1.485,-0.855 -1.98,-0.855 -0.63,0 -1.35,0.54 -4.5,3.42 -4.5,11.79 0,6.12 3.33,6.12 1.26,0 3.24,-1.035 2.025,-1.035 1.665,-1.035 0.585,0 2.115,0.765 l 0.315,0.9 q -0.405,0.9 -2.7,1.98 -2.295,1.035 -3.735,1.035 -2.025,0 -4.05,-1.44 -2.025,-1.485 -2.7,-3.51 -0.585,-1.8 -0.585,-5.04 0,-6.12 2.88,-9.72 2.925,-3.645 7.965,-3.645 0.855,0 1.53,0.225 0.63,0.54 1.53,1.665 z"
       style="font-style:normal;font-variant:normal;font-weight:normal;font-stretch:normal;font-size:45px;font-family:BeachType;-inkscape-font-specification:BeachType;text-align:center;text-anchor:middle"
       id="path4270" />
    <path
       d="m 305.93859,210.55415 q -1.035,0.135 -1.935,0.135 -2.205,0 -2.475,-0.945 -0.09,-0.315 -0.585,-2.565 -3.465,1.755 -4.05,2.025 -2.34,0.99 -4.32,0.99 -4.14,0 -6.345,-2.565 -2.205,-2.565 -2.205,-7.335 0,-2.97 2.52,-4.815 2.565,-1.89 6.525,-1.89 1.71,0 3.33,1.08 0.27,0.18 2.745,2.295 0.045,-0.405 0.045,-0.99 0,-0.765 -0.63,-2.115 -0.765,-1.665 -0.9,-2.07 -0.18,-1.395 -0.27,-1.575 -0.585,-1.845 -3.51,-1.845 -0.99,0 -6.075,1.44 -5.04,1.395 -5.94,1.395 -0.225,-0.18 -1.17,-2.16 1.935,-0.495 6.57,-1.575 3.78,-0.9 6.705,-0.9 2.34,0 4.5,0.585 0.855,2.925 3.465,11.79 2.16,7.47 4.005,11.61 z m -5.4,-6.795 q 0,-0.18 -0.225,-1.26 -0.18,-1.125 -0.18,-1.35 0,-1.8 -1.44,-3.24 -1.44,-1.44 -3.87,-2.115 -1.62,-0.45 -1.98,-0.45 -2.34,0 -4.095,1.53 -1.71,1.485 -1.71,3.51 0,2.475 2.115,5.265 2.115,2.79 4.095,2.79 1.485,0 4.275,-1.62 3.015,-1.755 3.015,-3.06 z"
       style="font-style:normal;font-variant:normal;font-weight:normal;font-stretch:normal;font-size:45px;font-family:BeachType;-inkscape-font-specification:BeachType;text-align:center;text-anchor:middle"
       id="path4272" />
    <path
       d="m 325.48687,201.64415 q 0,2.79 -1.21499,5.625 -1.48501,3.555 -3.82501,3.555 -6.255,0 -9.135,-3.555 -0.40499,-0.495 -0.40499,-3.24 0,-2.7 4.45499,-2.7 l 2.115,0 0.27,0.315 q 0.225,-0.18 0.40501,-0.225 l -0.22501,0.495 -0.18,-0.27 q -0.71999,0.585 -1.52999,1.935 -0.81,1.305 -0.81,1.935 0,0.495 1.07999,0.945 0.945,0.36 1.575,0.36 1.39501,0 2.295,-1.35 0.765,-1.17 0.765,-2.655 0,-1.575 -0.18,-2.16 -0.315,-0.9 -1.44,-1.62 -0.81,-0.135 -2.29499,-0.45 -1.89001,-0.585 -4.00501,-1.98 -2.655,-1.755 -2.655,-3.24 0,-2.7 3.73501,-4.545 3.14999,-1.53 6.20999,-1.53 1.125,0 1.44,0.54 0.18,0.315 0.315,1.62 -1.62,0.045 -2.78999,0.405 -1.305,0.45 -2.61001,0.9 0.045,-0.9 -0.44999,-0.9 -0.85501,0 -1.935,1.665 -1.03501,1.665 -1.03501,2.655 0,1.125 3.10501,2.025 5.21999,1.575 5.84999,1.845 3.105,1.395 3.105,3.6 z"
       style="font-style:normal;font-variant:normal;font-weight:normal;font-stretch:normal;font-size:45px;font-family:BeachType;-inkscape-font-specification:BeachType;text-align:center;text-anchor:middle"
       id="path4274" />
    <path
       d="m 352.61414,191.83415 q -1.395,0.72 -2.835,1.44 -0.54,0.18 -3.375,0.18 -0.27,0 -0.945,0.045 -0.63,0.045 -0.945,0 l -0.585,0.675 q -0.225,0.09 -1.485,1.35 0.18,1.53 0.18,3.555 0,0.675 0.945,4.23 0.99,3.51 0.99,4.185 0,1.17 -0.225,1.395 -0.18,0.18 -1.44,0.45 l -1.8,0.36 q -1.395,0 -1.395,-1.98 0,-0.495 0.27,-3.375 0.27,-2.88 0.27,-3.375 0,-2.61 -0.99,-6.435 -3.06,0.45 -8.055,3.015 l -1.395,-3.69 10.935,-2.34 q 6.75,-1.44 10.8,-1.44 0.54,0 1.08,1.755 z"
       style="font-style:normal;font-variant:normal;font-weight:normal;font-stretch:normal;font-size:45px;font-family:BeachType;-inkscape-font-specification:BeachType;text-align:center;text-anchor:middle"
       id="path4276" />
    <path
       d="m 372.92813,209.56415 -0.045,0.135 q -7.605,1.035 -11.38499,1.035 -3.10501,0 -4.09501,-0.54 0.18,-2.565 0.18,-5.985 0,-0.54 -0.315,-3.6 -0.26999,-3.105 -0.26999,-3.69 0,-0.405 -0.49501,-4.14 -0.44999,-3.78 -0.405,-4.59 l 0.045,-1.215 q 1.935,-0.045 4.32,-0.315 l 0.27,0.81 q -0.98999,5.805 -0.98999,8.685 0,6.705 0.89999,11.07 0.18,0.9 0.99,1.53 0.405,0 4.635,-0.9 4.23001,-0.945 5.22001,-0.945 0.63,0 1.03499,0.81 0.40501,0.765 0.40501,1.845 z"
       style="font-style:normal;font-variant:normal;font-weight:normal;font-stretch:normal;font-size:45px;font-family:BeachType;-inkscape-font-specification:BeachType;text-align:center;text-anchor:middle"
       id="path4278" />
    <path
       d="m 396.60375,204.11915 q -0.765,2.16 -4.995,5.4 -0.855,0.09 -1.71,0.09 -3.6,0 -6.795,-1.62 -3.15,-1.665 -4.77,-4.365 -0.72,-1.215 -0.72,-3.6 l 0,-2.79 q 0,-4.41 2.565,-7.65 2.61,-3.24 6.255,-3.24 5.445,0 8.595,9.495 -0.675,0.18 -3.465,0.405 -2.115,0.135 -3.33,0.54 -2.25,0.36 -4.23,0.765 -3.15,0.63 -3.15,1.98 0,1.485 0.765,3.24 0.81,1.71 1.8,2.385 0.99,0.675 5.805,0.675 1.035,0 3.195,-1.98 2.205,-2.025 1.98,-2.025 0.54,0 2.205,2.295 z m -5.445,-10.8 q -1.035,-1.305 -2.025,-2.655 -1.44,-1.575 -2.745,-1.575 -2.115,0 -3.735,1.755 -1.575,1.71 -1.575,3.96 0,0.72 0.675,1.575 7.605,-0.945 9.405,-3.06 z"
       style="font-style:normal;font-variant:normal;font-weight:normal;font-stretch:normal;font-size:45px;font-family:BeachType;-inkscape-font-specification:BeachType;text-align:center;text-anchor:middle"
       id="path4280" />
    <path
       d="m 403.77844,211.36415 q 0,0.9 -0.675,1.53 -0.63,0.63 -1.53,0.63 -0.585,0 -1.26,-1.17 -0.675,-1.125 -0.495,-2.07 l 2.655,-0.72 q 0.495,-0.135 0.9,0.495 0.405,0.585 0.405,1.305 z"
       style="font-style:normal;font-variant:normal;font-weight:normal;font-stretch:normal;font-size:45px;font-family:BeachType;-inkscape-font-specification:BeachType;text-align:center;text-anchor:middle"
       id="path4282" />
  </g>
  <text
     xml:space="preserve"
     style="font-style:normal;font-weight:normal;font-size:86.44638062px;line-height:125%;font-family:Sans;letter-spacing:0px;word-spacing:0px;fill:#aa8800;fill-opacity:1;stroke:none;stroke-width:1px;stroke-linecap:butt;stroke-linejoin:miter;stroke-opacity:1;"
     x="12.081781"
     y="313.58249"
     id="text4185"
     sodipodi:linespacing="125%"><tspan
       sodipodi:role="line"
       id="tspan4187"
       x="12.081781"
       y="313.58249"
       style="font-style:normal;font-variant:normal;font-weight:normal;font-stretch:normal;font-family:BeachType;-inkscape-font-specification:BeachType;fill:#aa8800;">™</tspan></text>
  <text
     xml:space="preserve"
     style="font-style:normal;font-weight:normal;font-size:86.44638062px;line-height:125%;font-family:Sans;letter-spacing:0px;word-spacing:0px;fill:#aa8800;fill-opacity:1;stroke:none;stroke-width:1px;stroke-linecap:butt;stroke-linejoin:miter;stroke-opacity:1"
     x="440.05505"
     y="93.414566"
     id="text4185-5"
     sodipodi:linespacing="125%"
     transform="matrix(0.92626236,0.37687934,-0.37687934,0.92626236,0,0)"><tspan
       sodipodi:role="line"
       id="tspan4187-6"
       x="440.05505"
       y="93.414566"
       style="font-style:normal;font-variant:normal;font-weight:normal;font-stretch:normal;font-family:BeachType;-inkscape-font-specification:BeachType;fill:#aa8800">™</tspan></text>
</svg>
