<?xml version="1.0" encoding="UTF-8" standalone="no"?>
<svg
   xmlns:dc="http://purl.org/dc/elements/1.1/"
   xmlns:cc="http://creativecommons.org/ns#"
   xmlns:rdf="http://www.w3.org/1999/02/22-rdf-syntax-ns#"
   xmlns:svg="http://www.w3.org/2000/svg"
   xmlns="http://www.w3.org/2000/svg"
   xmlns:sodipodi="http://sodipodi.sourceforge.net/DTD/sodipodi-0.dtd"
   xmlns:inkscape="http://www.inkscape.org/namespaces/inkscape"
   width="476.0578"
   height="363.5033"
   version="1.1"
   id="svg2"
   inkscape:version="0.91 r13725"
   sodipodi:docname="maze1.svg">
  <metadata
     id="metadata48">
    <rdf:RDF>
      <cc:Work
         rdf:about="">
        <dc:format>image/svg+xml</dc:format>
        <dc:type
           rdf:resource="http://purl.org/dc/dcmitype/StillImage" />
        <dc:title>5 by 3 sigma maze</dc:title>
      </cc:Work>
    </rdf:RDF>
  </metadata>
  <defs
     id="defs46" />
  <sodipodi:namedview
     pagecolor="#ffffff"
     bordercolor="#666666"
     borderopacity="1"
     objecttolerance="10"
     gridtolerance="10"
     guidetolerance="10"
     inkscape:pageopacity="0"
     inkscape:pageshadow="2"
     inkscape:window-width="1680"
     inkscape:window-height="962"
     id="namedview44"
     showgrid="false"
     showguides="false"
     fit-margin-top="0"
     fit-margin-left="0"
     fit-margin-right="0"
     fit-margin-bottom="0"
     inkscape:zoom="0.87055056"
     inkscape:cx="-3.8745938"
     inkscape:cy="103.77754"
     inkscape:window-x="0"
     inkscape:window-y="0"
     inkscape:window-maximized="1"
     inkscape:current-layer="svg2" />
  <title
     id="title4">5 by 3 sigma maze</title>
  <desc
     id="desc6">5 by 3 sigma maze generated by The Maze Generator Website (http://www.mazegenerator.net/).</desc>
  <path
     style="opacity:1;fill:#008000;fill-opacity:1;fill-rule:nonzero;stroke:none;stroke-width:1.89999998;stroke-linejoin:miter;stroke-miterlimit:4;stroke-dasharray:none;stroke-opacity:1"
     d="m 178.91316,1.0871174 29.73731,52.7996296 62.02748,0 29.73731,-52.7996296 -121.5021,0 z"
     id="path4178"
     inkscape:connector-curvature="0" />
  <g
     id="g8"
     transform="matrix(4.1759466,0,0,3.8718726,-4.1760023,-3.8718726)"
     style="fill:none;stroke:#000000;stroke-width:2;stroke-linecap:round;stroke-linejoin:round">
    <path
       d="M 9,41.373067 2,28.248711 9,15.124356 l 14,0"
       id="polyline10"
       inkscape:connector-curvature="0"
       sodipodi:nodetypes="cccc" />
    <polyline
       points="23,15.124355652982137 30,1.9999999999999965 44,1.9999999999999965 51,15.124355652982137"
       id="polyline12" />
    <polyline
       points="72,28.248711305964278 65,15.124355652982137 72,1.9999999999999965 86,1.9999999999999965 93,15.124355652982137 107,15.124355652982137 114,28.248711305964278 107,41.373066958946417"
       id="polyline14" />
    <polyline
       points="9,67.6217782649107 2,54.497422611928556 9,41.373066958946417 23,41.373066958946417 30,54.497422611928556"
       id="polyline16" />
    <polyline
       points="44,28.248711305964278 51,41.373066958946417 65,41.373066958946417 72,28.248711305964278"
       id="polyline18" />
    <path
       d="M 91.5632,44.988888 86,54.497423"
       id="polyline20"
       inkscape:connector-curvature="0"
       sodipodi:nodetypes="cc" />
    <polyline
       points="107,41.373066958946417 114,54.497422611928556 107,67.6217782649107"
       id="polyline22" />
    <polyline
       points="9,93.870489570875 2,80.746133917892848 9,67.6217782649107"
       id="polyline24" />
    <path
       d="m 30,54.497423 14,0 7,13.124355 14,0 7,-13.124355 14,0"
       id="polyline28"
       inkscape:connector-curvature="0"
       sodipodi:nodetypes="cccccc" />
    <polyline
       points="107,67.6217782649107 114,80.746133917892848 107,93.870489570875"
       id="polyline30" />
    <polyline
       points="30,80.746133917892848 23,93.870489570875 9,93.870489570875"
       id="polyline32" />
    <line
       x1="44"
       y1="80.746132"
       x2="30"
       y2="80.746132"
       id="line34" />
    <line
       x1="72"
       y1="80.746132"
       x2="65"
       y2="93.870491"
       id="line36" />
    <line
       x1="51"
       y1="93.870491"
       x2="44"
       y2="80.746132"
       id="line38" />
    <line
       x1="86"
       y1="80.746132"
       x2="72"
       y2="80.746132"
       id="line40" />
    <polyline
       points="107,93.870489570875 93,93.870489570875 86,80.746133917892848"
       id="polyline42" />
  </g>
</svg>
