<?xml version="1.0" encoding="UTF-8" standalone="no"?>
<svg
   xmlns:dc="http://purl.org/dc/elements/1.1/"
   xmlns:cc="http://creativecommons.org/ns#"
   xmlns:rdf="http://www.w3.org/1999/02/22-rdf-syntax-ns#"
   xmlns:svg="http://www.w3.org/2000/svg"
   xmlns="http://www.w3.org/2000/svg"
   xmlns:sodipodi="http://sodipodi.sourceforge.net/DTD/sodipodi-0.dtd"
   xmlns:inkscape="http://www.inkscape.org/namespaces/inkscape"
   width="476.0578"
   height="363.5033"
   version="1.1"
   id="svg2"
   inkscape:version="0.91 r13725"
   sodipodi:docname="Race Countdown 2.svg">
  <metadata
     id="metadata48">
    <rdf:RDF>
      <cc:Work
         rdf:about="">
        <dc:format>image/svg+xml</dc:format>
        <dc:type
           rdf:resource="http://purl.org/dc/dcmitype/StillImage" />
        <dc:title>5 by 3 sigma maze</dc:title>
      </cc:Work>
    </rdf:RDF>
  </metadata>
  <defs
     id="defs46" />
  <sodipodi:namedview
     pagecolor="#ffffff"
     bordercolor="#666666"
     borderopacity="1"
     objecttolerance="10"
     gridtolerance="10"
     guidetolerance="10"
     inkscape:pageopacity="0"
     inkscape:pageshadow="2"
     inkscape:window-width="1680"
     inkscape:window-height="962"
     id="namedview44"
     showgrid="false"
     showguides="false"
     fit-margin-top="0"
     fit-margin-left="0"
     fit-margin-right="0"
     fit-margin-bottom="0"
     inkscape:zoom="0.87055056"
     inkscape:cx="451.67446"
     inkscape:cy="103.77754"
     inkscape:window-x="0"
     inkscape:window-y="0"
     inkscape:window-maximized="1"
     inkscape:current-layer="svg2" />
  <title
     id="title4">5 by 3 sigma maze</title>
  <desc
     id="desc6">5 by 3 sigma maze generated by The Maze Generator Website (http://www.mazegenerator.net/).</desc>
  <path
     style="opacity:1;fill:#ffffff;fill-opacity:1;fill-rule:nonzero;stroke:none;stroke-width:1.80442083;stroke-linejoin:miter;stroke-miterlimit:4;stroke-dasharray:none;stroke-opacity:1"
     d="m -0.94815063,-0.36483765 477.95410063,0 0,364.23296765 -477.95410063,0 z"
     id="rect3543" />
  <flowRoot
     xml:space="preserve"
     id="flowRoot4210"
     style="fill:black;stroke:none;stroke-opacity:1;stroke-width:1px;stroke-linejoin:miter;stroke-linecap:butt;fill-opacity:1;font-family:Sans;font-style:normal;font-weight:normal;font-size:40px;line-height:125%;letter-spacing:0px;word-spacing:0px"><flowRegion
       id="flowRegion4212"><rect
         id="rect4214"
         width="516.91425"
         height="328.52774"
         x="-19.527872"
         y="8.5555029" /></flowRegion><flowPara
       id="flowPara4216" /></flowRoot>  <g
     transform="matrix(0.62758981,0,0,0.62758981,205.62371,126.43679)"
     style="font-style:normal;font-weight:normal;font-size:254.49026489px;line-height:125%;font-family:Sans;letter-spacing:0px;word-spacing:0px;fill:#000000;fill-opacity:1;stroke:none;stroke-width:1px;stroke-linecap:butt;stroke-linejoin:miter;stroke-opacity:1"
     id="flowRoot4344">
    <path
       d="m -69.725699,188.12142 q 30.7297,-9.79788 59.677969,-24.49469 28.948268,-15.14217 51.661524,-36.074 22.713257,-21.37718 36.073996,-49.434732 13.806097,-28.057552 13.806097,-64.576906 0,-17.8143188 -3.562864,-27.612194 -3.562864,-9.797876 -12.470023,-9.797876 -8.016443,0 -15.142171,7.571086 Q 53.638459,-8.7268065 47.848806,2.8525007 42.50451,14.431808 37.605573,28.683263 33.151993,42.934718 30.034487,56.295457 l -80.609793,0 14.696813,-66.803695 q 24.940047,-21.377183 52.552241,-32.95649 27.612194,-12.024666 62.350116,-12.024666 21.377186,0 40.082216,4.898938 19.15039,4.898938 32.95649,15.587529 14.25146,10.243233 22.2679,26.2761205 8.4618,15.5875289 8.4618,37.4100695 0,16.478245 -5.78965,32.511132 -5.3443,16.032887 -19.59575,33.401848 -13.8061,16.923607 -37.85543,35.628637 -23.603973,18.25968 -60.123327,39.63686 l 99.314827,0 -8.90716,61.90476 -229.359354,0 9.797875,-43.64508 z"
       style="font-style:normal;font-variant:normal;font-weight:normal;font-stretch:normal;font-size:445.35797119px;font-family:'Racing Sans One';-inkscape-font-specification:'Racing Sans One'"
       id="path4144" />
  </g>
</svg>
