<?xml version="1.0" encoding="UTF-8" standalone="no"?>
<!-- Created with Inkscape (http://www.inkscape.org/) -->

<svg
   xmlns:dc="http://purl.org/dc/elements/1.1/"
   xmlns:cc="http://creativecommons.org/ns#"
   xmlns:rdf="http://www.w3.org/1999/02/22-rdf-syntax-ns#"
   xmlns:svg="http://www.w3.org/2000/svg"
   xmlns="http://www.w3.org/2000/svg"
   xmlns:sodipodi="http://sodipodi.sourceforge.net/DTD/sodipodi-0.dtd"
   xmlns:inkscape="http://www.inkscape.org/namespaces/inkscape"
   id="svg2"
   sodipodi:docname="Biker.svg"
   inkscape:export-filename="C:\Documents and Settings\toti1.TOTI\Plocha\Klipy PNG\Činnosti\biker.png"
   viewBox="0 0 205.42785 229.52645"
   sodipodi:version="0.32"
   inkscape:export-xdpi="90"
   version="1.0"
   inkscape:export-ydpi="90"
   inkscape:version="0.91 r13725"
   width="205.42784"
   height="229.52644">
  <defs
     id="defs90" />
  <sodipodi:namedview
     id="base"
     bordercolor="#666666"
     inkscape:pageshadow="2"
     guidetolerance="10.0"
     pagecolor="#ffffff"
     gridtolerance="10.0"
     inkscape:zoom="0.48"
     objecttolerance="10.0"
     borderopacity="1.0"
     inkscape:current-layer="svg2"
     inkscape:cx="-104.8762"
     inkscape:cy="581.99338"
     inkscape:window-y="0"
     inkscape:window-x="0"
     inkscape:window-height="962"
     showgrid="false"
     inkscape:pageopacity="0.0"
     inkscape:window-width="1680"
     fit-margin-top="0"
     fit-margin-left="0"
     fit-margin-right="0"
     fit-margin-bottom="0"
     inkscape:window-maximized="1" />
  <g
     id="g1971"
     inkscape:export-ydpi="90"
     inkscape:export-xdpi="90"
     inkscape:export-filename="/home/lamatin/Desktop/Projekt_Kliparty/tom/ Klipy PNG/Činnosti/biker.png"
     transform="matrix(0.20997495,0,0,0.20997495,-67.161065,-7.4087075)">
    <path
       id="path38357"
       sodipodi:nodetypes="cccccc"
       style="fill:#454545;fill-rule:evenodd;stroke:#000000;stroke-width:1.79449999px"
       d="m 590.8,740.12 -49.43,-36.89 -9.59,9.59 0,6.64 53.11,38.36 5.91,-17.7 z"
       inkscape:connector-curvature="0" />
    <path
       id="path32107"
       sodipodi:nodetypes="cccccccccccccccccccccccccccc"
       style="fill:#9e7056;fill-rule:evenodd"
       d="m 654.6,221.92 38.61,-4.17 5.21,21.91 24,98.07 23.99,13.56 42.78,93.9 8.35,18.78 17.73,8.34 25.01,6.69 24.28,9.88 6.01,-3 1.29,-6.62 -24.87,-8.81 -32.76,-17.96 -22.95,-60.51 -7.31,-41.73 -18.78,-29.21 -7.3,-27.13 -9.39,-18.78 -9.39,-13.56 -8.35,-11.48 0,-29.21 -13.56,-12.52 -18.78,-10.43 -18.78,-4.18 -12.52,0 -5.21,10.44 -7.31,17.73 z"
       inkscape:connector-curvature="0" />
    <path
       id="path36558"
       style="fill:#900000;fill-rule:evenodd;stroke:#000000;stroke-width:1.79449999px;stroke-linejoin:round"
       d="m 675.47,194.8 16.69,0 15.65,7.3 18.78,14.61 5.22,7.3 3.13,-13.56 -15.65,-26.09 -4.17,-18.78 -11.48,-9.39 -20.87,-5.21 -4.17,-6.26 -17.74,8.34 7.31,10.44 -4.18,21.91 11.48,9.39 z"
       inkscape:connector-curvature="0" />
    <path
       id="path31200"
       style="fill:#de3737;fill-rule:evenodd;stroke:#000000;stroke-width:1.79449999px;stroke-linejoin:round"
       d="m 461.59,273.04 63.64,-29.21 35.48,-40.69 44.86,-33.38 49.03,-16.7 34.43,3.13 -4.17,12.52 -10.43,5.22 -5.22,6.26 12.52,10.43 -15.65,10.44 -22.95,20.86 -42.78,26.08 -89.72,36.52 -49.04,-11.48 z"
       inkscape:connector-curvature="0" />
    <path
       id="path31198"
       style="fill:#de3737;fill-rule:evenodd;stroke:#000000;stroke-width:1.79449999px;stroke-linejoin:round"
       d="m 443.86,298.08 10.43,4.18 0,11.47 -17.74,6.26 2.09,-13.56 5.22,-8.35 z"
       inkscape:connector-curvature="0" />
    <path
       id="path12549"
       style="fill:#2a32e6;fill-rule:evenodd;stroke:#000000;stroke-width:1.79449999px;stroke-linejoin:round"
       d="M 551.03,822.51 535.5,837 l -37.27,91.1 12.42,36.23 54.87,-138.72 -14.49,-3.1 z"
       inkscape:connector-curvature="0" />
    <path
       id="path19653"
       sodipodi:nodetypes="cccccccccccccccsccc"
       style="fill:#212121;fill-rule:evenodd"
       d="m 550.51,425.5 65.22,57.46 61.07,92.65 22.78,56.42 0.52,24.84 90.58,-80.74 -3.11,-13.46 -25.36,-12.94 -18.12,-19.15 -27.95,-34.68 -21.22,-27.95 -24.33,-25.37 -17.08,-20.7 -17.6,-20.19 -30.02,4.14 c 0,0 -38.82,-4.65 -41.41,-5.17 -2.59,-0.52 -11.9,-7.25 -11.9,-7.25 l 0,34.68 -2.07,-2.59 z"
       inkscape:connector-curvature="0" />
    <path
       id="path10769"
       style="fill:#707686;fill-rule:evenodd;stroke:#000000;stroke-width:1.79449999px;stroke-linejoin:round"
       d="m 782.94,874.47 29.51,0 36.15,2.21 3.69,-6.64 -2.21,-7.38 -27.3,-3.68 -58.28,-3.69 -2.95,12.54 21.39,6.64 z"
       inkscape:connector-curvature="0" />
    <path
       id="path10767"
       sodipodi:nodetypes="cccccccccc"
       style="fill:#1d5b0f;fill-rule:evenodd;stroke:#000000;stroke-width:1.79449999px;stroke-linejoin:round"
       d="m 884.75,800.7 c -9.59,0 -25.08,-0.74 -25.08,-0.74 l -16.97,4.42 -28.04,-2.95 -28.25,-2.03 -17.83,54.9 42.4,4.68 54.59,-22.87 22.13,-20.66 -2.95,-14.75 z"
       inkscape:connector-curvature="0" />
    <path
       id="path2764"
       sodipodi:nodetypes="ccccccccccccccccc"
       style="fill:#0009e2;fill-rule:evenodd;stroke:#000000;stroke-width:1.79449999px;stroke-linejoin:round"
       d="m 508.9,985.45 -5.21,-37.56 54.49,-123.04 3.07,-29.28 -10.61,0 13.56,-21.91 21.91,-14.61 -7.3,-4.17 15.65,-15.65 239.43,-231.61 53.73,47.99 -17.73,20.87 -7.31,0 -100.15,293.16 -59.47,45.91 -171.1,78.25 -22.96,-8.35 z"
       inkscape:connector-curvature="0" />
    <path
       id="path4550"
       style="fill:#ffffff;fill-rule:evenodd;stroke:#000000;stroke-width:1.79449999px;stroke-linejoin:round"
       d="m 644.69,781.51 90.74,64.19 74.51,-241.24 -10.33,-5.9 -141.64,140.17 -5.9,8.85 -5.9,24.34 -1.48,9.59 z"
       inkscape:connector-curvature="0" />
    <path
       id="path41048"
       style="fill:#000000"
       d="m 774.2,823.04 c 0.04,-0.04 0.07,-0.07 0.1,-0.11 0.09,-0.09 0.18,-0.19 0.27,-0.28 0.15,-0.15 0.3,-0.31 0.44,-0.46 0.19,-0.2 0.39,-0.41 0.58,-0.61 0.25,-0.26 0.49,-0.52 0.74,-0.78 0.3,-0.32 0.59,-0.63 0.89,-0.94 0.33,-0.36 0.66,-0.71 1,-1.06 0.37,-0.39 0.74,-0.78 1.11,-1.18 0.4,-0.42 0.79,-0.84 1.19,-1.26 0.43,-0.45 0.85,-0.9 1.27,-1.35 0.45,-0.47 0.9,-0.95 1.35,-1.42 0.46,-0.5 0.93,-1 1.4,-1.49 0.5,-0.53 1,-1.06 1.49,-1.58 0.53,-0.56 1.05,-1.11 1.57,-1.67 0.54,-0.57 1.08,-1.14 1.62,-1.71 0.55,-0.58 1.1,-1.17 1.64,-1.75 0.53,-0.56 1.07,-1.13 1.6,-1.69 0.55,-0.59 1.1,-1.17 1.65,-1.76 0.54,-0.56 1.07,-1.13 1.6,-1.69 0.44,-0.49 0.94,-0.93 1.41,-1.39 0.37,-0.39 0.82,-0.67 1.23,-1.01 0.33,-0.24 0.68,-0.44 1.02,-0.66 0.24,-0.17 0.51,-0.28 0.77,-0.42 0.18,-0.14 0.42,-0.1 0.63,-0.15 0.21,-0.02 0.39,0.1 0.58,0.15 0.23,0.02 0.27,0.28 0.4,0.4 0.64,2.72 -1.29,5.43 -1.93,7.99 -0.11,0.22 -0.25,0.42 -0.37,0.63 -0.16,0.26 -0.28,0.54 -0.42,0.81 -0.16,0.32 -0.33,0.64 -0.49,0.96 -0.2,0.37 -0.42,0.72 -0.63,1.08 -0.23,0.4 -0.49,0.78 -0.74,1.17 -0.29,0.42 -0.51,0.87 -0.77,1.31 -0.25,0.46 -0.43,0.96 -0.65,1.45 -0.23,0.49 -0.38,1.02 -0.58,1.53 -0.19,0.54 -0.39,1.08 -0.59,1.63 -0.19,0.58 -0.4,1.16 -0.6,1.73 -0.23,0.6 -0.42,1.22 -0.62,1.82 -0.24,0.62 -0.42,1.25 -0.62,1.87 -0.21,0.62 -0.36,1.26 -0.53,1.9 -0.42,1.83 0.88,-3.67 1.31,-5.5 -0.15,0.65 -0.25,1.3 -0.37,1.96 -0.11,0.55 -0.12,1.12 -0.17,1.68 -0.05,0.44 0.01,0.88 0.02,1.32 0,0.34 0.13,0.66 0.2,0.99 0.01,0.24 0.21,0.4 0.3,0.59 0.14,0.17 0.15,-0.1 0.24,-0.16 0.24,-0.24 0.44,-0.52 0.66,-0.78 0.24,-0.33 0.45,-0.69 0.68,-1.04 0.25,-0.38 0.48,-0.77 0.72,-1.16 0.26,-0.42 0.48,-0.85 0.72,-1.28 0.26,-0.46 0.54,-0.91 0.82,-1.37 0.3,-0.5 0.62,-0.98 0.93,-1.47 0.34,-0.52 0.69,-1.03 1.04,-1.54 0.37,-0.53 0.74,-1.06 1.11,-1.59 0.38,-0.55 0.75,-1.1 1.12,-1.65 0.39,-0.56 0.76,-1.13 1.13,-1.7 0.39,-0.59 0.79,-1.16 1.19,-1.74 0.41,-0.6 0.84,-1.19 1.26,-1.78 0.44,-0.62 0.89,-1.22 1.34,-1.83 0.46,-0.62 0.93,-1.24 1.4,-1.85 0.45,-0.61 0.97,-1.17 1.46,-1.74 0.46,-0.51 0.96,-0.96 1.44,-1.44 0.41,-0.42 0.9,-0.73 1.35,-1.1 0.37,-0.3 0.83,-0.48 1.24,-0.71 0.36,-0.21 0.78,-0.24 1.17,-0.36 0.32,-0.09 0.65,0.04 0.97,0.07 0.28,0.02 0.49,0.22 0.73,0.34 0.24,0.11 0.34,0.37 0.5,0.56 0.15,0.21 0.16,0.47 0.24,0.7 0.07,0.28 0.02,0.56 0.04,0.84 0,0.32 -0.11,0.63 -0.16,0.94 -0.11,0.32 -0.1,0.67 -0.16,1 -0.02,0.39 0.02,0.78 0.03,1.18 0.04,0.43 0.06,0.87 0.09,1.3 0.03,0.48 0.07,0.96 0.1,1.44 0.05,0.53 0.11,1.06 0.17,1.59 0.07,0.55 0.16,1.11 0.25,1.66 0.07,0.57 0.18,1.14 0.28,1.71 0.1,0.58 0.22,1.17 0.33,1.76 0.12,0.62 0.27,1.24 0.41,1.87 0.13,0.64 0.33,1.27 0.51,1.91 0.18,0.65 0.43,1.28 0.65,1.92 0.19,0.6 0.5,1.15 0.75,1.72 0.23,0.51 0.57,0.94 0.86,1.41 0.25,0.42 0.62,0.74 0.93,1.11 0.28,0.31 0.68,0.49 1.01,0.73 0.3,0.22 0.66,0.29 0.98,0.43 0.27,0.12 0.57,0.04 0.85,0.07 0.25,-0.01 0.42,-0.2 0.63,-0.3 0.22,-0.12 0.34,-0.34 0.51,-0.5 0.18,-0.18 0.22,-0.45 0.32,-0.67 0.49,-2.25 -1.07,4.47 -1.6,6.7 0.11,-0.27 0.08,-0.57 0.12,-0.86 0.01,-0.33 -0.05,-0.66 -0.08,-0.99 -0.05,-0.39 -0.16,-0.76 -0.24,-1.14 -0.12,-0.44 -0.19,-0.89 -0.28,-1.33 -0.1,-0.48 -0.14,-0.96 -0.21,-1.44 -0.07,-0.51 -0.09,-1.03 -0.13,-1.55 -0.05,-0.53 0,-1.06 0,-1.6 0.01,-0.54 0.12,-1.08 0.18,-1.61 0.55,-3.08 1.41,-6.1 2.14,-9.14 0.14,-0.58 0.38,-1.14 0.56,-1.7 0.23,-0.57 0.52,-1.1 0.77,-1.65 0.26,-0.55 0.6,-1.06 0.9,-1.6 0.32,-0.52 0.66,-1.03 0.98,-1.55 0.35,-0.55 0.72,-1.08 1.08,-1.61 0.12,-0.18 0.24,-0.36 0.37,-0.54 l -0.86,7.69 c -0.01,0.01 -0.37,0.54 -0.37,0.54 -0.35,0.54 -0.71,1.07 -1.06,1.62 -0.31,0.52 -0.65,1.03 -0.95,1.56 -0.28,0.53 -0.59,1.05 -0.83,1.6 -0.23,0.55 -0.52,1.08 -0.69,1.66 -0.17,0.57 -0.37,1.13 -0.5,1.71 0.45,-1.93 1.8,-7.72 1.36,-5.79 -0.08,0.53 -0.22,1.05 -0.25,1.59 -0.03,0.52 -0.11,1.04 -0.08,1.57 0.02,0.5 0.02,1.01 0.07,1.52 0.06,0.47 0.11,0.95 0.17,1.42 0.08,0.44 0.15,0.88 0.24,1.31 0.1,0.38 0.18,0.76 0.28,1.14 0.06,0.35 0.15,0.68 0.18,1.03 0.02,0.31 0.08,0.61 0.05,0.92 -0.64,2.73 -0.67,5.79 -2.08,8.27 -0.19,0.21 -0.33,0.48 -0.57,0.64 -0.25,0.16 -0.46,0.37 -0.74,0.47 -0.31,0.08 -0.62,0.27 -0.96,0.23 -0.37,-0.04 -0.76,0.01 -1.11,-0.13 -0.38,-0.16 -0.8,-0.24 -1.15,-0.48 -0.39,-0.26 -0.84,-0.45 -1.18,-0.79 -0.36,-0.38 -0.79,-0.71 -1.08,-1.15 -0.32,-0.49 -0.7,-0.93 -0.96,-1.46 -0.28,-0.58 -0.61,-1.14 -0.83,-1.76 -0.24,-0.64 -0.5,-1.28 -0.7,-1.94 -0.19,-0.64 -0.41,-1.27 -0.56,-1.92 -0.15,-0.62 -0.31,-1.24 -0.43,-1.87 -0.12,-0.59 -0.26,-1.17 -0.35,-1.77 -0.1,-0.57 -0.22,-1.13 -0.31,-1.71 -0.08,-0.55 -0.17,-1.11 -0.25,-1.66 -0.07,-0.53 -0.16,-1.06 -0.21,-1.59 -0.04,-0.48 -0.11,-0.96 -0.12,-1.44 -0.03,-0.44 -0.04,-0.87 -0.09,-1.3 -0.03,-0.4 -0.06,-0.8 -0.09,-1.2 0.01,-0.35 -0.04,-0.7 0.02,-1.05 0.07,-0.3 0.13,-0.61 0.21,-0.91 0.04,-0.26 0.11,-0.51 0.11,-0.77 0,-0.21 0.01,-0.42 -0.02,-0.63 -0.04,-0.15 -0.05,-0.31 -0.13,-0.45 -0.13,-0.08 -0.21,-0.25 -0.38,-0.25 -0.21,0 -0.43,-0.11 -0.63,-0.01 -0.32,0.13 -0.68,0.18 -0.97,0.39 -0.37,0.24 -0.78,0.42 -1.11,0.72 -0.41,0.37 -0.86,0.7 -1.25,1.1 -0.46,0.48 -0.95,0.92 -1.38,1.43 -0.47,0.58 -0.97,1.13 -1.4,1.74 -0.47,0.62 -0.93,1.24 -1.39,1.86 -0.44,0.61 -0.89,1.21 -1.32,1.83 -0.42,0.59 -0.85,1.18 -1.25,1.79 -0.4,0.58 -0.8,1.15 -1.18,1.74 -0.38,0.57 -0.75,1.14 -1.13,1.7 -0.38,0.55 -0.76,1.1 -1.14,1.65 -0.37,0.53 -0.74,1.06 -1.1,1.6 -0.34,0.51 -0.69,1.02 -1.02,1.54 -0.3,0.5 -0.62,0.98 -0.91,1.48 -0.27,0.46 -0.54,0.92 -0.79,1.39 -0.25,0.42 -0.49,0.85 -0.75,1.27 -0.25,0.39 -0.49,0.78 -0.75,1.17 -0.26,0.34 -0.47,0.72 -0.78,1.03 -0.29,0.25 -0.51,0.6 -0.88,0.76 -0.36,-0.01 -0.82,0.29 -1.17,-0.04 -0.23,-0.23 -0.61,-0.36 -0.71,-0.72 -0.13,-0.35 -0.32,-0.68 -0.37,-1.06 -0.05,-0.46 -0.18,-0.91 -0.14,-1.38 0.03,-0.58 -0.01,-1.16 0.1,-1.73 0.1,-0.66 0.18,-1.33 0.32,-1.98 0.73,-3.13 1.39,-6.28 2.21,-9.39 0.18,-0.63 0.35,-1.27 0.56,-1.9 0.21,-0.62 0.43,-1.24 0.64,-1.86 0.21,-0.61 0.41,-1.22 0.63,-1.82 0.2,-0.58 0.4,-1.17 0.61,-1.74 0.19,-0.55 0.4,-1.09 0.59,-1.64 0.21,-0.51 0.4,-1.03 0.63,-1.53 0.24,-0.48 0.44,-0.98 0.73,-1.44 0.27,-0.44 0.53,-0.88 0.81,-1.31 0.24,-0.39 0.49,-0.78 0.71,-1.18 0.2,-0.36 0.41,-0.72 0.59,-1.09 0.16,-0.32 0.32,-0.65 0.48,-0.97 0.16,-0.27 0.31,-0.54 0.46,-0.81 0.1,-0.22 0.23,-0.42 0.28,-0.65 -0.56,2.35 -3.28,8.82 -1.63,7.06 0.09,-0.05 0.15,-0.22 0.29,-0.17 0.02,0 0.12,-0.03 0.04,-0.01 -0.11,0.07 -0.23,0.14 -0.35,0.2 -0.23,0.13 -0.47,0.26 -0.69,0.41 -0.32,0.22 -0.65,0.41 -0.95,0.66 -0.38,0.33 -0.8,0.63 -1.15,1 -0.46,0.46 -0.93,0.9 -1.36,1.38 -0.53,0.56 -1.07,1.12 -1.6,1.68 -0.55,0.59 -1.1,1.17 -1.65,1.76 -0.53,0.57 -1.06,1.13 -1.6,1.7 -0.55,0.58 -1.09,1.16 -1.64,1.74 -0.54,0.57 -1.08,1.14 -1.62,1.72 -0.52,0.55 -1.04,1.11 -1.57,1.66 -0.5,0.53 -0.99,1.06 -1.49,1.59 -0.47,0.5 -0.94,1 -1.41,1.5 -0.44,0.47 -0.89,0.95 -1.34,1.42 -0.42,0.45 -0.85,0.9 -1.27,1.35 -0.4,0.43 -0.8,0.85 -1.2,1.28 -0.37,0.39 -0.74,0.78 -1.11,1.18 -0.33,0.35 -0.66,0.71 -1,1.06 -0.29,0.32 -0.59,0.63 -0.89,0.95 -0.24,0.26 -0.49,0.53 -0.74,0.79 -0.19,0.21 -0.39,0.41 -0.58,0.62 -0.14,0.16 -0.29,0.31 -0.44,0.47 -0.09,0.1 -0.18,0.19 -0.27,0.29 -0.03,0.04 -0.07,0.08 -0.1,0.12 l 0.99,-7.76 z"
       inkscape:connector-curvature="0" />
    <path
       id="path41050"
       style="fill:#000000"
       d="m 780.52,804.01 c 0.66,-2.5 1.31,-5 1.96,-7.5 -0.07,-0.06 -0.15,0.03 -0.19,0.04 0.05,0.11 0.1,0.21 0.15,0.32 0.09,0.15 0.14,0.32 0.22,0.48 0.1,0.2 0.18,0.41 0.27,0.62 0.1,0.25 0.16,0.51 0.24,0.77 0.09,0.3 0.17,0.61 0.26,0.92 0.09,0.37 0.17,0.74 0.26,1.11 0.09,0.42 0.17,0.84 0.25,1.27 0.09,0.47 0.18,0.94 0.27,1.4 0.11,0.5 0.22,1 0.32,1.5 0.12,0.52 0.24,1.03 0.36,1.55 0.13,0.54 0.27,1.08 0.4,1.62 0.13,0.57 0.27,1.14 0.41,1.71 0.14,0.6 0.3,1.21 0.45,1.81 0.16,0.63 0.32,1.25 0.49,1.88 0.17,0.64 0.34,1.28 0.52,1.92 0.17,0.65 0.36,1.29 0.54,1.93 0.19,0.65 0.38,1.3 0.57,1.94 0.16,0.57 0.4,1.1 0.6,1.65 0.18,0.45 0.4,0.89 0.6,1.33 0.15,0.34 0.35,0.66 0.52,0.99 0.12,0.23 0.27,0.44 0.41,0.66 0.09,0.13 0.21,0.25 0.31,0.38 0.06,0.1 0.17,0.14 0.25,0.21 -0.54,2.54 -1.08,5.07 -1.62,7.6 -0.28,0.05 -0.53,-0.11 -0.78,-0.16 -0.21,-0.04 -0.31,-0.24 -0.45,-0.36 -0.13,-0.14 -0.09,-0.35 -0.13,-0.51 -0.72,-2.99 1.33,-5.46 1.98,-8.1 0.11,-0.24 0.19,-0.49 0.29,-0.73 0.13,-0.29 0.25,-0.57 0.38,-0.86 0.15,-0.33 0.34,-0.65 0.51,-0.98 0.2,-0.37 0.42,-0.73 0.63,-1.09 0.24,-0.4 0.5,-0.79 0.75,-1.18 0.28,-0.43 0.58,-0.85 0.86,-1.28 0.3,-0.43 0.5,-0.91 0.75,-1.37 0.26,-0.48 0.53,-0.97 0.79,-1.45 0.28,-0.52 0.59,-1.02 0.89,-1.54 0.31,-0.54 0.65,-1.06 0.98,-1.59 0.35,-0.56 0.72,-1.1 1.08,-1.65 0.3,-0.58 0.8,-0.99 1.21,-1.48 0.38,-0.37 0.83,-0.64 1.24,-0.96 0.36,-0.27 0.78,-0.42 1.17,-0.63 0.33,-0.18 0.71,-0.22 1.06,-0.32 0.32,-0.12 0.66,0.01 0.98,0.01 0.31,0.03 0.55,0.24 0.82,0.35 0.26,0.13 0.44,0.37 0.65,0.55 0.22,0.18 0.3,0.46 0.45,0.69 0.15,0.25 0.15,0.54 0.23,0.81 0.04,0.31 0.02,0.63 0.03,0.94 -0.01,0.36 0.02,0.72 0.04,1.08 0.02,0.39 0.03,0.78 0.05,1.18 0.03,0.43 0.05,0.85 0.08,1.28 0.02,0.47 0.09,0.93 0.14,1.39 0.05,0.5 0.15,1 0.22,1.5 0.07,0.51 0.23,1.01 0.34,1.52 0.11,0.49 0.32,0.94 0.48,1.41 0.14,0.42 0.39,0.78 0.59,1.17 0.15,0.32 0.42,0.54 0.62,0.81 0.16,0.2 0.43,0.25 0.64,0.38 0.18,0.1 0.4,0.06 0.59,0.09 0.21,0.02 0.33,-0.16 0.49,-0.23 0.21,-0.1 0.3,-0.32 0.45,-0.48 0.13,-0.18 0.13,-0.42 0.19,-0.63 0.16,-2.31 -1.1,4.51 -1.63,6.77 0.07,-0.28 0.01,-0.57 0.01,-0.84 -0.06,-0.33 -0.05,-0.66 -0.08,-0.99 -0.02,-0.37 0.06,-0.73 0.09,-1.1 0.43,-2.93 1.39,-5.77 2.09,-8.63 0.12,-0.39 0.36,-0.72 0.54,-1.08 0.18,-0.34 0.47,-0.59 0.7,-0.89 0.26,-0.29 0.52,-0.59 0.78,-0.88 0.3,-0.33 0.59,-0.65 0.89,-0.98 0.31,-0.37 0.66,-0.71 0.99,-1.06 0.36,-0.37 0.71,-0.75 1.07,-1.12 0.39,-0.41 0.78,-0.82 1.16,-1.22 0.41,-0.43 0.83,-0.87 1.24,-1.3 0.44,-0.46 0.87,-0.92 1.31,-1.38 0.44,-0.48 0.93,-0.91 1.4,-1.36 0.45,-0.44 1,-0.75 1.49,-1.12 0.45,-0.32 0.95,-0.53 1.43,-0.79 0.42,-0.23 0.9,-0.29 1.35,-0.43 0.35,-0.1 0.72,-0.11 1.09,-0.16 0.29,-0.05 0.58,0.03 0.87,0.05 0.25,0.01 0.47,0.16 0.7,0.24 0.22,0.08 0.35,0.29 0.52,0.43 0.15,0.15 0.19,0.37 0.29,0.56 0.1,0.22 0.07,0.47 0.11,0.71 0.02,0.28 -0.05,0.55 -0.07,0.83 -0.04,0.33 -0.07,0.66 -0.11,0.99 -0.05,0.39 -0.04,0.77 -0.07,1.16 0,0.42 -0.04,0.84 -0.06,1.25 -0.04,0.44 -0.04,0.89 -0.07,1.33 -0.03,0.46 0.04,0.92 0.06,1.37 0.03,0.48 0.16,0.94 0.24,1.41 0.08,0.43 0.27,0.83 0.4,1.24 0.11,0.36 0.34,0.65 0.51,0.97 0.19,0.31 0.46,0.55 0.68,0.83 0.26,0.27 0.58,0.48 0.86,0.72 0.35,0.26 0.69,0.52 1.03,0.78 0.38,0.29 0.75,0.58 1.13,0.87 0.06,0.05 0.13,0.1 0.19,0.15 l -2.09,7.47 c -0.07,-0.05 -0.13,-0.1 -0.2,-0.14 -0.38,-0.29 -0.76,-0.58 -1.13,-0.87 -0.34,-0.26 -0.68,-0.52 -1.02,-0.77 -0.32,-0.25 -0.66,-0.48 -0.96,-0.75 -0.27,-0.29 -0.59,-0.53 -0.81,-0.86 -0.22,-0.34 -0.51,-0.65 -0.66,-1.03 -0.17,-0.43 -0.41,-0.83 -0.52,-1.29 -0.11,-0.48 -0.29,-0.94 -0.33,-1.44 -0.05,-0.47 -0.15,-0.94 -0.15,-1.41 0,-0.45 -0.02,-0.89 0.01,-1.34 0.03,-0.41 0.07,-0.83 0.09,-1.24 l 0.03,-1.17 c 0.03,-0.33 0.04,-0.66 0.09,-0.99 0.03,-0.27 0.04,-0.54 0.1,-0.81 0.02,-0.21 0.06,-0.42 0.07,-0.63 -0.02,-0.16 -0.02,-0.32 -0.05,-0.48 -0.05,-0.1 -0.03,-0.25 -0.15,-0.32 -0.12,-0.06 -0.24,-0.18 -0.39,-0.17 -0.23,-0.01 -0.46,-0.07 -0.69,-0.02 -0.32,0.06 -0.66,0.07 -0.97,0.17 -0.39,0.15 -0.82,0.22 -1.18,0.45 -0.44,0.26 -0.91,0.48 -1.32,0.79 -0.45,0.38 -0.96,0.7 -1.37,1.13 -0.46,0.46 -0.92,0.9 -1.36,1.37 -0.43,0.46 -0.87,0.92 -1.31,1.38 -0.41,0.44 -0.82,0.87 -1.24,1.31 -0.38,0.41 -0.77,0.81 -1.16,1.22 -0.35,0.38 -0.71,0.75 -1.07,1.13 -0.32,0.36 -0.66,0.7 -0.97,1.06 -0.29,0.34 -0.59,0.66 -0.88,1 -0.25,0.29 -0.52,0.58 -0.76,0.88 -0.18,0.3 -0.41,0.58 -0.54,0.91 -0.14,0.36 -0.33,0.71 -0.41,1.09 0.49,-2.11 2,-8.43 1.47,-6.33 -0.06,0.35 -0.16,0.69 -0.19,1.05 -0.01,0.31 -0.07,0.63 -0.02,0.95 0.04,0.29 0.08,0.58 0.11,0.87 -0.59,2.67 -0.57,5.73 -1.88,8.27 -0.16,0.19 -0.26,0.46 -0.5,0.6 -0.23,0.14 -0.43,0.34 -0.7,0.44 -0.28,0.05 -0.56,0.2 -0.86,0.15 -0.29,-0.05 -0.6,-0.02 -0.88,-0.15 -0.3,-0.16 -0.64,-0.24 -0.91,-0.47 -0.26,-0.29 -0.63,-0.5 -0.81,-0.87 -0.23,-0.41 -0.54,-0.78 -0.71,-1.22 -0.19,-0.48 -0.44,-0.95 -0.57,-1.45 -0.14,-0.52 -0.31,-1.02 -0.41,-1.55 -0.09,-0.5 -0.21,-1 -0.26,-1.51 -0.06,-0.46 -0.13,-0.92 -0.18,-1.39 -0.03,-0.43 -0.09,-0.86 -0.1,-1.29 -0.02,-0.39 -0.04,-0.78 -0.06,-1.18 l -0.06,-1.08 c 0,-0.3 -0.03,-0.61 0,-0.92 -0.01,-0.24 0.02,-0.49 -0.03,-0.74 -0.07,-0.2 -0.08,-0.43 -0.21,-0.61 -0.13,-0.15 -0.21,-0.37 -0.41,-0.47 -0.17,-0.09 -0.31,-0.25 -0.52,-0.28 -0.22,0.01 -0.45,-0.06 -0.66,0.05 -0.3,0.11 -0.62,0.18 -0.9,0.34 -0.34,0.22 -0.71,0.38 -1.02,0.64 -0.36,0.32 -0.79,0.59 -1.1,0.97 -0.35,0.49 -0.78,0.94 -1.07,1.48 -0.36,0.55 -0.72,1.1 -1.06,1.66 -0.32,0.53 -0.65,1.06 -0.96,1.6 -0.29,0.52 -0.59,1.02 -0.86,1.54 -0.26,0.49 -0.54,0.97 -0.79,1.46 -0.28,0.45 -0.49,0.95 -0.83,1.37 -0.28,0.42 -0.57,0.84 -0.84,1.27 -0.24,0.4 -0.49,0.79 -0.72,1.2 -0.2,0.36 -0.41,0.72 -0.59,1.1 -0.16,0.33 -0.33,0.65 -0.46,0.99 -0.12,0.29 -0.25,0.57 -0.35,0.87 -0.09,0.24 -0.2,0.49 -0.29,0.73 0.55,-2.3 1.21,-4.57 1.62,-6.9 -0.05,0.13 -0.1,0.27 -0.16,0.39 -0.05,0.06 -0.07,0.14 -0.15,0.17 -0.06,-0.01 -0.55,-0.07 -0.59,-0.08 -0.53,2.52 -1.07,5.05 -1.61,7.58 0,-0.03 0.16,-0.03 0.03,-0.14 -0.11,-0.13 -0.19,-0.27 -0.31,-0.39 -0.17,-0.23 -0.37,-0.45 -0.51,-0.7 -0.19,-0.34 -0.4,-0.68 -0.57,-1.03 -0.21,-0.45 -0.44,-0.89 -0.63,-1.35 -0.22,-0.56 -0.48,-1.11 -0.66,-1.68 -0.2,-0.65 -0.42,-1.3 -0.59,-1.95 -0.19,-0.65 -0.38,-1.29 -0.56,-1.94 -0.17,-0.64 -0.35,-1.28 -0.52,-1.92 -0.17,-0.63 -0.34,-1.25 -0.5,-1.88 -0.16,-0.6 -0.31,-1.21 -0.46,-1.81 l -0.42,-1.71 c -0.13,-0.54 -0.25,-1.08 -0.39,-1.61 -0.12,-0.52 -0.26,-1.03 -0.37,-1.55 -0.11,-0.5 -0.23,-1 -0.33,-1.5 -0.1,-0.47 -0.21,-0.94 -0.29,-1.41 -0.08,-0.42 -0.16,-0.84 -0.25,-1.26 -0.08,-0.36 -0.14,-0.73 -0.24,-1.09 -0.07,-0.3 -0.12,-0.61 -0.22,-0.9 -0.07,-0.25 -0.14,-0.5 -0.22,-0.75 -0.06,-0.2 -0.11,-0.41 -0.19,-0.6 -0.07,-0.15 -0.15,-0.3 -0.2,-0.46 -0.05,-0.11 -0.11,-0.21 -0.16,-0.32 -0.08,-0.06 -0.16,-0.15 -0.26,-0.19 0.65,-2.51 1.3,-5.01 1.96,-7.52 l -1,7.76 z"
       inkscape:connector-curvature="0" />
    <path
       id="path11658"
       style="fill:#a4a4a4;fill-rule:evenodd;stroke:#000000;stroke-width:1.79449999px;stroke-linejoin:round"
       d="m 447.5,1091.7 c 12.43,1 92.14,16.5 92.14,16.5 l 102.48,-33.1 47.62,-77.64 8.29,-60.04 -15.53,-13.46 -12.42,11.39 3.1,28.98 -7.25,24.85 -15.52,34.12 -31.06,32.1 -32.09,18.7 -38.31,12.4 -38.3,6.2 -63.15,-1 z"
       inkscape:connector-curvature="0" />
    <path
       id="path1877"
       sodipodi:nodetypes="ccccccccccccccccccccccccccccccccsccccccccccccc"
       style="fill:#2f2f2f;fill-rule:evenodd;stroke:#000000;stroke-width:1.79449999px;stroke-linejoin:round"
       d="m 555.49,833.3 -37.56,-1.05 -32.34,2.09 -37.56,11.48 -38.6,25.04 -27.13,28.17 -16.69,30.25 -7.3,32.34 0,32.35 10.43,26.03 22.95,31.3 25.04,18.8 34.43,16.7 41.73,10.5 42.78,0 46.95,-8.4 38.6,-17.7 32.34,-28.2 21.91,-33.4 8.35,-28.15 0.52,-35.48 -5.22,-15.64 28.69,0.52 2.09,38.08 -4.17,30.25 -13.57,33.42 -19.82,25 -21.91,23 -26.08,18.7 -38.6,17.8 -37.56,10.4 -45.91,0 c 0,0 -27.12,-4.2 -31.3,-4.2 -4.17,0 -39.64,-14.6 -39.64,-14.6 l -37.34,-19.8 -27.76,-21.6 -21.2,-31.4 -18.03,-49.24 2.08,-56.33 33.39,-58.43 54.25,-43.82 63.64,-21.91 34.43,-5.21 44.86,-1.05 -4.17,33.39 z"
       inkscape:connector-curvature="0" />
    <path
       id="path1875"
       sodipodi:nodetypes="ccccccccccccccccccccccc"
       style="fill:#727272;fill-rule:evenodd;stroke:#000000;stroke-width:1.79449999px;stroke-linejoin:round"
       d="m 557.58,796.78 -56.34,-2.08 -37.56,6.26 -40.69,16.69 -46.95,26.08 -25.04,30.26 -18.78,33.38 -11.47,38.6 0,40.69 8.34,34.44 17.16,25.9 25.17,25.7 -29.81,-47.4 -7.3,-32.38 0,-34.43 6.26,-35.47 15.65,-29.21 27.12,-32.34 46.95,-30.26 35.48,-16.69 44.86,-10.43 47.99,-1.05 -1.04,-6.26 z"
       inkscape:connector-curvature="0" />
    <path
       id="path3663"
       style="fill:none;stroke:#000000;stroke-width:4.12729979;stroke-linejoin:round"
       d="m 553.51,668.64 c -1.42,1.6 -3.93,7.11 -5.17,9.59 -1.33,2.68 -0.73,7.89 -0.73,11.07 0,3.33 -1.81,5.82 -2.95,8.11 -1.83,3.66 -0.05,6.69 -2.95,9.59 -2.65,2.65 -5.16,4.98 -7.38,6.64 -2.61,1.96 -5.6,6.34 -8.12,8.86 -2.94,2.94 -5.88,2.21 -10.33,2.21 l -11.06,0 c -3.71,0 -4.75,-1.37 -8.12,-2.21"
       inkscape:connector-curvature="0" />
    <path
       id="path3661"
       style="fill:#101010;fill-rule:evenodd;stroke:#000000;stroke-width:1.79449999px;stroke-linejoin:round"
       d="m 459.87,740.69 8.17,12.04 30.73,-4.95 6.48,-2.64 4.49,-10.64 16.92,-24.01 21.49,-22.09 24.14,-26.71 6.84,-8.57 -0.57,-8.83 -6.82,-2.52 -21.27,13.95 -90.6,84.97 z"
       inkscape:connector-curvature="0" />
    <path
       id="path2766"
       style="fill:#a4a4a4;fill-rule:evenodd;stroke:#000000;stroke-width:1.79449999px;stroke-linejoin:round"
       d="m 495.98,693.26 c -3.69,0.23 -17.69,12.23 -17.69,12.23 l -11.66,14.06 -12.42,2.29 -1.85,-5.8 13.58,-18.62 14.88,-9.83 18.86,-5.66 12.18,-5.97 52.47,-34.45 3.59,-1.71 4.56,1.92 0.28,4.42 -7.9,3.47 -33.48,31 -15.43,12.83 -12.25,16.32 -10.83,15.49 -16.16,12.87 -19.88,1.29 -2,-8 15.48,-12.09 21.23,-14.69 5.46,-7 -1.02,-4.37 z"
       inkscape:connector-curvature="0" />
    <path
       id="path2768"
       style="fill:#d6d6d6;fill-rule:evenodd"
       d="m 503.55,684.63 -5.41,7.75 3.87,2.7 8.83,-0.57 4.68,-7.7 -2.59,-5.74 -5.89,0.38 -3.49,3.18 z"
       inkscape:connector-curvature="0" />
    <path
       id="path2774"
       style="fill:#d6d6d6;fill-rule:evenodd"
       d="m 458.56,731.91 6.39,-4.11 8.83,-0.58 3.09,2.02 3.33,5.7 -7.96,2.73 -7.31,1.22 -5.2,-0.41 -1.17,-6.57 z"
       inkscape:connector-curvature="0" />
    <path
       id="path25866"
       sodipodi:nodetypes="cccccc"
       style="fill:#635959;fill-rule:evenodd"
       d="m 725.6,798.12 0.53,40.04 8.75,6.26 13.85,-44.69 -19.47,-1.61 -3.66,0 z"
       inkscape:connector-curvature="0" />
    <path
       id="path17871"
       style="fill:#c49073;fill-rule:evenodd"
       d="m 614.17,714.85 -10.35,4.14 -12.42,-5.18 -1.04,-28.98 3.11,-18.64 4.14,-10.35 18.63,13.46 -2.07,45.55 z"
       inkscape:connector-curvature="0" />
    <path
       id="path17867"
       style="fill:#000000;fill-rule:evenodd;stroke:#000000;stroke-width:1.79449999px;stroke-linejoin:round"
       d="m 636.95,671.37 -28.99,-7.25 -2.07,21.74 -3.1,65.22 20.7,18.63 24.85,5.18 0,-18.63 -11.39,-84.89 z"
       inkscape:connector-curvature="0" />
    <path
       id="path15206"
       style="fill:#ffffff;fill-rule:evenodd;stroke:#000000;stroke-width:1.79449999px;stroke-linejoin:round"
       d="m 621.42,901.19 82.82,-35.2 -75.57,-56.94 -7.25,92.14 z"
       inkscape:connector-curvature="0" />
    <path
       id="path5437"
       style="fill:#9e7056;fill-rule:evenodd"
       d="m 643.51,797.01 -17.7,1.47 -22.87,-4.42 13.28,-30.99 7.37,8.85 22.87,0.74 -0.74,8.85 -2.21,15.5 z"
       inkscape:connector-curvature="0" />
    <path
       id="path12545"
       sodipodi:nodetypes="cccc"
       style="fill:#ffffff;fill-rule:evenodd;stroke:#000000;stroke-width:1.79449999px;stroke-linejoin:round"
       d="M 567.59,863.92 538.6,928.1 621.42,901.19 567.59,863.92 Z"
       inkscape:connector-curvature="0" />
    <path
       id="path12547"
       style="fill:#ffffff;fill-rule:evenodd;stroke:#000000;stroke-width:1.79449999px;stroke-linejoin:round"
       d="m 541.71,943.63 c 8.28,0 103.52,-34.16 103.52,-34.16 l 8.28,13.46 -110.77,46.58 -1.03,-25.88 z"
       inkscape:connector-curvature="0" />
    <path
       id="path10765"
       sodipodi:nodetypes="cccccccccccc"
       style="fill:#000000;fill-rule:evenodd;stroke:#000000;stroke-width:1.79449999px;stroke-linejoin:round"
       d="m 887.39,802.08 6.77,8.21 -2.03,10.32 -8.86,13.28 -14.75,9.59 -19.92,7.38 -26.18,9.03 -17.7,-2.77 40.93,-17.33 22.13,-10.32 14.02,-11.07 5.59,-16.32 z"
       inkscape:connector-curvature="0" />
    <ellipse
       id="path11656"
       style="fill:#0f1010"
       transform="matrix(1.7945,0,0,1.7945,-287.5,-174.53)"
       cx="629.81836"
       cy="581.89825"
       rx="1.2333258"
       ry="1.4388801" />
    <path
       id="path16093"
       style="fill:#000000;fill-rule:evenodd;stroke:#000000;stroke-width:1.79449999px;stroke-linejoin:round"
       d="m 588.29,746.94 64.19,2.07 8.28,-31.06 -70.4,-1.03 -2.07,30.02 z"
       inkscape:connector-curvature="0" />
    <path
       id="path16980"
       sodipodi:nodetypes="cccccccccccc"
       style="fill:#828282;fill-rule:evenodd"
       d="m 618.31,746.94 4.15,9.32 10.35,3.1 18.63,4.14 5.18,-25.88 24.84,-62.11 -19.67,4.14 -34.16,-11.39 -3.1,14.5 1.03,20.7 -4.14,21.74 -3.11,21.74 z"
       inkscape:connector-curvature="0" />
    <path
       id="path19651"
       style="fill:#313131;fill-rule:evenodd"
       d="m 571.73,593.73 18.63,24.84 31.06,-5.17 -12.42,34.16 24.84,31.05 38.31,11.39 c 0,0 36.23,-39.34 36.23,-45.55 l 0,-34.16 0,-21.74 -8.28,-18.63 -8.29,-9.32 -16.56,-16.56 -24.84,-28.99 -27.95,-36.23 -23.81,-30.02 -28.99,-22.78 -15.53,-17.6 0,-17.6 -77.64,-19.67 -21.74,71.43 2.07,21.74 25.88,17.6 24.85,24.85 64.18,86.96 z"
       inkscape:connector-curvature="0" />
    <path
       id="path19645"
       style="fill:#616161;fill-rule:evenodd"
       d="m 471.31,358.73 12.43,3.11 15.52,10.35 -4.14,13.46 -6.21,6.21 5.18,14.49 18.63,8.28 -16.56,12.43 -1.04,20.7 -38.3,3.11 -5.18,5.17 -9.31,5.18 -2.07,-12.42 12.42,-24.85 1.03,-28.99 3.11,-13.45 4.14,-1.04 10.35,-21.74 z"
       inkscape:connector-curvature="0" />
    <path
       id="path19647"
       style="fill:#616161;fill-rule:evenodd"
       d="m 472.35,474.68 70.39,-2.07 -13.45,10.35 32.09,1.03 -4.14,10.36 23.81,0 -3.11,5.17 13.46,1.04 -7.25,26.91 1.04,17.6 -13.46,19.67 c 0,0 16.56,18.63 12.42,18.63 -4.14,0 -22.77,-5.17 -16.56,-5.17 6.21,0 27.95,19.67 27.95,19.67 l -25.88,3.1 -11.39,-6.21 -10.35,-9.32 -42.44,-61.07 -20.71,-28.99 -12.42,-20.7 z"
       inkscape:connector-curvature="0" />
    <path
       id="path19649"
       style="fill:#616161;fill-rule:evenodd"
       d="m 595.54,654.8 19.67,11.39 25.88,0 c 0,0 3.1,-3.1 -1.04,-4.14 -4.14,-1.03 -23.81,-10.35 -23.81,-10.35 l 12.43,-7.25 7.24,-11.39 -5.17,-6.21 3.1,-3.1 0,-8.28 -12.42,-9.32 -15.53,0 -8.28,7.25 -11.39,0 -4.14,8.28 16.57,0 -3.11,33.12 z"
       inkscape:connector-curvature="0" />
    <path
       id="path20540"
       sodipodi:nodetypes="cccccc"
       style="fill:#c49073;fill-rule:evenodd"
       d="m 705.62,693.32 24.78,-25.19 3.98,51.66 -26.35,2.2 -3.67,-20.18 1.26,-8.49 z"
       inkscape:connector-curvature="0" />
    <path
       id="path24979"
       sodipodi:nodetypes="cccccc"
       style="fill:#9e7056;fill-rule:evenodd"
       d="m 741.7,800.19 -13.17,-57.71 17.57,5.13 18.3,3.66 -15.95,49.04 -6.75,-0.12 z"
       inkscape:connector-curvature="0" />
    <path
       id="path20542"
       sodipodi:nodetypes="ccccc"
       style="fill:#c49073;fill-rule:evenodd"
       d="m 725.99,798.42 c 4.39,0 16.62,1.86 16.62,1.86 l -11.15,-57.15 -17.57,0.09 12.1,55.2 z"
       inkscape:connector-curvature="0" />
    <path
       id="path22316"
       sodipodi:nodetypes="cccccccccccccccc"
       style="fill:#000000;fill-rule:evenodd"
       d="m 708.76,721.99 16.84,-1.47 -5.12,-22.69 4.07,-25.41 19.35,-17.05 -0.73,23.43 0.73,21.96 1.46,34.4 11.72,6.59 12.44,-0.73 -6.59,10.98 -15.37,-0.73 -15.37,-5.13 -4.39,-2.92 -14.64,0 -4.4,-21.23 z"
       inkscape:connector-curvature="0" />
    <path
       id="path23205"
       sodipodi:nodetypes="cccccccccc"
       style="fill:#828282;fill-rule:evenodd"
       d="m 740.24,661.96 -4.78,35.87 5.51,39.53 17.57,8.78 8.27,-3.44 29.06,-96.66 -25.62,5.67 -21.96,3.66 -6.59,0.74 -1.46,5.85 z"
       inkscape:connector-curvature="0" />
    <path
       id="path23207"
       sodipodi:nodetypes="cccccccc"
       style="fill:#212121;fill-rule:evenodd"
       d="m 811.1,587.09 3.12,10.03 -15.97,45.81 -14.09,6.59 -18.3,4.39 -12.88,5.02 -14.72,1.04 72.84,-72.88 z"
       inkscape:connector-curvature="0" />
    <path
       id="path27642"
       style="fill:#705232;fill-rule:evenodd;stroke:#000000;stroke-width:1.79449999px;stroke-linejoin:round"
       d="m 951.06,620.24 -7.32,5.85 -48.31,-43.92 23.42,-2.92 32.21,40.99 z"
       inkscape:connector-curvature="0" />
    <path
       id="path28531"
       style="fill:#727272;fill-rule:evenodd;stroke:#000000;stroke-width:1.79449999px;stroke-linejoin:round"
       d="m 1175.1,531.67 c -3,0 -27.9,-6.59 -27.9,-6.59 l -38,-4.4 -27.1,5.86 -38.1,11.71 -35.1,19.77 -36.61,32.21 -19.77,27.08 -13.17,30.01 c 0,0 -8.79,38.8 -10.98,43.19 -2.2,4.39 -5.13,54.9 -5.13,54.9 0,0 16.84,57.1 16.84,60.76 0,3.66 13.17,21.23 13.17,21.23 l -15.37,-63.69 6.59,-83.45 20.5,-53.43 37.33,-44.66 37.3,-27.08 41,-15.37 43.9,-8.79 50.6,0.74 z"
       inkscape:connector-curvature="0" />
    <path
       id="path29422"
       style="fill:#a4a4a4;fill-rule:evenodd;stroke:#000000;stroke-width:1.79449999px;stroke-linejoin:round"
       d="m 1035.2,868.57 76.8,16.23 84.1,-23.61 c 0,0 62.7,-96.64 62.7,-99.59 0,-2.96 5.9,-110.66 5.9,-110.66 l -41.3,-56.07 -56.1,-32.46 9.6,12.54 19.2,14.02 21.4,22.87 15.5,28.77 10.3,30.25 1.5,33.19 -3,31.73 -5.9,22.13 -21.4,36.15 -20.6,30.98 -18.5,14.75 c 0,0 -21.4,14.76 -24.3,16.97 -3,2.22 -36.2,9.59 -36.2,9.59 l -29.5,3.69 -50.2,-1.47 z"
       inkscape:connector-curvature="0" />
    <path
       id="path28535"
       sodipodi:nodetypes="ccsccccccccscccccscccccccccccccscscscccccsccccc"
       style="fill:#2f2f2f;fill-rule:evenodd;stroke:#000000;stroke-width:1.79449999px;stroke-linejoin:round"
       d="m 962.77,624.63 22.69,21.23 c 0,0 -10.98,32.21 -11.71,35.87 -0.73,3.66 -6.59,41.72 -6.59,41.72 l 0.73,48.31 19.77,51.24 32.24,32.21 43.9,17.57 49.8,2.93 65.1,-19.77 35.1,-27.81 c 0,0 28.6,-38.07 28.6,-40.99 0,-2.93 13.9,-38.07 13.9,-38.07 l 3.7,-37.33 -5.9,-49.05 -13.9,-35.13 -26.4,-31.48 c 0,0 -24.1,-19.76 -27,-19.76 -3,0 -33.7,-8.79 -33.7,-8.79 l -47.6,-2.19 -42.4,9.51 -31.5,24.16 -27.8,25.62 -8.82,11.71 -26.35,-24.15 68.07,-64.42 49.8,-11.71 38,-10.98 46.2,5.12 35.8,10.25 30,19.03 c 0,0 15.4,12.26 26.4,29.28 11,17.02 24.2,39.53 24.2,39.53 0,0 5.8,31.48 5.8,34.4 0,2.93 4.4,47.59 4.4,47.59 0,0 -6.6,46.11 -6.6,49.04 0,2.93 -19,48.31 -19,48.31 l -34.4,43.92 -45.4,33.68 -49.1,21.22 -67.3,2.93 c 0,0 -41.7,-16.1 -44.7,-16.1 -2.9,0 -48.27,-27.82 -48.27,-27.82 l -34.4,-48.31 -17.57,-87.11 11.92,-59.23 20.29,-46.18 z"
       inkscape:connector-curvature="0" />
    <path
       id="path26755"
       sodipodi:nodetypes="cccccc"
       style="fill:#9d6933;fill-rule:evenodd;stroke:#000000;stroke-width:1.79449999px;stroke-linejoin:round"
       d="m 915.92,564.61 79.06,65.88 -4.39,8.78 -13.18,5.86 -64.42,-52.71 2.93,-27.81 z"
       inkscape:connector-curvature="0" />
    <path
       id="path26753"
       style="fill:#999999;fill-rule:evenodd;stroke:#000000;stroke-width:1.79449999px;stroke-linejoin:round"
       d="m 882.25,551.43 20.5,-5.86 10.24,10.25 21.96,23.43 -2.92,14.64 -11.72,5.85 -16.1,-8.78 -14.64,0 -19.03,-20.5 11.71,-19.03 z"
       inkscape:connector-curvature="0" />
    <path
       id="path30309"
       style="fill:#000000;fill-rule:evenodd;stroke:#000000;stroke-width:1.79449999px;stroke-linejoin:round"
       d="m 979.07,645.5 126.23,91.81 13.6,-7.3 15.6,-6.26 4.2,-11.48 -10.4,-9.38 -18.8,5.21 -105.4,-74.07 -14.6,-30.26 -19.82,-11.48 -7.3,3.13 -1.05,4.18 20.87,14.6 11.48,22.96 -14.61,8.34 z"
       inkscape:connector-curvature="0" />
    <path
       id="path35669"
       sodipodi:nodetypes="cccccccccccccccccccccccc"
       style="fill:#7a5742;fill-rule:evenodd"
       d="m 679.64,397.2 13.57,21.91 0,12.52 7.86,8.34 6.63,7.85 5.53,6.07 5.77,4.05 4.42,-0.5 0.18,-5.52 -7.75,-9.8 -5.95,-7.36 2.09,-5.22 3.13,-1.04 7.3,0 3.13,5.21 10.43,-3.13 13.56,-4.17 -29.21,-14.61 -5.21,-8.34 0,-13.57 5.21,-27.12 -14.6,-44.86 -19.83,14.6 -6.26,64.69 z"
       inkscape:connector-curvature="0" />
    <path
       id="path32996"
       style="fill:#be947c;fill-rule:evenodd"
       d="m 674.5,309.37 -2.95,18.44 -2.96,13.28 -2.21,6.64 0,12.54 0,14.02 2.95,9.59 8.85,15.49 5.17,0.74 4.43,-8.85 0,-8.86 6.63,-5.9 5.91,-8.11 7.37,0 0,-14.76 -1.47,-11.06 -11.07,2.21 -2.21,-2.21 2.21,-3.69 8.12,-3.69 0.74,-5.9 0,-5.17 0,-11.8 -16.23,-21.39 -13.28,18.44 z"
       inkscape:connector-curvature="0" />
    <path
       id="path39264"
       style="fill:#9e7056;fill-rule:evenodd"
       d="m 747.9,426.3 7.75,5.16 2.95,7.75 -0.74,5.53 -11.07,2.58 -11.06,-7.74 -7.01,-9.59 19.18,-3.69 z"
       inkscape:connector-curvature="0" />
    <path
       id="path36560"
       sodipodi:nodetypes="ccccsccccccccccccc"
       style="fill:#292929;fill-rule:evenodd;stroke:#000000;stroke-width:1.79449999px;stroke-linejoin:round"
       d="m 737.49,449.03 12.56,5.47 9.68,8.3 15.9,11.6 c 0,0 10.43,10.43 14.6,10.43 4.18,0 13.57,10.44 13.57,10.44 l -8.35,-30.26 -12.52,0 -15.22,-10.93 -6.62,-7.06 -12.69,-6.51 -23.4,-7.8 -5.9,-4.97 -4.47,-0.49 -3.71,4.39 1.16,4.97 4.03,7.04 21.38,5.38 z"
       inkscape:connector-curvature="0" />
    <path
       id="path32087"
       sodipodi:nodetypes="cccccccccccccccccccccccccccccc"
       style="fill:#c49073;fill-rule:evenodd"
       d="m 796.49,430.58 -28.17,-54.25 -5.21,-27.12 -9.39,-27.13 -2.09,-8.35 -9.39,-5.21 -14.61,6.26 -6.26,0 -5.21,-9.39 -5.22,-30.26 -7.3,-43.82 -2.09,-10.43 -8.34,-6.26 -16.7,0 -15.65,3.13 -8.34,3.13 -1.05,21.91 7.31,27.12 13.56,18.78 21.91,21.91 12.52,13.57 3.13,27.12 9.39,26.08 20.86,34.43 26.09,30.26 23.99,33.38 22.78,-1.7 0.18,-17.07 -14.61,-2.09 -2.09,-24 z"
       inkscape:connector-curvature="0" />
    <path
       id="path31196"
       sodipodi:nodetypes="ccccccccccccccccccccccccccccscccc"
       style="fill:#900000;fill-rule:evenodd;stroke:#000000;stroke-width:1.79449999px;stroke-linejoin:round"
       d="m 445.94,328.34 c 2.09,4.17 11.48,22.95 11.48,22.95 l 22.95,10.43 16.69,11.48 11.48,7.3 79.29,20.87 37.56,0 10.43,0 -6.26,-25.04 3.13,-22.95 33.39,-32.34 20.87,-20.87 -17.08,-20.31 -10.46,-17.66 -2.77,-18.29 1.09,-19.9 0.74,-5.07 2.39,-3.28 3.1,-12.78 14.03,-9.25 -25.47,6.38 -14.61,15.65 -1.6,-16.92 -10,21.7 -12.95,-12.28 5.77,20.02 -19.52,11.93 -11.04,-21.52 c 0,0 -4.05,21.75 -8.22,21.75 -4.17,0 -101.02,34.79 -101.02,34.79 l -19.82,0 -15.65,22.95 2.08,30.26 z"
       inkscape:connector-curvature="0" />
    <path
       id="path33883"
       style="fill:none"
       d="m 678.92,397.9 15.49,19.18 0,11.06 2.22,11.81 2.95,11.8 0,8.85 11.06,2.22 4.43,-5.91 0,-10.32 -2.95,-10.33 4.43,-3.69 8.11,-1.48 11.07,-0.73 16.97,6.64 12.54,2.21 -6.64,-15.49 c 0,0 -9.59,-0.74 -12.54,-0.74 -2.96,0 -12.55,-4.43 -12.55,-4.43 l -7.37,-4.42 -11.07,-6.64 -2.95,-5.91 0,-8.85 0,-11.8 1.48,-8.12 1.47,-6.64 1.48,-9.59 -2.95,-9.59 -3.69,-22.13 -6.64,-5.16 0,6.64 0,5.16 c -10.33,9.59 -5.9,11.07 -5.9,11.07 l 11.8,1.47 -2.21,22.13 -3.69,2.22 -4.43,0 -6.64,11.06 -5.9,7.38 1.48,5.16 -2.22,5.91 -6.64,0 z"
       inkscape:connector-curvature="0" />
    <path
       id="path36556"
       style="fill:#616161;fill-rule:evenodd;stroke:#000000;stroke-width:1.79449999px;stroke-linejoin:round"
       d="m 798.58,489.01 -10.43,20.86 c 0,0 19.82,0 19.82,-4.17 0,-4.17 -8.35,-15.65 -9.39,-16.69 z"
       inkscape:connector-curvature="0" />
    <path
       id="path33887"
       sodipodi:nodetypes="ccccccc"
       style="fill:#999999;fill-rule:evenodd;stroke:#000000;stroke-width:1.79449999px;stroke-linejoin:round"
       d="m 831.97,507.79 -18.26,18.78 -5.74,-2.09 -21.91,-15.65 16.69,-10.43 7.31,-8.35 21.91,17.74 z"
       inkscape:connector-curvature="0" />
    <ellipse
       id="path34774"
       style="fill:#0f1010"
       transform="matrix(1.7945,0,0,1.7945,-331.62,-534.33)"
       cx="629.81836"
       cy="581.89825"
       rx="1.2333258"
       ry="1.4388801" />
    <ellipse
       id="path34776"
       style="fill:#0f1010"
       transform="matrix(1.7945,0,0,1.7945,-323.27,-528.07)"
       cx="629.81836"
       cy="581.89825"
       rx="1.2333258"
       ry="1.4388801" />
    <path
       id="path34778"
       sodipodi:nodetypes="cccccccc"
       style="fill:#9e7056;fill-rule:evenodd"
       d="m 791.28,474.4 10.43,25.04 24.43,10.79 3.18,-8.83 -8.83,-13.44 11.6,-12.16 -22.03,-3.49 -18.78,2.09 z"
       inkscape:connector-curvature="0" />
    <ellipse
       id="path34780"
       style="fill:#412b30;stroke:#000000;stroke-width:0.89999998;stroke-linejoin:round"
       transform="matrix(1.7945,0,0,1.7945,-291.93,-178.96)"
       cx="627.14618"
       cy="372.84952"
       rx="5.9610748"
       ry="5.7555203" />
    <path
       id="path41949"
       sodipodi:nodetypes="cscccsscssssssssssssssssssssssssssccsssssssccssccccccssccsssssssccsssssssssssssssssssssssssscsscccscc"
       style="fill:#e62a2a;stroke:#000000;stroke-width:0.61364001;stroke-linejoin:round"
       d="m 804.79,128.83 c -0.09,-0.02 -0.09,0.02 -0.19,0.04 -0.17,-0.08 -0.35,0.11 -0.51,0.17 4.03,-0.51 5.89,2.78 9.93,2.49 -6.56,14.39 -7.13,0.83 -11.95,1.13 -0.5,-0.08 -1.1,-3.8 -1.6,-3.88 -0.57,-0.03 -1.14,-0.07 -1.71,-0.1 -0.63,-0.05 -1.26,0 -1.9,0 -3.63,0.26 7.27,-0.57 10.9,-0.85 -0.77,0.06 -1.52,0.17 -2.29,0.26 -0.81,0.1 -2.19,-0.43 -2.42,0.37 -0.79,2.82 -1.93,2.42 -2.74,2.62 -0.86,0.26 -1.83,0.56 -2.67,0.87 -0.88,0.35 -1.29,-1.15 -2.15,-0.77 -0.9,0.44 -1.79,0.91 -2.68,1.36 -0.92,0.48 -1.82,1 -2.73,1.5 -0.95,0.49 -1.84,1.09 -2.75,1.63 -0.9,0.52 -1.7,1.2 -2.55,1.8 -0.81,0.59 -1.52,1.3 -2.28,1.95 -0.7,0.6 -1.26,1.34 -1.89,2.01 -0.56,0.6 -0.93,1.34 -1.39,2.01 -0.42,0.62 -0.61,1.34 -0.91,2.01 -0.26,0.68 -0.35,1.39 -0.53,2.09 l -0.45,2.34 c -0.17,0.86 -0.34,1.72 -0.51,2.57 -0.16,0.93 -0.28,1.86 -0.42,2.78 -0.16,0.95 -0.19,1.92 -0.28,2.87 -0.09,0.95 0.04,1.89 0.06,2.84 0.04,0.95 0.29,1.86 0.43,2.79 0.14,0.92 0.51,1.77 0.76,2.65 0.22,0.75 0.64,1.42 0.95,2.12 0.26,0.58 0.71,1.02 1.06,1.52 0.3,0.43 0.78,0.65 1.16,0.97 0.36,0.28 0.83,0.31 1.25,0.46 0.4,0.12 0.83,0.06 1.23,0.08 3.97,-0.5 -2.44,-5.6 -6.41,-5.28 0.32,0.04 -4.74,6.28 -4.6,6 2.01,-3.9 0.5,-0.33 0.75,-0.49 0.26,-0.21 0.35,-0.55 0.53,-0.82 0.17,-0.39 0.29,-0.8 0.43,-1.2 0.18,-0.58 0.47,-1.13 0.7,-1.69 0.24,-0.59 0.68,-1.05 1.01,-1.57 0.34,-0.45 0.79,-0.78 1.18,-1.18 0.3,-0.27 0.65,-0.5 0.97,-0.75 4.6,-2.78 -10.3,7.12 10.13,5.57 0.27,0.15 3.99,-6.49 4.16,-6.26 0.19,0.26 0.13,0.6 0.19,0.89 0.12,0.4 -0.19,0.75 -0.27,1.08 -11.3,-1.67 -9.11,0.71 -13.63,1.06 -3.61,2.14 8.24,-0.69 12.36,-1.03 l -13.15,-0.81 c 4.24,-0.39 6.07,3.91 10.73,4.76 -4.15,0.35 -5.31,-4.95 -9.47,-4.98 0.07,0.25 0.26,0.5 0.21,0.8 -0.03,0.06 0.07,0.27 -0.09,0.26 -0.11,0.09 -0.27,0.16 -0.37,0.29 14.19,-1.09 17.09,-0.99 12.37,-1.05 -0.32,0.15 -0.69,0.22 -0.97,0.47 -0.39,0.31 -0.83,0.57 -1.18,0.94 -0.33,0.4 -0.77,0.73 -1.01,1.22 -0.22,0.5 -0.54,0.96 -0.69,1.49 -0.14,0.43 -0.3,0.85 -0.41,1.28 -0.18,0.4 -0.31,0.82 -0.54,1.2 -0.25,0.3 -0.43,0.69 -0.76,0.93 -0.31,0.22 -0.59,0.52 -0.95,0.67 -4.39,0.39 -9.51,1.9 -14.17,1.11 -0.43,-0.14 -0.89,-0.2 -1.29,-0.42 -0.43,-0.28 -0.94,-0.47 -1.3,-0.85 -0.39,-0.43 -0.87,-0.79 -1.19,-1.3 -0.35,-0.59 -0.8,-1.13 -1.06,-1.78 -0.32,-0.77 -0.72,-1.5 -0.95,-2.31 -0.26,-0.94 -0.61,-1.85 -0.77,-2.82 -0.14,-0.99 -0.39,-1.96 -0.43,-2.96 -0.03,-1.01 -0.16,-2.01 -0.07,-3.01 0.09,-1 0.11,-2 0.27,-2.99 0.14,-0.95 0.26,-1.89 0.42,-2.83 0.16,-0.87 0.32,-1.73 0.49,-2.6 l 0.45,-2.34 c 0.17,-0.75 0.27,-1.53 0.52,-2.27 0.3,-0.75 0.49,-1.56 0.91,-2.27 0.47,-0.74 0.83,-1.56 1.41,-2.24 0.63,-0.73 1.18,-1.54 1.91,-2.19 0.76,-0.69 1.47,-1.44 2.29,-2.07 0.85,-0.64 1.64,-1.38 2.56,-1.93 0.91,-0.58 1.8,-1.21 2.75,-1.72 0.91,-0.51 1.82,-1.03 2.74,-1.53 0.89,-0.47 1.76,-0.96 2.67,-1.4 0.86,-0.41 1.69,-0.89 2.59,-1.23 0.84,-0.35 1.66,-0.75 2.53,-1.04 0.81,-0.27 1.61,-0.62 2.45,-0.79 0.81,-0.15 1.61,-0.37 2.43,-0.45 0.76,-0.11 1.51,-0.25 2.28,-0.32 5.01,-0.4 5.64,-0.24 10.68,-0.26 -0.43,1.83 5.59,0.31 5.47,0.96 -0.34,1.94 1.27,0.92 1.1,1.5 -1.08,3.57 0.26,2.67 0.76,2.66 -3.94,0.31 -5.65,-4.81 -9.59,-4.59 4.62,-0.37 6.75,6.62 11.29,3.84 0.2,0.09 -0.16,1.67 0.03,1.78 0.08,0.07 -0.59,-1.85 -0.51,-1.79 l -9.12,-2.05 z"
       inkscape:connector-curvature="0" />
    <path
       id="path42836"
       sodipodi:nodetypes="ccccccccccc"
       style="fill:#7591e5;fill-rule:evenodd"
       d="m 780.34,170.24 10.15,-3.37 18.75,-30.45 -5.4,-3.76 -8.35,-2.35 -8.7,4.99 -5.83,3.37 -6.48,12.01 -2.89,8.59 1.17,8.46 7.58,2.51 z"
       inkscape:connector-curvature="0" />
    <path
       id="path37455"
       sodipodi:nodetypes="cccccccc"
       style="fill:#080808;fill-rule:evenodd;stroke:#000000;stroke-width:2.04349995px"
       d="m 778.76,116.85 9.58,6.25 17.93,2.92 12.08,2.08 6.67,-10.42 -3.33,-13.75 -39.6,-5.004 -3.33,17.924 z"
       inkscape:connector-curvature="0" />
    <path
       id="path37453"
       sodipodi:nodetypes="cccccccccccccccccccccccccc"
       style="fill:#131313;fill-rule:evenodd;stroke:#000000;stroke-width:2.04349995px"
       d="m 663.89,136.13 9.5,-39.202 17.82,-38.018 22.58,-14.257 32.07,-8.316 34.46,8.316 25.78,24.135 17.53,17.031 20.36,16.211 29,16.39 -66.82,-7.61 -7.57,15.22 -6.4,-0.59 -14.54,8.45 -7.13,9.7 -3.98,15.41 4.78,14.86 18.19,15.91 25.06,10.95 11.59,-0.6 0.56,5.72 -25.9,23.57 -7.11,1.7 -66.28,-46.09 -31.55,-25.1 -32,-23.79 z"
       inkscape:connector-curvature="0" />
    <path
       id="path38342"
       style="fill:none;stroke:#000000;stroke-width:2.04349995px"
       d="m 820.02,83.505 -11.25,0 -11.67,3.334 -10.84,7.919 -1.25,7.502 7.5,3.75 6.25,1.25 15.84,3.34"
       inkscape:connector-curvature="0" />
    <ellipse
       id="path38344"
       style="fill:#000000"
       transform="matrix(2.0435,0,0,2.0435,-494.5,-1090.2)"
       cx="629.81836"
       cy="581.89825"
       rx="1.2333258"
       ry="1.4388801" />
    <path
       id="path38348"
       style="fill:#080808"
       d="m 804.63,111.26 0.11,0 0.31,0 c 0.16,0 0.32,0.01 0.48,0.02 0.21,-0.02 0.4,0.08 0.6,0.12 0.22,0.06 0.4,0.21 0.6,0.32 0.18,0.1 0.3,0.27 0.46,0.4 0.13,0.12 0.17,0.29 0.26,0.44 0.08,0.14 0.05,0.32 0.07,0.47 0.03,0.16 -0.12,0.27 -0.17,0.39 -0.14,0.08 -0.21,0.22 -0.32,0.32 -0.1,0.19 -0.26,0.33 -0.39,0.5 -0.15,0.19 -0.37,0.3 -0.55,0.45 -0.22,0.13 -0.38,0.34 -0.57,0.5 -0.2,0.22 -0.37,0.44 -0.56,0.66 l -0.57,0.75 c -0.22,0.26 -0.38,0.56 -0.57,0.84 -0.2,0.31 -0.34,0.64 -0.52,0.97 -0.18,0.35 -0.31,0.73 -0.47,1.09 -0.17,0.4 -0.3,0.81 -0.44,1.21 -0.15,0.43 -0.27,0.88 -0.4,1.31 -0.12,0.38 -0.19,0.77 -0.28,1.16 l -5.57,2.7 c 0.09,-0.4 0.15,-0.8 0.26,-1.19 0.13,-0.45 0.23,-0.9 0.38,-1.34 0.14,-0.41 0.26,-0.83 0.42,-1.24 0.15,-0.38 0.29,-0.76 0.46,-1.13 0.16,-0.34 0.31,-0.69 0.49,-1.02 0.18,-0.3 0.33,-0.61 0.54,-0.89 0.19,-0.26 0.36,-0.52 0.56,-0.76 0.18,-0.23 0.35,-0.47 0.54,-0.69 0.18,-0.2 0.32,-0.43 0.53,-0.61 0.18,-0.14 0.35,-0.31 0.56,-0.42 0.14,-0.13 0.32,-0.22 0.43,-0.38 0.09,-0.14 0.18,-0.28 0.28,-0.41 0.08,-0.05 0.16,-0.12 0.27,-0.15 0.04,-0.03 0.11,-0.03 0.12,-0.09 -0.03,-0.06 -0.03,-0.16 -0.11,-0.19 -0.12,-0.09 -0.23,-0.21 -0.37,-0.27 -0.16,-0.05 -0.31,-0.16 -0.49,-0.16 -0.18,-0.01 -0.36,-0.02 -0.54,-0.02 -0.15,0 -0.31,0.01 -0.47,0.01 l -0.31,0 -0.12,0 5.06,-3.67 z"
       inkscape:connector-curvature="0" />
    <path
       id="path39262"
       sodipodi:nodetypes="ccccccccccccc"
       style="fill:#000000;fill-rule:evenodd;stroke:#000000;stroke-width:1.79449999px"
       d="m 734.99,436.26 -4.8,0 -2.21,2.21 0,2.95 1.85,3.69 2.21,1.85 -3.32,1.84 -3.69,-4.8 -0.37,-7.74 3.69,-3.32 5.53,-0.37 4.8,4.79 -3.69,-1.1 z"
       inkscape:connector-curvature="0" />
    <circle
       id="path41056"
       style="fill:#363636;stroke:#000000;stroke-width:0.89999998;stroke-linejoin:round"
       transform="matrix(1.7945,0,0,1.7945,-298.45,-172.45)"
       cx="582.9942"
       cy="593.75"
       r="19.91279" />
    <path
       id="path8993"
       sodipodi:nodetypes="ccccccccccccc"
       style="fill:#000000;fill-rule:evenodd"
       d="m 565.31,850.86 -4.11,0.93 -6.95,12.35 30.24,18.44 21.4,11.81 22.87,14.01 19.92,13.28 21.39,9.59 15.49,0 28.77,0.74 12.54,-5.9 -3.57,-10.84 -157.99,-64.41 z"
       inkscape:connector-curvature="0" />
    <path
       id="path41060"
       style="fill:#707686;fill-rule:evenodd;stroke:#000000;stroke-width:1.79449999px;stroke-linejoin:round"
       d="m 687.75,901.07 29.51,0 36.15,2.21 3.69,-6.64 -2.22,-7.38 -27.29,-3.69 -58.28,-3.68 -2.96,12.54 21.4,6.64 z"
       inkscape:connector-curvature="0" />
    <ellipse
       id="path41062"
       style="fill:#0f1010"
       transform="matrix(1.7945,0,0,1.7945,-380.07,-148.21)"
       cx="629.81836"
       cy="581.89825"
       rx="1.2333258"
       ry="1.4388801" />
    <path
       id="path8991"
       style="fill:#1d5b0f;fill-rule:evenodd;stroke:#000000;stroke-width:1.79449999px;stroke-linejoin:round"
       d="m 577.85,822.83 -10.32,19.92 -6.64,9.59 22.87,15.49 19.18,9.59 16.23,9.59 28.77,20.66 22.87,11.06 41.31,2.21 11.07,-5.9 -7.38,-8.85 -19.18,-16.97 -18.45,-14.01 -9.59,-11.81 -12.54,-13.28 -11.06,-12.54 -67.14,-14.75 z"
       inkscape:connector-curvature="0" />
    <path
       id="path8104"
       sodipodi:nodetypes="cccccccccccc"
       style="fill:#2c2c2c;fill-rule:evenodd"
       d="m 606.63,794.79 16.96,2.95 19.92,-0.73 -3.69,29.51 5.17,12.54 -12.54,8.11 -10.33,0 -16.23,-1.47 -9.59,-2.95 -7.38,-5.91 -0.74,-17.7 18.45,-24.35 z"
       inkscape:connector-curvature="0" />
    <path
       id="path8102"
       sodipodi:nodetypes="cccccccc"
       style="fill:#635959;fill-rule:evenodd"
       d="m 602.2,788.15 3.77,7.46 -10.41,30.91 -5.16,10.32 -13.28,-14.01 10.32,-21.4 0.74,-12.54 14.02,-0.74 z"
       inkscape:connector-curvature="0" />
    <path
       id="path6326"
       style="fill:#c49073;fill-rule:evenodd"
       d="m 604.41,794.06 -17.7,-5.17 2.95,-42.05 11.8,0 1.48,5.9 5.9,5.17 7.38,6.64 -11.81,29.51 z"
       inkscape:connector-curvature="0" />
    <path
       id="path41036"
       style="fill:#000000"
       d="m 623.34,847.17 0.15,0 c 0.13,0 0.26,0 0.39,0.01 l 0.63,0 0.84,0 1.08,0 c 0.43,0.01 0.87,0.01 1.3,0.01 l 1.45,0 1.62,0 1.74,0 1.85,0 1.96,0 c 0.68,0 1.36,0.01 2.05,0.01 l 2.17,0 2.29,0 2.35,0 2.4,0 2.33,0 2.41,0 2.33,0 c 0.66,-0.02 1.32,0.04 1.98,0.07 0.53,0 1.05,0.14 1.57,0.21 0.4,0.07 0.79,0.19 1.19,0.28 0.28,0.07 0.55,0.19 0.83,0.28 0.23,0.03 0.36,0.24 0.54,0.35 0.16,0.14 0.19,0.36 0.28,0.53 0.15,0.18 -0.01,0.39 -0.02,0.57 -1.53,2.33 -4.82,2.78 -7.13,4.07 -0.23,0.07 -0.47,0.11 -0.71,0.16 -0.3,0.06 -0.58,0.17 -0.88,0.25 -0.34,0.1 -0.69,0.2 -1.04,0.3 -0.4,0.11 -0.8,0.19 -1.21,0.29 -0.45,0.1 -0.91,0.17 -1.36,0.26 -0.5,0.07 -0.99,0.23 -1.48,0.34 -0.51,0.13 -1,0.34 -1.5,0.52 -0.52,0.17 -1.01,0.42 -1.51,0.62 -0.53,0.24 -1.06,0.46 -1.59,0.69 -0.56,0.27 -1.12,0.5 -1.68,0.76 -0.59,0.24 -1.17,0.52 -1.75,0.79 -0.61,0.25 -1.19,0.55 -1.78,0.83 -0.6,0.27 -1.17,0.61 -1.75,0.91 -1.62,0.96 3.27,-1.87 4.91,-2.81 -0.58,0.33 -1.13,0.71 -1.68,1.08 -0.49,0.29 -0.9,0.68 -1.35,1.02 -0.35,0.27 -0.63,0.61 -0.95,0.92 -0.24,0.24 -0.39,0.55 -0.58,0.83 -0.17,0.17 -0.15,0.42 -0.22,0.62 -0.03,0.21 0.18,0.04 0.28,0.07 0.34,0 0.68,-0.04 1.02,-0.06 0.41,-0.05 0.81,-0.14 1.22,-0.22 0.45,-0.07 0.89,-0.18 1.34,-0.27 0.48,-0.1 0.95,-0.23 1.43,-0.35 0.51,-0.14 1.03,-0.23 1.55,-0.35 0.57,-0.12 1.15,-0.22 1.72,-0.33 0.6,-0.11 1.22,-0.2 1.82,-0.3 0.65,-0.09 1.29,-0.19 1.93,-0.28 0.66,-0.1 1.31,-0.21 1.97,-0.31 0.67,-0.11 1.34,-0.23 2.01,-0.35 0.69,-0.12 1.39,-0.22 2.08,-0.32 0.72,-0.12 1.44,-0.21 2.17,-0.31 0.74,-0.1 1.49,-0.18 2.24,-0.28 0.77,-0.09 1.54,-0.17 2.31,-0.25 0.75,-0.09 1.51,-0.09 2.27,-0.13 0.68,-0.01 1.35,0.04 2.03,0.07 0.58,0 1.15,0.15 1.73,0.22 0.47,0.06 0.91,0.28 1.37,0.41 0.4,0.12 0.71,0.41 1.06,0.61 0.29,0.17 0.41,0.5 0.62,0.75 0.17,0.23 0.17,0.52 0.25,0.77 0.08,0.25 -0.05,0.5 -0.07,0.75 -0.04,0.25 -0.23,0.44 -0.35,0.65 -0.15,0.24 -0.39,0.41 -0.58,0.61 -0.23,0.22 -0.53,0.35 -0.79,0.53 -0.31,0.14 -0.56,0.38 -0.84,0.57 -0.3,0.25 -0.56,0.55 -0.84,0.82 -0.29,0.33 -0.59,0.65 -0.88,0.97 -0.33,0.35 -0.66,0.7 -0.98,1.05 -0.36,0.4 -0.69,0.81 -1.04,1.22 -0.36,0.43 -0.7,0.88 -1.04,1.32 -0.37,0.44 -0.7,0.91 -1.05,1.37 -0.36,0.48 -0.7,0.97 -1.05,1.45 -0.38,0.52 -0.73,1.05 -1.09,1.58 -0.37,0.54 -0.69,1.12 -1.03,1.68 -0.35,0.58 -0.64,1.19 -0.96,1.79 -0.3,0.55 -0.49,1.16 -0.74,1.73 -0.21,0.51 -0.29,1.06 -0.44,1.59 -0.13,0.47 -0.1,0.96 -0.16,1.44 -0.04,0.42 0.11,0.83 0.16,1.24 0.04,0.36 0.24,0.67 0.36,1 0.1,0.28 0.36,0.45 0.53,0.67 0.18,0.17 0.44,0.17 0.65,0.25 0.23,0.08 0.48,0.02 0.71,0.02 0.26,0.02 0.48,-0.14 0.72,-0.21 1.97,-1.19 -4,2.28 -5.99,3.43 0.28,-0.12 0.48,-0.34 0.71,-0.51 0.25,-0.22 0.45,-0.49 0.67,-0.74 0.25,-0.3 0.45,-0.64 0.67,-0.95 0.24,-0.39 0.51,-0.75 0.77,-1.12 0.28,-0.39 0.6,-0.76 0.91,-1.14 0.32,-0.4 0.69,-0.77 1.03,-1.16 0.35,-0.4 0.78,-0.73 1.17,-1.09 0.4,-0.37 0.86,-0.65 1.3,-0.98 2.62,-1.71 5.4,-3.15 8.11,-4.71 0.53,-0.29 1.09,-0.5 1.63,-0.75 0.56,-0.23 1.15,-0.38 1.73,-0.57 0.58,-0.19 1.18,-0.3 1.77,-0.45 0.6,-0.13 1.21,-0.23 1.81,-0.35 0.63,-0.11 1.27,-0.21 1.91,-0.32 0.21,-0.03 0.43,-0.07 0.65,-0.1 l -6.19,4.65 c -0.01,0 -0.65,0.1 -0.65,0.1 -0.63,0.12 -1.27,0.22 -1.9,0.34 -0.6,0.13 -1.2,0.23 -1.79,0.38 -0.58,0.16 -1.17,0.29 -1.74,0.49 -0.56,0.21 -1.14,0.36 -1.67,0.64 -0.53,0.27 -1.08,0.51 -1.59,0.81 1.71,-1 6.85,-3.98 5.14,-2.98 -0.44,0.3 -0.91,0.56 -1.33,0.9 -0.39,0.34 -0.83,0.64 -1.19,1.02 -0.35,0.37 -0.73,0.72 -1.06,1.1 -0.3,0.37 -0.61,0.73 -0.92,1.1 -0.26,0.36 -0.54,0.7 -0.78,1.07 -0.22,0.33 -0.44,0.65 -0.65,0.99 -0.2,0.27 -0.39,0.57 -0.62,0.83 -0.21,0.22 -0.39,0.48 -0.64,0.67 -2.42,1.4 -4.67,3.48 -7.44,4.16 -0.29,0 -0.58,0.08 -0.86,0.02 -0.28,-0.07 -0.58,-0.08 -0.85,-0.21 -0.27,-0.18 -0.62,-0.27 -0.83,-0.55 -0.22,-0.3 -0.52,-0.54 -0.66,-0.9 -0.15,-0.38 -0.38,-0.74 -0.44,-1.16 -0.08,-0.46 -0.25,-0.92 -0.23,-1.4 0.03,-0.53 -0.03,-1.06 0.1,-1.58 0.13,-0.56 0.19,-1.15 0.4,-1.69 0.23,-0.61 0.41,-1.24 0.7,-1.82 0.31,-0.61 0.59,-1.24 0.94,-1.84 0.33,-0.57 0.64,-1.17 1.01,-1.72 0.36,-0.54 0.7,-1.08 1.07,-1.6 0.35,-0.49 0.68,-0.99 1.04,-1.46 0.35,-0.47 0.68,-0.95 1.04,-1.4 0.34,-0.44 0.69,-0.89 1.04,-1.33 0.34,-0.41 0.66,-0.84 1.02,-1.24 0.32,-0.36 0.62,-0.73 0.96,-1.07 0.3,-0.32 0.6,-0.63 0.89,-0.96 0.26,-0.3 0.53,-0.59 0.8,-0.88 0.26,-0.24 0.48,-0.52 0.78,-0.71 0.27,-0.15 0.53,-0.33 0.81,-0.47 0.21,-0.15 0.45,-0.27 0.64,-0.45 0.14,-0.15 0.31,-0.28 0.44,-0.45 0.07,-0.13 0.19,-0.24 0.23,-0.4 -0.02,-0.15 0.05,-0.32 -0.07,-0.45 -0.14,-0.15 -0.22,-0.38 -0.43,-0.47 -0.31,-0.14 -0.6,-0.36 -0.94,-0.44 -0.43,-0.1 -0.85,-0.27 -1.29,-0.31 -0.55,-0.05 -1.1,-0.15 -1.66,-0.15 -0.66,-0.01 -1.32,-0.06 -1.99,-0.02 -0.74,0.05 -1.49,0.06 -2.22,0.17 -0.77,0.08 -1.54,0.17 -2.31,0.26 -0.75,0.1 -1.49,0.19 -2.24,0.29 -0.72,0.11 -1.44,0.2 -2.16,0.32 -0.69,0.11 -1.38,0.21 -2.07,0.34 -0.67,0.11 -1.34,0.23 -2.02,0.34 -0.66,0.1 -1.32,0.2 -1.98,0.3 -0.64,0.1 -1.28,0.19 -1.92,0.3 -0.61,0.1 -1.21,0.19 -1.82,0.31 -0.57,0.12 -1.14,0.22 -1.7,0.35 -0.52,0.13 -1.04,0.24 -1.55,0.38 -0.48,0.11 -0.96,0.23 -1.44,0.32 -0.46,0.09 -0.91,0.19 -1.36,0.26 -0.43,0.05 -0.85,0.16 -1.29,0.14 -0.38,-0.04 -0.79,0.04 -1.16,-0.12 -0.24,-0.27 -0.77,-0.39 -0.77,-0.87 0.01,-0.33 -0.16,-0.7 0.04,-1.02 0.17,-0.33 0.28,-0.7 0.51,-0.99 0.31,-0.35 0.55,-0.76 0.92,-1.05 0.44,-0.37 0.83,-0.8 1.32,-1.12 0.55,-0.37 1.09,-0.78 1.67,-1.12 2.78,-1.61 5.52,-3.3 8.34,-4.83 0.59,-0.3 1.17,-0.62 1.77,-0.89 0.6,-0.27 1.2,-0.54 1.79,-0.82 0.59,-0.26 1.17,-0.53 1.76,-0.78 0.56,-0.26 1.12,-0.52 1.68,-0.76 0.54,-0.23 1.07,-0.45 1.6,-0.69 0.51,-0.2 1.02,-0.41 1.54,-0.59 0.52,-0.15 1.02,-0.35 1.56,-0.46 0.5,-0.1 1,-0.22 1.5,-0.3 0.45,-0.1 0.91,-0.18 1.35,-0.29 0.4,-0.11 0.8,-0.2 1.2,-0.32 0.34,-0.11 0.69,-0.21 1.04,-0.31 0.3,-0.08 0.6,-0.16 0.9,-0.23 0.22,-0.08 0.46,-0.12 0.66,-0.24 -2.09,1.2 -8.66,3.66 -6.25,3.65 0.1,0.03 0.26,-0.04 0.32,0.1 0.01,0.01 0.1,0.06 0.03,0.03 -0.12,-0.05 -0.25,-0.08 -0.38,-0.13 -0.25,-0.07 -0.51,-0.16 -0.77,-0.22 -0.38,-0.08 -0.75,-0.2 -1.13,-0.24 -0.51,-0.05 -1.01,-0.15 -1.52,-0.15 -0.65,-0.02 -1.29,-0.06 -1.94,-0.05 l -2.32,0 -2.41,0 -2.33,0 -2.4,0 -2.36,0 -2.29,0 -2.17,0 -2.06,0 c -0.65,0 -1.3,0.01 -1.95,0.01 l -1.86,0 -1.75,0 -1.62,0 -1.46,0 -1.3,0 c -0.36,0.01 -0.72,0.01 -1.09,0.01 l -0.84,0 -0.64,0 c -0.14,0 -0.27,0 -0.4,0.01 l -0.16,0 6.33,-4.6 z"
       inkscape:connector-curvature="0" />
    <path
       id="path41040"
       style="fill:#000000"
       d="m 641.52,838.73 6.81,-3.72 c -0.01,-0.1 -0.13,-0.09 -0.16,-0.12 -0.05,0.11 -0.09,0.22 -0.13,0.33 -0.05,0.17 -0.13,0.33 -0.2,0.49 -0.08,0.21 -0.18,0.42 -0.27,0.63 -0.12,0.24 -0.26,0.46 -0.4,0.7 -0.15,0.27 -0.32,0.54 -0.48,0.82 -0.21,0.31 -0.42,0.63 -0.63,0.94 -0.25,0.36 -0.51,0.71 -0.76,1.06 -0.28,0.39 -0.55,0.78 -0.83,1.16 -0.29,0.42 -0.58,0.84 -0.87,1.26 -0.3,0.44 -0.59,0.89 -0.88,1.33 -0.31,0.46 -0.61,0.93 -0.91,1.39 -0.32,0.49 -0.64,0.98 -0.96,1.47 -0.34,0.52 -0.68,1.05 -1.01,1.58 -0.35,0.54 -0.69,1.09 -1.04,1.64 -0.35,0.56 -0.69,1.13 -1.04,1.69 -0.35,0.57 -0.69,1.15 -1.03,1.73 -0.35,0.58 -0.68,1.16 -1.02,1.74 -0.3,0.5 -0.53,1.05 -0.79,1.57 -0.21,0.44 -0.37,0.9 -0.55,1.35 -0.15,0.34 -0.25,0.7 -0.37,1.05 -0.08,0.25 -0.14,0.5 -0.2,0.75 -0.03,0.16 -0.04,0.33 -0.06,0.49 -0.03,0.11 0.01,0.22 0.01,0.33 -2.21,1.34 -4.43,2.69 -6.64,4.03 -0.23,-0.17 -0.28,-0.46 -0.42,-0.68 -0.11,-0.18 -0.03,-0.39 -0.05,-0.58 0.02,-0.19 0.19,-0.3 0.29,-0.44 1.68,-2.57 4.88,-2.77 7.25,-4.11 0.25,-0.08 0.49,-0.19 0.73,-0.29 0.3,-0.11 0.59,-0.21 0.89,-0.31 0.35,-0.12 0.71,-0.2 1.06,-0.31 0.41,-0.11 0.82,-0.19 1.23,-0.28 0.46,-0.1 0.92,-0.18 1.38,-0.27 0.5,-0.09 1,-0.16 1.51,-0.24 0.52,-0.09 1.01,-0.27 1.51,-0.4 0.53,-0.14 1.07,-0.28 1.6,-0.42 0.57,-0.15 1.15,-0.27 1.73,-0.41 0.61,-0.14 1.22,-0.25 1.83,-0.38 0.65,-0.13 1.3,-0.23 1.94,-0.35 0.63,-0.17 1.27,-0.09 1.91,-0.12 0.53,0.02 1.04,0.16 1.55,0.24 0.44,0.07 0.84,0.28 1.25,0.42 0.36,0.12 0.65,0.36 0.97,0.55 0.31,0.15 0.45,0.48 0.67,0.72 0.18,0.25 0.2,0.56 0.3,0.84 0.09,0.28 0.04,0.57 0.05,0.85 0.01,0.28 -0.13,0.53 -0.19,0.8 -0.09,0.27 -0.3,0.48 -0.44,0.72 -0.2,0.24 -0.44,0.44 -0.66,0.67 -0.27,0.24 -0.51,0.51 -0.76,0.76 -0.27,0.29 -0.55,0.57 -0.82,0.85 -0.3,0.31 -0.59,0.63 -0.89,0.94 -0.31,0.34 -0.6,0.7 -0.91,1.05 -0.33,0.38 -0.62,0.79 -0.94,1.19 -0.32,0.41 -0.58,0.86 -0.87,1.29 -0.28,0.42 -0.47,0.88 -0.7,1.32 -0.21,0.39 -0.3,0.82 -0.45,1.23 -0.13,0.32 -0.1,0.67 -0.16,1 -0.03,0.26 0.11,0.49 0.16,0.73 0.05,0.21 0.23,0.33 0.35,0.49 0.12,0.17 0.33,0.14 0.49,0.2 0.22,0.08 0.44,0.01 0.66,0.01 0.22,-0.04 0.39,-0.21 0.59,-0.3 1.79,-1.47 -4.03,2.29 -6.04,3.45 0.25,-0.14 0.41,-0.38 0.62,-0.57 0.19,-0.27 0.44,-0.49 0.66,-0.73 0.25,-0.27 0.57,-0.46 0.86,-0.69 2.43,-1.7 5.15,-2.95 7.71,-4.4 0.37,-0.17 0.78,-0.23 1.16,-0.34 0.37,-0.11 0.76,-0.07 1.13,-0.1 0.39,-0.01 0.79,-0.03 1.18,-0.04 0.44,-0.01 0.88,-0.02 1.32,-0.03 0.48,-0.02 0.96,0 1.45,0 0.52,0 1.04,0 1.55,0.01 0.56,0 1.12,0 1.68,0.01 0.6,0 1.2,0 1.8,0.01 l 1.9,0 c 0.65,-0.01 1.3,0.06 1.96,0.09 0.62,0.03 1.22,0.21 1.83,0.32 0.54,0.1 1.04,0.33 1.55,0.5 0.46,0.14 0.83,0.45 1.24,0.68 0.32,0.19 0.58,0.46 0.86,0.69 0.24,0.18 0.38,0.44 0.57,0.66 0.16,0.2 0.2,0.45 0.3,0.68 0.09,0.21 0.03,0.45 0.05,0.67 -0.01,0.22 -0.15,0.4 -0.22,0.6 -0.09,0.23 -0.29,0.37 -0.44,0.56 -0.18,0.21 -0.43,0.35 -0.65,0.52 -0.27,0.2 -0.53,0.41 -0.79,0.61 -0.32,0.22 -0.59,0.49 -0.89,0.74 -0.31,0.28 -0.64,0.54 -0.96,0.82 -0.35,0.27 -0.67,0.57 -1.01,0.85 -0.35,0.29 -0.64,0.66 -0.96,0.99 -0.33,0.35 -0.57,0.76 -0.86,1.14 -0.26,0.35 -0.42,0.76 -0.63,1.14 -0.18,0.32 -0.23,0.69 -0.35,1.04 -0.1,0.34 -0.09,0.7 -0.14,1.06 -0.02,0.37 0.04,0.74 0.07,1.12 0.05,0.43 0.09,0.86 0.14,1.28 0.04,0.48 0.09,0.95 0.13,1.42 l 0.03,0.24 -6.88,3.6 -0.03,-0.24 c -0.05,-0.47 -0.1,-0.95 -0.14,-1.42 -0.05,-0.42 -0.09,-0.85 -0.14,-1.27 -0.04,-0.41 -0.1,-0.81 -0.11,-1.21 0.02,-0.39 -0.02,-0.79 0.07,-1.18 0.1,-0.39 0.12,-0.81 0.29,-1.19 0.19,-0.42 0.33,-0.87 0.59,-1.25 0.27,-0.42 0.49,-0.87 0.82,-1.24 0.3,-0.36 0.57,-0.75 0.92,-1.08 0.33,-0.3 0.64,-0.62 0.98,-0.9 0.33,-0.27 0.65,-0.52 0.97,-0.8 0.29,-0.25 0.58,-0.51 0.87,-0.77 0.26,-0.2 0.51,-0.42 0.78,-0.61 0.22,-0.16 0.42,-0.35 0.66,-0.48 0.17,-0.13 0.35,-0.25 0.51,-0.39 0.1,-0.12 0.22,-0.24 0.31,-0.37 0.05,-0.1 0.16,-0.19 0.13,-0.32 -0.04,-0.13 -0.03,-0.3 -0.14,-0.41 -0.15,-0.17 -0.27,-0.37 -0.46,-0.51 -0.26,-0.19 -0.5,-0.43 -0.79,-0.59 -0.38,-0.18 -0.72,-0.44 -1.13,-0.54 -0.5,-0.14 -0.98,-0.34 -1.49,-0.42 -0.58,-0.08 -1.16,-0.23 -1.76,-0.23 -0.64,-0.02 -1.28,-0.06 -1.92,-0.05 l -1.91,0 c -0.6,0 -1.2,-0.01 -1.8,-0.01 -0.56,0 -1.12,0 -1.68,-0.01 l -1.56,0 c -0.48,0.01 -0.96,0 -1.44,0.02 -0.45,0.01 -0.89,0.03 -1.33,0.04 -0.39,0.02 -0.77,0.02 -1.16,0.06 -0.35,0.07 -0.71,0.09 -1.04,0.23 -0.35,0.14 -0.73,0.24 -1.07,0.44 1.87,-1.08 7.51,-4.32 5.61,-3.27 -0.29,0.2 -0.61,0.36 -0.89,0.59 -0.23,0.21 -0.51,0.38 -0.7,0.63 -0.19,0.23 -0.37,0.46 -0.57,0.68 -2.34,1.4 -4.55,3.51 -7.3,4.3 -0.25,0.02 -0.51,0.13 -0.78,0.05 -0.26,-0.07 -0.55,-0.08 -0.8,-0.21 -0.23,-0.17 -0.53,-0.27 -0.7,-0.52 -0.16,-0.25 -0.4,-0.46 -0.49,-0.75 -0.09,-0.32 -0.27,-0.63 -0.28,-0.98 0.02,-0.39 -0.07,-0.8 0.08,-1.19 0.13,-0.45 0.19,-0.92 0.39,-1.35 0.22,-0.47 0.39,-0.97 0.67,-1.41 0.28,-0.45 0.53,-0.93 0.84,-1.36 0.31,-0.41 0.59,-0.84 0.92,-1.23 0.3,-0.36 0.59,-0.72 0.89,-1.08 0.29,-0.32 0.57,-0.65 0.88,-0.95 0.27,-0.29 0.54,-0.57 0.81,-0.86 0.25,-0.26 0.5,-0.52 0.74,-0.78 0.23,-0.21 0.43,-0.44 0.67,-0.63 0.17,-0.18 0.38,-0.33 0.52,-0.54 0.1,-0.18 0.26,-0.34 0.3,-0.56 0.03,-0.2 0.12,-0.41 0.07,-0.62 -0.05,-0.19 -0.04,-0.41 -0.16,-0.58 -0.16,-0.14 -0.26,-0.36 -0.48,-0.44 -0.29,-0.14 -0.56,-0.33 -0.87,-0.42 -0.39,-0.1 -0.76,-0.26 -1.17,-0.31 -0.48,-0.04 -0.96,-0.17 -1.46,-0.13 -0.6,0.08 -1.22,0.08 -1.81,0.23 -0.64,0.12 -1.29,0.23 -1.93,0.37 -0.61,0.13 -1.22,0.25 -1.83,0.4 -0.57,0.14 -1.14,0.27 -1.71,0.43 -0.53,0.14 -1.07,0.27 -1.6,0.43 -0.52,0.11 -1.03,0.28 -1.57,0.32 -0.5,0.09 -1,0.17 -1.5,0.27 -0.45,0.1 -0.91,0.18 -1.36,0.29 -0.4,0.11 -0.81,0.2 -1.21,0.33 -0.35,0.11 -0.7,0.21 -1.04,0.35 -0.29,0.11 -0.58,0.21 -0.87,0.34 -0.24,0.1 -0.49,0.19 -0.73,0.29 2.05,-1.18 4.16,-2.26 6.13,-3.55 -0.13,0.05 -0.26,0.1 -0.4,0.15 -0.07,0 -0.14,0.04 -0.22,0 -0.03,-0.05 -0.32,-0.44 -0.34,-0.48 -2.21,1.34 -4.41,2.68 -6.62,4.02 0.02,-0.01 0.13,0.1 0.12,-0.07 0.02,-0.17 0.06,-0.33 0.07,-0.49 0.05,-0.29 0.07,-0.58 0.16,-0.85 0.12,-0.38 0.22,-0.76 0.36,-1.12 0.18,-0.47 0.35,-0.94 0.55,-1.39 0.26,-0.55 0.48,-1.11 0.77,-1.63 0.34,-0.59 0.66,-1.19 1.02,-1.77 0.34,-0.58 0.67,-1.16 1.03,-1.73 0.34,-0.57 0.68,-1.14 1.03,-1.7 0.34,-0.55 0.68,-1.1 1.03,-1.66 0.33,-0.52 0.67,-1.05 1,-1.57 0.32,-0.49 0.64,-0.99 0.96,-1.48 0.3,-0.46 0.61,-0.92 0.9,-1.38 0.3,-0.45 0.58,-0.9 0.88,-1.34 0.29,-0.42 0.56,-0.85 0.86,-1.27 0.28,-0.39 0.54,-0.79 0.83,-1.17 0.25,-0.35 0.5,-0.69 0.75,-1.05 0.21,-0.3 0.43,-0.6 0.63,-0.92 0.17,-0.26 0.35,-0.5 0.5,-0.78 0.13,-0.22 0.26,-0.45 0.4,-0.67 0.1,-0.19 0.22,-0.36 0.3,-0.55 0.06,-0.16 0.12,-0.32 0.2,-0.47 l 0.12,-0.33 c -0.01,-0.1 0,-0.22 -0.04,-0.32 2.27,-1.25 4.54,-2.49 6.81,-3.73 l -6.33,4.6 z"
       inkscape:connector-curvature="0" />
    <path
       id="path1953"
       style="fill:#3d3d3d;fill-rule:evenodd;stroke:#000000;stroke-width:1px"
       d="m 767.44,152.62 -90.41,-64.829 10.76,-22.384 90.99,67.733 -5.52,6.1 -2.62,4.95 -3.2,8.43 z"
       inkscape:connector-curvature="0" />
    <text
       id="text2841"
       style="font-style:italic;font-size:29.33499908px;line-height:125%;font-family:'Copperplate Gothic Bold';fill:#000000"
       inkscape:export-ydpi="90"
       sodipodi:linespacing="125%"
       transform="matrix(0.815,0.60151,-0.64151,0.75353,0,0)"
       inkscape:export-xdpi="90"
       xml:space="preserve"
       y="-340.58884"
       x="568.80682"><tspan
         id="tspan2843"
         y="-340.58884"
         x="568.80682"
         style="font-style:normal;font-weight:bold"
         sodipodi:role="line">scoot</tspan></text>
  </g>
  <metadata
     id="metadata88">
    <rdf:RDF>
      <cc:Work>
        <dc:format>image/svg+xml</dc:format>
        <dc:type
           rdf:resource="http://purl.org/dc/dcmitype/StillImage" />
        <cc:license
           rdf:resource="http://creativecommons.org/publicdomain/zero/1.0/" />
        <dc:publisher>
          <cc:Agent
             rdf:about="http://openclipart.org/">
            <dc:title>Openclipart</dc:title>
          </cc:Agent>
        </dc:publisher>
        <dc:title>Biker</dc:title>
        <dc:date>2006-12-25T17:03:47</dc:date>
        <dc:description />
        <dc:source>https://openclipart.org/detail/2247/biker-by-machovka</dc:source>
        <dc:creator>
          <cc:Agent>
            <dc:title>Machovka</dc:title>
          </cc:Agent>
        </dc:creator>
        <dc:subject>
          <rdf:Bag>
            <rdf:li>activity</rdf:li>
            <rdf:li>bicycle</rdf:li>
            <rdf:li>bike</rdf:li>
            <rdf:li>boy</rdf:li>
            <rdf:li>city</rdf:li>
            <rdf:li>jump</rdf:li>
            <rdf:li>kid</rdf:li>
            <rdf:li>people</rdf:li>
            <rdf:li>rider</rdf:li>
            <rdf:li>sport</rdf:li>
          </rdf:Bag>
        </dc:subject>
      </cc:Work>
      <cc:License
         rdf:about="http://creativecommons.org/publicdomain/zero/1.0/">
        <cc:permits
           rdf:resource="http://creativecommons.org/ns#Reproduction" />
        <cc:permits
           rdf:resource="http://creativecommons.org/ns#Distribution" />
        <cc:permits
           rdf:resource="http://creativecommons.org/ns#DerivativeWorks" />
      </cc:License>
    </rdf:RDF>
  </metadata>
</svg>
