<?xml version="1.0" encoding="utf-8"?>
<!-- Generator: Adobe Illustrator 16.0.4, SVG Export Plug-In . SVG Version: 6.00 Build 0)  -->
<!DOCTYPE svg PUBLIC "-//W3C//DTD SVG 1.1//EN" "http://www.w3.org/Graphics/SVG/1.1/DTD/svg11.dtd">
<svg version="1.1" id="Layer_1" xmlns="http://www.w3.org/2000/svg" xmlns:xlink="http://www.w3.org/1999/xlink" x="0px" y="0px"
	 width="477.997px" height="357.997px" viewBox="-180.999 -131.063 477.997 357.997"
	 enable-background="new -180.999 -131.063 477.997 357.997" xml:space="preserve">
<polygon fill="#008000" points="25.879,-78.599 -4.412,-131.063 25.879,-183.528 86.459,-183.528 116.75,-131.063 86.459,-78.599 
	"/>
<title>5 by 3 sigma maze</title>
<desc>5 by 3 sigma maze generated by The Maze Generator Website (http://www.mazegenerator.net/).</desc>
<g>
	<polyline fill="none" stroke="#000000" stroke-width="7.9968" stroke-linecap="round" stroke-linejoin="round" points="
		-147.625,22.934 -177,-27.064 -147.625,-77.063 -88.875,-77.063 -59.5,-127.065 -0.75,-127.065 28.625,-77.063 -0.75,-27.064 	"/>
	<polyline fill="none" stroke="#000000" stroke-width="7.9968" stroke-linecap="round" stroke-linejoin="round" points="
		116.75,-27.064 87.375,-77.063 116.75,-127.065 175.5,-127.065 204.875,-77.063 263.625,-77.063 293,-27.064 263.625,22.934 	"/>
	<polyline fill="none" stroke="#000000" stroke-width="7.9968" stroke-linecap="round" stroke-linejoin="round" points="
		-147.625,122.934 -177,72.936 -147.625,22.934 	"/>
	<polyline fill="none" stroke="#000000" stroke-width="7.9968" stroke-linecap="round" stroke-linejoin="round" points="
		-59.5,72.936 -88.875,22.934 -59.5,-27.064 -0.75,-27.064 	"/>
	<polyline fill="none" stroke="#000000" stroke-width="7.9968" stroke-linecap="round" stroke-linejoin="round" points="
		28.625,22.934 87.375,22.934 116.75,72.936 	"/>
	<polyline fill="none" stroke="#000000" stroke-width="7.9968" stroke-linecap="round" stroke-linejoin="round" points="
		87.375,22.934 116.75,-27.064 175.5,-27.064 	"/>
	
		<line fill="none" stroke="#000000" stroke-width="7.9968" stroke-linecap="round" stroke-linejoin="round" x1="175.5" y1="72.936" x2="204.875" y2="22.934"/>
	<polyline fill="none" stroke="#000000" stroke-width="7.9968" stroke-linecap="round" stroke-linejoin="round" points="
		263.625,22.934 293,72.936 263.625,122.934 	"/>
	<polyline fill="none" stroke="#000000" stroke-width="7.9968" stroke-linecap="round" stroke-linejoin="round" points="
		-147.625,222.935 -177,172.933 -147.625,122.934 	"/>
	<polyline fill="none" stroke="#000000" stroke-width="7.9968" stroke-linecap="round" stroke-linejoin="round" points="
		-88.875,122.934 -59.5,72.936 -0.75,72.936 	"/>
	<polyline fill="none" stroke="#000000" stroke-width="7.9968" stroke-linecap="round" stroke-linejoin="round" points="
		28.625,122.934 87.375,122.934 116.75,72.936 	"/>
	<polyline fill="none" stroke="#000000" stroke-width="7.9968" stroke-linecap="round" stroke-linejoin="round" points="
		175.5,72.936 204.875,122.934 175.5,172.933 	"/>
	<polyline fill="none" stroke="#000000" stroke-width="7.9968" stroke-linecap="round" stroke-linejoin="round" points="
		263.625,122.934 293,172.933 263.625,222.935 	"/>
	<polyline fill="none" stroke="#000000" stroke-width="7.9968" stroke-linecap="round" stroke-linejoin="round" points="
		-59.5,172.933 -88.875,222.935 -147.625,222.935 	"/>
	
		<line fill="none" stroke="#000000" stroke-width="7.9968" stroke-linecap="round" stroke-linejoin="round" x1="-0.75" y1="172.933" x2="-59.5" y2="172.933"/>
	
		<line fill="none" stroke="#000000" stroke-width="7.9968" stroke-linecap="round" stroke-linejoin="round" x1="116.75" y1="172.933" x2="87.375" y2="222.935"/>
	
		<line fill="none" stroke="#000000" stroke-width="7.9968" stroke-linecap="round" stroke-linejoin="round" x1="28.625" y1="222.935" x2="-0.75" y2="172.933"/>
	
		<line fill="none" stroke="#000000" stroke-width="7.9968" stroke-linecap="round" stroke-linejoin="round" x1="175.5" y1="172.933" x2="116.75" y2="172.933"/>
	<polyline fill="none" stroke="#000000" stroke-width="7.9968" stroke-linecap="round" stroke-linejoin="round" points="
		263.625,222.935 204.875,222.935 175.5,172.933 	"/>
</g>
</svg>
