<?xml version="1.0" encoding="utf-8"?>
<!-- Generator: Adobe Illustrator 16.0.4, SVG Export Plug-In . SVG Version: 6.00 Build 0)  -->
<!DOCTYPE svg PUBLIC "-//W3C//DTD SVG 1.1//EN" "http://www.w3.org/Graphics/SVG/1.1/DTD/svg11.dtd">
<svg version="1.1" id="Layer_1" xmlns="http://www.w3.org/2000/svg" xmlns:xlink="http://www.w3.org/1999/xlink" x="0px" y="0px"
	 width="480.497px" height="360.497px" viewBox="-192.749 -145.438 480.497 360.497"
	 enable-background="new -192.749 -145.438 480.497 360.497" xml:space="preserve">
<title>4 by 2 sigma maze</title>
<desc>4 by 2 sigma maze generated by The Maze Generator Website (http://www.mazegenerator.net/).</desc>
<polygon fill="#008000" points="-81.167,-73.406 -6.73,-217.469 67.705,-73.406 "/>
<g>
	<polyline fill="none" stroke="#000000" stroke-width="10.4971" stroke-linecap="round" stroke-linejoin="round" points="
		-151.346,69.814 -187.5,-0.19 -151.346,-70.188 -79.039,-70.188 -42.885,-0.19 	"/>
	
		<line fill="none" stroke="#000000" stroke-width="10.4971" stroke-linecap="round" stroke-linejoin="round" x1="-79.039" y1="-70.188" x2="-42.885" y2="-140.189"/>
	<polyline fill="none" stroke="#000000" stroke-width="10.4971" stroke-linecap="round" stroke-linejoin="round" points="
		29.423,-140.189 65.577,-70.188 137.885,-70.188 174.038,-140.189 246.346,-140.189 282.5,-70.188 246.346,-0.19 	"/>
	<polyline fill="none" stroke="#000000" stroke-width="10.4971" stroke-linecap="round" stroke-linejoin="round" points="
		-151.346,209.811 -187.5,139.812 -151.346,69.814 	"/>
	
		<line fill="none" stroke="#000000" stroke-width="10.4971" stroke-linecap="round" stroke-linejoin="round" x1="-79.039" y1="69.814" x2="-42.885" y2="-0.19"/>
	<polyline fill="none" stroke="#000000" stroke-width="10.4971" stroke-linecap="round" stroke-linejoin="round" points="
		29.423,-0.19 65.577,69.814 29.423,139.812 	"/>
	<polyline fill="none" stroke="#000000" stroke-width="10.4971" stroke-linecap="round" stroke-linejoin="round" points="
		65.577,69.814 137.885,69.814 174.038,-0.19 	"/>
	<polyline fill="none" stroke="#000000" stroke-width="10.4971" stroke-linecap="round" stroke-linejoin="round" points="
		246.346,-0.19 282.5,69.814 246.346,139.812 	"/>
	<polyline fill="none" stroke="#000000" stroke-width="10.4971" stroke-linecap="round" stroke-linejoin="round" points="
		-42.885,139.812 -79.039,209.811 -151.346,209.811 	"/>
	
		<line fill="none" stroke="#000000" stroke-width="10.4971" stroke-linecap="round" stroke-linejoin="round" x1="29.423" y1="139.812" x2="-42.885" y2="139.812"/>
	
		<line fill="none" stroke="#000000" stroke-width="10.4971" stroke-linecap="round" stroke-linejoin="round" x1="174.038" y1="139.812" x2="137.885" y2="209.811"/>
	
		<line fill="none" stroke="#000000" stroke-width="10.4971" stroke-linecap="round" stroke-linejoin="round" x1="65.577" y1="209.811" x2="29.423" y2="139.812"/>
	
		<line fill="none" stroke="#000000" stroke-width="10.4971" stroke-linecap="round" stroke-linejoin="round" x1="246.346" y1="139.812" x2="174.038" y2="139.812"/>
</g>
</svg>
