<?xml version="1.0" encoding="utf-8"?>
<!-- Generator: Adobe Illustrator 16.0.4, SVG Export Plug-In . SVG Version: 6.00 Build 0)  -->
<!DOCTYPE svg PUBLIC "-//W3C//DTD SVG 1.1//EN" "http://www.w3.org/Graphics/SVG/1.1/DTD/svg11.dtd">
<svg version="1.1" id="Layer_1" xmlns="http://www.w3.org/2000/svg" xmlns:xlink="http://www.w3.org/1999/xlink" x="0px" y="0px"
	 width="478.57px" height="358.57px" viewBox="-181.285 -137.285 478.57 358.57"
	 enable-background="new -181.285 -137.285 478.57 358.57" xml:space="preserve">
<polygon fill="#008000" points="100.571,-137.824 57.371,-95.215 14.171,-137.824 "/>
<title>7 by 5 orthogonal maze</title>
<desc>7 by 5 orthogonal maze generated by The Maze Generator Website (http://www.mazegenerator.net/).</desc>
<g>
	<line fill="none" stroke="#000000" stroke-width="8.5696" stroke-linecap="square" x1="-177" y1="-133" x2="24.428" y2="-133"/>
	<line fill="none" stroke="#000000" stroke-width="8.5696" stroke-linecap="square" x1="91.572" y1="-133" x2="293" y2="-133"/>
	<line fill="none" stroke="#000000" stroke-width="8.5696" stroke-linecap="square" x1="-177" y1="-63" x2="-109.858" y2="-63"/>
	<line fill="none" stroke="#000000" stroke-width="8.5696" stroke-linecap="square" x1="24.428" y1="-63" x2="158.714" y2="-63"/>
	<line fill="none" stroke="#000000" stroke-width="8.5696" stroke-linecap="square" x1="-109.858" y1="7" x2="24.428" y2="7"/>
	<line fill="none" stroke="#000000" stroke-width="8.5696" stroke-linecap="square" x1="-177" y1="77" x2="-109.858" y2="77"/>
	<line fill="none" stroke="#000000" stroke-width="8.5696" stroke-linecap="square" x1="24.428" y1="77" x2="225.858" y2="77"/>
	<line fill="none" stroke="#000000" stroke-width="8.5696" stroke-linecap="square" x1="-109.858" y1="147" x2="91.572" y2="147"/>
	<line fill="none" stroke="#000000" stroke-width="8.5696" stroke-linecap="square" x1="158.714" y1="147" x2="225.858" y2="147"/>
	<line fill="none" stroke="#000000" stroke-width="8.5696" stroke-linecap="square" x1="-177" y1="217" x2="24.428" y2="217"/>
	<line fill="none" stroke="#000000" stroke-width="8.5696" stroke-linecap="square" x1="91.572" y1="217" x2="293" y2="217"/>
	<line fill="none" stroke="#000000" stroke-width="8.5696" stroke-linecap="square" x1="-177" y1="-133" x2="-177" y2="217"/>
	<line fill="none" stroke="#000000" stroke-width="8.5696" stroke-linecap="square" x1="-42.714" y1="-133" x2="-42.714" y2="147"/>
	<line fill="none" stroke="#000000" stroke-width="8.5696" stroke-linecap="square" x1="24.428" y1="-63" x2="24.428" y2="7"/>
	<line fill="none" stroke="#000000" stroke-width="8.5696" stroke-linecap="square" x1="91.572" y1="7" x2="91.572" y2="77"/>
	<line fill="none" stroke="#000000" stroke-width="8.5696" stroke-linecap="square" x1="158.714" y1="-63" x2="158.714" y2="7"/>
	<line fill="none" stroke="#000000" stroke-width="8.5696" stroke-linecap="square" x1="158.714" y1="147" x2="158.714" y2="217"/>
	<line fill="none" stroke="#000000" stroke-width="8.5696" stroke-linecap="square" x1="225.858" y1="-133" x2="225.858" y2="77"/>
	<line fill="none" stroke="#000000" stroke-width="8.5696" stroke-linecap="square" x1="293" y1="-133" x2="293" y2="217"/>
</g>
</svg>
