<?xml version="1.0" encoding="utf-8"?>
<!-- Generator: Adobe Illustrator 16.0.4, SVG Export Plug-In . SVG Version: 6.00 Build 0)  -->
<!DOCTYPE svg PUBLIC "-//W3C//DTD SVG 1.1//EN" "http://www.w3.org/Graphics/SVG/1.1/DTD/svg11.dtd">
<svg version="1.1" id="Layer_1" xmlns="http://www.w3.org/2000/svg" xmlns:xlink="http://www.w3.org/1999/xlink" x="0px" y="0px"
	 width="481.336px" height="361.336px" viewBox="-198.668 -146.668 481.336 361.336"
	 enable-background="new -198.668 -146.668 481.336 361.336" xml:space="preserve">
<polyline id="rect4366_2_" fill="#008000" points="-5.209,-48.332 -5.209,-146.668 95.668,-146.668 "/>
<title>5 by 4 orthogonal maze</title>
<desc>5 by 4 orthogonal maze generated by The Maze Generator Website (http://www.mazegenerator.net/).</desc>
<g>
	<line fill="none" stroke="#000000" stroke-width="11.3364" stroke-linecap="square" x1="-193" y1="-141" x2="-5" y2="-141"/>
	<line fill="none" stroke="#000000" stroke-width="11.3364" stroke-linecap="square" x1="89" y1="-141" x2="277" y2="-141"/>
	<line fill="none" stroke="#000000" stroke-width="11.3364" stroke-linecap="square" x1="-99" y1="-53.5" x2="-5" y2="-53.5"/>
	<line fill="none" stroke="#000000" stroke-width="11.3364" stroke-linecap="square" x1="-5" y1="34" x2="89" y2="34"/>
	<line fill="none" stroke="#000000" stroke-width="11.3364" stroke-linecap="square" x1="183" y1="34" x2="277" y2="34"/>
	<line fill="none" stroke="#000000" stroke-width="11.3364" stroke-linecap="square" x1="-99" y1="121.5" x2="-5" y2="121.5"/>
	<line fill="none" stroke="#000000" stroke-width="11.3364" stroke-linecap="square" x1="-193" y1="209" x2="-5" y2="209"/>
	<line fill="none" stroke="#000000" stroke-width="11.3364" stroke-linecap="square" x1="89" y1="209" x2="277" y2="209"/>
	<line fill="none" stroke="#000000" stroke-width="11.3364" stroke-linecap="square" x1="-193" y1="-141" x2="-193" y2="209"/>
	<line fill="none" stroke="#000000" stroke-width="11.3364" stroke-linecap="square" x1="-99" y1="-53.5" x2="-99" y2="34"/>
	<line fill="none" stroke="#000000" stroke-width="11.3364" stroke-linecap="square" x1="-5" y1="-141" x2="-5" y2="-53.5"/>
	<line fill="none" stroke="#000000" stroke-width="11.3364" stroke-linecap="square" x1="-5" y1="34" x2="-5" y2="209"/>
	<line fill="none" stroke="#000000" stroke-width="11.3364" stroke-linecap="square" x1="89" y1="-53.5" x2="89" y2="121.5"/>
	<line fill="none" stroke="#000000" stroke-width="11.3364" stroke-linecap="square" x1="183" y1="-141" x2="183" y2="-53.5"/>
	<line fill="none" stroke="#000000" stroke-width="11.3364" stroke-linecap="square" x1="183" y1="34" x2="183" y2="121.5"/>
	<line fill="none" stroke="#000000" stroke-width="11.3364" stroke-linecap="square" x1="277" y1="-141" x2="277" y2="209"/>
</g>
</svg>
