<?xml version="1.0" encoding="UTF-8" standalone="no"?>
<svg
   xmlns:dc="http://purl.org/dc/elements/1.1/"
   xmlns:cc="http://creativecommons.org/ns#"
   xmlns:rdf="http://www.w3.org/1999/02/22-rdf-syntax-ns#"
   xmlns:svg="http://www.w3.org/2000/svg"
   xmlns="http://www.w3.org/2000/svg"
   xmlns:sodipodi="http://sodipodi.sourceforge.net/DTD/sodipodi-0.dtd"
   xmlns:inkscape="http://www.inkscape.org/namespaces/inkscape"
   width="476.0578"
   height="363.5033"
   version="1.1"
   id="svg2"
   inkscape:version="0.91 r13725"
   sodipodi:docname="Instructions 11.svg">
  <metadata
     id="metadata48">
    <rdf:RDF>
      <cc:Work
         rdf:about="">
        <dc:format>image/svg+xml</dc:format>
        <dc:type
           rdf:resource="http://purl.org/dc/dcmitype/StillImage" />
        <dc:title>5 by 3 sigma maze</dc:title>
      </cc:Work>
    </rdf:RDF>
  </metadata>
  <defs
     id="defs46" />
  <sodipodi:namedview
     pagecolor="#ffffff"
     bordercolor="#666666"
     borderopacity="1"
     objecttolerance="10"
     gridtolerance="10"
     guidetolerance="10"
     inkscape:pageopacity="0"
     inkscape:pageshadow="2"
     inkscape:window-width="1680"
     inkscape:window-height="962"
     id="namedview44"
     showgrid="false"
     showguides="false"
     fit-margin-top="0"
     fit-margin-left="0"
     fit-margin-right="0"
     fit-margin-bottom="0"
     inkscape:zoom="0.87055056"
     inkscape:cx="-51.45542"
     inkscape:cy="103.77754"
     inkscape:window-x="648"
     inkscape:window-y="1440"
     inkscape:window-maximized="1"
     inkscape:current-layer="text4165" />
  <title
     id="title4">5 by 3 sigma maze</title>
  <desc
     id="desc6">5 by 3 sigma maze generated by The Maze Generator Website (http://www.mazegenerator.net/).</desc>
  <path
     style="opacity:1;fill:#ffffff;fill-opacity:1;fill-rule:nonzero;stroke:none;stroke-width:1.80442083;stroke-linejoin:miter;stroke-miterlimit:4;stroke-dasharray:none;stroke-opacity:1"
     d="m -0.94814885,-0.3648343 477.95409885,0 0,364.2329643 -477.95409885,0 z"
     id="rect3543"
     inkscape:connector-curvature="0" />
  <flowRoot
     xml:space="preserve"
     id="flowRoot4210"
     style="fill:black;stroke:none;stroke-opacity:1;stroke-width:1px;stroke-linejoin:miter;stroke-linecap:butt;fill-opacity:1;font-family:Sans;font-style:normal;font-weight:normal;font-size:40px;line-height:125%;letter-spacing:0px;word-spacing:0px"><flowRegion
       id="flowRegion4212"><rect
         id="rect4214"
         width="516.91425"
         height="328.52774"
         x="-19.527872"
         y="8.5555029" /></flowRegion><flowPara
       id="flowPara4216" /></flowRoot>  <g
     style="font-style:normal;font-weight:normal;font-size:40px;line-height:125%;font-family:Sans;text-align:center;letter-spacing:0px;word-spacing:0px;text-anchor:middle;fill:#000000;fill-opacity:1;stroke:none;stroke-width:1px;stroke-linecap:butt;stroke-linejoin:miter;stroke-opacity:1"
     id="text4165">
    <path
       d="m 66.300385,150.86786 q 0,-2.29492 0.146484,-4.58984 0.146484,-2.29493 0.341797,-4.54102 0.24414,-2.29492 0.390625,-4.54102 0.146484,-2.29492 0.146484,-4.54101 0,-1.26953 -0.292969,-2.44141 -0.24414,-1.17187 -0.24414,-2.39258 l 0,-0.24414 q 0.09766,-0.0488 0.341797,-0.0977 0.292968,-0.0977 0.585937,-0.14649 0.292969,-0.0488 0.585938,-0.14648 0.24414,-0.0977 0.341797,-0.0977 l 0.488281,0 q 0.390625,1.75781 1.02539,4.19922 0.683594,2.44141 1.611329,4.98047 0.927734,2.53906 2.197265,5.07812 1.269531,2.49024 2.929688,4.49219 1.660156,1.95313 3.710937,3.17383 2.050781,1.17188 4.589844,1.12305 1.513672,0 2.636719,-0.48828 1.171875,-0.53711 1.904297,-1.41602 0.732421,-0.92773 1.074218,-2.14844 0.390625,-1.2207 0.390625,-2.68554 0,-1.9043 -0.78125,-3.51563 -0.732422,-1.66016 -1.611328,-3.17383 -0.878906,-1.51367 -1.660156,-3.02734 -0.732422,-1.51367 -0.732422,-3.27149 0,-0.68359 0.146484,-1.07421 0.146485,-0.39063 0.830079,-0.39063 0.78125,0 1.5625,0.87891 0.830078,0.8789 1.5625,2.24609 0.732421,1.36719 1.367187,3.07617 0.634766,1.66016 1.123047,3.32032 0.488281,1.66015 0.732422,3.07617 0.292969,1.41601 0.292969,2.24609 0,2.09961 -0.683594,3.85742 -0.683594,1.70899 -1.953125,3.02735 -1.220703,1.26953 -2.978516,2.00195 -1.708984,0.68359 -3.808594,0.68359 -2.294921,0 -4.15039,-0.8789 -1.806641,-0.87891 -3.271485,-2.2461 -1.416015,-1.41601 -2.539062,-2.97851 -1.074219,-1.5625 -1.855469,-2.92969 -0.78125,-1.41602 -1.367187,-2.29492 -0.53711,-0.87891 -0.878907,-0.87891 -0.634765,0 -0.927734,0.43946 -0.292969,0.43945 -0.439453,1.02539 -0.09766,0.58593 -0.09766,1.26953 0,0.63476 0,0.97656 0,1.5625 0.292968,2.92969 0.292969,1.31836 0.292969,2.83203 0,0.3418 -0.09766,0.8789 -0.04883,0.53711 -0.244141,1.07422 -0.146484,0.53711 -0.488281,0.92774 -0.341797,0.39062 -0.878906,0.39062 -0.488281,0 -0.830078,-0.34179 -0.292969,-0.39063 -0.488282,-0.83008 -0.195312,-0.48828 -0.292968,-0.97656 -0.04883,-0.53711 -0.04883,-0.87891 z"
       style="font-style:normal;font-variant:normal;font-weight:normal;font-stretch:normal;font-size:50px;font-family:'Indie Flower';-inkscape-font-specification:'Indie Flower'"
       id="path4203" />
    <path
       d="m 96.37851,143.88544 q 0,-2.68555 1.171875,-4.6875 1.171875,-2.00196 3.076175,-3.36914 1.90429,-1.36719 4.24804,-2.00196 2.39258,-0.68359 4.78516,-0.68359 1.26953,0 2.34375,0.48828 1.12305,0.43945 2.09961,1.26953 1.02539,0.78125 1.80664,1.85547 0.78125,1.02539 1.31836,2.14844 0.58594,1.12305 0.87891,2.29492 0.29296,1.12305 0.29296,2.19727 0,2.49023 -0.97656,4.44336 -0.97656,1.95312 -2.63672,3.32031 -1.66015,1.31836 -3.75976,2.05078 -2.09961,0.68359 -4.29688,0.68359 -2.24609,0 -4.15039,-0.68359 -1.85547,-0.73242 -3.271483,-2.00195 -1.367187,-1.26954 -2.148437,-3.125 -0.78125,-1.9043 -0.78125,-4.19922 z m 2.392578,-0.39063 q 0,1.51367 0.537109,2.92969 0.585938,1.36719 1.562503,2.39258 1.02539,1.02539 2.39258,1.66015 1.36718,0.58594 2.92968,0.58594 0.83008,0.0977 2.00196,-0.24414 1.2207,-0.39062 2.39257,-1.07422 1.22071,-0.73242 2.29493,-1.70898 1.12304,-1.02539 1.85546,-2.19727 0.73243,-1.2207 0.87891,-2.49023 0.19531,-1.31836 -0.43945,-2.58789 -0.58594,-1.31836 -2.19727,-2.49024 -1.61133,-1.2207 -4.44336,-2.24609 -1.61133,0 -3.36914,0.48828 -1.70898,0.43945 -3.125,1.36719 -1.41601,0.92773 -2.343748,2.34375 -0.927734,1.41601 -0.927734,3.27148 z"
       style="font-style:normal;font-variant:normal;font-weight:normal;font-stretch:normal;font-size:50px;font-family:'Indie Flower';-inkscape-font-specification:'Indie Flower'"
       id="path4205" />
    <path
       d="m 136.66171,149.15887 q -1.95312,2.63672 -3.95508,3.71094 -1.95312,1.02539 -3.75976,0.92774 -1.75781,-0.14649 -3.36914,-1.31836 -1.5625,-1.17188 -2.73438,-2.92969 -1.12304,-1.75781 -1.85547,-3.95508 -0.68359,-2.24609 -0.73242,-4.54101 -0.0488,-2.29493 0.58594,-4.44336 0.68359,-2.19727 2.24609,-3.90625 0.78125,0.29297 0.87891,0.78125 0.0977,0.53711 0.0977,1.12304 0,0.83008 -0.19532,1.61133 -0.14648,0.73242 -0.34179,1.51367 -0.19532,0.78125 -0.39063,1.61133 -0.14648,0.83008 -0.14648,1.70899 0,0.63476 0.14648,1.61132 0.14649,0.92774 0.39063,2.00196 0.29297,1.07422 0.73242,2.14843 0.43945,1.0254 1.02539,1.9043 0.63477,0.83008 1.36719,1.41602 0.73242,0.53711 1.66015,0.53711 0.83008,0 1.95313,-0.48828 1.17187,-0.53711 2.19726,-1.31836 1.07422,-0.78125 1.75782,-1.75782 0.73242,-0.97656 0.73242,-1.95312 l 0.29297,-6.34766 q 0,-0.14648 0.19531,-0.29297 0.19531,-0.14648 0.39062,-0.24414 0.24415,-0.14648 0.48829,-0.24414 0.24414,-0.0976 0.34179,-0.0976 0.6836,0 0.92774,0.8789 0.24414,0.87891 0.39062,2.29492 0.14649,1.36719 0.3418,2.92969 0.19531,1.5625 0.68359,2.97852 0.53711,1.36718 1.5625,2.24609 0.97657,0.87891 2.83203,0.87891 1.80664,-0.0488 2.88086,-0.73242 1.07422,-0.73243 1.5625,-1.9043 0.48828,-1.17188 0.43946,-2.58789 0,-1.46485 -0.39063,-2.88086 -0.3418,-1.46485 -0.97656,-2.7832 -0.58594,-1.31836 -1.31836,-2.29493 -0.0977,-0.39062 0,-0.53711 0.0977,-0.19531 0.24414,-0.24414 0.19531,-0.0977 0.43945,-0.0977 0.24414,-0.0488 0.39063,-0.0488 0.78125,0.19531 1.66015,1.31836 0.92774,1.07422 1.61133,2.58789 0.6836,1.51367 1.02539,3.36914 0.39063,1.85547 0.19532,3.66211 -0.14649,1.80664 -1.02539,3.36914 -0.87891,1.5625 -2.68555,2.53906 -2.14844,0.14649 -3.51563,0.19531 -1.36718,0 -2.29492,-0.0977 -0.8789,-0.14649 -1.41601,-0.43945 -0.53711,-0.29297 -1.02539,-0.73243 -0.48829,-0.48828 -1.07422,-1.12304 -0.53711,-0.63477 -1.46485,-1.51368 z"
       style="font-style:normal;font-variant:normal;font-weight:normal;font-stretch:normal;font-size:50px;font-family:'Indie Flower';-inkscape-font-specification:'Indie Flower'"
       id="path4207" />
    <path
       d="m 173.57578,169.08075 q 0,-0.3418 0,-0.68359 0,-0.29297 0.0976,-0.53711 0.0977,-0.19532 0.29297,-0.3418 0.29297,-0.0977 0.68359,-0.0977 0.73243,0.83008 1.85547,2.09961 1.17188,1.31836 2.63672,2.53907 1.46485,1.2207 3.07617,2.14843 1.61133,0.92774 3.27149,0.92774 1.36719,-0.0488 2.34375,-0.73242 0.97656,-0.63477 1.66015,-1.70899 0.6836,-1.07422 1.12305,-2.44141 0.43945,-1.36718 0.68359,-2.7832 0.29297,-1.41601 0.39063,-2.73437 0.14648,-1.31836 0.29297,-2.29493 0.0976,-0.48828 0.19531,-1.66015 0.14649,-1.12305 0.24414,-2.53906 0.14649,-1.36719 0.19531,-2.88086 0.0977,-1.51368 0,-2.73438 -0.0977,-1.26953 -0.39062,-2.05078 -0.29297,-0.83008 -0.87891,-0.83008 -0.83008,0 -1.75781,0.48828 -0.92773,0.48828 -1.95312,1.12305 -0.97657,0.58594 -2.00196,1.07422 -1.02539,0.48828 -2.00195,0.48828 -1.85547,0 -3.41797,-0.73242 -1.51367,-0.78125 -2.7832,-2.00195 -1.26953,-1.22071 -2.2461,-2.83204 -0.97656,-1.66015 -1.66015,-3.41796 -0.63477,-1.75782 -0.97657,-3.51563 -0.29296,-1.75781 -0.29296,-3.32031 0,-0.3418 -0.0977,-1.12305 -0.0488,-0.78125 0.0488,-1.61133 0.0977,-0.83008 0.43945,-1.46484 0.3418,-0.63477 1.07422,-0.63477 0.19531,0 0.29297,0.78125 0.14648,0.78125 0.29297,2.05078 0.19531,1.22071 0.43945,2.83204 0.29297,1.61132 0.73242,3.27148 0.43946,1.66016 1.07422,3.27148 0.63477,1.61133 1.5625,2.88086 0.92774,1.22071 2.19727,2.00196 1.31836,0.78125 2.97851,0.78125 1.07422,0 2.2461,-0.43946 1.17187,-0.48828 2.19726,-1.2207 1.07422,-0.73242 1.95313,-1.66016 0.8789,-0.97656 1.36718,-1.90429 0,-0.19531 -0.0488,-0.92774 -0.0488,-0.73242 -0.0977,-1.66015 -0.0488,-0.97657 -0.0977,-2.09961 -0.0488,-1.12305 -0.0976,-2.09961 -0.0488,-1.02539 -0.0977,-1.75781 0,-0.73243 0,-0.92774 0.0977,-2.97851 0.43945,-3.61328 0.3418,-0.68359 0.83008,0.39063 0.48828,1.07421 1.02539,3.61328 0.53711,2.53906 0.97657,5.95703 0.48828,3.36914 0.73242,7.37304 0.29297,4.00391 0.24414,8.00782 -0.0488,4.05273 -0.53711,7.8125 -0.43945,3.75976 -1.46485,6.64062 -1.02539,2.92969 -2.68554,4.73633 -1.66016,1.80664 -4.10156,1.9043 -0.97657,0 -2.34375,-0.39063 -1.31836,-0.34179 -2.68555,-0.97656 -1.36719,-0.63477 -2.73438,-1.51367 -1.31836,-0.87891 -2.39257,-1.9043 -1.0254,-1.02539 -1.70899,-2.14844 -0.63476,-1.12304 -0.63476,-2.24609 z"
       style="font-style:normal;font-variant:normal;font-weight:normal;font-stretch:normal;font-size:50px;font-family:'Indie Flower';-inkscape-font-specification:'Indie Flower'"
       id="path4209" />
    <path
       d="m 196.67148,143.88544 q 0,-2.68555 1.17187,-4.6875 1.17188,-2.00196 3.07618,-3.36914 1.90429,-1.36719 4.24804,-2.00196 2.39258,-0.68359 4.78516,-0.68359 1.26953,0 2.34375,0.48828 1.12305,0.43945 2.09961,1.26953 1.02539,0.78125 1.80664,1.85547 0.78125,1.02539 1.31836,2.14844 0.58594,1.12305 0.8789,2.29492 0.29297,1.12305 0.29297,2.19727 0,2.49023 -0.97656,4.44336 -0.97656,1.95312 -2.63672,3.32031 -1.66015,1.31836 -3.75976,2.05078 -2.09961,0.68359 -4.29688,0.68359 -2.24609,0 -4.15039,-0.68359 -1.85547,-0.73242 -3.27148,-2.00195 -1.36719,-1.26954 -2.14844,-3.125 -0.78125,-1.9043 -0.78125,-4.19922 z m 2.39258,-0.39063 q 0,1.51367 0.53711,2.92969 0.58593,1.36719 1.5625,2.39258 1.02539,1.02539 2.39257,1.66015 1.36719,0.58594 2.92969,0.58594 0.83008,0.0977 2.00195,-0.24414 1.22071,-0.39062 2.39258,-1.07422 1.22071,-0.73242 2.29492,-1.70898 1.12305,-1.02539 1.85547,-2.19727 0.73243,-1.2207 0.87891,-2.49023 0.19531,-1.31836 -0.43945,-2.58789 -0.58594,-1.31836 -2.19727,-2.49024 -1.61133,-1.2207 -4.44336,-2.24609 -1.61133,0 -3.36914,0.48828 -1.70898,0.43945 -3.125,1.36719 -1.41601,0.92773 -2.34375,2.34375 -0.92773,1.41601 -0.92773,3.27148 z"
       style="font-style:normal;font-variant:normal;font-weight:normal;font-stretch:normal;font-size:50px;font-family:'Indie Flower';-inkscape-font-specification:'Indie Flower'"
       id="path4211" />
    <path
       d="m 238.81015,146.7663 q -1.12305,0.63476 -1.95312,1.5625 -0.78125,0.8789 -1.61133,1.70898 -0.83008,0.78125 -1.85547,1.36719 -0.97656,0.58594 -2.53906,0.58594 -1.75782,0 -3.17383,-0.73243 -1.41602,-0.78125 -2.53906,-2.05078 -1.07422,-1.31836 -1.9043,-2.92968 -0.78125,-1.66016 -1.31836,-3.36915 -0.48828,-1.75781 -0.78125,-3.41796 -0.24414,-1.70899 -0.24414,-3.07618 -0.39063,-2.63671 0.14648,-4.10156 0.53711,-1.51367 1.26953,-1.9043 0.78125,-0.43945 1.31836,0.19532 0.53711,0.58593 0.14649,2.09961 -0.0977,0.19531 -0.14649,0.63476 -0.0488,0.39063 -0.0976,0.83008 -0.0488,0.43945 -0.0977,0.83008 -0.0488,0.39062 -0.0488,0.53711 0,1.02539 0.19532,2.4414 0.19531,1.36719 0.58593,2.88086 0.43946,1.51368 1.07422,3.02735 0.63477,1.46484 1.51367,2.63672 0.87891,1.17187 2.00196,1.90429 1.17187,0.73242 2.53906,0.73242 0.87891,0 2.00195,-0.83007 1.12305,-0.87891 2.09961,-2.05078 1.02539,-1.22071 1.70899,-2.49024 0.73242,-1.26953 0.73242,-2.14844 0,-0.48828 0,-1.61132 0.0488,-1.12305 0.0488,-2.39258 0,-1.26953 -0.0488,-2.39258 0,-1.12305 0,-1.5625 0.29297,-0.48828 0.63476,-0.73242 0.3418,-0.29297 0.83008,-0.29297 0.58594,0 0.97656,0.78125 0.39063,0.78125 0.63477,2.00195 0.24414,1.2207 0.3418,2.63672 0.0976,1.41602 0.14648,2.73438 0.0488,1.31835 0.0977,2.34375 0.0488,0.97656 0.14648,1.31835 0.24414,0.97657 0.6836,2.19727 0.48828,1.2207 0.92773,2.39258 0.43945,1.12305 0.78125,2.09961 0.3418,0.92773 0.3418,1.41601 0,0.73243 -0.43946,0.87891 -0.39062,0.14648 -1.02539,0.14648 -0.78125,0 -1.17187,-0.39062 -0.3418,-0.39063 -0.53711,-0.97656 -0.14649,-0.63477 -0.24414,-1.36719 -0.0977,-0.73242 -0.3418,-1.51367 -0.19531,-0.78125 -0.63476,-1.46485 -0.39063,-0.68359 -1.17188,-1.12304 z"
       style="font-style:normal;font-variant:normal;font-weight:normal;font-stretch:normal;font-size:50px;font-family:'Indie Flower';-inkscape-font-specification:'Indie Flower'"
       id="path4213" />
    <path
       d="m 264.83554,142.9577 q 0,-2.14843 0.83008,-4.15039 0.83008,-2.05078 2.24609,-3.61328 1.46485,-1.5625 3.36914,-2.49023 1.9043,-0.92774 4.05274,-0.92774 0.97656,0 2.05078,0.24414 1.12305,0.19532 2.09961,0.6836 0.97656,0.48828 1.61133,1.31836 0.63476,0.78125 0.63476,2.00195 0,0.19531 -0.14648,0.78125 -0.0977,0.58594 -0.29297,1.17187 -0.19531,0.58594 -0.48828,1.07422 -0.24414,0.43946 -0.43946,0.43946 0,-2.29493 -1.26953,-3.8086 -1.26953,-1.5625 -3.71093,-1.5625 -1.85547,0 -3.32032,0.78125 -1.46484,0.78125 -2.4414,2.05078 -0.97657,1.26953 -1.51367,2.88086 -0.48829,1.5625 -0.48829,3.22266 0,2.24609 0.73243,3.71094 0.73242,1.46484 2.00195,2.39257 1.26953,0.87891 2.92969,1.31836 1.66015,0.43946 3.51562,0.58594 1.85547,0.14649 3.71094,0.0977 1.85547,-0.0488 3.56445,-0.14649 0.14649,0 0.48828,0.19532 0.3418,0.19531 0.48828,0.24414 l 0,0.14648 q 0,0.0977 0,0.0977 0.0488,0 0.0488,0.0488 0,0.5371 -0.53711,0.92773 -0.53711,0.39062 -1.31836,0.63477 -0.78125,0.24414 -1.70898,0.34179 -0.92773,0.0977 -1.85547,0.19531 -0.87891,0.0488 -1.5625,0.0488 -0.68359,0 -0.97656,0 -2.83203,0 -5.12695,-0.63476 -2.2461,-0.63477 -3.85743,-1.95313 -1.5625,-1.36719 -2.4414,-3.41797 -0.87891,-2.09961 -0.87891,-4.93164 z"
       style="font-style:normal;font-variant:normal;font-weight:normal;font-stretch:normal;font-size:50px;font-family:'Indie Flower';-inkscape-font-specification:'Indie Flower'"
       id="path4215" />
    <path
       d="m 287.29648,145.59442 q 0.0488,-0.83008 0.48828,-1.9043 0.43945,-1.07421 1.36719,-2.0996 0.92773,-1.0254 2.34375,-1.80665 1.41601,-0.83007 3.32031,-1.17187 1.95312,-0.3418 4.39453,-0.0488 2.49024,0.29297 5.51758,1.46485 0,-0.0488 0,-0.48829 l -0.0488,-0.43945 q 0,-1.26953 -0.73242,-2.58789 -0.73242,-1.31836 -1.9043,-2.34375 -1.12304,-1.07422 -2.4414,-1.70898 -1.31836,-0.6836 -2.53907,-0.6836 -0.48828,0 -0.8789,0.14649 -0.3418,0.14648 -0.6836,0.39062 -0.34179,0.19531 -0.68359,0.39063 -0.29297,0.14648 -0.73242,0.14648 -0.0977,0 -0.0977,-0.0488 -0.0488,-0.0488 -0.0976,-0.0976 -0.0977,-0.0977 -0.29297,-0.24414 -0.14649,-0.14649 -0.14649,-0.19532 0,-0.8789 0.29297,-1.51367 0.3418,-0.63476 0.87891,-1.02539 0.58593,-0.39062 1.26953,-0.58594 0.73242,-0.24414 1.51367,-0.24414 1.95313,0.19532 3.71094,1.22071 1.80664,0.97656 3.27148,2.49023 1.51367,1.51367 2.63672,3.51563 1.12305,1.95312 1.85547,4.10156 0.78125,2.09961 1.02539,4.24804 0.29297,2.2461 0.0488,4.19922 -0.0488,0 -0.29297,0 -0.24414,-0.0488 -0.53711,-0.0488 -0.29297,-0.0488 -0.48828,-0.0977 l -0.24414,-0.0488 q -1.02539,-2.29492 -2.29492,-3.71094 -1.26953,-1.41601 -2.53907,-2.19726 -1.2207,-0.83008 -2.29492,-1.12305 -1.07422,-0.3418 -1.75781,-0.48828 -0.73242,0 -1.75781,0.0977 -0.97657,0.0976 -2.05078,0.34179 -1.07422,0.24414 -2.19727,0.6836 -1.07422,0.39062 -1.95312,0.97656 -0.83008,0.58594 -1.36719,1.41601 -0.48828,0.78125 -0.48828,1.85547 0,1.17188 0.92773,2.00196 0.92774,0.78125 2.24609,1.31836 1.31836,0.48828 2.68555,0.68359 1.36719,0.19531 2.19727,0.19531 1.36718,0 2.68554,-0.14648 1.31836,-0.14649 2.58789,-0.3418 1.31836,-0.19531 2.5879,-0.3418 1.26953,-0.14648 2.53906,-0.14648 0.0976,0 0.34179,0 0.24415,0 0.48829,0.0488 0.29296,0 0.48828,0 0.24414,0 0.34179,0 0.39063,0.14648 0.43946,0.43945 0.0488,0.29297 0.0488,0.58594 0,0.29297 -0.63477,0.63476 -0.58594,0.3418 -1.5625,0.6836 -0.97656,0.34179 -2.19727,0.73242 -1.17187,0.3418 -2.29492,0.58594 -1.07422,0.24414 -2.05078,0.43945 -0.92773,0.14648 -1.31836,0.14648 -2.05078,0 -4.3457,-0.34179 -2.29492,-0.3418 -4.19922,-1.22071 -1.9043,-0.92773 -3.17383,-2.53906 -1.2207,-1.61133 -1.2207,-4.15039 z"
       style="font-style:normal;font-variant:normal;font-weight:normal;font-stretch:normal;font-size:50px;font-family:'Indie Flower';-inkscape-font-specification:'Indie Flower'"
       id="path4217" />
    <path
       d="m 313.07773,134.80341 q 0,-0.43946 0.29297,-0.53711 0.34179,-0.14649 0.73242,-0.14649 0.29297,0 0.39062,0.14649 0.14649,0.14648 0.19532,0.34179 0.0488,0.19532 0.14648,0.39063 0.0977,0.14648 0.3418,0.14648 0.68359,0 1.66015,-0.53711 0.97657,-0.53711 2.09961,-1.17187 1.17188,-0.63477 2.44141,-1.17188 1.31836,-0.53711 2.58789,-0.53711 1.66016,0 3.02734,0.87891 1.41602,0.83008 2.49024,2.24609 1.12305,1.41602 1.9043,3.17383 0.78125,1.75781 1.31835,3.61328 0.53711,1.80664 0.78125,3.56446 0.24415,1.70898 0.24415,2.97851 0,0.43946 -0.0977,1.31836 -0.0488,0.87891 -0.24414,1.75781 -0.14649,0.87891 -0.53711,1.5625 -0.39063,0.63477 -0.97656,0.63477 -0.0977,0 -0.3418,0 -0.24414,-0.0488 -0.48828,-0.0977 -0.24414,-0.0977 -0.43945,-0.19531 -0.14649,-0.0977 -0.14649,-0.29297 0.43945,-3.75976 0,-7.03125 -0.43945,-3.32031 -1.41601,-5.81054 -0.97657,-2.49024 -2.39258,-3.95508 -1.41602,-1.46485 -3.02735,-1.46485 -1.51367,0 -2.83203,0.48828 -1.31836,0.48829 -2.29492,1.41602 -0.97656,0.92773 -1.5625,2.24609 -0.53711,1.31836 -0.53711,2.88086 0,1.5625 0.29297,3.125 0.29297,1.51368 0.63477,3.07618 0.39062,1.51367 0.68359,3.07617 0.29297,1.5625 0.29297,3.125 -1.36719,0 -2.29492,-1.12305 -0.92774,-1.12305 -1.51368,-2.88086 -0.53711,-1.75781 -0.8789,-3.95508 -0.29297,-2.19726 -0.43946,-4.29687 -0.0977,-2.14844 -0.0977,-4.00391 0,-1.9043 0,-2.97851 z"
       style="font-style:normal;font-variant:normal;font-weight:normal;font-stretch:normal;font-size:50px;font-family:'Indie Flower';-inkscape-font-specification:'Indie Flower'"
       id="path4219" />
    <path
       d="m 360.00156,137.0495 q -0.39063,0 -1.36719,0 -0.97656,0 -2.05078,-0.14648 -1.02539,-0.19532 -1.9043,-0.58594 -0.83008,-0.39063 -0.83008,-1.12305 0,-0.19531 0.0488,-0.53711 0.0977,-0.39062 0.48828,-0.39062 l 5.0293,-0.43946 q 0.19531,-1.80664 0.29297,-2.92968 0.0976,-1.17188 0.0488,-2.14844 -0.0488,-1.02539 -0.14649,-2.09961 -0.0488,-1.12305 -0.0976,-2.88086 0,-0.3418 0.14648,-0.53711 0.14648,-0.19531 0.3418,-0.29297 0.24414,-0.0977 0.48828,-0.14648 0.29297,-0.0488 0.43945,-0.0488 0.29297,0 0.58594,0.19531 0.3418,0.19531 0.58594,0.48828 0.24414,0.29297 0.39062,0.63477 0.14649,0.29297 0.14649,0.58594 l 0.39062,9.13086 4.19922,0.19531 q 0.83008,-0.0977 1.51367,0.34179 0.73242,0.39063 0.78125,1.51368 -0.58594,0.63476 -1.41601,0.78125 -0.83008,0.0976 -1.75782,0.0976 -0.8789,-0.0488 -1.75781,0 -0.87891,0 -1.5625,0.43946 0,0.29296 0.0488,1.61132 0.0488,1.31836 0.0977,3.125 0.0488,1.80664 0.0977,3.85743 0.0977,2.05078 0.14649,3.80859 0.0488,1.70898 0.0488,2.92969 0.0488,1.2207 0.0488,1.36718 -1.12305,0.6836 -1.80664,-0.0977 -0.68359,-0.83008 -1.12305,-2.39258 -0.39062,-1.61133 -0.58593,-3.71094 -0.14649,-2.14843 -0.19532,-4.19922 0,-2.09961 0.0488,-3.85742 0.0488,-1.75781 0.14649,-2.53906 z"
       style="font-style:normal;font-variant:normal;font-weight:normal;font-stretch:normal;font-size:50px;font-family:'Indie Flower';-inkscape-font-specification:'Indie Flower'"
       id="path4221" />
    <path
       d="m 375.13828,153.84637 q -1.07422,-1.95312 -1.85547,-4.24804 -0.78125,-2.29492 -1.31836,-4.63867 -0.53711,-2.34375 -0.87891,-4.54102 -0.29297,-2.24609 -0.39062,-4.05273 0,-0.3418 -0.0488,-0.73243 -0.0488,-0.43945 -0.0488,-0.8789 0.0488,-0.43946 0.14648,-0.83008 0.14649,-0.39063 0.43946,-0.68359 l 0.0976,0 q 0.0488,0 0.0488,0 0,-0.0488 0.0488,-0.0488 0.0488,0 0.0488,0.0488 0,0 0.0976,0 l 0.0977,0 q 0.0977,0.0488 0.48828,0.19531 0.39063,0.14648 0.48828,0.24414 0.87891,-0.29297 1.80664,-0.68359 0.92774,-0.43946 1.85547,-0.78125 0.97656,-0.39063 1.95313,-0.63477 0.97656,-0.24414 1.90429,-0.24414 0.6836,0 1.17188,0.0488 0.53711,0.0488 1.02539,0.19531 0.53711,0.0977 1.12305,0.29297 0.58593,0.14648 1.36718,0.39062 0.39063,0.29297 0.6836,0.58594 0.34179,0.24414 0.58594,0.58594 0.29296,0.3418 0.43945,0.83008 0.14648,0.48828 0.14648,1.26953 -0.78125,0.0976 -1.85547,-0.0977 -1.02539,-0.24414 -2.19726,-0.58594 -1.12305,-0.34179 -2.34375,-0.58593 -1.2207,-0.24414 -2.34375,-0.19532 -1.12305,0.0488 -2.09961,0.63477 -1.02539,0.48828 -1.80664,1.75781 -0.3418,1.41602 -0.29297,2.78321 0.0488,1.36718 0.3418,2.68554 0.29297,1.26953 0.73242,2.58789 0.48828,1.26953 0.8789,2.58789 0.43946,1.26953 0.78125,2.53907 0.3418,1.26953 0.43946,2.58789 0,0.48828 -0.53711,1.07422 -0.53711,0.5371 -1.2207,0.5371 z"
       style="font-style:normal;font-variant:normal;font-weight:normal;font-stretch:normal;font-size:50px;font-family:'Indie Flower';-inkscape-font-specification:'Indie Flower'"
       id="path4223" />
    <path
       d="m 389.39609,169.08075 q 0,-0.3418 0,-0.68359 0,-0.29297 0.0976,-0.53711 0.0977,-0.19532 0.29297,-0.3418 0.29297,-0.0977 0.6836,-0.0977 0.73242,0.83008 1.85547,2.09961 1.17187,1.31836 2.63671,2.53907 1.46485,1.2207 3.07618,2.14843 1.61132,0.92774 3.27148,0.92774 1.36719,-0.0488 2.34375,-0.73242 0.97656,-0.63477 1.66016,-1.70899 0.68359,-1.07422 1.12304,-2.44141 0.43946,-1.36718 0.6836,-2.7832 0.29297,-1.41601 0.39062,-2.73437 0.14649,-1.31836 0.29297,-2.29493 0.0977,-0.48828 0.19531,-1.66015 0.14649,-1.12305 0.24414,-2.53906 0.14649,-1.36719 0.19532,-2.88086 0.0977,-1.51368 0,-2.73438 -0.0977,-1.26953 -0.39063,-2.05078 -0.29297,-0.83008 -0.8789,-0.83008 -0.83008,0 -1.75782,0.48828 -0.92773,0.48828 -1.95312,1.12305 -0.97656,0.58594 -2.00196,1.07422 -1.02539,0.48828 -2.00195,0.48828 -1.85547,0 -3.41797,-0.73242 -1.51367,-0.78125 -2.7832,-2.00195 -1.26953,-1.22071 -2.24609,-2.83204 -0.97657,-1.66015 -1.66016,-3.41796 -0.63477,-1.75782 -0.97656,-3.51563 -0.29297,-1.75781 -0.29297,-3.32031 0,-0.3418 -0.0977,-1.12305 -0.0488,-0.78125 0.0488,-1.61133 0.0977,-0.83008 0.43945,-1.46484 0.3418,-0.63477 1.07422,-0.63477 0.19531,0 0.29297,0.78125 0.14649,0.78125 0.29297,2.05078 0.19531,1.22071 0.43945,2.83204 0.29297,1.61132 0.73242,3.27148 0.43946,1.66016 1.07422,3.27148 0.63477,1.61133 1.5625,2.88086 0.92774,1.22071 2.19727,2.00196 1.31836,0.78125 2.97851,0.78125 1.07422,0 2.2461,-0.43946 1.17187,-0.48828 2.19726,-1.2207 1.07422,-0.73242 1.95313,-1.66016 0.87891,-0.97656 1.36719,-1.90429 0,-0.19531 -0.0488,-0.92774 -0.0488,-0.73242 -0.0977,-1.66015 -0.0488,-0.97657 -0.0976,-2.09961 -0.0488,-1.12305 -0.0977,-2.09961 -0.0488,-1.02539 -0.0977,-1.75781 0,-0.73243 0,-0.92774 0.0977,-2.97851 0.43946,-3.61328 0.34179,-0.68359 0.83007,0.39063 0.48829,1.07421 1.0254,3.61328 0.5371,2.53906 0.97656,5.95703 0.48828,3.36914 0.73242,7.37304 0.29297,4.00391 0.24414,8.00782 -0.0488,4.05273 -0.53711,7.8125 -0.43945,3.75976 -1.46484,6.64062 -1.02539,2.92969 -2.68555,4.73633 -1.66016,1.80664 -4.10156,1.9043 -0.97656,0 -2.34375,-0.39063 -1.31836,-0.34179 -2.68555,-0.97656 -1.36719,-0.63477 -2.73437,-1.51367 -1.31836,-0.87891 -2.39258,-1.9043 -1.02539,-1.02539 -1.70899,-2.14844 -0.63476,-1.12304 -0.63476,-2.24609 z"
       style="font-style:normal;font-variant:normal;font-weight:normal;font-stretch:normal;font-size:50px;font-family:'Indie Flower';-inkscape-font-specification:'Indie Flower'"
       id="path4225" />
    <path
       d="m 52.62851,208.09442 q 0.04883,-0.83008 0.488281,-1.9043 0.439453,-1.07421 1.367187,-2.0996 0.927735,-1.0254 2.34375,-1.80665 1.416016,-0.83007 3.320313,-1.17187 1.953125,-0.3418 4.394531,-0.0488 2.490234,0.29297 5.517578,1.46485 0,-0.0488 0,-0.48829 l -0.04883,-0.43945 q 0,-1.26953 -0.732422,-2.58789 -0.732422,-1.31836 -1.904297,-2.34375 -1.123047,-1.07422 -2.441406,-1.70898 -1.318359,-0.6836 -2.539062,-0.6836 -0.488282,0 -0.878907,0.14649 -0.341797,0.14648 -0.683593,0.39062 -0.341797,0.19531 -0.683594,0.39063 -0.292969,0.14648 -0.732422,0.14648 -0.09766,0 -0.09766,-0.0488 -0.04883,-0.0488 -0.09766,-0.0976 -0.09766,-0.0977 -0.292968,-0.24414 -0.146485,-0.14649 -0.146485,-0.19532 0,-0.8789 0.292969,-1.51367 0.341797,-0.63476 0.878906,-1.02539 0.585938,-0.39062 1.269532,-0.58594 0.732421,-0.24414 1.513671,-0.24414 1.953125,0.19532 3.710938,1.22071 1.806641,0.97656 3.271484,2.49023 1.513672,1.51367 2.636719,3.51563 1.123047,1.95312 1.855469,4.10156 0.78125,2.09961 1.02539,4.24804 0.292969,2.2461 0.04883,4.19922 -0.04883,0 -0.292969,0 -0.244141,-0.0488 -0.53711,-0.0488 -0.292968,-0.0488 -0.488281,-0.0977 l -0.24414,-0.0488 q -1.025391,-2.29492 -2.294922,-3.71094 -1.269532,-1.41601 -2.539063,-2.19726 -1.220703,-0.83008 -2.294922,-1.12305 -1.074218,-0.3418 -1.757812,-0.48828 -0.732422,0 -1.757813,0.0977 -0.976562,0.0976 -2.050781,0.34179 -1.074219,0.24414 -2.197266,0.6836 -1.074218,0.39062 -1.953125,0.97656 -0.830078,0.58594 -1.367187,1.41601 -0.488281,0.78125 -0.488281,1.85547 0,1.17188 0.927734,2.00196 0.927734,0.78125 2.246094,1.31836 1.318359,0.48828 2.685547,0.68359 1.367187,0.19531 2.197265,0.19531 1.367188,0 2.685547,-0.14648 1.31836,-0.14649 2.587891,-0.3418 1.318359,-0.19531 2.58789,-0.3418 1.269532,-0.14648 2.539063,-0.14648 0.09766,0 0.341797,0 0.24414,0 0.488281,0.0488 0.292969,0 0.488281,0 0.244141,0 0.341797,0 0.390625,0.14648 0.439453,0.43945 0.04883,0.29297 0.04883,0.58594 0,0.29297 -0.634765,0.63476 -0.585938,0.3418 -1.5625,0.6836 -0.976563,0.34179 -2.197266,0.73242 -1.171875,0.3418 -2.294922,0.58594 -1.074218,0.24414 -2.050781,0.43945 -0.927734,0.14648 -1.318359,0.14648 -2.050782,0 -4.345703,-0.34179 -2.294922,-0.3418 -4.199219,-1.22071 -1.904297,-0.92773 -3.173828,-2.53906 -1.220703,-1.61133 -1.220703,-4.15039 z"
       style="font-style:normal;font-variant:normal;font-weight:normal;font-stretch:normal;font-size:50px;font-family:'Indie Flower';-inkscape-font-specification:'Indie Flower'"
       id="path4227" />
    <path
       d="m 70.450775,229.92059 q -0.195312,-0.68359 0.04883,-1.2207 0.195313,-0.53711 0.585938,-0.87891 0.390625,-0.34179 0.878906,-0.43945 0.439453,-0.0977 0.78125,0.0977 0.292969,0.24414 0.390625,0.83008 0.04883,0.58593 -0.341797,1.61132 0,1.07422 0.927735,2.09961 0.878906,1.02539 2.34375,1.85547 1.416015,0.83008 3.125,1.51367 1.708984,0.6836 3.320312,1.17188 1.611328,0.48828 2.880859,0.73242 1.171875,0.24414 1.757813,0.24414 1.220703,0 2.050781,-0.63476 0.878906,-0.63477 1.464844,-1.66016 0.634766,-1.02539 0.976562,-2.34375 0.390625,-1.26953 0.585938,-2.58789 0.195312,-1.26953 0.244141,-2.49024 0.04883,-1.2207 0.04883,-2.05078 0,-0.39062 -0.09766,-1.46484 -0.04883,-1.02539 -0.195312,-2.39258 -0.146484,-1.36719 -0.341797,-2.83203 -0.195312,-1.46484 -0.439453,-2.73438 -0.244141,-1.26953 -0.537109,-2.05078 -0.244141,-0.78125 -0.53711,-0.78125 -0.488281,0 -1.171875,0.29297 -0.634765,0.29297 -1.367187,0.63477 -0.683594,0.34179 -1.416016,0.63476 -0.732422,0.29297 -1.416016,0.29297 -1.367187,0 -2.685546,-0.58594 -1.31836,-0.58593 -2.294922,-1.51367 -0.927735,-0.92773 -1.513672,-2.19726 -0.585938,-1.26953 -0.585938,-2.63672 0,-2.14844 0.830078,-4.39453 0.878907,-2.2461 2.34375,-4.10157 1.513672,-1.85546 3.515625,-3.02734 2.050782,-1.17187 4.345704,-1.17187 1.757812,0.48828 2.832031,2.24609 1.123047,1.70898 1.708984,4.24805 0.634766,2.53906 0.878906,5.66406 0.292969,3.07617 0.390625,6.29883 0.09766,3.22265 0.146485,6.29883 0.09766,3.125 0.390625,5.66406 0,1.12304 -0.146485,2.63672 -0.09766,1.5625 -0.390625,3.17382 -0.292968,1.61133 -0.830078,3.17383 -0.488281,1.61133 -1.318359,2.83203 -0.830078,1.26954 -2.050781,2.00196 -1.171875,0.78125 -2.734375,0.78125 -1.269532,0 -3.076172,-0.29297 -1.757813,-0.29297 -3.710938,-0.92774 -1.904297,-0.63476 -3.808593,-1.5625 -1.904297,-0.92773 -3.417969,-2.14843 -1.513672,-1.17188 -2.441406,-2.68555 -0.927735,-1.46484 -0.927735,-3.22266 z m 10.253906,-22.31445 q 0,0.87891 0.244141,1.70898 0.292969,0.78125 0.78125,1.41602 0.537109,0.63477 1.269531,1.02539 0.78125,0.3418 1.708985,0.3418 2.490234,0 3.759765,-0.97656 1.31836,-0.97657 1.806641,-2.44141 0.488281,-1.46484 0.488281,-3.125 -0.04883,-1.70899 -0.146484,-3.07617 0,-0.6836 -0.09766,-1.36719 -0.09766,-0.68359 -0.390625,-1.26953 -0.292969,-0.58594 -0.830079,-0.92774 -0.488281,-0.34179 -1.269531,-0.34179 -1.611328,0 -2.978515,0.92773 -1.367188,0.87891 -2.34375,2.2461 -0.927735,1.31835 -1.464844,2.92968 -0.53711,1.5625 -0.53711,2.92969 z"
       style="font-style:normal;font-variant:normal;font-weight:normal;font-stretch:normal;font-size:50px;font-family:'Indie Flower';-inkscape-font-specification:'Indie Flower'"
       id="path4229" />
    <path
       d="m 96.280853,208.09442 q 0.04883,-0.83008 0.488282,-1.9043 0.439453,-1.07421 1.367187,-2.0996 0.927734,-1.0254 2.343748,-1.80665 1.41602,-0.83007 3.32031,-1.17187 1.95313,-0.3418 4.39454,-0.0488 2.49023,0.29297 5.51757,1.46485 0,-0.0488 0,-0.48829 l -0.0488,-0.43945 q 0,-1.26953 -0.73243,-2.58789 -0.73242,-1.31836 -1.90429,-2.34375 -1.12305,-1.07422 -2.44141,-1.70898 -1.31836,-0.6836 -2.53906,-0.6836 -0.48828,0 -0.87891,0.14649 -0.34179,0.14648 -0.68359,0.39062 -0.3418,0.19531 -0.6836,0.39063 -0.29296,0.14648 -0.73242,0.14648 -0.0977,0 -0.0977,-0.0488 -0.0488,-0.0488 -0.0977,-0.0976 -0.0977,-0.0977 -0.29297,-0.24414 -0.14648,-0.14649 -0.14648,-0.19532 0,-0.8789 0.29297,-1.51367 0.34179,-0.63476 0.8789,-1.02539 0.58594,-0.39062 1.26953,-0.58594 0.73243,-0.24414 1.51368,-0.24414 1.95312,0.19532 3.71093,1.22071 1.80664,0.97656 3.27149,2.49023 1.51367,1.51367 2.63672,3.51563 1.12304,1.95312 1.85546,4.10156 0.78125,2.09961 1.0254,4.24804 0.29296,2.2461 0.0488,4.19922 -0.0488,0 -0.29297,0 -0.24414,-0.0488 -0.5371,-0.0488 -0.29297,-0.0488 -0.48829,-0.0977 l -0.24414,-0.0488 q -1.02539,-2.29492 -2.29492,-3.71094 -1.26953,-1.41601 -2.53906,-2.19726 -1.2207,-0.83008 -2.29492,-1.12305 -1.07422,-0.3418 -1.75782,-0.48828 -0.73242,0 -1.75781,0.0977 -0.97656,0.0976 -2.05078,0.34179 -1.07422,0.24414 -2.19726,0.6836 -1.07422,0.39062 -1.95313,0.97656 -0.830078,0.58594 -1.367187,1.41601 -0.488282,0.78125 -0.488282,1.85547 0,1.17188 0.927735,2.00196 0.927734,0.78125 2.246094,1.31836 1.31836,0.48828 2.68555,0.68359 1.36718,0.19531 2.19726,0.19531 1.36719,0 2.68555,-0.14648 1.31836,-0.14649 2.58789,-0.3418 1.31836,-0.19531 2.58789,-0.3418 1.26953,-0.14648 2.53906,-0.14648 0.0977,0 0.3418,0 0.24414,0 0.48828,0.0488 0.29297,0 0.48828,0 0.24414,0 0.3418,0 0.39062,0.14648 0.43945,0.43945 0.0488,0.29297 0.0488,0.58594 0,0.29297 -0.63477,0.63476 -0.58593,0.3418 -1.5625,0.6836 -0.97656,0.34179 -2.19726,0.73242 -1.17188,0.3418 -2.29492,0.58594 -1.07422,0.24414 -2.05078,0.43945 -0.92774,0.14648 -1.31836,0.14648 -2.05078,0 -4.34571,-0.34179 -2.29492,-0.3418 -4.19922,-1.22071 -1.904292,-0.92773 -3.173824,-2.53906 -1.220703,-1.61133 -1.220703,-4.15039 z"
       style="font-style:normal;font-variant:normal;font-weight:normal;font-stretch:normal;font-size:50px;font-family:'Indie Flower';-inkscape-font-specification:'Indie Flower'"
       id="path4231" />
    <path
       d="m 123.72226,199.45184 q 0,-0.19531 0,-0.73242 0,-0.53711 0,-1.12305 0.0488,-0.58593 0.0488,-1.12304 0,-0.53711 0,-0.73242 -0.19531,-1.51368 0.8789,-1.51368 0.48829,0 0.83008,0.24414 0.3418,0.24415 0.63477,0.73243 -0.14649,2.53906 0.19531,4.93164 0.39063,2.34375 0.83008,4.6875 0.48828,2.29492 0.8789,4.63867 0.43946,2.34375 0.43946,4.88281 0,0.6836 -0.43946,1.36719 -0.39062,0.68359 -1.2207,0.68359 -0.63476,0 -1.12305,-1.07422 -0.43945,-1.12304 -0.78125,-2.7832 -0.34179,-1.70898 -0.58593,-3.75976 -0.24414,-2.05079 -0.39063,-3.90625 -0.0977,-1.9043 -0.14648,-3.36915 -0.0488,-1.51367 -0.0488,-2.05078 z m -2.49023,-12.25586 q 0,-0.58593 0.34179,-0.73242 0.3418,-0.19531 0.87891,-0.19531 0.3418,-0.0488 0.8789,0.43945 0.58594,0.43946 0.92774,1.02539 0.39062,0.58594 0.43945,1.07422 0.0488,0.58594 -0.73242,0.6836 l -0.24414,0 q -0.73242,0 -1.2207,-0.0977 -0.48828,-0.0977 -0.78125,-0.29297 -0.24414,-0.24414 -0.39063,-0.68359 -0.0977,-0.43946 -0.0977,-1.22071 z"
       style="font-style:normal;font-variant:normal;font-weight:normal;font-stretch:normal;font-size:50px;font-family:'Indie Flower';-inkscape-font-specification:'Indie Flower'"
       id="path4233" />
    <path
       d="m 130.85117,197.30341 q 0,-0.43946 0.29296,-0.53711 0.3418,-0.14649 0.73243,-0.14649 0.29297,0 0.39062,0.14649 0.14649,0.14648 0.19531,0.34179 0.0488,0.19532 0.14649,0.39063 0.0976,0.14648 0.3418,0.14648 0.68359,0 1.66015,-0.53711 0.97656,-0.53711 2.09961,-1.17187 1.17188,-0.63477 2.44141,-1.17188 1.31836,-0.53711 2.58789,-0.53711 1.66015,0 3.02734,0.87891 1.41602,0.83008 2.49024,2.24609 1.12304,1.41602 1.90429,3.17383 0.78125,1.75781 1.31836,3.61328 0.53711,1.80664 0.78125,3.56446 0.24414,1.70898 0.24414,2.97851 0,0.43946 -0.0976,1.31836 -0.0488,0.87891 -0.24414,1.75781 -0.14649,0.87891 -0.53711,1.5625 -0.39063,0.63477 -0.97657,0.63477 -0.0977,0 -0.34179,0 -0.24414,-0.0488 -0.48828,-0.0977 -0.24414,-0.0977 -0.43946,-0.19531 -0.14648,-0.0977 -0.14648,-0.29297 0.43945,-3.75976 0,-7.03125 -0.43945,-3.32031 -1.41602,-5.81054 -0.97656,-2.49024 -2.39258,-3.95508 -1.41601,-1.46485 -3.02734,-1.46485 -1.51367,0 -2.83203,0.48828 -1.31836,0.48829 -2.29492,1.41602 -0.97656,0.92773 -1.5625,2.24609 -0.53711,1.31836 -0.53711,2.88086 0,1.5625 0.29297,3.125 0.29297,1.51368 0.63476,3.07618 0.39063,1.51367 0.6836,3.07617 0.29297,1.5625 0.29297,3.125 -1.36719,0 -2.29493,-1.12305 -0.92773,-1.12305 -1.51367,-2.88086 -0.53711,-1.75781 -0.8789,-3.95508 -0.29297,-2.19726 -0.43946,-4.29687 -0.0977,-2.14844 -0.0977,-4.00391 0,-1.9043 0,-2.97851 z"
       style="font-style:normal;font-variant:normal;font-weight:normal;font-stretch:normal;font-size:50px;font-family:'Indie Flower';-inkscape-font-specification:'Indie Flower'"
       id="path4235" />
    <path
       d="m 188.0289,211.65887 q -1.95312,2.63672 -3.95508,3.71094 -1.95312,1.02539 -3.75976,0.92774 -1.75782,-0.14649 -3.36914,-1.31836 -1.5625,-1.17188 -2.73438,-2.92969 -1.12305,-1.75781 -1.85547,-3.95508 -0.68359,-2.24609 -0.73242,-4.54101 -0.0488,-2.29493 0.58594,-4.44336 0.68359,-2.19727 2.24609,-3.90625 0.78125,0.29297 0.87891,0.78125 0.0977,0.53711 0.0977,1.12304 0,0.83008 -0.19531,1.61133 -0.14648,0.73242 -0.3418,1.51367 -0.19531,0.78125 -0.39062,1.61133 -0.14648,0.83008 -0.14648,1.70899 0,0.63476 0.14648,1.61132 0.14648,0.92774 0.39062,2.00196 0.29297,1.07422 0.73243,2.14843 0.43945,1.0254 1.02539,1.9043 0.63476,0.83008 1.36718,1.41602 0.73243,0.53711 1.66016,0.53711 0.83008,0 1.95313,-0.48828 1.17187,-0.53711 2.19726,-1.31836 1.07422,-0.78125 1.75781,-1.75782 0.73243,-0.97656 0.73243,-1.95312 l 0.29296,-6.34766 q 0,-0.14648 0.19532,-0.29297 0.19531,-0.14648 0.39062,-0.24414 0.24414,-0.14648 0.48828,-0.24414 0.24414,-0.0976 0.3418,-0.0976 0.68359,0 0.92773,0.8789 0.24415,0.87891 0.39063,2.29492 0.14648,1.36719 0.3418,2.92969 0.19531,1.5625 0.68359,2.97852 0.53711,1.36718 1.5625,2.24609 0.97656,0.87891 2.83203,0.87891 1.80664,-0.0488 2.88086,-0.73242 1.07422,-0.73243 1.5625,-1.9043 0.48828,-1.17188 0.43945,-2.58789 0,-1.46485 -0.39062,-2.88086 -0.3418,-1.46485 -0.97656,-2.7832 -0.58594,-1.31836 -1.31836,-2.29493 -0.0977,-0.39062 0,-0.53711 0.0976,-0.19531 0.24414,-0.24414 0.19531,-0.0977 0.43945,-0.0977 0.24414,-0.0488 0.39063,-0.0488 0.78125,0.19531 1.66015,1.31836 0.92774,1.07422 1.61133,2.58789 0.68359,1.51367 1.02539,3.36914 0.39063,1.85547 0.19531,3.66211 -0.14648,1.80664 -1.02539,3.36914 -0.8789,1.5625 -2.68554,2.53906 -2.14844,0.14649 -3.51563,0.19531 -1.36719,0 -2.29492,-0.0977 -0.87891,-0.14649 -1.41602,-0.43945 -0.53711,-0.29297 -1.02539,-0.73243 -0.48828,-0.48828 -1.07422,-1.12304 -0.53711,-0.63477 -1.46484,-1.51368 z"
       style="font-style:normal;font-variant:normal;font-weight:normal;font-stretch:normal;font-size:50px;font-family:'Indie Flower';-inkscape-font-specification:'Indie Flower'"
       id="path4237" />
    <path
       d="m 207.02304,199.45184 q 0,-0.19531 0,-0.73242 0,-0.53711 0,-1.12305 0.0488,-0.58593 0.0488,-1.12304 0,-0.53711 0,-0.73242 -0.19531,-1.51368 0.87891,-1.51368 0.48828,0 0.83007,0.24414 0.3418,0.24415 0.63477,0.73243 -0.14649,2.53906 0.19531,4.93164 0.39063,2.34375 0.83008,4.6875 0.48828,2.29492 0.87891,4.63867 0.43945,2.34375 0.43945,4.88281 0,0.6836 -0.43945,1.36719 -0.39063,0.68359 -1.22071,0.68359 -0.63476,0 -1.12304,-1.07422 -0.43946,-1.12304 -0.78125,-2.7832 -0.3418,-1.70898 -0.58594,-3.75976 -0.24414,-2.05079 -0.39063,-3.90625 -0.0976,-1.9043 -0.14648,-3.36915 -0.0488,-1.51367 -0.0488,-2.05078 z m -2.49023,-12.25586 q 0,-0.58593 0.34179,-0.73242 0.3418,-0.19531 0.87891,-0.19531 0.3418,-0.0488 0.87891,0.43945 0.58593,0.43946 0.92773,1.02539 0.39063,0.58594 0.43945,1.07422 0.0488,0.58594 -0.73242,0.6836 l -0.24414,0 q -0.73242,0 -1.2207,-0.0977 -0.48828,-0.0977 -0.78125,-0.29297 -0.24414,-0.24414 -0.39063,-0.68359 -0.0976,-0.43946 -0.0976,-1.22071 z"
       style="font-style:normal;font-variant:normal;font-weight:normal;font-stretch:normal;font-size:50px;font-family:'Indie Flower';-inkscape-font-specification:'Indie Flower'"
       id="path4239" />
    <path
       d="m 219.37656,199.5495 q -0.39063,0 -1.36719,0 -0.97656,0 -2.05078,-0.14648 -1.02539,-0.19532 -1.9043,-0.58594 -0.83008,-0.39063 -0.83008,-1.12305 0,-0.19531 0.0488,-0.53711 0.0977,-0.39062 0.48828,-0.39062 l 5.0293,-0.43946 q 0.19531,-1.80664 0.29297,-2.92968 0.0977,-1.17188 0.0488,-2.14844 -0.0488,-1.02539 -0.14649,-2.09961 -0.0488,-1.12305 -0.0976,-2.88086 0,-0.3418 0.14648,-0.53711 0.14648,-0.19531 0.3418,-0.29297 0.24414,-0.0977 0.48828,-0.14648 0.29297,-0.0488 0.43945,-0.0488 0.29297,0 0.58594,0.19531 0.3418,0.19531 0.58594,0.48828 0.24414,0.29297 0.39062,0.63477 0.14649,0.29297 0.14649,0.58594 l 0.39062,9.13086 4.19922,0.19531 q 0.83008,-0.0977 1.51367,0.34179 0.73242,0.39063 0.78125,1.51368 -0.58594,0.63476 -1.41601,0.78125 -0.83008,0.0976 -1.75782,0.0976 -0.8789,-0.0488 -1.75781,0 -0.87891,0 -1.5625,0.43946 0,0.29296 0.0488,1.61132 0.0488,1.31836 0.0976,3.125 0.0488,1.80664 0.0977,3.85743 0.0977,2.05078 0.14649,3.80859 0.0488,1.70898 0.0488,2.92969 0.0488,1.2207 0.0488,1.36718 -1.12305,0.6836 -1.80664,-0.0977 -0.68359,-0.83008 -1.12305,-2.39258 -0.39062,-1.61133 -0.58593,-3.71094 -0.14649,-2.14843 -0.19532,-4.19922 0,-2.09961 0.0488,-3.85742 0.0488,-1.75781 0.14649,-2.53906 z"
       style="font-style:normal;font-variant:normal;font-weight:normal;font-stretch:normal;font-size:50px;font-family:'Indie Flower';-inkscape-font-specification:'Indie Flower'"
       id="path4241" />
    <path
       d="m 245.15781,215.46747 q 0.0976,-1.26953 0.19531,-2.63672 0.0977,-1.36719 0.14648,-2.73438 0.0977,-1.36718 0.0977,-2.68554 0.0488,-1.31836 0.0488,-2.39258 0,-1.5625 -0.43946,-2.97852 -0.43945,-1.41601 -1.26953,-2.4414 -0.83007,-1.07422 -2.09961,-1.66016 -1.2207,-0.63476 -2.92968,-0.63476 -0.6836,0 -1.17188,0.0976 -0.48828,0.0977 -0.97656,0.3418 -0.48828,0.19531 -1.07422,0.53711 -0.58594,0.39062 -1.36719,0.92773 0,0.0977 -0.0488,0.39063 0,0.24414 0,0.29297 0,1.07422 0.19532,2.88086 0.24414,1.75781 0.48828,3.71093 0.24414,1.9043 0.48828,3.71094 0.24414,1.80664 0.24414,2.92969 0,0.0977 0,0.39062 0,0.29297 -0.0488,0.63477 0,0.3418 0,0.63476 0,0.29297 0,0.43946 -0.29297,0.68359 -0.73242,0.8789 -0.39062,0.14649 -0.97656,0.14649 -0.58594,0.0977 -0.87891,-0.83008 -0.29297,-0.92773 -0.43945,-2.68555 -0.14649,-1.75781 -0.29297,-4.24804 -0.0977,-2.49024 -0.3418,-5.46875 -0.19531,-2.97852 -0.63476,-6.29883 -0.39063,-3.36914 -1.17188,-6.88477 -0.39062,-1.36718 -0.63476,-2.29492 -0.19532,-0.97656 -0.39063,-1.70898 -0.19531,-0.78125 -0.3418,-1.5625 -0.14648,-0.83008 -0.34179,-1.95313 l 0,-0.19531 q 0,-0.19531 0.24414,-0.3418 0.24414,-0.19531 0.53711,-0.34179 0.34179,-0.14649 0.63476,-0.19532 0.3418,-0.0976 0.53711,-0.0976 0.92774,2.4414 1.46485,4.15039 0.58593,1.66015 0.92773,2.88086 0.3418,1.2207 0.48828,2.05078 0.14649,0.83008 0.24414,1.61133 0.0977,0.78125 0.14649,1.61132 0.0488,0.83008 0.19531,2.00196 2.53906,-1.5625 4.58984,-1.70899 2.09961,-0.14648 3.71094,0.63477 1.61133,0.73242 2.7832,2.29492 1.22071,1.5625 2.00196,3.51563 0.78125,1.95312 1.17187,4.15039 0.43946,2.19726 0.53711,4.24804 0.14649,2.05078 -0.0976,3.8086 -0.19532,1.70898 -0.63477,2.7832 -0.43945,1.02539 -1.17188,1.17187 -0.73242,0.19532 -1.61132,-0.8789 z"
       style="font-style:normal;font-variant:normal;font-weight:normal;font-stretch:normal;font-size:50px;font-family:'Indie Flower';-inkscape-font-specification:'Indie Flower'"
       id="path4243" />
    <path
       d="m 270.69492,197.30341 q 0,-0.43946 0.29296,-0.53711 0.3418,-0.14649 0.73243,-0.14649 0.29297,0 0.39062,0.14649 0.14649,0.14648 0.19531,0.34179 0.0488,0.19532 0.14649,0.39063 0.0977,0.14648 0.3418,0.14648 0.68359,0 1.66015,-0.53711 0.97656,-0.53711 2.09961,-1.17187 1.17188,-0.63477 2.44141,-1.17188 1.31836,-0.53711 2.58789,-0.53711 1.66015,0 3.02734,0.87891 1.41602,0.83008 2.49024,2.24609 1.12304,1.41602 1.90429,3.17383 0.78125,1.75781 1.31836,3.61328 0.53711,1.80664 0.78125,3.56446 0.24414,1.70898 0.24414,2.97851 0,0.43946 -0.0977,1.31836 -0.0488,0.87891 -0.24414,1.75781 -0.14649,0.87891 -0.53711,1.5625 -0.39063,0.63477 -0.97657,0.63477 -0.0976,0 -0.34179,0 -0.24414,-0.0488 -0.48828,-0.0977 -0.24414,-0.0977 -0.43946,-0.19531 -0.14648,-0.0977 -0.14648,-0.29297 0.43945,-3.75976 0,-7.03125 -0.43945,-3.32031 -1.41602,-5.81054 -0.97656,-2.49024 -2.39258,-3.95508 -1.41601,-1.46485 -3.02734,-1.46485 -1.51367,0 -2.83203,0.48828 -1.31836,0.48829 -2.29492,1.41602 -0.97656,0.92773 -1.5625,2.24609 -0.53711,1.31836 -0.53711,2.88086 0,1.5625 0.29297,3.125 0.29297,1.51368 0.63476,3.07618 0.39063,1.51367 0.6836,3.07617 0.29297,1.5625 0.29297,3.125 -1.36719,0 -2.29493,-1.12305 -0.92773,-1.12305 -1.51367,-2.88086 -0.53711,-1.75781 -0.8789,-3.95508 -0.29297,-2.19726 -0.43946,-4.29687 -0.0976,-2.14844 -0.0976,-4.00391 0,-1.9043 0,-2.97851 z"
       style="font-style:normal;font-variant:normal;font-weight:normal;font-stretch:normal;font-size:50px;font-family:'Indie Flower';-inkscape-font-specification:'Indie Flower'"
       id="path4245" />
    <path
       d="m 293.15585,206.38544 q 0,-2.68555 1.17188,-4.6875 1.17187,-2.00196 3.07617,-3.36914 1.9043,-1.36719 4.24805,-2.00196 2.39258,-0.68359 4.78515,-0.68359 1.26953,0 2.34375,0.48828 1.12305,0.43945 2.09961,1.26953 1.02539,0.78125 1.80664,1.85547 0.78125,1.02539 1.31836,2.14844 0.58594,1.12305 0.87891,2.29492 0.29297,1.12305 0.29297,2.19727 0,2.49023 -0.97656,4.44336 -0.97657,1.95312 -2.63672,3.32031 -1.66016,1.31836 -3.75977,2.05078 -2.09961,0.68359 -4.29687,0.68359 -2.2461,0 -4.15039,-0.68359 -1.85547,-0.73242 -3.27149,-2.00195 -1.36719,-1.26954 -2.14844,-3.125 -0.78125,-1.9043 -0.78125,-4.19922 z m 2.39258,-0.39063 q 0,1.51367 0.53711,2.92969 0.58594,1.36719 1.5625,2.39258 1.02539,1.02539 2.39258,1.66015 1.36719,0.58594 2.92969,0.58594 0.83007,0.0977 2.00195,-0.24414 1.2207,-0.39062 2.39258,-1.07422 1.2207,-0.73242 2.29492,-1.70898 1.12305,-1.02539 1.85547,-2.19727 0.73242,-1.2207 0.8789,-2.49023 0.19532,-1.31836 -0.43945,-2.58789 -0.58594,-1.31836 -2.19726,-2.49024 -1.61133,-1.2207 -4.44336,-2.24609 -1.61133,0 -3.36914,0.48828 -1.70899,0.43945 -3.125,1.36719 -1.41602,0.92773 -2.34375,2.34375 -0.92774,1.41601 -0.92774,3.27148 z"
       style="font-style:normal;font-variant:normal;font-weight:normal;font-stretch:normal;font-size:50px;font-family:'Indie Flower';-inkscape-font-specification:'Indie Flower'"
       id="path4247" />
    <path
       d="m 351.31015,215.46747 q 0.0977,-1.26953 0.19531,-2.63672 0.0977,-1.36719 0.14649,-2.73438 0.0976,-1.36718 0.0976,-2.68554 0.0488,-1.31836 0.0488,-2.39258 0,-1.5625 -0.43945,-2.97852 -0.43945,-1.41601 -1.26953,-2.4414 -0.83008,-1.07422 -2.09961,-1.66016 -1.22071,-0.63476 -2.92969,-0.63476 -0.68359,0 -1.17187,0.0976 -0.48829,0.0977 -0.97657,0.3418 -0.48828,0.19531 -1.07422,0.53711 -0.58593,0.39062 -1.36718,0.92773 0,0.0977 -0.0488,0.39063 0,0.24414 0,0.29297 0,1.07422 0.19531,2.88086 0.24414,1.75781 0.48828,3.71093 0.24414,1.9043 0.48828,3.71094 0.24414,1.80664 0.24414,2.92969 0,0.0977 0,0.39062 0,0.29297 -0.0488,0.63477 0,0.3418 0,0.63476 0,0.29297 0,0.43946 -0.29297,0.68359 -0.73243,0.8789 -0.39062,0.14649 -0.97656,0.14649 -0.58594,0.0977 -0.8789,-0.83008 -0.29297,-0.92773 -0.43946,-2.68555 -0.14648,-1.75781 -0.29297,-4.24804 -0.0976,-2.49024 -0.34179,-5.46875 -0.19532,-2.97852 -0.63477,-6.29883 -0.39062,-3.36914 -1.17187,-6.88477 -0.39063,-1.36718 -0.63477,-2.29492 -0.19531,-0.97656 -0.39062,-1.70898 -0.19532,-0.78125 -0.3418,-1.5625 -0.14649,-0.83008 -0.3418,-1.95313 l 0,-0.19531 q 0,-0.19531 0.24414,-0.3418 0.24414,-0.19531 0.53711,-0.34179 0.3418,-0.14649 0.63477,-0.19532 0.34179,-0.0976 0.53711,-0.0976 0.92773,2.4414 1.46484,4.15039 0.58594,1.66015 0.92773,2.88086 0.3418,1.2207 0.48829,2.05078 0.14648,0.83008 0.24414,1.61133 0.0977,0.78125 0.14648,1.61132 0.0488,0.83008 0.19531,2.00196 2.53907,-1.5625 4.58985,-1.70899 2.09961,-0.14648 3.71093,0.63477 1.61133,0.73242 2.78321,2.29492 1.2207,1.5625 2.00195,3.51563 0.78125,1.95312 1.17188,4.15039 0.43945,2.19726 0.53711,4.24804 0.14648,2.05078 -0.0977,3.8086 -0.19531,1.70898 -0.63477,2.7832 -0.43945,1.02539 -1.17187,1.17187 -0.73242,0.19532 -1.61133,-0.8789 z"
       style="font-style:normal;font-variant:normal;font-weight:normal;font-stretch:normal;font-size:50px;font-family:'Indie Flower';-inkscape-font-specification:'Indie Flower'"
       id="path4249" />
    <path
       d="m 357.60898,203.26044 q 0,-2.53907 0.73242,-4.83399 0.78125,-2.34375 2.19727,-4.10156 1.46484,-1.75781 3.51562,-2.7832 2.09961,-1.07422 4.83399,-1.07422 1.61132,0.19531 2.7832,0.8789 1.2207,0.6836 1.95312,1.70899 0.78125,0.97656 1.12305,2.29492 0.29297,1.26953 0.29297,2.73438 0,1.75781 -1.02539,3.17382 -1.02539,1.41602 -2.58789,2.39258 -1.5625,0.92774 -3.36914,1.46485 -1.80664,0.48828 -3.36914,0.48828 -0.58594,0 -1.22071,0 -0.58593,0 -1.07422,-0.19532 -0.48828,-0.19531 -0.78125,-0.58593 -0.29296,-0.39063 -0.29296,-1.17188 0,-0.24414 0.0488,-0.39062 0.0977,-0.19532 0.43946,-0.24414 0.34179,-0.0977 1.02539,-0.0488 0.68359,0.0977 1.85547,0.29297 0.68359,0 1.95312,-0.43946 1.31836,-0.48828 2.63672,-1.2207 1.36719,-0.73242 2.34375,-1.66016 0.97656,-0.97656 0.97656,-1.90429 0,-0.97656 -0.34179,-1.9043 -0.29297,-0.97656 -0.92774,-1.70898 -0.63476,-0.73243 -1.51367,-1.17188 -0.83008,-0.43945 -1.9043,-0.3418 -1.70898,0.14649 -3.125,0.92774 -1.36718,0.78125 -2.34375,2.05078 -0.97656,1.2207 -1.51367,2.73438 -0.53711,1.51367 -0.53711,3.17382 0,1.26953 0.0488,2.53907 0.0488,1.26953 0.3418,2.49023 0.34179,1.2207 1.02539,2.34375 0.73242,1.12305 2.05078,2.00195 1.36719,0.83008 3.41797,1.41602 2.05078,0.53711 5.07812,0.68359 l 8.74024,-0.58593 q -0.78125,1.07421 -2.00196,1.75781 -1.17187,0.68359 -2.53906,1.12304 -1.31836,0.39063 -2.63672,0.58594 -1.31836,0.19531 -2.49023,0.19531 -2.83203,0 -5.32227,-0.92773 -2.49023,-0.92773 -4.39453,-2.58789 -1.9043,-1.70898 -3.02734,-4.10156 -1.07422,-2.44141 -1.07422,-5.46875 z"
       style="font-style:normal;font-variant:normal;font-weight:normal;font-stretch:normal;font-size:50px;font-family:'Indie Flower';-inkscape-font-specification:'Indie Flower'"
       id="path4251" />
    <path
       d="m 384.46445,215.95575 q -0.48828,-3.4668 -0.63477,-6.88477 -0.0976,-3.46679 -0.0976,-6.93359 0,-3.4668 0.0976,-6.88477 0.0977,-3.41796 0.0488,-6.83593 0,-0.39063 0.29297,-0.53711 0.29297,-0.14649 0.68359,-0.14649 0.43946,0 0.78125,0.3418 0.3418,0.29297 0.58594,0.78125 0.24414,0.43945 0.3418,0.92773 0.14648,0.43946 0.14648,0.73243 0.29297,6.98242 0.39063,11.66992 0.0976,4.63867 0,7.51953 -0.0977,2.83203 -0.3418,4.19922 -0.19531,1.36719 -0.53711,1.85547 -0.3418,0.48828 -0.83008,0.39062 -0.43945,-0.0976 -0.92773,-0.19531 z"
       style="font-style:normal;font-variant:normal;font-weight:normal;font-stretch:normal;font-size:50px;font-family:'Indie Flower';-inkscape-font-specification:'Indie Flower'"
       id="path4253" />
    <path
       d="m 389.44492,209.94989 q 0,-3.07617 1.07421,-5.17578 1.07422,-2.09961 2.83204,-3.36914 1.80664,-1.26953 4.15039,-1.85547 2.39257,-0.58594 4.98047,-0.58594 2.0996,0 4.05273,0.6836 2.00195,0.68359 3.56445,1.90429 1.5625,1.22071 2.49024,2.97852 0.92773,1.75781 0.92773,4.0039 0,1.95313 -0.73242,3.22266 -0.73242,1.2207 -2.00195,1.95313 -1.26953,0.68359 -2.83203,0.97656 -1.51368,0.29297 -3.125,0.29297 -1.5625,0 -3.22266,-0.14649 -1.61133,-0.14648 -2.97852,-0.68359 -1.36718,-0.53711 -2.24609,-1.61133 -0.87891,-1.07422 -0.87891,-3.02734 1.02539,0 1.95313,0.43945 0.97656,0.39063 1.95312,0.87891 0.97657,0.43945 1.95313,0.83007 0.92773,0.43946 2.00195,0.43946 0.78125,0 2.05078,-0.14649 1.31836,-0.14648 2.44141,-0.53711 1.17187,-0.43945 2.00195,-1.17187 0.83008,-0.73242 0.83008,-1.85547 0,-1.66016 -0.73242,-2.88086 -0.73242,-1.2207 -1.9043,-2.00195 -1.17187,-0.83008 -2.63672,-1.26953 -1.46484,-0.43946 -2.92968,-0.43946 -0.19532,0 -0.97657,0.0977 -0.73242,0.0977 -1.70898,0.3418 -0.97656,0.19531 -2.05078,0.53711 -1.07422,0.29296 -2.00196,0.78125 -0.8789,0.43945 -1.46484,1.02539 -0.58594,0.58593 -0.58594,1.31836 l 0,0.58593 q 0.0488,0.53711 0.0977,1.46485 0.0977,0.8789 0.14648,1.80664 0.0488,0.8789 0.14649,1.5625 0.0976,0.68359 0.0976,0.78125 0.0977,0.78125 0.3418,2.4414 0.24414,1.61133 0.53711,3.61329 0.29297,2.05078 0.63477,4.29687 0.39062,2.24609 0.73242,4.24805 0.34179,2.05078 0.58594,3.66211 0.29296,1.61132 0.43945,2.34375 0,0.0976 0,0.14648 0.0488,0.0977 0.0488,0.14649 0,0.0488 0,0.0488 l -0.0488,0.0977 0,0.0977 q -0.0977,0.14648 -0.43945,0.48828 -0.39063,0.29297 -0.48829,0.39062 l -0.29296,0 q -0.48829,0 -1.0254,-0.92773 -0.5371,-0.87891 -1.12304,-2.44141 -0.53711,-1.51367 -1.12305,-3.51562 -0.53711,-2.00196 -1.07422,-4.15039 -0.53711,-2.14844 -0.97656,-4.24805 -0.43945,-2.09961 -0.78125,-3.90625 -0.3418,-1.80664 -0.53711,-3.125 -0.14648,-1.31836 -0.14648,-1.85547 z"
       style="font-style:normal;font-variant:normal;font-weight:normal;font-stretch:normal;font-size:50px;font-family:'Indie Flower';-inkscape-font-specification:'Indie Flower'"
       id="path4255" />
    <path
       d="m 416.78867,211.65887 q 0,-0.39062 0.29296,-1.17187 0.3418,-0.78125 0.78125,-1.5625 0.43946,-0.83008 0.87891,-1.41602 0.48828,-0.58593 0.83008,-0.58593 0.97656,0 1.70898,0.53711 0.73243,0.48828 1.17188,1.26953 0.48828,0.78125 0.73242,1.70898 0.24414,0.92774 0.24414,1.70899 0,0.58593 -0.3418,1.31836 -0.34179,0.73242 -0.8789,1.36718 -0.48828,0.63477 -1.12305,1.07422 -0.63476,0.43945 -1.26953,0.43945 -0.73242,0 -1.26953,-0.48828 -0.53711,-0.53711 -0.97656,-1.26953 -0.39063,-0.78125 -0.58594,-1.5625 -0.19531,-0.83008 -0.19531,-1.36719 z"
       style="font-style:normal;font-variant:normal;font-weight:normal;font-stretch:normal;font-size:50px;font-family:'Indie Flower';-inkscape-font-specification:'Indie Flower'"
       id="path4257" />
  </g>
</svg>
