<?xml version="1.0" encoding="UTF-8" standalone="no"?>
<svg
   xmlns:dc="http://purl.org/dc/elements/1.1/"
   xmlns:cc="http://creativecommons.org/ns#"
   xmlns:rdf="http://www.w3.org/1999/02/22-rdf-syntax-ns#"
   xmlns:svg="http://www.w3.org/2000/svg"
   xmlns="http://www.w3.org/2000/svg"
   xmlns:sodipodi="http://sodipodi.sourceforge.net/DTD/sodipodi-0.dtd"
   xmlns:inkscape="http://www.inkscape.org/namespaces/inkscape"
   width="476.0578"
   height="363.5033"
   version="1.1"
   id="svg2"
   inkscape:version="0.91 r13725"
   sodipodi:docname="Instructions 10.svg">
  <metadata
     id="metadata48">
    <rdf:RDF>
      <cc:Work
         rdf:about="">
        <dc:format>image/svg+xml</dc:format>
        <dc:type
           rdf:resource="http://purl.org/dc/dcmitype/StillImage" />
        <dc:title>5 by 3 sigma maze</dc:title>
      </cc:Work>
    </rdf:RDF>
  </metadata>
  <defs
     id="defs46" />
  <sodipodi:namedview
     pagecolor="#ffffff"
     bordercolor="#666666"
     borderopacity="1"
     objecttolerance="10"
     gridtolerance="10"
     guidetolerance="10"
     inkscape:pageopacity="0"
     inkscape:pageshadow="2"
     inkscape:window-width="1680"
     inkscape:window-height="962"
     id="namedview44"
     showgrid="false"
     showguides="false"
     fit-margin-top="0"
     fit-margin-left="0"
     fit-margin-right="0"
     fit-margin-bottom="0"
     inkscape:zoom="0.87055056"
     inkscape:cx="-219.16538"
     inkscape:cy="103.77754"
     inkscape:window-x="648"
     inkscape:window-y="1440"
     inkscape:window-maximized="1"
     inkscape:current-layer="svg2" />
  <title
     id="title4">5 by 3 sigma maze</title>
  <desc
     id="desc6">5 by 3 sigma maze generated by The Maze Generator Website (http://www.mazegenerator.net/).</desc>
  <path
     style="opacity:1;fill:#ffffff;fill-opacity:1;fill-rule:nonzero;stroke:none;stroke-width:1.80442083;stroke-linejoin:miter;stroke-miterlimit:4;stroke-dasharray:none;stroke-opacity:1"
     d="m -0.94814885,-0.3648343 477.95409885,0 0,364.2329643 -477.95409885,0 z"
     id="rect3543"
     inkscape:connector-curvature="0" />
  <flowRoot
     xml:space="preserve"
     id="flowRoot4210"
     style="fill:black;stroke:none;stroke-opacity:1;stroke-width:1px;stroke-linejoin:miter;stroke-linecap:butt;fill-opacity:1;font-family:Sans;font-style:normal;font-weight:normal;font-size:40px;line-height:125%;letter-spacing:0px;word-spacing:0px"><flowRegion
       id="flowRegion4212"><rect
         id="rect4214"
         width="516.91425"
         height="328.52774"
         x="-19.527872"
         y="8.5555029" /></flowRegion><flowPara
       id="flowPara4216" /></flowRoot>  <g
     style="font-style:normal;font-weight:normal;font-size:40px;line-height:125%;font-family:Sans;text-align:center;letter-spacing:0px;word-spacing:0px;text-anchor:middle;fill:#000000;fill-opacity:1;stroke:none;stroke-width:1px;stroke-linecap:butt;stroke-linejoin:miter;stroke-opacity:1"
     id="text4165">
    <path
       d="m 193.5123,153.89032 q 0,-0.26367 0,-0.87891 0,-0.70312 0,-1.40625 0,-0.79101 0,-1.40625 0,-0.70312 0,-0.96679 0,-3.7793 0.35156,-6.67969 0.43945,-2.98828 1.05469,-5.80078 0.70312,-2.8125 1.66992,-5.71289 0.9668,-2.98828 2.02148,-6.67969 0,-0.17578 0,-0.61523 0.0879,-0.52735 0.0879,-0.70313 0.17578,-0.0879 -1.58204,-0.87891 -1.66992,-0.79101 -4.13086,-2.19726 -2.46093,-1.49414 -5.36132,-3.69141 -2.90039,-2.19726 -5.36133,-5.09765 -2.37305,-2.90039 -3.86719,-6.50391 -1.40625,-3.60352 -1.05469,-7.998047 0.0879,0 0.43946,0 0.43945,-0.08789 0.8789,-0.08789 0.52735,-0.08789 0.9668,-0.175781 l 0.52734,0 q 0.61524,1.757813 1.66993,3.955079 1.05468,2.19726 2.54882,4.48242 1.58203,2.28516 3.42774,4.48242 1.8457,2.10938 3.86719,3.86719 2.10937,1.66992 4.30664,2.72461 2.28515,0.9668 4.6582,0.9668 1.58203,-3.51563 2.46094,-5.53711 0.96679,-2.10938 1.49414,-3.25196 0.52734,-1.14257 0.70312,-1.66992 0.17578,-0.61523 0.26367,-1.23047 0.0879,-0.70312 0.17579,-1.58203 0.0879,-0.96679 0.43945,-2.90039 0,-0.35156 0.70312,-0.70312 0.70313,-0.439456 1.40625,-0.527347 0.79102,-0.08789 1.40625,0.175781 0.70313,0.263672 0.70313,1.054686 0,4.83399 -1.05469,9.22852 -1.05469,4.30664 -2.63672,8.4375 -1.58203,4.13086 -3.33984,8.26172 -1.75781,4.04296 -3.07617,8.34961 -1.31836,4.30664 -1.9336,8.96484 -0.52734,4.6582 0.26367,9.93164 -0.52734,0.9668 -1.05468,1.31836 -0.52735,0.43945 -1.40625,0.43945 -0.87891,0 -1.49414,-0.43945 -0.61524,-0.35156 -1.14258,-1.31836 z"
       style="font-style:normal;font-variant:normal;font-weight:normal;font-stretch:normal;font-size:90px;font-family:'Indie Flower';-inkscape-font-specification:'Indie Flower'"
       id="path4143" />
    <path
       d="m 213.81503,136.31219 q 0,-4.83398 2.10938,-8.4375 2.10937,-3.60351 5.53711,-6.06445 3.42773,-2.46094 7.64648,-3.60351 4.30664,-1.23047 8.61328,-1.23047 2.28516,0 4.21875,0.8789 2.02149,0.79102 3.7793,2.28516 1.8457,1.40625 3.25195,3.33984 1.40625,1.84571 2.37305,3.86719 1.05469,2.02149 1.58203,4.13086 0.52734,2.02148 0.52734,3.95508 0,4.48242 -1.75781,7.99805 -1.75781,3.51562 -4.74609,5.97656 -2.98828,2.37304 -6.76758,3.6914 -3.7793,1.23047 -7.73437,1.23047 -4.04297,0 -7.47071,-1.23047 -3.33984,-1.31836 -5.88867,-3.60351 -2.46094,-2.28516 -3.86719,-5.625 -1.40625,-3.42774 -1.40625,-7.5586 z m 4.30664,-0.70312 q 0,2.72461 0.9668,5.27344 1.05469,2.46093 2.8125,4.30664 1.8457,1.8457 4.30664,2.98828 2.46094,1.05469 5.27344,1.05469 1.49414,0.17578 3.60351,-0.43946 2.19727,-0.70312 4.30664,-1.93359 2.19727,-1.31836 4.13086,-3.07617 2.02149,-1.84571 3.33985,-3.95508 1.31836,-2.19727 1.58203,-4.48242 0.35156,-2.37305 -0.79102,-4.65821 -1.05468,-2.37304 -3.95507,-4.48242 -2.9004,-2.19726 -7.99805,-4.04297 -2.90039,0 -6.06445,0.87891 -3.07618,0.79102 -5.625,2.46094 -2.54883,1.66992 -4.21875,4.21875 -1.66993,2.54883 -1.66993,5.88867 z"
       style="font-style:normal;font-variant:normal;font-weight:normal;font-stretch:normal;font-size:90px;font-family:'Indie Flower';-inkscape-font-specification:'Indie Flower'"
       id="path4145" />
    <path
       d="m 289.66464,141.49774 q -2.02148,1.14258 -3.51562,2.8125 -1.40625,1.58203 -2.90039,3.07617 -1.49414,1.40625 -3.33985,2.46094 -1.75781,1.05469 -4.57031,1.05469 -3.16406,0 -5.71289,-1.31836 -2.54883,-1.40625 -4.57031,-3.69141 -1.9336,-2.37304 -3.42774,-5.27343 -1.40625,-2.98829 -2.37304,-6.06446 -0.87891,-3.16406 -1.40625,-6.15234 -0.43946,-3.07617 -0.43946,-5.53711 -0.70312,-4.74609 0.26367,-7.38281 0.9668,-2.72461 2.28516,-3.42774 1.40625,-0.79101 2.37305,0.35156 0.96679,1.05469 0.26367,3.7793 -0.17578,0.35156 -0.26367,1.14258 -0.0879,0.70312 -0.17578,1.49414 -0.0879,0.79102 -0.17578,1.49414 -0.0879,0.70313 -0.0879,0.9668 0,1.8457 0.35157,4.39453 0.35156,2.46094 1.05468,5.18555 0.79102,2.72461 1.9336,5.44921 1.14258,2.63672 2.72461,4.7461 1.58203,2.10937 3.60351,3.42773 2.10938,1.31836 4.57032,1.31836 1.58203,0 3.60351,-1.49414 2.02149,-1.58203 3.7793,-3.6914 1.8457,-2.19727 3.07617,-4.48243 1.31836,-2.28515 1.31836,-3.86718 0,-0.87891 0,-2.90039 0.0879,-2.02149 0.0879,-4.30665 0,-2.28515 -0.0879,-4.30664 0,-2.02148 0,-2.8125 0.52734,-0.8789 1.14258,-1.31836 0.61523,-0.52734 1.49414,-0.52734 1.05469,0 1.75781,1.40625 0.70313,1.40625 1.14258,3.60352 0.43945,2.19726 0.61523,4.74609 0.17578,2.54883 0.26368,4.92188 0.0879,2.37304 0.17578,4.21875 0.0879,1.75781 0.26367,2.37304 0.43945,1.75781 1.23047,3.95508 0.8789,2.19727 1.66992,4.30664 0.79101,2.02149 1.40625,3.7793 0.61523,1.66992 0.61523,2.54883 0,1.31836 -0.79101,1.58203 -0.70313,0.26367 -1.84571,0.26367 -1.40625,0 -2.10937,-0.70313 -0.61523,-0.70312 -0.9668,-1.75781 -0.26367,-1.14258 -0.43945,-2.46094 -0.17578,-1.31836 -0.61523,-2.72461 -0.35157,-1.40625 -1.14258,-2.63671 -0.70313,-1.23047 -2.10938,-2.02149 z"
       style="font-style:normal;font-variant:normal;font-weight:normal;font-stretch:normal;font-size:90px;font-family:'Indie Flower';-inkscape-font-specification:'Indie Flower'"
       id="path4147" />
    <path
       d="m 200.54355,256.54657 q -0.0879,0 -0.17578,0 0,0 -0.0879,0 l -0.17578,0 q -3.86719,3.51562 -6.24024,5.44922 -2.37305,1.93359 -3.7793,2.90039 -1.40625,0.87891 -2.02148,1.05469 -0.61523,0.0879 -0.87891,0.0879 -3.33984,0 -5.80078,-1.84571 -2.37304,-1.93359 -4.04297,-4.92187 -1.58203,-2.98828 -2.63672,-6.76758 -0.96679,-3.86719 -1.49414,-7.64648 -0.52734,-3.7793 -0.79101,-7.11914 -0.17578,-3.33985 -0.17578,-5.625 0,-0.26368 0,-1.84571 0,-1.66992 0.26367,-3.51562 0.26367,-1.84571 0.9668,-3.33985 0.8789,-1.49414 2.28515,-1.49414 0.61524,0 0.87891,1.66993 0.26367,1.66992 0.43945,4.30664 0.26367,2.63671 0.52735,6.06445 0.26367,3.42773 0.52734,7.03125 0.35156,3.60351 0.87891,7.03125 0.61523,3.42773 1.49414,6.15234 0.96679,2.63672 2.28515,4.30664 1.40625,1.58203 3.33985,1.58203 1.58203,0 2.98828,-0.8789 1.49414,-0.87891 2.72461,-2.10938 1.23047,-1.23047 2.19726,-2.54882 1.05469,-1.31836 1.84571,-2.19727 0.52734,-1.23047 0.70312,-2.8125 0.26367,-1.58203 0.26367,-3.25195 0.0879,-1.66993 0,-3.16407 0,-1.49414 -0.0879,-2.54882 0.43945,-1.23047 1.05469,-1.66993 0.61523,-0.52734 1.14258,-0.35156 0.52734,0.17578 1.05468,0.9668 0.52735,0.70312 0.9668,1.93359 0.43945,2.8125 1.58203,6.24024 1.14258,3.42773 2.98828,6.41601 1.9336,2.90039 4.65821,4.92188 2.72461,1.93359 6.32812,1.93359 1.9336,0 3.95508,-0.79101 2.10938,-0.79102 3.69141,-2.19727 1.66992,-1.40625 2.72461,-3.25195 1.05468,-1.84571 1.05468,-3.95508 0,-3.33985 -1.05468,-6.50391 -1.05469,-3.16406 -2.37305,-6.24023 -1.31836,-3.16406 -2.37305,-6.24024 -1.05469,-3.16406 -1.05469,-6.41601 1.14258,-2.46094 2.46094,-2.02149 1.40625,0.35157 2.72461,2.54883 1.40625,2.19727 2.63672,5.71289 1.23047,3.42774 2.19727,7.03125 0.96679,3.51563 1.40625,6.67969 0.52734,3.07617 0.43945,4.57031 0,3.33985 -1.40625,6.32813 -1.40625,2.98828 -3.86719,5.36133 -2.37305,2.37304 -5.53711,3.77929 -3.07617,1.40625 -6.41601,1.40625 -2.63672,0 -5.18555,-1.58203 -2.46094,-1.58203 -4.48242,-3.51562 -1.9336,-1.9336 -3.42774,-3.51563 -1.40625,-1.58203 -2.10937,-1.58203 z"
       style="font-style:normal;font-variant:normal;font-weight:normal;font-stretch:normal;font-size:90px;font-family:'Indie Flower';-inkscape-font-specification:'Indie Flower'"
       id="path4149" />
    <path
       d="m 240.358,236.33173 q 0,-0.35157 0,-1.31836 0,-0.9668 0,-2.02149 0.0879,-1.05469 0.0879,-2.02148 0,-0.9668 0,-1.31836 -0.35156,-2.72461 1.58203,-2.72461 0.87891,0 1.49414,0.43945 0.61524,0.43946 1.14258,1.31836 -0.26367,4.57031 0.35156,8.87695 0.70313,4.21875 1.49415,8.4375 0.8789,4.13086 1.58203,8.34961 0.79101,4.21875 0.79101,8.78907 0,1.23047 -0.79101,2.46093 -0.70313,1.23047 -2.19727,1.23047 -1.14258,0 -2.02148,-1.93359 -0.79102,-2.02149 -1.40625,-5.00977 -0.61524,-3.07617 -1.05469,-6.76757 -0.43945,-3.69141 -0.70313,-7.03125 -0.17578,-3.42774 -0.26367,-6.06446 -0.0879,-2.72461 -0.0879,-3.6914 z m -4.48242,-22.06055 q 0,-1.05469 0.61523,-1.31836 0.61524,-0.35156 1.58204,-0.35156 0.61523,-0.0879 1.58203,0.79101 1.05468,0.79102 1.66992,1.84571 0.70312,1.05468 0.79101,1.93359 0.0879,1.05469 -1.31836,1.23047 l -0.43945,0 q -1.31836,0 -2.19726,-0.17578 -0.87891,-0.17578 -1.40625,-0.52735 -0.43946,-0.43945 -0.70313,-1.23047 -0.17578,-0.79101 -0.17578,-2.19726 z"
       style="font-style:normal;font-variant:normal;font-weight:normal;font-stretch:normal;font-size:90px;font-family:'Indie Flower';-inkscape-font-specification:'Indie Flower'"
       id="path4151" />
    <path
       d="m 253.19003,232.46454 q 0,-0.79102 0.52735,-0.9668 0.61523,-0.26367 1.31836,-0.26367 0.52734,0 0.70312,0.26367 0.26367,0.26367 0.35156,0.61524 0.0879,0.35156 0.26368,0.70312 0.17578,0.26367 0.61523,0.26367 1.23047,0 2.98828,-0.96679 1.75781,-0.9668 3.7793,-2.10938 2.10937,-1.14258 4.39453,-2.10937 2.37305,-0.9668 4.6582,-0.9668 2.98828,0 5.44922,1.58203 2.54883,1.49414 4.48242,4.04297 2.02149,2.54883 3.42774,5.71289 1.40625,3.16406 2.37304,6.50391 0.9668,3.25195 1.40625,6.41601 0.43946,3.07617 0.43946,5.36133 0,0.79102 -0.17578,2.37305 -0.0879,1.58203 -0.43946,3.16406 -0.26367,1.58203 -0.96679,2.8125 -0.70313,1.14258 -1.75782,1.14258 -0.17578,0 -0.61523,0 -0.43945,-0.0879 -0.87891,-0.17578 -0.43945,-0.17579 -0.79101,-0.35157 -0.26367,-0.17578 -0.26367,-0.52734 0.79101,-6.76758 0,-12.65625 -0.79102,-5.97656 -2.54883,-10.45898 -1.75782,-4.48243 -4.30664,-7.11915 -2.54883,-2.63671 -5.44922,-2.63671 -2.72461,0 -5.09766,0.8789 -2.37305,0.87891 -4.13086,2.54883 -1.75781,1.66992 -2.8125,4.04297 -0.96679,2.37305 -0.96679,5.18555 0,2.8125 0.52734,5.625 0.52734,2.72461 1.14258,5.53711 0.70312,2.7246 1.23047,5.5371 0.52734,2.8125 0.52734,5.625 -2.46094,0 -4.13086,-2.02148 -1.66992,-2.02148 -2.72461,-5.18555 -0.9668,-3.16406 -1.58203,-7.11914 -0.52734,-3.95508 -0.79102,-7.73437 -0.17578,-3.86719 -0.17578,-7.20703 0,-3.42774 0,-5.36133 z"
       style="font-style:normal;font-variant:normal;font-weight:normal;font-stretch:normal;font-size:90px;font-family:'Indie Flower';-inkscape-font-specification:'Indie Flower'"
       id="path4153" />
    <path
       d="m 293.35605,262.43524 q 0,-2.63672 1.93359,-3.7793 2.10938,-1.23046 4.7461,-1.23046 0.8789,0 1.58203,0.52734 0.70312,0.52734 1.23047,1.31836 0.52734,0.70312 0.70312,1.58203 0.26367,0.79102 0.26367,1.58203 0,0.9668 -0.70312,1.75781 -0.70313,0.79102 -1.66992,1.40625 -0.9668,0.61524 -2.10938,0.9668 -1.14258,0.26367 -1.93359,0.26367 -2.19727,0 -3.16407,-1.14258 -0.8789,-1.23046 -0.8789,-3.25195 z m 2.72461,-19.77539 q -0.35156,-2.28516 -0.52735,-6.15234 -0.0879,-3.95508 -0.17578,-8.61328 0,-4.7461 0,-9.84375 0.0879,-5.18555 0.0879,-9.84375 0,-4.7461 0,-8.61329 0,-4.04296 -0.17578,-6.32812 l 4.30664,-0.70313 0.0879,1.58204 q 0,1.58203 0,4.13086 0.0879,2.54882 0.0879,5.88867 0.0879,3.33984 0.17579,6.94336 0.0879,3.60351 0.0879,7.29492 0,3.60351 0.0879,6.76758 0.0879,3.16406 0.0879,5.625 0.0879,2.37304 0.17578,3.42773 0,0.17578 0,0.70313 0,0.43945 0,1.14257 0.0879,0.61524 0.0879,1.23047 0,0.61524 0,0.9668 0,0.70312 0,1.66992 0.0879,0.87891 -0.0879,1.75781 -0.0879,0.87891 -0.52735,1.49414 -0.43945,0.52735 -1.49414,0.52735 -0.61523,0 -1.31836,-0.0879 -0.70312,-0.0879 -0.96679,-0.9668 z"
       style="font-style:normal;font-variant:normal;font-weight:normal;font-stretch:normal;font-size:90px;font-family:'Indie Flower';-inkscape-font-specification:'Indie Flower'"
       id="path4155" />
  </g>
</svg>
