<?xml version="1.0" encoding="UTF-8" standalone="no"?>
<svg
   xmlns:dc="http://purl.org/dc/elements/1.1/"
   xmlns:cc="http://creativecommons.org/ns#"
   xmlns:rdf="http://www.w3.org/1999/02/22-rdf-syntax-ns#"
   xmlns:svg="http://www.w3.org/2000/svg"
   xmlns="http://www.w3.org/2000/svg"
   xmlns:sodipodi="http://sodipodi.sourceforge.net/DTD/sodipodi-0.dtd"
   xmlns:inkscape="http://www.inkscape.org/namespaces/inkscape"
   width="476.0578"
   height="363.5033"
   version="1.1"
   id="svg2"
   inkscape:version="0.91 r13725"
   sodipodi:docname="Race Countdown 3.svg">
  <metadata
     id="metadata48">
    <rdf:RDF>
      <cc:Work
         rdf:about="">
        <dc:format>image/svg+xml</dc:format>
        <dc:type
           rdf:resource="http://purl.org/dc/dcmitype/StillImage" />
        <dc:title>5 by 3 sigma maze</dc:title>
      </cc:Work>
    </rdf:RDF>
  </metadata>
  <defs
     id="defs46" />
  <sodipodi:namedview
     pagecolor="#ffffff"
     bordercolor="#666666"
     borderopacity="1"
     objecttolerance="10"
     gridtolerance="10"
     guidetolerance="10"
     inkscape:pageopacity="0"
     inkscape:pageshadow="2"
     inkscape:window-width="1680"
     inkscape:window-height="962"
     id="namedview44"
     showgrid="false"
     showguides="false"
     fit-margin-top="0"
     fit-margin-left="0"
     fit-margin-right="0"
     fit-margin-bottom="0"
     inkscape:zoom="0.87055056"
     inkscape:cx="-223.76018"
     inkscape:cy="103.77754"
     inkscape:window-x="0"
     inkscape:window-y="0"
     inkscape:window-maximized="1"
     inkscape:current-layer="svg2" />
  <title
     id="title4">5 by 3 sigma maze</title>
  <desc
     id="desc6">5 by 3 sigma maze generated by The Maze Generator Website (http://www.mazegenerator.net/).</desc>
  <path
     style="opacity:1;fill:#ffffff;fill-opacity:1;fill-rule:nonzero;stroke:none;stroke-width:1.80442083;stroke-linejoin:miter;stroke-miterlimit:4;stroke-dasharray:none;stroke-opacity:1"
     d="m -0.94815063,-0.36483765 477.95410063,0 0,364.23296765 -477.95410063,0 z"
     id="rect3543" />
  <flowRoot
     xml:space="preserve"
     id="flowRoot4210"
     style="fill:black;stroke:none;stroke-opacity:1;stroke-width:1px;stroke-linejoin:miter;stroke-linecap:butt;fill-opacity:1;font-family:Sans;font-style:normal;font-weight:normal;font-size:40px;line-height:125%;letter-spacing:0px;word-spacing:0px"><flowRegion
       id="flowRegion4212"><rect
         id="rect4214"
         width="516.91425"
         height="328.52774"
         x="-19.527872"
         y="8.5555029" /></flowRegion><flowPara
       id="flowPara4216" /></flowRoot>  <g
     transform="matrix(0.62758981,0,0,0.62758981,204.7852,125.31878)"
     style="font-style:normal;font-weight:normal;font-size:254.49026489px;line-height:125%;font-family:Sans;letter-spacing:0px;word-spacing:0px;fill:#000000;fill-opacity:1;stroke:none;stroke-width:1px;stroke-linecap:butt;stroke-linejoin:miter;stroke-opacity:1"
     id="flowRoot4344">
    <path
       d="m 26.026265,235.32936 q -31.6204157,0 -55.669746,-8.01644 -24.049331,-8.4618 -46.317229,-29.39363 l 14.251455,-66.80369 75.265497,0 q 0,-0.44536 -0.890716,3.1175 -0.445358,3.56287 -1.336074,9.35252 -0.445358,5.78965 -1.3360737,12.91538 -0.445358,7.12573 -0.445358,13.8061 0,18.25967 4.4535797,26.27612 4.898938,7.57108 13.360739,7.57108 9.352518,0 17.368961,-6.23501 8.461802,-6.23501 14.251455,-15.58753 5.789654,-9.35251 8.90716,-20.48646 3.562863,-11.57931 3.562863,-22.2679 0,-20.48647 -10.688591,-30.28434 -10.243233,-10.243238 -25.385404,-10.243238 1.336074,-8.461801 3.117505,-15.142171 1.336074,-5.789653 2.22679,-10.243233 1.336074,-4.898938 1.336074,-5.344296 14.696813,0 24.494689,-4.453579 10.243233,-4.898938 16.478245,-12.915381 6.680369,-8.461802 9.352517,-19.595751 2.672148,-11.579307 2.672148,-24.4946886 0,-5.3442956 -0.890716,-10.6885913 -0.445358,-5.7896536 -2.22679,-10.2432331 -1.781432,-4.898938 -5.344296,-7.571086 -3.117505,-3.117506 -8.907159,-3.117506 -12.024665,0 -23.603973,14.251456 Q 42.949868,3.7432166 34.042709,38.03578 l -76.601571,0 13.360739,-62.795474 q 13.360739,-8.461801 30.7296998,-15.142171 14.6968132,-5.789653 35.1832802,-10.688591 20.931824,-4.898938 47.653302,-4.898938 17.368961,0 34.737921,3.117506 17.36896,2.672148 31.17506,10.243234 14.25145,7.571085 22.71326,20.486466 8.90716,12.9153815 8.90716,32.95649 0,15.142171 -5.3443,26.721478 -4.89894,11.13395 -14.69681,20.041109 -9.79788,8.90716 -23.60398,16.032887 -13.36074,7.125728 -30.7297,13.360739 13.36074,1.336074 24.94005,5.344296 11.57931,4.008222 20.04111,11.133949 8.90716,7.12573 13.8061,17.36896 5.34429,10.24323 5.34429,24.49469 0,19.15039 -10.24323,35.62864 -10.24323,16.47824 -29.39363,28.50291 -18.70503,12.02466 -45.871869,18.70503 -26.721478,6.68037 -60.123326,6.68037 z"
       style="font-style:normal;font-variant:normal;font-weight:normal;font-stretch:normal;font-size:445.35797119px;font-family:'Racing Sans One';-inkscape-font-specification:'Racing Sans One'"
       id="path4163" />
  </g>
</svg>
