<?xml version="1.0" encoding="UTF-8" standalone="no"?>
<svg
   xmlns:dc="http://purl.org/dc/elements/1.1/"
   xmlns:cc="http://creativecommons.org/ns#"
   xmlns:rdf="http://www.w3.org/1999/02/22-rdf-syntax-ns#"
   xmlns:svg="http://www.w3.org/2000/svg"
   xmlns="http://www.w3.org/2000/svg"
   xmlns:sodipodi="http://sodipodi.sourceforge.net/DTD/sodipodi-0.dtd"
   xmlns:inkscape="http://www.inkscape.org/namespaces/inkscape"
   width="476.0578"
   height="363.5033"
   version="1.1"
   id="svg2"
   inkscape:version="0.91 r13725"
   sodipodi:docname="Race Countdown Ready.svg">
  <metadata
     id="metadata48">
    <rdf:RDF>
      <cc:Work
         rdf:about="">
        <dc:format>image/svg+xml</dc:format>
        <dc:type
           rdf:resource="http://purl.org/dc/dcmitype/StillImage" />
        <dc:title>5 by 3 sigma maze</dc:title>
      </cc:Work>
    </rdf:RDF>
  </metadata>
  <defs
     id="defs46" />
  <sodipodi:namedview
     pagecolor="#ffffff"
     bordercolor="#666666"
     borderopacity="1"
     objecttolerance="10"
     gridtolerance="10"
     guidetolerance="10"
     inkscape:pageopacity="0"
     inkscape:pageshadow="2"
     inkscape:window-width="1680"
     inkscape:window-height="962"
     id="namedview44"
     showgrid="false"
     showguides="false"
     fit-margin-top="0"
     fit-margin-left="0"
     fit-margin-right="0"
     fit-margin-bottom="0"
     inkscape:zoom="0.87055056"
     inkscape:cx="431.75205"
     inkscape:cy="103.77754"
     inkscape:window-x="0"
     inkscape:window-y="0"
     inkscape:window-maximized="1"
     inkscape:current-layer="svg2" />
  <title
     id="title4">5 by 3 sigma maze</title>
  <desc
     id="desc6">5 by 3 sigma maze generated by The Maze Generator Website (http://www.mazegenerator.net/).</desc>
  <path
     style="opacity:1;fill:#ffffff;fill-opacity:1;fill-rule:nonzero;stroke:none;stroke-width:1.80442083;stroke-linejoin:miter;stroke-miterlimit:4;stroke-dasharray:none;stroke-opacity:1"
     d="m -0.94815063,-0.36483765 477.95410063,0 0,364.23296765 -477.95410063,0 z"
     id="rect3543" />
  <flowRoot
     xml:space="preserve"
     id="flowRoot4210"
     style="fill:black;stroke:none;stroke-opacity:1;stroke-width:1px;stroke-linejoin:miter;stroke-linecap:butt;fill-opacity:1;font-family:Sans;font-style:normal;font-weight:normal;font-size:40px;line-height:125%;letter-spacing:0px;word-spacing:0px"><flowRegion
       id="flowRegion4212"><rect
         id="rect4214"
         width="516.91425"
         height="328.52774"
         x="-19.527872"
         y="8.5555029" /></flowRegion><flowPara
       id="flowPara4216" /></flowRoot>  <g
     transform="matrix(0.90432807,0,0,0.90432807,91.019825,269.68859)"
     style="font-style:normal;font-weight:normal;font-size:254.49026489px;line-height:125%;font-family:Sans;letter-spacing:0px;word-spacing:0px;fill:#000000;fill-opacity:1;stroke:none;stroke-width:1px;stroke-linecap:butt;stroke-linejoin:miter;stroke-opacity:1"
     id="flowRoot4344">
    <path
       d="m 11.154299,-130.00831 q 0,8.46094 -4.7323906,15.63123 -4.7323906,7.17029 -15.6312297,10.89884 l 16.6350702,42.878328 -31.9794879,0 -12.619709,-39.723398 -1.577463,0 -8.460941,39.723398 -30.975648,0 19.35978,-91.062668 37.715719,0 q 6.596666,0 12.4763028,0.86043 5.8796369,0.71703 10.1818102,3.15493 4.4455791,2.29449 7.0268831,6.59667 2.5813039,4.15876 2.5813039,11.04224 z m -41.300864,20.50703 q 3.72855,0 6.309854,-2.4379 2.72471,-2.5813 4.302174,-6.16645 1.720869,-3.58514 2.437898,-7.60051 0.717029,-4.15876 0.717029,-7.17028 0,-3.72855 -1.290652,-6.30986 -1.290652,-2.72471 -5.592825,-2.72471 l -6.45326,0 -7.170289,32.40971 6.740071,0 z"
       style="font-style:normal;font-variant:normal;font-weight:normal;font-stretch:normal;font-size:143.40577698px;font-family:'Racing Sans One';-inkscape-font-specification:'Racing Sans One'"
       id="path4144" />
    <path
       d="m 41.303124,-89.424474 q -0.573623,3.154928 -0.860435,6.023043 -0.143405,2.868116 -0.143405,5.162608 0,1.290652 0.143405,2.868116 0.143406,1.577463 0.573623,3.011521 0.573624,1.290652 1.434058,2.294492 1.003841,0.860435 2.72471,0.860435 1.290652,0 2.868116,-0.860435 1.720869,-0.860434 3.298332,-2.437898 1.72087,-1.577463 3.154928,-3.871956 1.577463,-2.294492 2.437898,-5.162608 l 23.518547,0 -3.72855,15.344418 q -2.868116,1.864275 -6.596666,3.154927 -3.72855,1.290652 -7.887318,2.151087 -4.158767,0.717029 -8.46094,1.003841 -4.302174,0.430217 -8.17413,0.430217 -7.170288,0 -13.336737,-1.290652 -6.166448,-1.290652 -10.755433,-4.445579 -4.588985,-3.154927 -7.313695,-8.317535 -2.581304,-5.306014 -2.581304,-13.049926 0,-7.026883 2.151087,-13.766952 2.294492,-6.74007 7.4571,-11.90268 5.306014,-5.30602 14.053766,-8.46094 8.891159,-3.15493 22.08449,-3.15493 14.340578,0 21.510867,4.44558 7.313694,4.44558 7.313694,13.91036 0,3.87196 -1.147246,8.46094 -1.147246,4.445579 -3.441739,7.600506 l -40.297023,0 z m 19.072968,-17.065286 q 0,-4.44558 -1.434057,-6.02304 -1.434058,-1.57747 -3.441739,-1.57747 -2.294492,0 -4.302173,1.57747 -1.864275,1.43405 -3.441739,4.01536 -1.577464,2.4379 -2.868116,5.73623 -1.290652,3.154926 -2.151086,6.740071 l 16.348258,0 q 0.286812,-1.72087 0.573624,-3.585145 0.286811,-1.577466 0.430217,-3.441736 0.286811,-1.86428 0.286811,-3.44174 z"
       style="font-style:normal;font-variant:normal;font-weight:normal;font-stretch:normal;font-size:143.40577698px;font-family:'Racing Sans One';-inkscape-font-specification:'Racing Sans One'"
       id="path4146" />
    <path
       d="m 98.790914,-116.95838 q 7.313696,-3.58515 14.914196,-5.16261 7.74392,-1.72087 17.2087,-1.72087 9.17797,0 15.20101,1.43406 6.02304,1.43406 9.60819,4.15877 3.58514,2.72471 5.0192,6.45326 1.43406,3.72855 1.43406,8.46094 0,2.72471 -0.43022,5.879633 -0.28681,3.154927 -0.71703,5.306014 l -6.74007,31.549271 -23.08833,0 -2.5813,-9.17797 -0.86044,0 q -4.58898,5.019202 -10.75543,7.743912 -6.02304,2.581304 -12.04609,2.581304 -3.44174,0 -6.740069,-1.003841 -3.298333,-1.00384 -5.879637,-3.011521 -2.581304,-2.151087 -4.158767,-5.306014 -1.577464,-3.298333 -1.577464,-7.887317 0,-7.457101 4.015362,-11.759274 4.158767,-4.445579 10.755435,-6.596666 6.74007,-2.294492 15.0576,-2.868115 8.46095,-0.573623 16.92189,-0.573623 0.28681,-1.434058 0.71703,-4.015363 0.43021,-2.72471 0.43021,-4.73239 0,-2.5813 -1.43406,-4.73239 -1.29065,-2.29449 -5.59282,-2.29449 -5.0192,0 -7.4571,3.01152 -2.29449,2.86811 -3.01152,7.02688 l -20.937246,0 2.72471,-12.76311 z m 32.983326,25.239414 -2.5813,0 q -4.15877,0 -7.17029,1.147246 -2.86812,1.003841 -4.73239,2.72471 -1.72087,1.720869 -2.5813,3.871956 -0.86044,2.151087 -0.86044,4.302173 0,3.441739 1.72087,5.162608 1.86428,1.72087 4.30217,1.72087 3.01152,0 5.87964,-2.151087 3.01152,-2.151087 3.72855,-5.736231 l 2.29449,-11.042245 z"
       style="font-style:normal;font-variant:normal;font-weight:normal;font-stretch:normal;font-size:143.40577698px;font-family:'Racing Sans One';-inkscape-font-specification:'Racing Sans One'"
       id="path4148" />
    <path
       d="m 227.10772,-156.96859 29.39818,0 -20.50703,96.368678 -23.23173,0 -2.58131,-9.17797 -1.00384,0 q -0.86043,1.290652 -2.72471,3.154927 -1.72087,1.720869 -4.44558,3.441739 -2.72471,1.577463 -6.45326,2.581304 -3.72855,1.147246 -8.60434,1.147246 -5.0192,0 -8.60435,-1.434058 -3.44174,-1.577463 -5.73623,-4.158767 -2.15109,-2.581304 -3.15493,-6.166449 -1.00384,-3.72855 -1.00384,-8.030723 0,-1.864275 0.28681,-5.879637 0.28682,-4.158768 1.29066,-9.034564 1.14724,-5.019202 3.15492,-10.181806 2.15109,-5.30602 5.59283,-9.60819 3.58514,-4.30217 8.74775,-7.02688 5.16261,-2.86812 12.4763,-2.86812 2.2945,0 4.8758,0.43022 2.5813,0.43021 4.8758,1.57746 2.43789,1.14725 4.30217,3.29833 1.86428,2.15109 2.72471,5.59283 l 1.00384,0 9.32138,-44.02557 z m -17.49551,47.1805 q -3.44174,0 -5.73623,3.87195 -2.29449,3.72855 -3.72855,8.747754 -1.43406,5.019203 -2.15109,10.038405 -0.57362,5.019202 -0.57362,7.4571 0,2.868116 0.86043,4.875797 0.86044,1.864275 3.29834,1.864275 1.43406,0 2.72471,-0.573623 1.43405,-0.717029 2.5813,-1.577464 1.29065,-1.00384 2.15109,-2.007681 0.86043,-1.00384 1.43406,-1.720869 l 5.59282,-26.099854 q -1.00384,-1.57746 -2.72471,-3.15492 -1.57746,-1.72087 -3.72855,-1.72087 z"
       style="font-style:normal;font-variant:normal;font-weight:normal;font-stretch:normal;font-size:143.40577698px;font-family:'Racing Sans One';-inkscape-font-specification:'Racing Sans One'"
       id="path4150" />
    <path
       d="m 286.35221,-122.2644 4.30217,42.161302 22.65812,-42.161302 15.20101,0 -34.56079,61.664488 q -5.16261,9.034564 -10.46862,13.91036 -5.30602,4.875796 -11.61587,7.170289 -6.16645,2.294492 -13.76696,2.581304 -7.4571,0.430217 -17.06528,0.430217 l 2.15108,-9.894998 q 4.73239,0 8.74775,-0.143406 4.15877,-0.143406 6.59667,-0.860435 3.29833,-0.860435 4.73239,-3.154927 1.43406,-2.151087 1.43406,-6.45326 0,-2.868115 -0.57362,-6.596666 -0.43022,-3.72855 -1.00385,-7.887317 l -7.02688,-50.765649 30.25862,0 z"
       style="font-style:normal;font-variant:normal;font-weight:normal;font-stretch:normal;font-size:143.40577698px;font-family:'Racing Sans One';-inkscape-font-specification:'Racing Sans One'"
       id="path4152" />
    <path
       d="m 371.47474,-89.424474 -21.51086,0 3.58514,-21.224056 q 5.30602,-1.29065 9.46478,-4.30217 4.30218,-3.01152 7.3137,-7.02688 3.01152,-4.01537 4.58898,-8.60435 1.57747,-4.73239 1.57747,-9.32138 0,-3.72855 -1.00384,-5.87963 -1.00384,-2.15109 -3.87196,-2.15109 -2.72471,0 -5.0192,1.86427 -2.2945,1.72087 -4.30218,4.7324 -1.86427,3.01152 -3.44173,6.88347 -1.57747,3.87196 -2.72471,7.88732 l -21.08065,0 4.44558,-21.51087 q 7.31369,-6.16644 15.20101,-8.03072 8.03072,-1.86427 15.77463,-1.86427 32.83993,0 32.83993,23.37514 0,6.74007 -2.86812,11.90268 -2.86811,5.0192 -7.31369,8.74775 -4.30218,3.72855 -9.46479,6.16645 -5.0192,2.29449 -9.46478,3.58514 l -2.72471,14.770796 z m -27.24709,19.503186 q 0,-3.154927 1.29065,-5.449419 1.43406,-2.437899 3.58514,-4.015362 2.15109,-1.577464 4.8758,-2.294493 2.86811,-0.717028 5.87964,-0.717028 5.1626,0 8.60434,2.581304 3.44174,2.581303 3.44174,7.887317 0,3.011522 -1.29065,5.306014 -1.29065,2.294492 -3.44174,3.871956 -2.15109,1.577464 -5.0192,2.437898 -2.72471,0.860435 -5.59283,0.860435 -5.44942,0 -8.89116,-2.581304 -3.44173,-2.581304 -3.44173,-7.887318 z"
       style="font-style:normal;font-variant:normal;font-weight:normal;font-stretch:normal;font-size:143.40577698px;font-family:'Racing Sans One';-inkscape-font-specification:'Racing Sans One'"
       id="path4154" />
  </g>
</svg>
