<?xml version="1.0" encoding="UTF-8" standalone="no"?>
<svg
   xmlns:dc="http://purl.org/dc/elements/1.1/"
   xmlns:cc="http://creativecommons.org/ns#"
   xmlns:rdf="http://www.w3.org/1999/02/22-rdf-syntax-ns#"
   xmlns:svg="http://www.w3.org/2000/svg"
   xmlns="http://www.w3.org/2000/svg"
   xmlns:sodipodi="http://sodipodi.sourceforge.net/DTD/sodipodi-0.dtd"
   xmlns:inkscape="http://www.inkscape.org/namespaces/inkscape"
   width="476.0578"
   height="363.5033"
   version="1.1"
   id="svg2"
   inkscape:version="0.91 r13725"
   sodipodi:docname="Race Countdown GO.svg">
  <metadata
     id="metadata48">
    <rdf:RDF>
      <cc:Work
         rdf:about="">
        <dc:format>image/svg+xml</dc:format>
        <dc:type
           rdf:resource="http://purl.org/dc/dcmitype/StillImage" />
        <dc:title>5 by 3 sigma maze</dc:title>
      </cc:Work>
    </rdf:RDF>
  </metadata>
  <defs
     id="defs46" />
  <sodipodi:namedview
     pagecolor="#ffffff"
     bordercolor="#666666"
     borderopacity="1"
     objecttolerance="10"
     gridtolerance="10"
     guidetolerance="10"
     inkscape:pageopacity="0"
     inkscape:pageshadow="2"
     inkscape:window-width="1680"
     inkscape:window-height="962"
     id="namedview44"
     showgrid="false"
     showguides="false"
     fit-margin-top="0"
     fit-margin-left="0"
     fit-margin-right="0"
     fit-margin-bottom="0"
     inkscape:zoom="0.87055056"
     inkscape:cx="-115.58983"
     inkscape:cy="103.77754"
     inkscape:window-x="0"
     inkscape:window-y="0"
     inkscape:window-maximized="1"
     inkscape:current-layer="svg2" />
  <title
     id="title4">5 by 3 sigma maze</title>
  <desc
     id="desc6">5 by 3 sigma maze generated by The Maze Generator Website (http://www.mazegenerator.net/).</desc>
  <path
     style="opacity:1;fill:#ffffff;fill-opacity:1;fill-rule:nonzero;stroke:none;stroke-width:1.80442083;stroke-linejoin:miter;stroke-miterlimit:4;stroke-dasharray:none;stroke-opacity:1"
     d="m -0.94815063,-0.36483765 477.95410063,0 0,364.23296765 -477.95410063,0 z"
     id="rect3543" />
  <flowRoot
     xml:space="preserve"
     id="flowRoot4210"
     style="fill:black;stroke:none;stroke-opacity:1;stroke-width:1px;stroke-linejoin:miter;stroke-linecap:butt;fill-opacity:1;font-family:Sans;font-style:normal;font-weight:normal;font-size:40px;line-height:125%;letter-spacing:0px;word-spacing:0px"><flowRegion
       id="flowRegion4212"><rect
         id="rect4214"
         width="516.91425"
         height="328.52774"
         x="-19.527872"
         y="8.5555029" /></flowRegion><flowPara
       id="flowPara4216" /></flowRoot>  <g
     transform="matrix(0.62758981,0,0,0.62758981,49.644063,129.09206)"
     style="font-style:normal;font-weight:normal;font-size:254.49026489px;line-height:125%;font-family:Sans;letter-spacing:0px;word-spacing:0px;fill:#000000;fill-opacity:1;stroke:none;stroke-width:1px;stroke-linecap:butt;stroke-linejoin:miter;stroke-opacity:1"
     id="flowRoot4344">
    <path
       d="m 79.91458,102.61269 115.34771,0 -25.83076,129.15381 -52.55224,0 -8.4618,-28.50291 -1.78143,0 q -11.579309,13.36074 -27.612196,22.71325 -15.587529,9.35252 -40.972934,9.35252 -19.59575,0 -37.85542707,-6.23501 -17.81431893,-6.68037 -32.06577393,-20.48647 -13.806097,-14.25145 -22.267899,-36.96471 -8.461801,-22.71325 -8.461801,-54.77903 0,-34.73792 10.688591,-65.912978 10.688592,-31.175058 32.065774,-54.7790309 21.3771828,-24.0493301 53.442957,-37.8554271 32.065774,-13.806098 74.820139,-13.806098 32.95649,0 57.45118,7.571086 24.49469,7.571086 46.31723,16.923603 l -16.92361,86.399446 -75.26549,0 q 0.44536,-4.898937 1.33607,-11.579307 0.89072,-6.68037 1.33608,-13.806097 0.44535,-7.571086 0.89071,-14.696813 0.44536,-7.1257276 0.44536,-12.4700233 0,-3.56286376 -0.44536,-8.0164435 -0.44536,-4.8989372 -2.22679,-9.3525172 -1.78143,-4.45358 -5.34429,-7.125728 -3.56287,-3.117506 -10.24324,-3.117506 -11.579305,0 -21.377181,9.797876 -9.352517,9.3525173 -16.923602,25.385404 -7.571086,15.587529 -13.36074,35.628638 -5.344295,20.041109 -9.352517,40.972933 -3.562864,20.486463 -5.789654,40.527573 -1.781431,19.59575 -1.781431,34.29257 0,4.45358 0.445358,11.13395 0.445357,6.68037 2.672147,13.36073 2.672148,6.23502 7.125728,11.13395 4.898938,4.45358 13.806097,4.45358 14.696813,0 28.50291,-16.03288 13.806095,-16.03289 20.931825,-53.44296 l -37.41007,0 6.68037,-29.83898 z"
       style="font-style:normal;font-variant:normal;font-weight:normal;font-stretch:normal;font-size:445.35797119px;font-family:'Racing Sans One';-inkscape-font-specification:'Racing Sans One'"
       id="path4163" />
    <path
       d="m 391.0319,-55.489394 q 38.30079,0 61.90476,9.797876 24.04933,9.797875 37.85543,30.284342 8.90716,13.806097 13.8061,31.175058 4.89893,17.368961 4.89893,40.082217 0,19.595751 -3.56286,39.191502 -3.56286,19.595749 -10.24323,37.855429 -6.23502,17.81432 -15.58753,33.8472 -8.90716,15.58753 -20.04111,27.6122 -20.93183,22.71325 -48.54402,32.06577 -27.16684,8.90716 -67.24905,8.90716 -38.74615,0 -62.35012,-8.01644 -23.60397,-8.01645 -37.41007,-25.83076 -9.79788,-12.47003 -15.58753,-31.62042 -5.34429,-19.15039 -5.34429,-48.09866 0,-49.434736 17.36896,-88.180879 17.81432,-39.1915017 50.32545,-61.904758 19.59575,-13.806097 43.64508,-20.486467 24.04933,-6.68037 56.1151,-6.68037 z M 340.70645,204.1543 q 10.24324,0 19.15039,-8.90716 9.35252,-9.35251 16.92361,-24.49468 8.01644,-15.58753 14.25145,-35.18328 6.68037,-19.59575 11.13395,-40.527579 4.45358,-20.931825 6.68037,-41.418292 2.67215,-20.931824 2.67215,-37.855427 0,-23.1586146 -4.89894,-31.620416 -4.45358,-8.90716 -13.36074,-8.90716 -10.24323,0 -19.59575,8.90716 -9.35252,8.9071593 -17.81432,24.0493304 -8.01644,14.6968126 -14.69681,34.2925636 -6.23501,19.150393 -11.13395,39.63686 -4.45358,20.48647 -7.12573,40.52757 -2.22679,20.04111 -2.22679,36.96472 0,25.3854 5.3443,35.18328 5.78965,9.35251 14.69681,9.35251 z"
       style="font-style:normal;font-variant:normal;font-weight:normal;font-stretch:normal;font-size:445.35797119px;font-family:'Racing Sans One';-inkscape-font-specification:'Racing Sans One'"
       id="path4165" />
    <path
       d="m 572.09078,-67.514059 90.85303,0 -57.00582,209.763609 -63.24084,0 29.39363,-209.763609 z M 522.65605,202.81823 q 0,-9.35252 4.00822,-16.47825 4.00822,-7.57108 10.24323,-12.47002 6.68037,-4.89894 14.69681,-7.12573 8.4618,-2.67214 17.36896,-2.67214 16.47825,0 27.6122,8.01644 11.57931,8.01644 11.57931,24.49469 0,9.35252 -4.00823,16.9236 -3.56286,7.12573 -10.24323,12.02467 -6.23501,4.89893 -14.69681,7.12572 -8.01645,2.67215 -17.36896,2.67215 -16.47825,0 -28.05756,-8.01644 -11.13394,-8.01645 -11.13394,-24.49469 z"
       style="font-style:normal;font-variant:normal;font-weight:normal;font-stretch:normal;font-size:445.35797119px;font-family:'Racing Sans One';-inkscape-font-specification:'Racing Sans One'"
       id="path4167" />
  </g>
</svg>
